<svg xmlns="http://www.w3.org/2000/svg" xmlns:xlink="http://www.w3.org/1999/xlink" width="247" height="81" viewBox="0 0 247 81">
  <defs>
    <filter id="사각형_12" x="0" y="0" width="247" height="81" filterUnits="userSpaceOnUse">
      <feOffset dx="3" dy="3" input="SourceAlpha"/>
      <feGaussianBlur stdDeviation="3" result="blur"/>
      <feFlood flood-opacity="0.161"/>
      <feComposite operator="in" in2="blur"/>
      <feComposite in="SourceGraphic"/>
    </filter>
    <clipPath id="clip-path">
      <rect id="사각형_2763" data-name="사각형 2763" width="23.511" height="28.839" fill="none"/>
    </clipPath>
  </defs>
  <g id="그룹_812" data-name="그룹 812" transform="translate(-963 -577)">
    <g transform="matrix(1, 0, 0, 1, 963, 577)" filter="url(#사각형_12)">
      <rect id="사각형_12-2" data-name="사각형 12" width="229" height="63" rx="31.5" transform="translate(6 6)" fill="#fff"/>
    </g>
    <text id="Apple_Store" data-name="Apple Store" transform="translate(1051 622)" fill="#999" font-size="18" font-family="S-CoreDream-5Medium, 'S-Core Dream \35 '" font-weight="500" letter-spacing="0.02em"><tspan x="0" y="0">Apple Store</tspan></text>
    <g id="그룹_669" data-name="그룹 669" transform="translate(1015 600)">
      <g id="그룹_668" data-name="그룹 668" clip-path="url(#clip-path)">
        <path id="패스_719" data-name="패스 719" d="M247.572,2.51A6.173,6.173,0,0,1,252.1,0a6.159,6.159,0,0,1-1.491,4.61,4.87,4.87,0,0,1-4.295,2.02,5.355,5.355,0,0,1,1.256-4.12" transform="translate(-234.6 0)" fill="#3d3d3f" fill-rule="evenodd"/>
        <path id="패스_720" data-name="패스 720" d="M11.957,147.719c.975,0,2.784-1.34,5.139-1.34a6.437,6.437,0,0,1,5.648,2.884,6.262,6.262,0,0,0-3.119,5.464,6.422,6.422,0,0,0,3.885,5.869s-2.716,7.645-6.384,7.645c-1.685,0-2.995-1.136-4.77-1.136-1.809,0-3.6,1.178-4.774,1.178C4.232,168.283,0,161.032,0,155.2c0-5.735,3.582-8.744,6.942-8.744,2.184,0,3.879,1.26,5.015,1.26" transform="translate(0 -139.444)" fill="#3d3d3f" fill-rule="evenodd"/>
      </g>
    </g>
  </g>
</svg>
