<svg id="그룹_458" data-name="그룹 458" xmlns="http://www.w3.org/2000/svg" width="42.972" height="19.449" viewBox="0 0 42.972 19.449">
  <path id="패스_710" data-name="패스 710" d="M74.454,143.165a4.471,4.471,0,0,0-2.86,1.322v-5.331H68.232v14.013h3.4v-1.1a3.225,3.225,0,0,0,2.826,1.448,4.957,4.957,0,0,0,4.74-5.23S79.018,143.165,74.454,143.165Zm-.743,7.393a2.16,2.16,0,1,1,2.16-2.16A2.161,2.161,0,0,1,73.711,150.558Z" transform="translate(-68.232 -138.842)" fill="#fff"/>
  <path id="패스_711" data-name="패스 711" d="M72.139,139.054V142.3s1.535-.068,1.535,2.789v8.3h3.242v-9.063S77.054,139.054,72.139,139.054Z" transform="translate(-60.099 -139.054)" fill="#fff"/>
  <path id="패스_712" data-name="패스 712" d="M80.015,140.471s-5.556,0-5.556,5.19c0,0-.182,5.119,5.556,5.119,0,0,5.683-.009,5.683-5.119C85.7,145.661,85.882,140.471,80.015,140.471Zm0,7.35a2.16,2.16,0,1,1,2.16-2.16A2.161,2.161,0,0,1,80.015,147.821Z" transform="translate(-55.272 -136.104)" fill="#fff"/>
  <path id="패스_713" data-name="패스 713" d="M86.235,140.811v.94a3.681,3.681,0,0,0-2.823-1.279s-4.755-.2-4.755,5.153c0,0-.055,4.989,4.626,4.989a3.847,3.847,0,0,0,2.952-1.282v.786a2.137,2.137,0,0,1-2.142,2.456h-.81v2.98h1.307A4.882,4.882,0,0,0,89.5,150.3v-9.489Zm-2.009,7.011a2.16,2.16,0,1,1,2.16-2.16A2.161,2.161,0,0,1,84.226,147.822Z" transform="translate(-46.53 -136.105)" fill="#fff"/>
</svg>
