<?xml version="1.0" encoding="utf-8"?>
<!-- Generator: Adobe Illustrator 26.2.1, SVG Export Plug-In . SVG Version: 6.00 Build 0)  -->
<svg version="1.1" id="Layer_1" xmlns="http://www.w3.org/2000/svg" xmlns:xlink="http://www.w3.org/1999/xlink" x="0px" y="0px"
	 width="313px" height="85.3px" viewBox="0 0 313 85.3" style="enable-background:new 0 0 313 85.3;" xml:space="preserve">
<style type="text/css">
	.st0{opacity:0.47;}
	.st1{clip-path:url(#SVGID_00000121255598433198476610000016004174514644196283_);}
	.st2{fill:#333333;}
	.st3{fill:#FFFFFF;}
</style>
<g>
	<g id="그룹_802_00000176040290475074789820000006507636054620159366_" class="st0">
		<g>
			<defs>
				<rect id="SVGID_1_" x="1" y="1" width="311" height="83.3"/>
			</defs>
			<clipPath id="SVGID_00000183218811044652962660000010420606104536876675_">
				<use xlink:href="#SVGID_1_"  style="overflow:visible;"/>
			</clipPath>
			
				<g id="그룹_801_00000132078863506686088010000014369389476751985318_" style="clip-path:url(#SVGID_00000183218811044652962660000010420606104536876675_);">
				<path id="패스_836_00000094576411378945843310000005191484559634431157_" class="st2" d="M280.6,1H32.4C15.1,1,1,15.1,1,32.4
					l0,0c0,17.3,14.1,31.4,31.4,31.4h114.9l9.2,20.5l9.2-20.5h114.9c17.3,0,31.4-14.1,31.4-31.4c0,0,0,0,0,0l0,0
					C312,15.1,297.9,1,280.6,1"/>
			</g>
		</g>
	</g>
	<g>
		<path class="st3" d="M40.9,25.6v-1.9h9.4v1.9h-3.6v0.9c0,3.1,1.7,4.5,3.9,5v1.9c-2.2-0.4-4-1.5-5-3.1c-0.9,1.6-2.8,2.9-5,3.3v-2
			c2.3-0.5,3.9-2.1,3.9-5.2v-0.9H40.9z M53.4,41.9V37H41.8v-1.9h13.8v6.8H53.4z M55.6,34h-2.2v-4.7h-3.7v-1.9h3.7v-3.9h2.2V34z"/>
		<path class="st3" d="M68.5,33.1h-8.4v-5.7h6.7v-2h-6.7v-1.8H69v5.6h-6.7v2.1H69c1.7,0,2.8-0.3,3.6-0.8v-7h2.2v10.2h-2.2v-1.5
			C71.9,32.9,70.5,33.1,68.5,33.1z M72.6,36.5v-1.8h2.2v7.2H61.2v-7.2h2.2v1.8H72.6z M72.6,38.3h-9.2V40h9.2V38.3z"/>
		<path class="st3" d="M88.9,26.5H78.7v-1.8h4.1V23H85v1.7h3.9V26.5z M79.2,30.8c0-1.1,0.5-1.9,1.3-2.5c0.8-0.6,2-0.9,3.3-0.9
			c1.3,0,2.5,0.3,3.3,0.9c0.8,0.6,1.3,1.4,1.3,2.5c0,1.1-0.5,1.9-1.3,2.5c-0.8,0.6-2,0.9-3.3,0.9c-1.4,0-2.6-0.3-3.4-0.9
			C79.7,32.6,79.2,31.8,79.2,30.8z M80.2,38.6c0-1.1,0.5-1.8,1.4-2.4c1.3-0.8,3.3-1,5.7-1c2.4,0,4.5,0.3,5.7,1
			c0.9,0.5,1.4,1.3,1.4,2.4c0,1.1-0.5,1.8-1.4,2.4c-1.3,0.8-3.3,1-5.7,1c-2.4,0-4.4-0.3-5.7-1C80.7,40.5,80.2,39.7,80.2,38.6z
			 M81.3,30.8c0,0.5,0.2,0.9,0.6,1.1c0.5,0.3,1.1,0.5,1.9,0.5c0.8,0,1.5-0.2,2-0.6c0.3-0.3,0.5-0.6,0.5-1.1s-0.2-0.9-0.6-1.1
			c-0.5-0.4-1.2-0.5-1.9-0.5c-0.8,0-1.5,0.2-1.9,0.5C81.6,29.9,81.3,30.3,81.3,30.8z M82.3,38.6c0,0.4,0.2,0.7,0.6,0.9
			c0.8,0.5,2.4,0.7,4.3,0.7c2,0,3.5-0.2,4.3-0.7c0.4-0.2,0.6-0.5,0.6-0.9c0-0.4-0.2-0.7-0.6-0.9c-0.8-0.5-2.3-0.7-4.3-0.7
			c-2,0-3.5,0.2-4.3,0.7C82.6,38,82.3,38.3,82.3,38.6z M89,29.2v-1.8h2.8v-3.9H94v11.2h-2.2v-2H89v-1.8h2.8v-1.7H89z"/>
		<path class="st3" d="M106.2,26.9h3v-3.2h2v10h-7.1v-10h2V26.9z M112,38.7c-1.4,1.6-4.1,2.8-7.5,3.1V40c3.7-0.4,6.4-2.2,6.4-4.6
			v-0.5h2.2v0.5c0,2.4,2.6,4.1,6.4,4.6v1.9C116.1,41.5,113.4,40.3,112,38.7z M109.3,31.9v-3.2h-3v3.2H109.3z M119.3,34.7h-2.1v-5.1
			h-2V34h-2.1V23.6h2.1v4.1h2v-4.2h2.1V34.7z"/>
		<path class="st3" d="M123.4,25.7v-1.9h9.8v1.9h-3.8v4.9c0,4.8,1.9,6.8,4,7.8v2c-2.3-0.8-4.2-2.5-5.1-4.5c-0.9,1.9-2.9,3.7-5.1,4.5
			v-2c2.1-1,4-3,4-7.8v-4.9H123.4z M138.2,23.5v18.1H136V23.5H138.2z"/>
		<path class="st3" d="M148.8,29.7c0-0.8,0.4-1.5,1.1-1.9c0.9-0.5,2.2-0.8,3.7-0.8c1.5,0,2.7,0.3,3.6,0.8c0.7,0.5,1.2,1.1,1.2,1.9
			c0,0.8-0.4,1.4-1.1,1.9c-0.7,0.4-1.6,0.7-2.7,0.8v1.3h2.9c1.6,0,2.8-0.3,3.5-0.8v-9.4h2.2V36H161v-1.5c-0.7,0.6-2,0.9-4,0.9h-9.1
			v-1.8h4.6v-1.3c-0.9-0.1-1.8-0.3-2.4-0.7C149.3,31.2,148.8,30.6,148.8,29.7z M152.6,23h2.2v1.6h4.2v1.6h-10.6v-1.6h4.2V23z
			 M161,41.9v-3.1h-11.6v-1.8h13.8v4.8H161z M150.8,29.7c0,0.3,0.2,0.5,0.4,0.7c0.5,0.3,1.3,0.4,2.4,0.4c1,0,1.9-0.1,2.4-0.4
			c0.3-0.2,0.4-0.4,0.4-0.7c0-0.3-0.2-0.5-0.4-0.7c-0.5-0.3-1.3-0.4-2.4-0.4c-1,0-1.8,0.1-2.3,0.4C151,29.2,150.8,29.4,150.8,29.7z"
			/>
		<path class="st3" d="M167.1,34.1v-1.9h16.3v1.9H167.1z M180.1,41.9V38h-11.9v-1.9h14.1v5.7H180.1z M182.3,25.5h-11.8v2.9h11.9v1.8
			h-14.1v-6.6h14V25.5z"/>
		<path class="st3" d="M190.2,33.9v-1.6h-3.9v-1.8h16.3v1.8h-3.9v1.6h2.7v4.8h-11.8V40h12.2v1.8h-14.4V37h11.8v-1.3h-11.8v-1.8
			H190.2z M187.2,26.4c0-0.8,0.3-1.3,0.9-1.8c1.1-0.8,3.3-1.1,6.5-1.1c3.2,0,5.3,0.3,6.4,1.1c0.6,0.4,0.9,1,0.9,1.8
			c0,0.7-0.3,1.3-0.9,1.8c-1.1,0.8-3.2,1.1-6.4,1.1c-3.2,0-5.3-0.3-6.5-1.1C187.5,27.7,187.2,27.1,187.2,26.4z M189.4,26.4
			c0,0.2,0.1,0.4,0.4,0.6c0.6,0.4,2.2,0.5,4.8,0.5s4.2-0.1,4.8-0.5c0.2-0.2,0.4-0.4,0.4-0.6c0-0.2-0.1-0.4-0.4-0.6
			c-0.6-0.4-2.2-0.5-4.8-0.5s-4.2,0.1-4.8,0.5C189.5,25.9,189.4,26.1,189.4,26.4z M196.7,33.9v-1.6h-4.3v1.6H196.7z"/>
		<path class="st3" d="M216.2,40.4V27.1l-3.7,1.6v-2.2l4-1.8h1.9v15.7H216.2z"/>
		<path class="st3" d="M226.6,32.9c-2.2,0-3.3-1.5-3.3-4.2c0-2.7,1.1-4.2,3.3-4.2c2.1,0,3.3,1.4,3.3,4.2
			C229.9,31.5,228.7,32.9,226.6,32.9z M226.6,26.1c-1,0-1.4,0.7-1.4,2.6c0,2,0.4,2.6,1.4,2.6c0.9,0,1.4-0.7,1.4-2.6
			C228,26.8,227.5,26.1,226.6,26.1z M227,40.4l6.4-15.7h1.9l-6.4,15.7H227z M235.7,32.2c2.1,0,3.2,1.5,3.2,4.2
			c0,2.8-1.2,4.2-3.2,4.2c-2.1,0-3.2-1.4-3.2-4.2C232.4,33.7,233.6,32.2,235.7,32.2z M235.7,39.1c0.9,0,1.4-0.6,1.4-2.6
			c0-1.9-0.4-2.6-1.4-2.6s-1.4,0.7-1.4,2.6C234.3,38.5,234.7,39.1,235.7,39.1z"/>
		<path class="st3" d="M256.4,34.3v-9.6h2.3v9.9c0,3.7-1.9,6.1-5.8,6.1c-3.9,0-5.8-2.4-5.8-6.1v-9.9h2.3v9.6c0,2.8,1,4.4,3.5,4.4
			C255.3,38.7,256.4,37.1,256.4,34.3z"/>
		<path class="st3" d="M263.7,34.5v5.9h-2.3V24.7h6.1c3.1,0,4.9,1.8,4.9,4.9c0,3.1-1.8,4.9-4.9,4.9H263.7z M267.2,32.5
			c1.9,0,2.9-1.1,2.9-2.9s-1-2.9-2.9-2.9h-3.5v5.8H267.2z"/>
	</g>
</g>
</svg>
