<?xml version="1.0" encoding="utf-8"?>
<!-- Generator: Adobe Illustrator 26.2.1, SVG Export Plug-In . SVG Version: 6.00 Build 0)  -->
<svg version="1.1" id="Layer_1" xmlns="http://www.w3.org/2000/svg" xmlns:xlink="http://www.w3.org/1999/xlink" x="0px" y="0px"
	 width="313px" height="85.3px" viewBox="0 0 313 85.3" style="enable-background:new 0 0 313 85.3;" xml:space="preserve">
<style type="text/css">
	.st0{opacity:0.47;}
	.st1{clip-path:url(#SVGID_00000036972736407078809990000002604157546464750987_);}
	.st2{fill:#333333;}
	.st3{fill:#FFFFFF;}
</style>
<g>
	<g id="그룹_802_00000160183062624218806020000010944518598861541530_" class="st0">
		<g>
			<defs>
				<rect id="SVGID_1_" x="1" y="1" width="311" height="83.3"/>
			</defs>
			<clipPath id="SVGID_00000082364072245755061320000005651557193237397647_">
				<use xlink:href="#SVGID_1_"  style="overflow:visible;"/>
			</clipPath>
			
				<g id="그룹_801_00000085958654686218166370000017620886982504626873_" style="clip-path:url(#SVGID_00000082364072245755061320000005651557193237397647_);">
				<path id="패스_836_00000120542285610466870710000007923514342461200025_" class="st2" d="M280.6,1H32.4C15.1,1,1,15.1,1,32.4
					l0,0c0,17.3,14.1,31.4,31.4,31.4h114.9l9.2,20.5l9.2-20.5h114.9c17.3,0,31.4-14.1,31.4-31.4c0,0,0,0,0,0l0,0
					C312,15.1,297.9,1,280.6,1"/>
			</g>
		</g>
	</g>
	<g>
		<g>
			<path class="st3" d="M92.3,40.5h-7.8V23.8h2.2v14.8h6c1.7,0,3.1-0.4,3.8-1.1V23.6h2.2V31h2.8v1.9h-2.8v8.8h-2.2v-2.4
				C95.8,40.1,94.2,40.5,92.3,40.5z"/>
			<path class="st3" d="M103.2,34.3v-1.9h16.3v1.9H103.2z M106.5,23.7v4.4h11.9V30h-14.1v-6.3H106.5z M106.5,36v3.9h12.1v1.9h-14.3
				V36H106.5z"/>
			<path class="st3" d="M135.5,27.8v-2h-6.6v-1.9h8.7v3.7c0,6.9-2.6,11.5-8.8,13.1v-2.1C133.4,37.3,135.5,33.5,135.5,27.8z
				 M143.4,23.6v18.1h-2.2V23.6H143.4z"/>
			<path class="st3" d="M150.7,25.9h9.6v-2.1h2.2v7.9h-5.9v1.9h7.1v1.9h-16.3v-1.9h7.1v-1.9h-5.9v-7.9h2.2V25.9z M150.7,36.9v3.1
				h12.1v1.9h-14.3v-5H150.7z M160.4,29.9v-2.1h-9.6v2.1H160.4z"/>
			<path class="st3" d="M172.8,32.2c0-3.3,0.3-5.7,1.5-7.2c0.8-0.9,1.9-1.4,3.2-1.4c1.3,0,2.5,0.5,3.2,1.4c1.2,1.4,1.5,3.9,1.5,7.2
				s-0.3,5.7-1.5,7.2c-0.7,0.9-1.9,1.4-3.2,1.4c-1.4,0-2.5-0.5-3.2-1.4C173.1,37.9,172.8,35.5,172.8,32.2z M180,32.2
				c0-2.9-0.2-5-0.9-5.9c-0.4-0.5-0.9-0.8-1.6-0.8c-0.7,0-1.2,0.3-1.6,0.8c-0.8,1-0.9,3.1-0.9,5.9c0,2.9,0.2,5,0.9,6
				c0.4,0.5,0.9,0.7,1.6,0.7c0.6,0,1.2-0.3,1.6-0.7C179.8,37.2,180,35.1,180,32.2z M187.2,23.6V31h2.8v1.9h-2.8v8.8H185V23.6H187.2z
				"/>
			<path class="st3" d="M194.4,30.3h4.5v-6.4h2.2v16.6h-8.8V23.9h2.2V30.3z M198.8,38.6v-6.4h-4.5v6.4H198.8z M206.4,23.6V31h2.8
				v1.9h-2.8v8.8h-2.2V23.6H206.4z"/>
			<path class="st3" d="M219.3,40.5h-7.9V23.9h8.8v1.9h-6.6v5.3h6.4v1.9h-6.4v5.6h5.6c1.9,0,3.4-0.3,4.2-1v-14h2.2V31h2.8v1.9h-2.8
				v8.8h-2.2v-2.3C222.7,40.1,221.1,40.5,219.3,40.5z"/>
		</g>
	</g>
</g>
</svg>
