<svg xmlns="http://www.w3.org/2000/svg" xmlns:xlink="http://www.w3.org/1999/xlink" width="149" height="148" viewBox="0 0 149 148">
  <defs>
    <clipPath id="clip-path">
      <rect id="사각형_2784" data-name="사각형 2784" width="112.379" height="35.969" fill="none"/>
    </clipPath>
  </defs>
  <g id="그룹_841" data-name="그룹 841" transform="translate(-876 -483)">
    <ellipse id="타원_17" data-name="타원 17" cx="74.5" cy="74" rx="74.5" ry="74" transform="translate(876 483)" fill="#fff" opacity="0.06"/>
    <g id="그룹_788" data-name="그룹 788" transform="translate(894 543)">
      <path id="패스_806" data-name="패스 806" d="M22.072,53.308v3.47l-2.117-3.47H18.926v5.2h.97V55.117L22,58.507H23.05v-5.2Z" transform="translate(-8.032 -22.623)" fill="#1a1818"/>
      <g id="그룹_787" data-name="그룹 787" transform="translate(0 0)">
        <g id="그룹_786" data-name="그룹 786" clip-path="url(#clip-path)">
          <path id="패스_807" data-name="패스 807" d="M27.23,57.56a2.015,2.015,0,0,1,.246-.955,1.7,1.7,0,0,1,.687-.717,2.109,2.109,0,0,1,1.008-.245,1.867,1.867,0,0,1,1.394.555,2.08,2.08,0,0,1-.006,2.823,1.849,1.849,0,0,1-1.387.559,2.168,2.168,0,0,1-.985-.234,1.609,1.609,0,0,1-.711-.686,2.279,2.279,0,0,1-.246-1.1m1.016.056a1.248,1.248,0,0,0,.271.858.875.875,0,0,0,1.311,0,1.29,1.29,0,0,0,.263-.864,1.245,1.245,0,0,0-.263-.849.87.87,0,0,0-1.311,0,1.235,1.235,0,0,0-.271.855" transform="translate(-11.556 -23.614)" fill="#1a1818"/>
          <rect id="사각형_2783" data-name="사각형 2783" width="1" height="0.997" transform="translate(20.121 34.887)" fill="#1a1818"/>
          <path id="패스_808" data-name="패스 808" d="M40.451,58.492H39.46V54.737a3.435,3.435,0,0,1-1.288.753v-.9a2.922,2.922,0,0,0,.851-.487,1.839,1.839,0,0,0,.625-.829h.8Z" transform="translate(-16.2 -22.608)" fill="#1a1818"/>
          <path id="패스_809" data-name="패스 809" d="M47.485,55.875a3.323,3.323,0,0,1,.239-1.333,2.306,2.306,0,0,1,.487-.713,2.009,2.009,0,0,1,.672-.473,2.867,2.867,0,0,1,1.12-.2,2.455,2.455,0,0,1,1.838.714,3.183,3.183,0,0,1,.005,3.949,2.43,2.43,0,0,1-1.829.709,2.457,2.457,0,0,1-1.847-.7,2.68,2.68,0,0,1-.687-1.949m1.082-.038a1.965,1.965,0,0,0,.407,1.34,1.4,1.4,0,0,0,2.07,0,2.006,2.006,0,0,0,.4-1.358,1.944,1.944,0,0,0-.389-1.331,1.447,1.447,0,0,0-2.083,0,1.958,1.958,0,0,0-.4,1.341" transform="translate(-20.152 -22.558)" fill="#1a1818"/>
          <path id="패스_810" data-name="패스 810" d="M57.955,59.562l-1.514-3.769h1.048l.7,1.923.21.646c.055-.168.091-.273.1-.331.031-.1.071-.208.105-.315l.72-1.923h1.018l-1.491,3.769Z" transform="translate(-23.953 -23.678)" fill="#1a1818"/>
          <path id="패스_811" data-name="패스 811" d="M65.881,58.3l.991.165a1.649,1.649,0,0,1-.6.829,1.778,1.778,0,0,1-1.036.285,1.672,1.672,0,0,1-1.45-.641,2.16,2.16,0,0,1-.377-1.3,2.062,2.062,0,0,1,.5-1.467,1.589,1.589,0,0,1,1.234-.532,1.678,1.678,0,0,1,1.324.555,2.4,2.4,0,0,1,.465,1.7h-2.5a1.039,1.039,0,0,0,.246.69.746.746,0,0,0,.572.248.635.635,0,0,0,.393-.123.888.888,0,0,0,.241-.413m.06-1.012a.968.968,0,0,0-.23-.658A.69.69,0,0,0,65.2,56.4a.7.7,0,0,0-.54.242.941.941,0,0,0-.208.644Z" transform="translate(-26.91 -23.614)" fill="#1a1818"/>
          <path id="패스_812" data-name="패스 812" d="M73.977,59.5h-1V57.573a2.556,2.556,0,0,0-.069-.785.517.517,0,0,0-.208-.281.553.553,0,0,0-.341-.1.776.776,0,0,0-.46.148.721.721,0,0,0-.287.377,3.522,3.522,0,0,0-.075.86V59.5h-1V55.73h.928v.555a1.483,1.483,0,0,1,1.231-.641,1.561,1.561,0,0,1,.611.121.983.983,0,0,1,.41.306,1.041,1.041,0,0,1,.194.416,2.677,2.677,0,0,1,.058.67Z" transform="translate(-29.938 -23.614)" fill="#1a1818"/>
          <path id="패스_813" data-name="패스 813" d="M81.035,58.506v-5.2H83.24a3.667,3.667,0,0,1,1.21.142,1.173,1.173,0,0,1,.607.5,1.5,1.5,0,0,1,.224.822,1.392,1.392,0,0,1-.343.965,1.693,1.693,0,0,1-1.027.481,2.359,2.359,0,0,1,.56.436,5.819,5.819,0,0,1,.6.844l.64,1.014H84.448l-.759-1.135a6.3,6.3,0,0,0-.55-.758.767.767,0,0,0-.317-.219,1.556,1.556,0,0,0-.529-.059h-.212v2.171Zm1.046-3h.776a4.016,4.016,0,0,0,.943-.064.5.5,0,0,0,.29-.214.687.687,0,0,0,.115-.4.633.633,0,0,0-.141-.421.691.691,0,0,0-.4-.209c-.086-.01-.341-.014-.768-.014h-.819Z" transform="translate(-34.39 -22.623)" fill="#1a1818"/>
          <path id="패스_814" data-name="패스 814" d="M89.338,57.56a2.115,2.115,0,0,1,.242-.955,1.71,1.71,0,0,1,.694-.717,2.133,2.133,0,0,1,1-.245,1.88,1.88,0,0,1,1.948,1.961,1.924,1.924,0,0,1-.55,1.418,1.851,1.851,0,0,1-1.387.559,2.146,2.146,0,0,1-.987-.234,1.626,1.626,0,0,1-.718-.686,2.383,2.383,0,0,1-.242-1.1m1.023.056a1.255,1.255,0,0,0,.262.858.864.864,0,0,0,.663.3.831.831,0,0,0,.65-.3,1.249,1.249,0,0,0,.265-.864,1.206,1.206,0,0,0-.265-.849.816.816,0,0,0-.65-.3.847.847,0,0,0-.663.3,1.242,1.242,0,0,0-.262.855" transform="translate(-37.914 -23.614)" fill="#1a1818"/>
          <path id="패스_815" data-name="패스 815" d="M97.626,56.879l-.9-.158a1.371,1.371,0,0,1,.524-.809,1.881,1.881,0,0,1,1.1-.268,2.376,2.376,0,0,1,1,.162,1.013,1.013,0,0,1,.46.4,2.179,2.179,0,0,1,.133.895l-.014,1.166a4.617,4.617,0,0,0,.045.729,2.311,2.311,0,0,0,.185.507H99.17c-.025-.067-.057-.165-.1-.3a.842.842,0,0,0-.034-.114,1.762,1.762,0,0,1-.55.374,1.629,1.629,0,0,1-.624.12,1.262,1.262,0,0,1-.907-.315,1.049,1.049,0,0,1-.331-.8,1.071,1.071,0,0,1,.151-.568.949.949,0,0,1,.428-.383A3.161,3.161,0,0,1,98,57.284a5.564,5.564,0,0,0,.958-.243v-.1a.522.522,0,0,0-.136-.414.873.873,0,0,0-.54-.125.6.6,0,0,0-.652.474m1.329.813a5.714,5.714,0,0,1-.606.15,1.812,1.812,0,0,0-.543.174.422.422,0,0,0-.192.348.474.474,0,0,0,.156.363.549.549,0,0,0,.4.155.876.876,0,0,0,.516-.177.634.634,0,0,0,.239-.33,2.041,2.041,0,0,0,.033-.484Z" transform="translate(-41.006 -23.614)" fill="#1a1818"/>
          <path id="패스_816" data-name="패스 816" d="M103.106,58.422l1-.154a.741.741,0,0,0,.255.448.917.917,0,0,0,.546.148,1.017,1.017,0,0,0,.585-.143.325.325,0,0,0,.134-.265.287.287,0,0,0-.079-.191.806.806,0,0,0-.326-.131,5.475,5.475,0,0,1-1.533-.484.965.965,0,0,1-.445-.847,1.017,1.017,0,0,1,.386-.819,1.8,1.8,0,0,1,1.2-.34,2.1,2.1,0,0,1,1.145.251,1.3,1.3,0,0,1,.519.749l-.936.172a.6.6,0,0,0-.228-.335.84.84,0,0,0-.485-.119,1.019,1.019,0,0,0-.554.111.23.23,0,0,0-.121.205.235.235,0,0,0,.1.177,4.045,4.045,0,0,0,.929.281,2.873,2.873,0,0,1,1.12.441.935.935,0,0,1,.307.741,1.124,1.124,0,0,1-.429.887,1.886,1.886,0,0,1-1.282.375,2.1,2.1,0,0,1-1.216-.311,1.392,1.392,0,0,1-.583-.848" transform="translate(-43.757 -23.614)" fill="#1a1818"/>
          <path id="패스_817" data-name="패스 817" d="M111.77,54.814v.794h-.688v1.519a3.039,3.039,0,0,0,.026.535.253.253,0,0,0,.083.129.336.336,0,0,0,.171.048,1.244,1.244,0,0,0,.4-.094l.086.772a2.047,2.047,0,0,1-.789.148,1.217,1.217,0,0,1-.481-.088.719.719,0,0,1-.323-.234,1.068,1.068,0,0,1-.14-.387,5,5,0,0,1-.031-.707V55.608h-.455v-.794h.455V54.07l1-.584v1.328Z" transform="translate(-46.527 -22.699)" fill="#1a1818"/>
          <path id="패스_818" data-name="패스 818" d="M116.136,58.3l.99.165a1.635,1.635,0,0,1-.6.829,1.761,1.761,0,0,1-1.032.285,1.685,1.685,0,0,1-1.452-.641,2.168,2.168,0,0,1-.378-1.3,2.058,2.058,0,0,1,.493-1.467,1.6,1.6,0,0,1,1.231-.532,1.68,1.68,0,0,1,1.33.555,2.448,2.448,0,0,1,.47,1.7h-2.5a1,1,0,0,0,.241.69.773.773,0,0,0,.58.248.621.621,0,0,0,.39-.123.868.868,0,0,0,.245-.413m.054-1.012a.96.96,0,0,0-.222-.658.715.715,0,0,0-1.06.014.876.876,0,0,0-.2.644Z" transform="translate(-48.236 -23.614)" fill="#1a1818"/>
          <path id="패스_819" data-name="패스 819" d="M124.094,58.507h-.928v-.552a1.524,1.524,0,0,1-.54.475,1.39,1.39,0,0,1-.634.16,1.423,1.423,0,0,1-1.114-.524,2.544,2.544,0,0,1-.013-2.911,1.48,1.48,0,0,1,1.145-.5,1.414,1.414,0,0,1,1.086.528V53.308h1Zm-2.656-1.965a1.728,1.728,0,0,0,.162.871.764.764,0,0,0,.677.39.748.748,0,0,0,.584-.291,1.374,1.374,0,0,0,.236-.876,1.5,1.5,0,0,0-.229-.934.747.747,0,0,0-.6-.29.756.756,0,0,0-.6.29,1.267,1.267,0,0,0-.231.838" transform="translate(-51.102 -22.623)" fill="#1a1818"/>
          <path id="패스_820" data-name="패스 820" d="M134.466,56.529l1.016.319a2.339,2.339,0,0,1-.785,1.268,2.457,2.457,0,0,1-3.079-.293,2.707,2.707,0,0,1-.671-1.937,2.824,2.824,0,0,1,.673-2.013,2.306,2.306,0,0,1,1.762-.72,1.969,1.969,0,0,1,2.083,1.518l-1.043.254a1.062,1.062,0,0,0-.383-.638,1.077,1.077,0,0,0-.706-.237,1.191,1.191,0,0,0-.941.416,1.991,1.991,0,0,0-.363,1.339,2.2,2.2,0,0,0,.352,1.4,1.168,1.168,0,0,0,.93.423,1.053,1.053,0,0,0,.718-.269,1.592,1.592,0,0,0,.436-.836" transform="translate(-55.572 -22.558)" fill="#1a1818"/>
          <path id="패스_821" data-name="패스 821" d="M140.981,53.308v1.909a1.48,1.48,0,0,1,1.152-.565,1.46,1.46,0,0,1,.619.128.967.967,0,0,1,.415.329,1.186,1.186,0,0,1,.193.44,3.378,3.378,0,0,1,.056.745v2.211h-1V56.518a2.952,2.952,0,0,0-.054-.748.489.489,0,0,0-.2-.259.642.642,0,0,0-.359-.1.853.853,0,0,0-.444.125.7.7,0,0,0-.279.364,2.013,2.013,0,0,0-.094.718v1.887h-1v-5.2Z" transform="translate(-59.406 -22.623)" fill="#1a1818"/>
          <path id="패스_822" data-name="패스 822" d="M147.319,53.308h1v.923h-1Zm0,1.43h1v3.769h-1Z" transform="translate(-62.521 -22.623)" fill="#1a1818"/>
          <path id="패스_823" data-name="패스 823" d="M153.57,56.849l-.983.171a.715.715,0,0,0-.231-.441.666.666,0,0,0-.457-.151.737.737,0,0,0-.587.26,1.317,1.317,0,0,0-.225.861,1.53,1.53,0,0,0,.225.949.755.755,0,0,0,.61.273.691.691,0,0,0,.462-.157,1.016,1.016,0,0,0,.258-.561l.977.172a1.765,1.765,0,0,1-.585,1.019,1.837,1.837,0,0,1-1.161.339,1.719,1.719,0,0,1-1.321-.522,2.377,2.377,0,0,1,.01-2.894,1.735,1.735,0,0,1,1.326-.521,1.8,1.8,0,0,1,1.094.3,1.617,1.617,0,0,1,.588.906" transform="translate(-63.686 -23.614)" fill="#1a1818"/>
          <path id="패스_824" data-name="패스 824" d="M157.022,58.507v-5.2h.993v2.758l1.168-1.327h1.225l-1.281,1.376,1.376,2.393h-1.078l-.939-1.693-.471.483v1.211Z" transform="translate(-66.639 -22.623)" fill="#1a1818"/>
          <path id="패스_825" data-name="패스 825" d="M165.69,58.3l.993.165a1.647,1.647,0,0,1-.606.829,1.775,1.775,0,0,1-1.037.285,1.687,1.687,0,0,1-1.452-.641,2.126,2.126,0,0,1-.368-1.3,2.092,2.092,0,0,1,.486-1.467,1.608,1.608,0,0,1,1.236-.532,1.676,1.676,0,0,1,1.327.555,2.417,2.417,0,0,1,.467,1.7h-2.5a1.051,1.051,0,0,0,.244.69.757.757,0,0,0,.577.248.636.636,0,0,0,.393-.123.889.889,0,0,0,.242-.413m.06-1.012a.994.994,0,0,0-.228-.658.693.693,0,0,0-.516-.228.716.716,0,0,0-.547.242.929.929,0,0,0-.2.644Z" transform="translate(-69.268 -23.614)" fill="#1a1818"/>
          <path id="패스_826" data-name="패스 826" d="M173.778,59.5h-.993V57.573a2.71,2.71,0,0,0-.07-.785.54.54,0,0,0-.2-.281.569.569,0,0,0-.341-.1.77.77,0,0,0-.463.148.65.65,0,0,0-.285.377,2.945,2.945,0,0,0-.076.86V59.5h-1V55.73h.927v.555a1.532,1.532,0,0,1,1.843-.52,1.01,1.01,0,0,1,.412.306,1.218,1.218,0,0,1,.2.416,3.213,3.213,0,0,1,.051.67Z" transform="translate(-72.294 -23.614)" fill="#1a1818"/>
          <path id="패스_827" data-name="패스 827" d="M38.007,24.724a12.905,12.905,0,0,1,.357-3.227A9.218,9.218,0,0,1,39.3,19.1a6.684,6.684,0,0,1,1.349-1.684,8.618,8.618,0,0,1,1.543-1.1,8.844,8.844,0,0,1,8.41,0,8.76,8.76,0,0,1,1.542,1.1A6.679,6.679,0,0,1,53.492,19.1a9.969,9.969,0,0,1,.96,2.393,12.508,12.508,0,0,1,.369,3.227,12.474,12.474,0,0,1-.369,3.231,9.638,9.638,0,0,1-.96,2.378,6.561,6.561,0,0,1-1.347,1.649A9.144,9.144,0,0,1,50.6,33.064a9.377,9.377,0,0,1-8.41,0,8.989,8.989,0,0,1-1.543-1.082A6.566,6.566,0,0,1,39.3,30.333a8.931,8.931,0,0,1-.937-2.378,12.87,12.87,0,0,1-.357-3.231m8.407-5.283a3.759,3.759,0,0,0-2.111.531A3.643,3.643,0,0,0,43.08,21.3a5.438,5.438,0,0,0-.568,1.723,10.273,10.273,0,0,0,0,3.406,5.385,5.385,0,0,0,.568,1.72A3.647,3.647,0,0,0,44.3,29.484a4.456,4.456,0,0,0,4.22,0,3.648,3.648,0,0,0,1.225-1.333,5.341,5.341,0,0,0,.568-1.72,10.273,10.273,0,0,0,0-3.406,5.394,5.394,0,0,0-.568-1.723,3.645,3.645,0,0,0-1.225-1.329,3.745,3.745,0,0,0-2.11-.531" transform="translate(-16.13 -6.473)" fill="#d60018"/>
          <path id="패스_828" data-name="패스 828" d="M68.91,24.724a13.046,13.046,0,0,1,.356-3.227A9.259,9.259,0,0,1,70.2,19.1a6.615,6.615,0,0,1,1.346-1.684,8.652,8.652,0,0,1,1.545-1.1,8.834,8.834,0,0,1,8.406,0,8.682,8.682,0,0,1,1.547,1.1A6.651,6.651,0,0,1,84.394,19.1a9.922,9.922,0,0,1,.958,2.393,12.521,12.521,0,0,1,.374,3.227,12.487,12.487,0,0,1-.374,3.231,9.594,9.594,0,0,1-.958,2.378,6.533,6.533,0,0,1-1.346,1.649A9.058,9.058,0,0,1,81.5,33.064a9.367,9.367,0,0,1-8.406,0,9.025,9.025,0,0,1-1.545-1.082A6.5,6.5,0,0,1,70.2,30.333a8.97,8.97,0,0,1-.939-2.378,13.011,13.011,0,0,1-.356-3.231m8.407-5.283a3.76,3.76,0,0,0-2.111.531A3.636,3.636,0,0,0,73.982,21.3a5.367,5.367,0,0,0-.569,1.723,10.4,10.4,0,0,0,0,3.406,5.316,5.316,0,0,0,.569,1.72,3.64,3.64,0,0,0,1.224,1.333,4.457,4.457,0,0,0,4.221,0,3.638,3.638,0,0,0,1.224-1.333,5.356,5.356,0,0,0,.568-1.72,10.4,10.4,0,0,0,0-3.406,5.408,5.408,0,0,0-.568-1.723,3.635,3.635,0,0,0-1.224-1.329,3.764,3.764,0,0,0-2.11-.531" transform="translate(-29.245 -6.473)" fill="#d60018"/>
          <path id="패스_829" data-name="패스 829" d="M104.13,13.818c.016-.024.033-.047.049-.068a4.735,4.735,0,0,1,.744-.831,6.5,6.5,0,0,1,3.938-1.719,8.135,8.135,0,0,1,3.9,1.064,7.207,7.207,0,0,1,1.439,1.1,6.941,6.941,0,0,1,1.242,1.684,10,10,0,0,1,.889,2.393,13.866,13.866,0,0,1,.338,3.227A12.46,12.46,0,0,1,116.3,23.9a9.485,9.485,0,0,1-.961,2.378,6.5,6.5,0,0,1-1.347,1.649,8.807,8.807,0,0,1-1.545,1.082,9.273,9.273,0,0,1-4.185,1,9.054,9.054,0,0,1-4.151-1,8.32,8.32,0,0,1-1.525-1.082,6.624,6.624,0,0,1-1.328-1.665,9.554,9.554,0,0,1-.945-2.4,13.222,13.222,0,0,1-.351-3.227V5.7h4.221v8.1s-.324.411-.049.016m4.128,12.142a3.785,3.785,0,0,0,2.113-.531A3.7,3.7,0,0,0,111.6,24.1a5.451,5.451,0,0,0,.565-1.72,10.356,10.356,0,0,0,0-3.406,5.5,5.5,0,0,0-.565-1.723,3.691,3.691,0,0,0-1.226-1.329,4.469,4.469,0,0,0-4.227,0,3.817,3.817,0,0,0-1.237,1.329,5.119,5.119,0,0,0-.588,1.723,10.44,10.44,0,0,0,0,3.406,5.071,5.071,0,0,0,.588,1.72,3.517,3.517,0,0,0,3.351,1.864" transform="translate(-42.422 -2.419)" fill="#d60018"/>
          <path id="패스_830" data-name="패스 830" d="M143.533,15.254c.068,0,.322.013.762.036a6.665,6.665,0,0,1,1.544.3,9.194,9.194,0,0,1,1.878.834,6.511,6.511,0,0,1,1.845,1.631,8.717,8.717,0,0,1,1.4,2.679,12.436,12.436,0,0,1,.551,3.988V33.7h-4.326V24.724a9.144,9.144,0,0,0-.143-1.594,4.438,4.438,0,0,0-.535-1.491,3.23,3.23,0,0,0-1.1-1.117,4.2,4.2,0,0,0-3.763,0,3.243,3.243,0,0,0-1.1,1.117,4.431,4.431,0,0,0-.53,1.491,9.088,9.088,0,0,0-.143,1.594V33.7h-4.329V24.724a12.35,12.35,0,0,1,.554-3.988,8.678,8.678,0,0,1,1.4-2.679,6.566,6.566,0,0,1,1.843-1.631,9.088,9.088,0,0,1,1.885-.834,6.561,6.561,0,0,1,1.524-.3c.423-.024.684-.036.783-.036" transform="translate(-57.525 -6.473)" fill="#d60018"/>
          <path id="패스_831" data-name="패스 831" d="M182.655,22.419c.048.354.087.722.12,1.1s.058.783.058,1.206v.642H170.411c.049.4.11.81.18,1.223a5.629,5.629,0,0,0,.355,1.225,4.412,4.412,0,0,0,1.206,1.628,3.97,3.97,0,0,0,4.539,0,4.435,4.435,0,0,0,1.21-1.628h4.612a8.226,8.226,0,0,1-1.933,3.759,6.418,6.418,0,0,1-1.335,1.119,9.792,9.792,0,0,1-1.381.726,9.486,9.486,0,0,1-7.663-.353,8.77,8.77,0,0,1-1.544-1.082,6.454,6.454,0,0,1-1.347-1.649,9.1,9.1,0,0,1-.941-2.378,13.064,13.064,0,0,1-.356-3.231,13.1,13.1,0,0,1,.356-3.227,9.414,9.414,0,0,1,.941-2.393,6.564,6.564,0,0,1,1.347-1.684,8.361,8.361,0,0,1,1.544-1.1,9.356,9.356,0,0,1,4.22-1.064,9.925,9.925,0,0,1,3.657.815,8.648,8.648,0,0,1,1.437.835,6.869,6.869,0,0,1,1.349,1.276,8.616,8.616,0,0,1,1.1,1.809,9.185,9.185,0,0,1,.694,2.431m-4.473,0a8.536,8.536,0,0,0-.445-1.133,3.489,3.489,0,0,0-.726-1.03,3.315,3.315,0,0,0-1.1-.725,4.29,4.29,0,0,0-2.98,0,3.274,3.274,0,0,0-1.1.725,3.8,3.8,0,0,0-.745,1.03,5.441,5.441,0,0,0-.426,1.133Z" transform="translate(-70.454 -6.473)" fill="#d60018"/>
          <path id="패스_832" data-name="패스 832" d="M20.534,17.1H10.95V21.08h5.456c0,1.855-.988,4.466-5.122,4.466S4.261,24.3,4.261,17.4c0-6.963,2.945-8.183,7.19-8.183a4.443,4.443,0,0,1,4.685,3.758h4.291c-.355-3.116-2.152-7.91-9.477-7.91C1.727,5.068,0,10.768,0,17.367c0,4.406.833,12.37,10.95,12.37s9.583-8.8,9.583-8.8Z" transform="translate(0 -2.151)" fill="#d60018"/>
          <path id="패스_833" data-name="패스 833" d="M138.9,0c-4.123.311-10.334,3.09-8.237,8.295a11.19,11.19,0,0,0,4.059-2.651l.872-.961a30.217,30.217,0,0,0,1.921-2.709c.352-.429-2.264,6.157-6.3,7.405.131.833,4.5,1.312,6.22-2.271A15.733,15.733,0,0,0,138.9,0" transform="translate(-55.272 0)" fill="#a4c422" fill-rule="evenodd"/>
          <path id="패스_834" data-name="패스 834" d="M125.443,9A7.856,7.856,0,0,0,122.2,7.357c-.384,2.032.162,5.43,2.948,5.084a5.535,5.535,0,0,0-.767-2.319l-.344-.566a15.586,15.586,0,0,0-1.078-1.265c-.149-.243,2.713,1.9,2.784,4.019.43.05,1.232-2.016-.3-3.314" transform="translate(-51.814 -3.122)" fill="#a4c422" fill-rule="evenodd"/>
        </g>
      </g>
    </g>
  </g>
</svg>
