<svg xmlns="http://www.w3.org/2000/svg" xmlns:xlink="http://www.w3.org/1999/xlink" width="265.633" height="174.698" viewBox="0 0 265.633 174.698">
  <defs>
    <clipPath id="clip-path">
      <rect id="사각형_2742" data-name="사각형 2742" width="81.344" height="93.479" fill="none"/>
    </clipPath>
    <clipPath id="clip-path-2">
      <rect id="사각형_2734" data-name="사각형 2734" width="6.863" height="44.216" fill="none"/>
    </clipPath>
    <clipPath id="clip-path-3">
      <path id="패스_450" data-name="패스 450" d="M66.234,0,10.105,7.542C3.869,8.537.232,10.616,0,15.669L.709,65.446a8.777,8.777,0,0,0,10.047,8.9l-8.1,16.768,21.533-14.85,36.15,4.886a8.726,8.726,0,0,0,6.988-7.121L73.813,9.8A8.642,8.642,0,0,0,66.234,0Z" fill="none"/>
    </clipPath>
    <clipPath id="clip-path-4">
      <rect id="사각형_2734-2" data-name="사각형 2734" width="5.93" height="38.204" fill="none"/>
    </clipPath>
    <clipPath id="clip-path-5">
      <path id="패스_442" data-name="패스 442" d="M75.906,0C35.141,0,.027,25.41,0,57.188v.073q0,1.265.077,2.544c1.662,27.894,26,48.9,52.879,57.122q3.521,1.076,7.087,1.857l15.99,24.445,5.673-23.794c39.169-2.336,70.029-28.141,70.029-59.629C151.735,26.778,117.785,0,75.906,0Z" transform="translate(0 -0.004)" fill="none"/>
    </clipPath>
    <clipPath id="clip-path-6">
      <rect id="사각형_2734-3" data-name="사각형 2734" width="9.326" height="60.085" fill="none"/>
    </clipPath>
  </defs>
  <g id="그룹_942" data-name="그룹 942" transform="translate(-906.367 -545.651)">
    <g id="구성_요소_9_1" data-name="구성 요소 9 – 1" transform="translate(906.367 606.288)">
      <g id="그룹_563" data-name="그룹 563" transform="translate(0 4.257) rotate(-3)" opacity="0.8">
        <g id="그룹_562" data-name="그룹 562" clip-path="url(#clip-path)">
          <path id="패스_449" data-name="패스 449" d="M70.171,80.1a9.751,9.751,0,0,0,11.163-9.884L78.523,9.12A9.791,9.791,0,0,0,67.3.091L8.534,7.923A9.6,9.6,0,0,0,.113,18.806L7.322,64.693a9.694,9.694,0,0,0,7.764,7.912L55.249,79.76l22.736,13.72Z" transform="translate(0 0)" fill="#bcbcbc"/>
        </g>
      </g>
      <g id="그룹_552" data-name="그룹 552" transform="translate(37.323 22.538) rotate(-14)">
        <g id="그룹_550" data-name="그룹 550" clip-path="url(#clip-path-2)">
          <path id="패스_445" data-name="패스 445" d="M3.206,35.048h0A3.206,3.206,0,0,1,0,31.842V3.205a3.206,3.206,0,0,1,6.411,0V31.842a3.206,3.206,0,0,1-3.205,3.206" transform="translate(0.226 9.169)" fill="#fff"/>
          <path id="패스_446" data-name="패스 446" d="M6.863,3.431A3.431,3.431,0,1,1,3.431,0,3.431,3.431,0,0,1,6.863,3.431" transform="translate(0 0)" fill="#fff"/>
        </g>
      </g>
    </g>
    <g id="구성_요소_10_1" data-name="구성 요소 10 – 1" transform="translate(1075.834 612.394)">
      <g id="그룹_570" data-name="그룹 570" transform="translate(25.114) rotate(16)" opacity="0.8">
        <g id="그룹_569" data-name="그룹 569" transform="translate(0 0)" clip-path="url(#clip-path-3)">
          <path id="패스_451" data-name="패스 451" d="M0,0H74.557V91.111H0Z" transform="translate(0 0)" fill="#bcbcbc"/>
        </g>
      </g>
      <g id="그룹_556" data-name="그룹 556" transform="translate(53.144 30.459) rotate(24)">
        <g id="그룹_550-2" data-name="그룹 550" clip-path="url(#clip-path-4)">
          <path id="패스_445-2" data-name="패스 445" d="M2.77,30.282h0A2.77,2.77,0,0,1,0,27.513V2.77a2.77,2.77,0,0,1,5.539,0V27.513a2.77,2.77,0,0,1-2.77,2.77" transform="translate(0.195 7.922)" fill="#fff"/>
          <path id="패스_446-2" data-name="패스 446" d="M5.93,2.965A2.965,2.965,0,1,1,2.965,0,2.965,2.965,0,0,1,5.93,2.965" transform="translate(0 0)" fill="#fff"/>
        </g>
      </g>
    </g>
    <g id="구성_요소_8_1" data-name="구성 요소 8 – 1" transform="translate(964.942 545.651)">
      <g id="그룹_561" data-name="그룹 561" opacity="0.83">
        <g id="그룹_545" data-name="그룹 545" transform="translate(0)">
          <g id="그룹_544" data-name="그룹 544" transform="translate(0 0)" clip-path="url(#clip-path-5)">
            <path id="패스_448" data-name="패스 448" d="M.027.028,156.295,0l-.027,148.09L0,148.118Z" transform="translate(-4.637 0.123) rotate(-1.855)" fill="#8027d8"/>
          </g>
        </g>
        <g id="그룹_551" data-name="그룹 551" transform="translate(71.076 28.991)">
          <g id="그룹_550-3" data-name="그룹 550" clip-path="url(#clip-path-6)">
            <path id="패스_445-3" data-name="패스 445" d="M7.784,186.8h0a4.356,4.356,0,0,1-4.356-4.356V143.527a4.356,4.356,0,0,1,8.712,0v38.914A4.356,4.356,0,0,1,7.784,186.8" transform="translate(-3.121 -126.712)" fill="#fff"/>
            <path id="패스_446-3" data-name="패스 446" d="M9.326,4.662A4.663,4.663,0,1,1,4.663,0,4.663,4.663,0,0,1,9.326,4.662" transform="translate(0 0.001)" fill="#fff"/>
          </g>
        </g>
      </g>
    </g>
  </g>
</svg>
