<svg id="그룹_939" data-name="그룹 939" xmlns="http://www.w3.org/2000/svg" xmlns:xlink="http://www.w3.org/1999/xlink" width="137.572" height="35.235" viewBox="0 0 137.572 35.235">
  <defs>
    <clipPath id="clip-path">
      <rect id="사각형_2779" data-name="사각형 2779" width="40.5" height="35.235" fill="none"/>
    </clipPath>
    <clipPath id="clip-path-3">
      <rect id="사각형_2765" data-name="사각형 2765" width="0.021" height="0.027" fill="none"/>
    </clipPath>
    <clipPath id="clip-path-4">
      <rect id="사각형_2766" data-name="사각형 2766" width="0.033" height="0.048" fill="none"/>
    </clipPath>
    <clipPath id="clip-path-5">
      <rect id="사각형_2767" data-name="사각형 2767" width="0.002" height="0.003" fill="none"/>
    </clipPath>
    <clipPath id="clip-path-6">
      <rect id="사각형_2768" data-name="사각형 2768" width="0.002" height="0.004" fill="none"/>
    </clipPath>
    <clipPath id="clip-path-7">
      <rect id="사각형_2769" data-name="사각형 2769" width="0.01" height="0.013" fill="none"/>
    </clipPath>
    <clipPath id="clip-path-8">
      <rect id="사각형_2770" data-name="사각형 2770" width="0.051" height="0.057" fill="none"/>
    </clipPath>
    <clipPath id="clip-path-9">
      <rect id="사각형_2771" data-name="사각형 2771" width="0.018" height="0.036" fill="none"/>
    </clipPath>
    <clipPath id="clip-path-10">
      <rect id="사각형_2772" data-name="사각형 2772" width="0.009" height="0.026" fill="none"/>
    </clipPath>
    <clipPath id="clip-path-11">
      <rect id="사각형_2773" data-name="사각형 2773" width="0.043" height="0.043" fill="none"/>
    </clipPath>
    <clipPath id="clip-path-12">
      <rect id="사각형_2774" data-name="사각형 2774" width="9.013" height="15.995" fill="none"/>
    </clipPath>
    <clipPath id="clip-path-13">
      <rect id="사각형_2775" data-name="사각형 2775" width="0.004" height="0.02" fill="none"/>
    </clipPath>
    <clipPath id="clip-path-14">
      <rect id="사각형_2776" data-name="사각형 2776" width="0.02" height="0.019" fill="none"/>
    </clipPath>
    <clipPath id="clip-path-15">
      <rect id="사각형_2777" data-name="사각형 2777" width="0.07" height="0.059" fill="none"/>
    </clipPath>
  </defs>
  <g id="그룹_722" data-name="그룹 722">
    <g id="그룹_721" data-name="그룹 721" clip-path="url(#clip-path)">
      <g id="그룹_720" data-name="그룹 720" transform="translate(0 0)">
        <g id="그룹_719" data-name="그룹 719" clip-path="url(#clip-path)">
          <path id="패스_721" data-name="패스 721" d="M48.832,34.813a10.2,10.2,0,0,1,.529-3.251q-.613-.061-1.243-.062a12.315,12.315,0,0,0-7.844,2.808,8.465,8.465,0,0,1,3.357,13.45,12.763,12.763,0,0,0,11.49-3.512,10.219,10.219,0,0,1-6.289-9.433" transform="translate(-28.766 -22.499)" fill="#ae76d7"/>
          <path id="패스_722" data-name="패스 722" d="M24.483,70.922q-.048.546-.049,1.1a12.311,12.311,0,0,0,2.031,6.791,8.45,8.45,0,0,0,5.854-2.9,12.75,12.75,0,0,1-7.836-4.992" transform="translate(-17.452 -50.656)" fill="#b164ff"/>
          <path id="패스_723" data-name="패스 723" d="M36.314,88.384l-.095-.02.039.009a8.452,8.452,0,0,1-5.854,2.9q-.24-.365-.455-.747a12.365,12.365,0,0,0,10.794,6.325q.607,0,1.2-.057a11.5,11.5,0,0,1-5.63-8.413" transform="translate(-21.391 -63.114)" fill="#b98cff"/>
          <path id="패스_724" data-name="패스 724" d="M32.442,54.774a8.466,8.466,0,0,0-3.361-13.451,12.348,12.348,0,0,0-4.475,8.458,12.748,12.748,0,0,0,7.836,4.992" transform="translate(-17.575 -29.515)" fill="#a94ed6"/>
          <path id="패스_725" data-name="패스 725" d="M94.4,17.992c0,.038,0,.075,0,.113a11.533,11.533,0,0,1,7.082,7.013A10.217,10.217,0,0,0,90.055,8.41,12.718,12.718,0,0,1,94.4,17.992" transform="translate(-64.322 -5.243)" fill="#f9e1fd"/>
          <path id="패스_726" data-name="패스 726" d="M63.655,76.107a12.761,12.761,0,0,1-11.433,3.522,11.5,11.5,0,0,0,5.63,8.413A12.373,12.373,0,0,0,68.976,76.794a10.321,10.321,0,0,1-1.393.1,10.186,10.186,0,0,1-3.928-.784" transform="translate(-37.3 -54.359)" fill="#9753dc"/>
          <path id="패스_727" data-name="패스 727" d="M104.791,44.728c0-.038,0-.075,0-.113a12.83,12.83,0,0,1-.181,2.149,12.309,12.309,0,0,1,1.829,6.474c0,.358-.016.713-.046,1.063a10.18,10.18,0,0,0,5.477-2.563,11.533,11.533,0,0,0-7.081-7.009" transform="translate(-74.718 -31.866)" fill="#cd8cdf"/>
          <path id="패스_728" data-name="패스 728" d="M83.047,72.1A12.373,12.373,0,0,1,71.923,83.351a11.5,11.5,0,0,0,16.6-13.813A10.18,10.18,0,0,1,83.047,72.1" transform="translate(-51.371 -49.667)" fill="#da9ae4"/>
          <g id="그룹_682" data-name="그룹 682" transform="translate(9.465 13.911)" style="mix-blend-mode: multiply;isolation: isolate">
            <g id="그룹_681" data-name="그룹 681">
              <g id="그룹_680" data-name="그룹 680" clip-path="url(#clip-path-3)">
                <path id="패스_729" data-name="패스 729" d="M33.122,48.709l.021-.027-.021.027" transform="translate(-33.122 -48.682)" fill="#e3a6c9"/>
              </g>
            </g>
          </g>
          <g id="그룹_685" data-name="그룹 685" transform="translate(9.126 14.363)" style="mix-blend-mode: multiply;isolation: isolate">
            <g id="그룹_684" data-name="그룹 684">
              <g id="그룹_683" data-name="그룹 683" clip-path="url(#clip-path-4)">
                <path id="패스_730" data-name="패스 730" d="M31.937,50.312l.033-.048-.033.048" transform="translate(-31.937 -50.264)" fill="#e3a6c9"/>
              </g>
            </g>
          </g>
          <g id="그룹_688" data-name="그룹 688" transform="translate(8.547 15.342)" style="mix-blend-mode: multiply;isolation: isolate">
            <g id="그룹_687" data-name="그룹 687">
              <g id="그룹_686" data-name="그룹 686" clip-path="url(#clip-path-5)">
                <path id="패스_731" data-name="패스 731" d="M29.912,53.694l0,0,0,0" transform="translate(-29.912 -53.691)" fill="#e3a6c9"/>
              </g>
            </g>
          </g>
          <g id="그룹_691" data-name="그룹 691" transform="translate(8.833 14.857)" style="mix-blend-mode: multiply;isolation: isolate">
            <g id="그룹_690" data-name="그룹 690">
              <g id="그룹_689" data-name="그룹 689" clip-path="url(#clip-path-6)">
                <path id="패스_732" data-name="패스 732" d="M30.911,52l0,0,0,0" transform="translate(-30.911 -51.992)" fill="#e3a6c9"/>
              </g>
            </g>
          </g>
          <g id="그룹_694" data-name="그룹 694" transform="translate(9.812 13.485)" style="mix-blend-mode: multiply;isolation: isolate">
            <g id="그룹_693" data-name="그룹 693">
              <g id="그룹_692" data-name="그룹 692" clip-path="url(#clip-path-7)">
                <path id="패스_733" data-name="패스 733" d="M34.338,47.2l.011-.013-.011.013" transform="translate(-34.338 -47.191)" fill="#e3a6c9"/>
              </g>
            </g>
          </g>
          <g id="그룹_697" data-name="그룹 697" transform="translate(10.161 13.038)" style="mix-blend-mode: multiply;isolation: isolate">
            <g id="그룹_696" data-name="그룹 696">
              <g id="그룹_695" data-name="그룹 695" clip-path="url(#clip-path-8)">
                <path id="패스_734" data-name="패스 734" d="M35.558,45.684l.051-.057-.051.057" transform="translate(-35.558 -45.627)" fill="#e3a6c9"/>
              </g>
            </g>
          </g>
          <g id="그룹_700" data-name="그룹 700" transform="translate(8.274 15.827)" style="mix-blend-mode: multiply;isolation: isolate">
            <g id="그룹_699" data-name="그룹 699">
              <g id="그룹_698" data-name="그룹 698" clip-path="url(#clip-path-9)">
                <path id="패스_735" data-name="패스 735" d="M28.957,55.423l.018-.036-.018.036" transform="translate(-28.957 -55.387)" fill="#e3a6c9"/>
              </g>
            </g>
          </g>
          <g id="그룹_703" data-name="그룹 703" transform="translate(7.622 17.41)" style="mix-blend-mode: multiply;isolation: isolate">
            <g id="그룹_702" data-name="그룹 702">
              <g id="그룹_701" data-name="그룹 701" clip-path="url(#clip-path-10)">
                <path id="패스_736" data-name="패스 736" d="M26.675,60.952l.009-.026-.009.026" transform="translate(-26.675 -60.926)" fill="#e3a6c9"/>
              </g>
            </g>
          </g>
          <g id="그룹_706" data-name="그룹 706" transform="translate(10.559 12.629)" style="mix-blend-mode: multiply;isolation: isolate">
            <g id="그룹_705" data-name="그룹 705">
              <g id="그룹_704" data-name="그룹 704" clip-path="url(#clip-path-11)">
                <path id="패스_737" data-name="패스 737" d="M36.953,44.238,37,44.195l-.043.043" transform="translate(-36.953 -44.195)" fill="#e3a6c9"/>
              </g>
            </g>
          </g>
          <g id="그룹_709" data-name="그룹 709" transform="translate(0 12.186)" style="mix-blend-mode: multiply;isolation: isolate">
            <g id="그룹_708" data-name="그룹 708">
              <g id="그룹_707" data-name="그룹 707" clip-path="url(#clip-path-12)">
                <path id="패스_738" data-name="패스 738" d="M7.031,50.729a12.69,12.69,0,0,1-2.455-7.521c0-.188.005-.376.013-.562a8.468,8.468,0,0,0,3.88,16c.183,0,.364-.008.544-.019a12.311,12.311,0,0,1-2.031-6.791q0-.557.049-1.1" transform="translate(0 -42.646)" fill="#ff98ff"/>
              </g>
            </g>
          </g>
          <g id="그룹_712" data-name="그룹 712" transform="translate(7.189 19.092)" style="mix-blend-mode: multiply;isolation: isolate">
            <g id="그룹_711" data-name="그룹 711">
              <g id="그룹_710" data-name="그룹 710" clip-path="url(#clip-path-13)">
                <path id="패스_739" data-name="패스 739" d="M25.158,66.834l0-.021,0,.021" transform="translate(-25.158 -66.813)" fill="#e3a6c9"/>
              </g>
            </g>
          </g>
          <g id="그룹_715" data-name="그룹 715" transform="translate(10.963 12.263)" style="mix-blend-mode: multiply;isolation: isolate">
            <g id="그룹_714" data-name="그룹 714">
              <g id="그룹_713" data-name="그룹 713" clip-path="url(#clip-path-14)">
                <path id="패스_740" data-name="패스 740" d="M38.365,42.933l.02-.019-.02.019" transform="translate(-38.365 -42.914)" fill="#e3a6c9"/>
              </g>
            </g>
          </g>
          <g id="그룹_718" data-name="그룹 718" transform="translate(11.362 11.871)" style="mix-blend-mode: multiply;isolation: isolate">
            <g id="그룹_717" data-name="그룹 717">
              <g id="그룹_716" data-name="그룹 716" clip-path="url(#clip-path-15)">
                <path id="패스_741" data-name="패스 741" d="M39.76,41.6l.07-.059-.07.059" transform="translate(-39.76 -41.542)" fill="#e3a6c9"/>
              </g>
            </g>
          </g>
          <path id="패스_742" data-name="패스 742" d="M19.906,39.351a8.43,8.43,0,0,0-3.88.942c-.008.187-.013.374-.013.563a12.69,12.69,0,0,0,2.455,7.521q.052-.587.158-1.157l0-.021a12.3,12.3,0,0,1,.43-1.656l.009-.026a12.313,12.313,0,0,1,.643-1.546l.018-.036q.122-.244.255-.481l0,0q.136-.244.284-.482l0,0q.141-.227.291-.446l.033-.048q.149-.216.305-.425l.021-.027q.159-.21.327-.413l.011-.013c.11-.133.223-.263.338-.39l.051-.057q.17-.186.347-.366l.043-.043c.118-.118.238-.234.36-.347l.02-.019q.186-.171.378-.333l.07-.059.074-.063a8.444,8.444,0,0,0-3.037-.563" transform="translate(-11.437 -28.106)" fill="#ec73e4"/>
          <path id="패스_743" data-name="패스 743" d="M28.8,0A12.749,12.749,0,0,0,16.06,12.186a8.465,8.465,0,0,1,6.919-.377A12.314,12.314,0,0,1,30.823,9q.631,0,1.245.062a10.249,10.249,0,0,1,5.136-5.9A12.7,12.7,0,0,0,28.8,0" transform="translate(-11.471 0)" fill="#ffcedd"/>
          <path id="패스_744" data-name="패스 744" d="M79.27,20.245a11.431,11.431,0,0,1,2.28.536c0-.039,0-.078,0-.117a12.718,12.718,0,0,0-4.341-9.582,10.25,10.25,0,0,0-5.138,5.9,12.326,12.326,0,0,1,7.2,3.265" transform="translate(-51.478 -7.915)" fill="#f2b8db"/>
          <path id="패스_745" data-name="패스 745" d="M57.486,48.969a11.571,11.571,0,0,0-3.559,3.519,8.467,8.467,0,0,1-1.732,7.691c0,.023,0,.045.008.068a12.758,12.758,0,0,0,11.431-3.523,10.229,10.229,0,0,1-6.148-7.754" transform="translate(-37.28 -34.976)" fill="#924cbf"/>
          <path id="패스_746" data-name="패스 746" d="M51.951,68.974a8.464,8.464,0,0,0,1.732-7.691,11.434,11.434,0,0,0-1.732,7.691" transform="translate(-37.037 -43.771)" fill="#9037be"/>
          <path id="패스_747" data-name="패스 747" d="M78.295,42.9a11.5,11.5,0,0,0-7.584,1.666,10.228,10.228,0,0,0,6.148,7.754A12.717,12.717,0,0,0,80.4,45.469a12.432,12.432,0,0,0-2.1-2.568" transform="translate(-50.505 -30.575)" fill="#9145be"/>
          <path id="패스_748" data-name="패스 748" d="M70.362,36.647a11.5,11.5,0,0,1,7.582-1.667,12.322,12.322,0,0,0-7.19-3.263,10.2,10.2,0,0,0-.274,5.527c-.045-.2-.085-.4-.118-.6" transform="translate(-50.156 -22.655)" fill="#ac69d6"/>
          <path id="패스_749" data-name="패스 749" d="M95.766,52.129a12.717,12.717,0,0,1-3.538,6.851,10.193,10.193,0,0,0,5.322.687c.03-.351.046-.7.046-1.063a12.308,12.308,0,0,0-1.83-6.475" transform="translate(-65.874 -37.233)" fill="#9253dc"/>
          <path id="패스_750" data-name="패스 750" d="M99.353,45.705a12.8,12.8,0,0,0,.18-2.033,11.5,11.5,0,0,0-2.283-.535,12.432,12.432,0,0,1,2.1,2.568" transform="translate(-69.461 -30.811)" fill="#ca74c1"/>
          <path id="패스_751" data-name="패스 751" d="M54.73,26.786a6.406,6.406,0,0,0-3.547,1.068V22.291a1.444,1.444,0,1,0-2.888,0V32.874c-.006.119-.01.238-.01.358a6.446,6.446,0,1,0,6.446-6.446m0,9.828a3.383,3.383,0,1,1,3.383-3.383,3.387,3.387,0,0,1-3.383,3.383" transform="translate(-34.487 -14.89)" fill="#fff"/>
        </g>
      </g>
    </g>
  </g>
  <g id="그룹_759" data-name="그룹 759" transform="translate(-2501.429 42.259)">
    <path id="패스_783" data-name="패스 783" d="M153.41,42.18a8.676,8.676,0,1,1,8.65,8.681,8.651,8.651,0,0,1-8.65-8.681m12.964.016a4.22,4.22,0,0,0-5.112-4.33,4.406,4.406,0,1,0,1.866,8.613,4.2,4.2,0,0,0,3.246-4.283" transform="translate(2422.513 -60.148)" fill="#fff"/>
    <path id="패스_784" data-name="패스 784" d="M189.784,26.523a8.676,8.676,0,1,1,8.634,8.7,8.651,8.651,0,0,1-8.634-8.7m12.964.032a4.219,4.219,0,0,0-5.113-4.33,4.407,4.407,0,1,0,1.867,8.613,4.2,4.2,0,0,0,3.246-4.283" transform="translate(2403.903 -52.147)" fill="#fff"/>
    <path id="패스_785" data-name="패스 785" d="M142.7,29.491h0a1.926,1.926,0,0,1-1.926-1.926V7.275a1.926,1.926,0,1,1,3.852,0V27.565a1.926,1.926,0,0,1-1.926,1.926" transform="translate(2428.978 -45.736)" fill="#fff"/>
    <path id="패스_786" data-name="패스 786" d="M248.3,26.771a7.281,7.281,0,0,0-5.577,2.6,7.291,7.291,0,0,0-12.873,4.671h0v7.715a1.926,1.926,0,1,0,3.852,0V34.068a3.441,3.441,0,0,1,6.874-.25v7.745a2.16,2.16,0,1,0,4.319,0V33.58a3.44,3.44,0,0,1,6.846.452h0v7.754a1.926,1.926,0,1,0,3.853,0V34.068h0a7.305,7.305,0,0,0-7.3-7.3" transform="translate(2383.405 -56.694)" fill="#fff"/>
    <path id="패스_787" data-name="패스 787" d="M109.252,20.364a8.545,8.545,0,0,0-4.732,1.424v-7.42a1.926,1.926,0,1,0-3.852,0V28.486c-.009.158-.014.317-.014.477a8.6,8.6,0,1,0,8.6-8.6m0,13.112a4.513,4.513,0,1,1,4.512-4.513,4.518,4.518,0,0,1-4.512,4.513" transform="translate(2449.504 -49.364)" fill="#fff"/>
  </g>
</svg>
