<svg xmlns="http://www.w3.org/2000/svg" xmlns:xlink="http://www.w3.org/1999/xlink" width="149" height="149" viewBox="0 0 149 149">
  <defs>
    <clipPath id="clip-path">
      <rect id="사각형_2782" data-name="사각형 2782" width="114" height="35.564" fill="none"/>
    </clipPath>
  </defs>
  <g id="그룹_840" data-name="그룹 840" transform="translate(-876 -271)">
    <circle id="타원_17" data-name="타원 17" cx="74.5" cy="74.5" r="74.5" transform="translate(876 271)" fill="#fff" opacity="0.06"/>
    <g id="그룹_785" data-name="그룹 785" transform="translate(894 328)">
      <g id="그룹_784" data-name="그룹 784" transform="translate(0 0)" clip-path="url(#clip-path)">
        <path id="패스_799" data-name="패스 799" d="M117.315,21.976c-4.885,0-7.809,3.018-7.809,6.746s2.924,6.739,7.809,6.739,7.817-3.013,7.817-6.739-2.933-6.746-7.817-6.746m0,12.04c-2.34,0-4.122-2.376-4.122-5.294s1.782-5.293,4.122-5.293,4.122,2.369,4.122,5.293-1.778,5.294-4.122,5.294" transform="translate(-53.657 -10.768)" fill="#dc000c"/>
        <path id="패스_800" data-name="패스 800" d="M141.444,24.442h5.145v10.94h3.877V24.442H154.8V22.951H141.444Z" transform="translate(-69.306 -11.245)" fill="#dc000c"/>
        <path id="패스_801" data-name="패스 801" d="M170.418,24.442h4.336v10.94h3.874V24.442h5.148V22.951H170.418Z" transform="translate(-83.503 -11.245)" fill="#dc000c"/>
        <path id="패스_802" data-name="패스 802" d="M90.806,33.154V22.95H87.089V33.9a1.48,1.48,0,0,0,1.48,1.482h9.509V33.893H91.551a.742.742,0,0,1-.745-.739" transform="translate(-42.673 -11.245)" fill="#dc000c"/>
        <path id="패스_803" data-name="패스 803" d="M205.2,24.421h7.155V22.95h-10.14a1.479,1.479,0,0,0-1.482,1.478V33.9a1.481,1.481,0,0,0,1.482,1.481h10.14v-1.47H205.2a.737.737,0,0,1-.739-.738V29.509h7.778V28.05h-7.778V25.157a.734.734,0,0,1,.739-.736" transform="translate(-98.358 -11.245)" fill="#dc000c"/>
        <path id="사각형_2781" data-name="사각형 2781" d="M15.615,0h0A15.616,15.616,0,0,1,31.23,15.616v0A15.615,15.615,0,0,1,15.616,31.23h0A15.616,15.616,0,0,1,0,15.615v0A15.615,15.615,0,0,1,15.615,0Z" transform="translate(-4.302 17.782) rotate(-45)" fill="#dc000c"/>
        <path id="패스_804" data-name="패스 804" d="M25.157,54.179a1.1,1.1,0,1,1,.047,0h-.047" transform="translate(-11.788 -25.469)" fill="#fff"/>
        <path id="패스_805" data-name="패스 805" d="M29.547,14.581a1.992,1.992,0,0,0-1.479.577c-.844.838-1.286,2.569-1.247,4.873.048,2.84.724,8.413,2.958,11.282a4.975,4.975,0,0,0,1.158,1.1,2.569,2.569,0,0,0,1.524.514,3.381,3.381,0,0,0,.6-.057c1.281-.307,2.886-1.733,4.079-3.631a.986.986,0,1,1,1.67,1.05c-1.509,2.4-3.5,4.086-5.33,4.508a.353.353,0,0,1-.046.01,5.472,5.472,0,0,1-.978.093,4.558,4.558,0,0,1-2.6-.841,6.951,6.951,0,0,1-1.627-1.538c-3.145-4.039-3.36-11.611-3.374-12.461-.035-2.015.256-4.745,1.829-6.307a3.919,3.919,0,0,1,2.86-1.149h.183a3.921,3.921,0,0,1,2.864,1.148c1.574,1.562,1.864,4.292,1.831,6.307a20.383,20.383,0,0,1-2.6,9.812.987.987,0,0,1-1.695-1.012,17.105,17.105,0,0,0,2.318-8.833c.04-2.3-.4-4.035-1.247-4.873a1.987,1.987,0,0,0-1.475-.577Z" transform="translate(-12.174 -6.178)" fill="#fff"/>
      </g>
    </g>
  </g>
</svg>
