<?xml version="1.0" encoding="utf-8"?>
<!-- Generator: Adobe Illustrator 26.2.1, SVG Export Plug-In . SVG Version: 6.00 Build 0)  -->
<svg version="1.1" id="Layer_1" xmlns="http://www.w3.org/2000/svg" xmlns:xlink="http://www.w3.org/1999/xlink" x="0px" y="0px"
	 width="26.3px" height="24.6px" viewBox="0 0 26.3 24.6" style="enable-background:new 0 0 26.3 24.6;" xml:space="preserve">
<style type="text/css">
	.st0{fill:#333333;}
	.st1{fill:none;stroke:#333333;stroke-width:2;stroke-miterlimit:10;}
</style>
<g>
	<g id="그룹_459" transform="translate(5.028 5.362)">
		<g id="그룹_458">
			<path id="패스_710" class="st0" d="M3.2,2.5C2.8,2.6,2.5,2.7,2.2,3V1.2H1.2v4.5h1.1V5.4c0.2,0.3,0.6,0.5,0.9,0.5
				c0.9,0,1.6-0.8,1.5-1.7c0,0,0,0,0,0C4.7,4.2,4.7,2.5,3.2,2.5z M2.9,4.9c-0.4,0-0.7-0.3-0.7-0.7s0.3-0.7,0.7-0.7
				c0.4,0,0.7,0.3,0.7,0.7l0,0C3.6,4.6,3.3,4.9,2.9,4.9L2.9,4.9z"/>
			<path id="패스_711" class="st0" d="M5.1,1.1v1.1c0,0,0.5,0,0.5,0.9v2.7h1.1V2.8C6.6,2.8,6.7,1.1,5.1,1.1z"/>
			<path id="패스_712" class="st0" d="M9.2,2.5c0,0-1.8,0-1.8,1.7c0,0.9,0.7,1.6,1.6,1.7c0.1,0,0.1,0,0.2,0c0,0,1.8,0,1.8-1.7
				c0-0.9-0.7-1.7-1.6-1.7C9.3,2.5,9.3,2.5,9.2,2.5z M9.2,4.9c-0.4,0-0.7-0.3-0.7-0.7s0.3-0.7,0.7-0.7c0.4,0,0.7,0.3,0.7,0.7l0,0
				C9.9,4.6,9.6,4.9,9.2,4.9L9.2,4.9L9.2,4.9z"/>
			<path id="패스_713" class="st0" d="M14,2.7V3c-0.2-0.3-0.6-0.4-0.9-0.4c-0.8,0-1.5,0.6-1.6,1.4c0,0.1,0,0.2,0,0.2
				c0,0,0,1.6,1.5,1.6c0.4,0,0.7-0.1,1-0.4v0.3c0.1,0.4-0.2,0.7-0.6,0.8c0,0-0.1,0-0.1,0h-0.3v1h0.4c0.9,0,1.6-0.7,1.6-1.6
				c0,0,0-0.1,0-0.1V2.7L14,2.7z M13.4,4.9c-0.4,0-0.7-0.3-0.7-0.7s0.3-0.7,0.7-0.7c0.4,0,0.7,0.3,0.7,0.7l0,0
				C14.1,4.6,13.8,4.9,13.4,4.9L13.4,4.9L13.4,4.9z"/>
		</g>
	</g>
	<path id="패스_714" class="st1" d="M21.9,1.1H4.4c-1.8,0-3.2,1.4-3.2,3.2c0,0,0,0,0,0v10.4c0,1.8,1.4,3.2,3.2,3.2h6.2l2.1,5
		c0,0,0.1,0.4,0.5,0.4l0,0c0.4,0,0.5-0.4,0.5-0.4l2.1-5h6.2c1.8,0,3.2-1.4,3.2-3.2V4.3c0-1.5-1.1-2.8-2.5-3.1
		C22.4,1.1,22.2,1.1,21.9,1.1z"/>
</g>
</svg>
