<svg id="그룹_934" data-name="그룹 934" xmlns="http://www.w3.org/2000/svg" xmlns:xlink="http://www.w3.org/1999/xlink" width="137.35" height="47.001" viewBox="0 0 137.35 47.001">
  <defs>
    <clipPath id="clip-path">
      <rect id="사각형_2812" data-name="사각형 2812" width="137.35" height="47.001" fill="none"/>
    </clipPath>
    <clipPath id="clip-path-2">
      <path id="패스_867" data-name="패스 867" d="M104.188,32.919a4.512,4.512,0,1,1,4.512,4.513,4.517,4.517,0,0,1-4.512-4.513m-4.073-14.593V32.443c-.009.158-.014.317-.014.477a8.609,8.609,0,1,0,3.866-7.174V18.327a1.926,1.926,0,1,0-3.853,0" transform="translate(-100.102 -16.4)" fill="none"/>
    </clipPath>
    <clipPath id="clip-path-3">
      <rect id="사각형_2787" data-name="사각형 2787" width="0.028" height="0.036" fill="none"/>
    </clipPath>
    <clipPath id="clip-path-4">
      <rect id="사각형_2788" data-name="사각형 2788" width="0.044" height="0.064" fill="none"/>
    </clipPath>
    <clipPath id="clip-path-5">
      <rect id="사각형_2789" data-name="사각형 2789" width="0.003" height="0.004" fill="none"/>
    </clipPath>
    <clipPath id="clip-path-6">
      <rect id="사각형_2790" data-name="사각형 2790" width="0.003" height="0.005" fill="none"/>
    </clipPath>
    <clipPath id="clip-path-7">
      <rect id="사각형_2791" data-name="사각형 2791" width="0.014" height="0.017" fill="none"/>
    </clipPath>
    <clipPath id="clip-path-8">
      <rect id="사각형_2792" data-name="사각형 2792" width="0.068" height="0.076" fill="none"/>
    </clipPath>
    <clipPath id="clip-path-9">
      <rect id="사각형_2793" data-name="사각형 2793" width="0.024" height="0.049" fill="none"/>
    </clipPath>
    <clipPath id="clip-path-10">
      <rect id="사각형_2794" data-name="사각형 2794" width="0.012" height="0.035" fill="none"/>
    </clipPath>
    <clipPath id="clip-path-11">
      <rect id="사각형_2795" data-name="사각형 2795" width="0.058" height="0.058" fill="none"/>
    </clipPath>
    <clipPath id="clip-path-12">
      <rect id="사각형_2796" data-name="사각형 2796" width="0.005" height="0.027" fill="none"/>
    </clipPath>
    <clipPath id="clip-path-13">
      <rect id="사각형_2797" data-name="사각형 2797" width="0.027" height="0.026" fill="none"/>
    </clipPath>
    <clipPath id="clip-path-14">
      <rect id="사각형_2798" data-name="사각형 2798" width="0.093" height="0.079" fill="none"/>
    </clipPath>
    <clipPath id="clip-path-16">
      <rect id="사각형_2799" data-name="사각형 2799" width="0.021" height="0.027" fill="none"/>
    </clipPath>
    <clipPath id="clip-path-17">
      <rect id="사각형_2800" data-name="사각형 2800" width="0.033" height="0.049" fill="none"/>
    </clipPath>
    <clipPath id="clip-path-18">
      <rect id="사각형_2801" data-name="사각형 2801" width="0.002" height="0.003" fill="none"/>
    </clipPath>
    <clipPath id="clip-path-19">
      <rect id="사각형_2802" data-name="사각형 2802" width="0.002" height="0.004" fill="none"/>
    </clipPath>
    <clipPath id="clip-path-20">
      <rect id="사각형_2803" data-name="사각형 2803" width="0.011" height="0.013" fill="none"/>
    </clipPath>
    <clipPath id="clip-path-21">
      <rect id="사각형_2804" data-name="사각형 2804" width="0.052" height="0.057" fill="none"/>
    </clipPath>
    <clipPath id="clip-path-22">
      <rect id="사각형_2805" data-name="사각형 2805" width="0.018" height="0.037" fill="none"/>
    </clipPath>
    <clipPath id="clip-path-23">
      <rect id="사각형_2806" data-name="사각형 2806" width="0.009" height="0.027" fill="none"/>
    </clipPath>
    <clipPath id="clip-path-24">
      <rect id="사각형_2807" data-name="사각형 2807" width="0.044" height="0.044" fill="none"/>
    </clipPath>
    <clipPath id="clip-path-25">
      <rect id="사각형_2808" data-name="사각형 2808" width="0.004" height="0.021" fill="none"/>
    </clipPath>
    <clipPath id="clip-path-26">
      <rect id="사각형_2809" data-name="사각형 2809" width="0.021" height="0.019" fill="none"/>
    </clipPath>
    <clipPath id="clip-path-27">
      <rect id="사각형_2810" data-name="사각형 2810" width="0.071" height="0.06" fill="none"/>
    </clipPath>
  </defs>
  <g id="그룹_932" data-name="그룹 932" clip-path="url(#clip-path)">
    <g id="그룹_893" data-name="그룹 893" transform="translate(48.503 7.946)">
      <g id="그룹_892" data-name="그룹 892" clip-path="url(#clip-path-2)">
        <path id="패스_837" data-name="패스 837" d="M105.215,29.2a13.61,13.61,0,0,1,.705-4.337A16.5,16.5,0,0,0,93.8,28.525h0a11.292,11.292,0,0,1,4.478,17.942A17.026,17.026,0,0,0,113.6,41.782,13.63,13.63,0,0,1,105.215,29.2" transform="translate(-96.854 -20.72)" fill="#7d6cae"/>
        <path id="패스_838" data-name="패스 838" d="M81.405,55.792q-.065.728-.065,1.474a16.42,16.42,0,0,0,2.709,9.059,11.273,11.273,0,0,0,7.809-3.873,17.007,17.007,0,0,1-10.452-6.66" transform="translate(-90.431 -36.705)" fill="#6a398d"/>
        <path id="패스_839" data-name="패스 839" d="M94.167,69.539l-.126-.027.052.011A11.272,11.272,0,0,1,86.284,73.4q-.321-.487-.607-1a16.5,16.5,0,0,0,14.4,8.438q.81,0,1.6-.077a15.342,15.342,0,0,1-7.509-11.222" transform="translate(-92.666 -43.777)" fill="#8a5fa4"/>
        <path id="패스_840" data-name="패스 840" d="M91.927,50.449a11.294,11.294,0,0,0-4.484-17.942,16.471,16.471,0,0,0-5.969,11.282,17.008,17.008,0,0,0,10.453,6.66" transform="translate(-90.5 -24.703)" fill="#704695"/>
        <path id="패스_841" data-name="패스 841" d="M138.751,19.983c0,.05,0,.1,0,.151a15.384,15.384,0,0,1,9.448,9.355A13.628,13.628,0,0,0,132.961,7.2a16.965,16.965,0,0,1,5.79,12.782" transform="translate(-117.04 -10.923)" fill="#e2cfe6"/>
        <path id="패스_842" data-name="패스 842" d="M118.449,59.871a17.024,17.024,0,0,1-15.25,4.7h0a15.342,15.342,0,0,0,7.509,11.222,16.5,16.5,0,0,0,14.839-15.005,13.745,13.745,0,0,1-1.858.129,13.583,13.583,0,0,1-5.239-1.045" transform="translate(-101.698 -38.808)" fill="#673e90"/>
        <path id="패스_843" data-name="패스 843" d="M144.651,35.247c0-.05,0-.1,0-.151a17.143,17.143,0,0,1-.242,2.867,16.42,16.42,0,0,1,2.44,8.635c0,.478-.022.951-.062,1.419A13.58,13.58,0,0,0,154.1,44.6a15.384,15.384,0,0,0-9.445-9.35" transform="translate(-122.942 -26.037)" fill="#b27ab3"/>
        <path id="패스_844" data-name="패스 844" d="M133.536,58.123A16.5,16.5,0,0,1,118.7,73.128,15.344,15.344,0,0,0,140.843,54.7a13.582,13.582,0,0,1-7.307,3.42" transform="translate(-109.687 -36.144)" fill="#cb9dc8"/>
        <g id="그룹_858" data-name="그룹 858" transform="translate(-5.78 10.61)" style="mix-blend-mode: multiply;isolation: isolate">
          <g id="그룹_857" data-name="그룹 857">
            <g id="그룹_856" data-name="그룹 856" clip-path="url(#clip-path-3)">
              <path id="패스_845" data-name="패스 845" d="M88.174,38.333,88.2,38.3l-.028.036" transform="translate(-88.174 -38.297)" fill="#c989b2"/>
            </g>
          </g>
        </g>
        <g id="그룹_861" data-name="그룹 861" transform="translate(-6.231 11.212)" style="mix-blend-mode: multiply;isolation: isolate">
          <g id="그룹_860" data-name="그룹 860">
            <g id="그룹_859" data-name="그룹 859" clip-path="url(#clip-path-4)">
              <path id="패스_846" data-name="패스 846" d="M87.242,39.6l.044-.064-.044.064" transform="translate(-87.242 -39.54)" fill="#c989b2"/>
            </g>
          </g>
        </g>
        <g id="그룹_864" data-name="그룹 864" transform="translate(-7.003 12.519)" style="mix-blend-mode: multiply;isolation: isolate">
          <g id="그룹_863" data-name="그룹 863">
            <g id="그룹_862" data-name="그룹 862" clip-path="url(#clip-path-5)">
              <path id="패스_847" data-name="패스 847" d="M85.648,42.241l0,0,0,0" transform="translate(-85.648 -42.237)" fill="#c989b2"/>
            </g>
          </g>
        </g>
        <g id="그룹_867" data-name="그룹 867" transform="translate(-6.622 11.872)" style="mix-blend-mode: multiply;isolation: isolate">
          <g id="그룹_866" data-name="그룹 866">
            <g id="그룹_865" data-name="그룹 865" clip-path="url(#clip-path-6)">
              <path id="패스_848" data-name="패스 848" d="M86.435,40.905l0,0,0,0" transform="translate(-86.435 -40.901)" fill="#c989b2"/>
            </g>
          </g>
        </g>
        <g id="그룹_870" data-name="그룹 870" transform="translate(-5.316 10.041)" style="mix-blend-mode: multiply;isolation: isolate">
          <g id="그룹_869" data-name="그룹 869">
            <g id="그룹_868" data-name="그룹 868" clip-path="url(#clip-path-7)">
              <path id="패스_849" data-name="패스 849" d="M89.13,37.14l.014-.017-.014.017" transform="translate(-89.13 -37.123)" fill="#c989b2"/>
            </g>
          </g>
        </g>
        <g id="그룹_873" data-name="그룹 873" transform="translate(-4.851 9.445)" style="mix-blend-mode: multiply;isolation: isolate">
          <g id="그룹_872" data-name="그룹 872">
            <g id="그룹_871" data-name="그룹 871" clip-path="url(#clip-path-8)">
              <path id="패스_850" data-name="패스 850" d="M90.09,35.969l.068-.076-.068.076" transform="translate(-90.09 -35.893)" fill="#c989b2"/>
            </g>
          </g>
        </g>
        <g id="그룹_876" data-name="그룹 876" transform="translate(-7.367 13.165)" style="mix-blend-mode: multiply;isolation: isolate">
          <g id="그룹_875" data-name="그룹 875">
            <g id="그룹_874" data-name="그룹 874" clip-path="url(#clip-path-9)">
              <path id="패스_851" data-name="패스 851" d="M84.9,43.619l.024-.048-.024.048" transform="translate(-84.897 -43.571)" fill="#c989b2"/>
            </g>
          </g>
        </g>
        <g id="그룹_879" data-name="그룹 879" transform="translate(-8.237 15.277)" style="mix-blend-mode: multiply;isolation: isolate">
          <g id="그룹_878" data-name="그룹 878">
            <g id="그룹_877" data-name="그룹 877" clip-path="url(#clip-path-10)">
              <path id="패스_852" data-name="패스 852" d="M83.1,47.963l.011-.035-.011.035" transform="translate(-83.103 -47.928)" fill="#c989b2"/>
            </g>
          </g>
        </g>
        <g id="그룹_882" data-name="그룹 882" transform="translate(-4.32 8.899)" style="mix-blend-mode: multiply;isolation: isolate">
          <g id="그룹_881" data-name="그룹 881">
            <g id="그룹_880" data-name="그룹 880" clip-path="url(#clip-path-11)">
              <path id="패스_853" data-name="패스 853" d="M91.187,34.824l.058-.058-.058.058" transform="translate(-91.187 -34.766)" fill="#c989b2"/>
            </g>
          </g>
        </g>
        <path id="패스_854" data-name="패스 854" d="M71.5,44.33A16.928,16.928,0,0,1,68.223,34.3c0-.251.007-.5.017-.75a11.3,11.3,0,0,0,5.175,21.337c.244,0,.486-.011.726-.026A16.42,16.42,0,0,1,71.432,45.8q0-.743.065-1.469" transform="translate(-80.523 -25.239)" fill="#bd6ba8"/>
        <g id="그룹_885" data-name="그룹 885" transform="translate(-8.815 17.521)" style="mix-blend-mode: multiply;isolation: isolate">
          <g id="그룹_884" data-name="그룹 884" transform="translate(0 0)">
            <g id="그룹_883" data-name="그룹 883" clip-path="url(#clip-path-12)">
              <path id="패스_855" data-name="패스 855" d="M81.909,52.587c0-.009,0-.018,0-.027,0,.009,0,.018,0,.027" transform="translate(-81.909 -52.56)" fill="#c989b2"/>
            </g>
          </g>
        </g>
        <g id="그룹_888" data-name="그룹 888" transform="translate(-3.781 8.411)" style="mix-blend-mode: multiply;isolation: isolate">
          <g id="그룹_887" data-name="그룹 887">
            <g id="그룹_886" data-name="그룹 886" clip-path="url(#clip-path-13)">
              <path id="패스_856" data-name="패스 856" d="M92.3,33.784l.027-.026-.027.026" transform="translate(-92.299 -33.758)" fill="#c989b2"/>
            </g>
          </g>
        </g>
        <g id="그룹_891" data-name="그룹 891" transform="translate(-3.249 7.888)" style="mix-blend-mode: multiply;isolation: isolate">
          <g id="그룹_890" data-name="그룹 890">
            <g id="그룹_889" data-name="그룹 889" clip-path="url(#clip-path-14)">
              <path id="패스_857" data-name="패스 857" d="M93.4,32.758l.094-.079-.094.079" transform="translate(-93.396 -32.679)" fill="#c989b2"/>
            </g>
          </g>
        </g>
        <path id="패스_858" data-name="패스 858" d="M79.908,30.956a11.241,11.241,0,0,0-5.175,1.256c-.011.249-.017.5-.017.751a16.927,16.927,0,0,0,3.275,10.032q.069-.783.211-1.544c0-.009,0-.018.005-.027a16.288,16.288,0,0,1,.573-2.209l.012-.035a16.345,16.345,0,0,1,.858-2.063l.024-.048q.164-.326.34-.642l0,0q.182-.326.379-.643l0,0q.188-.3.388-.595l.044-.064c.132-.191.267-.381.408-.566l.028-.036q.212-.28.436-.551l.014-.017c.146-.177.3-.35.451-.52l.068-.076q.227-.249.463-.488l.058-.058q.235-.236.481-.463l.027-.026q.247-.227.5-.444l.094-.079c.033-.028.065-.056.1-.083a11.264,11.264,0,0,0-4.051-.752" transform="translate(-87.017 -23.903)" fill="#9f5099"/>
        <path id="패스_859" data-name="패스 859" d="M91.74,0A17.005,17.005,0,0,0,74.752,16.256a11.29,11.29,0,0,1,9.23-.5,16.426,16.426,0,0,1,10.462-3.745c.561,0,1.115.029,1.661.083a13.672,13.672,0,0,1,6.851-7.866A16.939,16.939,0,0,0,91.74,0" transform="translate(-87.035 -7.946)" fill="#f2b3d1"/>
        <path id="패스_860" data-name="패스 860" d="M128.416,20.94a15.24,15.24,0,0,1,3.041.715c0-.052,0-.1,0-.156a16.963,16.963,0,0,0-5.79-12.782,13.672,13.672,0,0,0-6.854,7.866,16.441,16.441,0,0,1,9.6,4.356" transform="translate(-109.748 -12.44)" fill="#db9bc4"/>
        <path id="패스_861" data-name="패스 861" d="M110.235,38.522a15.435,15.435,0,0,0-4.748,4.694,11.294,11.294,0,0,1-2.31,10.259c0,.03.007.06.011.09a17.021,17.021,0,0,0,15.249-4.7,13.645,13.645,0,0,1-8.2-10.344" transform="translate(-101.687 -27.803)" fill="#5c4494"/>
        <path id="패스_862" data-name="패스 862" d="M103.039,58.468a11.29,11.29,0,0,0,2.31-10.259,15.245,15.245,0,0,0-2.31,10.259" transform="translate(-101.549 -32.796)" fill="#5c3c8f"/>
        <path id="패스_863" data-name="패스 863" d="M127.86,33.8a15.328,15.328,0,0,0-10.116,2.223,13.643,13.643,0,0,0,8.2,10.343,16.961,16.961,0,0,0,4.719-9.141A16.568,16.568,0,0,0,127.86,33.8" transform="translate(-109.196 -25.304)" fill="#5f378c"/>
        <path id="패스_864" data-name="패스 864" d="M117.545,31.527A15.323,15.323,0,0,1,127.659,29.3a16.442,16.442,0,0,0-9.591-4.353,13.612,13.612,0,0,0-.365,7.373q-.09-.395-.157-.8" transform="translate(-108.997 -20.808)" fill="#7259a2"/>
        <path id="패스_865" data-name="패스 865" d="M139.389,41.008a16.963,16.963,0,0,1-4.719,9.139,13.59,13.59,0,0,0,5.241,1.046,13.738,13.738,0,0,0,1.858-.129q.06-.7.062-1.418a16.419,16.419,0,0,0-2.441-8.637" transform="translate(-117.92 -29.084)" fill="#5c4494"/>
        <path id="패스_866" data-name="패스 866" d="M141.426,37.36a17.115,17.115,0,0,0,.241-2.711,15.363,15.363,0,0,0-3.046-.714,16.593,16.593,0,0,1,2.8,3.426" transform="translate(-119.957 -25.438)" fill="#9c60a3"/>
      </g>
    </g>
    <g id="그룹_931" data-name="그룹 931" transform="translate(0 0)">
      <g id="그룹_930" data-name="그룹 930" clip-path="url(#clip-path)">
        <path id="패스_868" data-name="패스 868" d="M153.278,46.3a8.677,8.677,0,1,1,8.651,8.68,8.65,8.65,0,0,1-8.651-8.68m12.965.016a4.22,4.22,0,0,0-5.113-4.33A4.406,4.406,0,1,0,163,50.6a4.2,4.2,0,0,0,3.246-4.283" transform="translate(-79.009 -19.406)" fill="#221f1c"/>
        <path id="패스_869" data-name="패스 869" d="M189.942,30.523a8.677,8.677,0,1,1,8.635,8.7,8.651,8.651,0,0,1-8.635-8.7m12.965.032a4.22,4.22,0,0,0-5.113-4.329,4.406,4.406,0,1,0,1.866,8.612,4.2,4.2,0,0,0,3.246-4.283" transform="translate(-97.908 -11.28)" fill="#221f1c"/>
        <path id="패스_870" data-name="패스 870" d="M142.467,33.39h0a1.926,1.926,0,0,1-1.927-1.927V11.177a1.927,1.927,0,0,1,3.853,0V31.463a1.926,1.926,0,0,1-1.927,1.927" transform="translate(-72.443 -4.768)" fill="#221f1c"/>
        <path id="패스_871" data-name="패스 871" d="M248.778,30.843a7.281,7.281,0,0,0-5.578,2.6,7.292,7.292,0,0,0-12.873,4.67h0v7.715a1.927,1.927,0,0,0,3.853,0V38.139a3.442,3.442,0,0,1,6.874-.25v7.743a2.16,2.16,0,0,0,2.16,2.16h0a2.16,2.16,0,0,0,2.16-2.16V37.651a3.441,3.441,0,0,1,6.847.452h0v7.754a1.926,1.926,0,1,0,3.853,0V38.139h0a7.3,7.3,0,0,0-7.3-7.3" transform="translate(-118.724 -15.898)" fill="#221f1c"/>
        <path id="패스_872" data-name="패스 872" d="M32.745,26.674a10.324,10.324,0,0,1,.536-3.3q-.622-.062-1.26-.063a12.481,12.481,0,0,0-7.95,2.846,8.579,8.579,0,0,1,3.4,13.632,12.934,12.934,0,0,0,11.645-3.559,10.357,10.357,0,0,1-6.374-9.56" transform="translate(-12.408 -12.018)" fill="#7d6cae"/>
        <path id="패스_873" data-name="패스 873" d="M14.654,46.879c-.032.369-.05.742-.05,1.12a12.475,12.475,0,0,0,2.058,6.883A8.561,8.561,0,0,0,22.6,51.939a12.92,12.92,0,0,1-7.942-5.06" transform="translate(-7.528 -24.164)" fill="#6a398d"/>
        <path id="패스_874" data-name="패스 874" d="M24.351,57.324l-.1-.021.04.009a8.564,8.564,0,0,1-5.934,2.943q-.243-.369-.461-.757a12.533,12.533,0,0,0,10.94,6.411q.616,0,1.216-.059a11.658,11.658,0,0,1-5.705-8.526" transform="translate(-9.227 -29.537)" fill="#8a5fa4"/>
        <path id="패스_875" data-name="패스 875" d="M22.649,42.819a8.581,8.581,0,0,0-3.406-13.632,12.513,12.513,0,0,0-4.535,8.572,12.92,12.92,0,0,0,7.942,5.06" transform="translate(-7.581 -15.045)" fill="#704695"/>
        <path id="패스_876" data-name="패스 876" d="M58.225,19.671c0,.038,0,.077,0,.115A11.687,11.687,0,0,1,65.4,26.894,10.355,10.355,0,0,0,53.826,9.959a12.891,12.891,0,0,1,4.4,9.712" transform="translate(-27.745 -4.575)" fill="#e2cfe6"/>
        <path id="패스_877" data-name="패스 877" d="M42.8,49.978a12.935,12.935,0,0,1-11.587,3.57h0a11.655,11.655,0,0,0,5.705,8.526,12.54,12.54,0,0,0,11.274-11.4,10.443,10.443,0,0,1-1.412.1,10.318,10.318,0,0,1-3.981-.794" transform="translate(-16.089 -25.762)" fill="#673e90"/>
        <path id="패스_878" data-name="패스 878" d="M62.708,31.269c0-.038,0-.077,0-.115a13.013,13.013,0,0,1-.184,2.178,12.473,12.473,0,0,1,1.854,6.561c0,.363-.016.722-.047,1.078a10.32,10.32,0,0,0,5.551-2.6,11.687,11.687,0,0,0-7.177-7.1" transform="translate(-32.23 -16.059)" fill="#b27ab3"/>
        <path id="패스_879" data-name="패스 879" d="M54.262,48.65a12.54,12.54,0,0,1-11.274,11.4,11.658,11.658,0,0,0,16.826-14,10.319,10.319,0,0,1-5.552,2.6" transform="translate(-22.159 -23.738)" fill="#cb9dc8"/>
        <g id="그룹_896" data-name="그룹 896" transform="translate(9.592 16.274)" style="mix-blend-mode: multiply;isolation: isolate">
          <g id="그룹_895" data-name="그룹 895">
            <g id="그룹_894" data-name="그룹 894" clip-path="url(#clip-path-16)">
              <path id="패스_880" data-name="패스 880" d="M19.8,33.613l.021-.028-.021.028" transform="translate(-19.797 -33.585)" fill="#c989b2"/>
            </g>
          </g>
        </g>
        <g id="그룹_899" data-name="그룹 899" transform="translate(9.249 16.732)" style="mix-blend-mode: multiply;isolation: isolate">
          <g id="그룹_898" data-name="그룹 898">
            <g id="그룹_897" data-name="그룹 897" clip-path="url(#clip-path-17)">
              <path id="패스_881" data-name="패스 881" d="M19.089,34.58l.033-.049-.033.049" transform="translate(-19.089 -34.531)" fill="#c989b2"/>
            </g>
          </g>
        </g>
        <g id="그룹_902" data-name="그룹 902" transform="translate(8.663 17.724)" style="mix-blend-mode: multiply;isolation: isolate">
          <g id="그룹_901" data-name="그룹 901">
            <g id="그룹_900" data-name="그룹 900" clip-path="url(#clip-path-18)">
              <path id="패스_882" data-name="패스 882" d="M17.878,36.583l0,0,0,0" transform="translate(-17.878 -36.58)" fill="#c989b2"/>
            </g>
          </g>
        </g>
        <g id="그룹_905" data-name="그룹 905" transform="translate(8.952 17.232)" style="mix-blend-mode: multiply;isolation: isolate">
          <g id="그룹_904" data-name="그룹 904">
            <g id="그룹_903" data-name="그룹 903" clip-path="url(#clip-path-19)">
              <path id="패스_883" data-name="패스 883" d="M18.476,35.568l0,0,0,0" transform="translate(-18.476 -35.564)" fill="#c989b2"/>
            </g>
          </g>
        </g>
        <g id="그룹_908" data-name="그룹 908" transform="translate(9.944 15.842)" style="mix-blend-mode: multiply;isolation: isolate">
          <g id="그룹_907" data-name="그룹 907">
            <g id="그룹_906" data-name="그룹 906" clip-path="url(#clip-path-20)">
              <path id="패스_884" data-name="패스 884" d="M20.524,32.707l.011-.013-.011.013" transform="translate(-20.524 -32.694)" fill="#c989b2"/>
            </g>
          </g>
        </g>
        <g id="그룹_911" data-name="그룹 911" transform="translate(10.298 15.389)" style="mix-blend-mode: multiply;isolation: isolate">
          <g id="그룹_910" data-name="그룹 910">
            <g id="그룹_909" data-name="그룹 909" clip-path="url(#clip-path-21)">
              <path id="패스_885" data-name="패스 885" d="M21.253,31.817l.052-.058-.052.058" transform="translate(-21.253 -31.759)" fill="#c989b2"/>
            </g>
          </g>
        </g>
        <g id="그룹_914" data-name="그룹 914" transform="translate(8.386 18.215)" style="mix-blend-mode: multiply;isolation: isolate">
          <g id="그룹_913" data-name="그룹 913">
            <g id="그룹_912" data-name="그룹 912" clip-path="url(#clip-path-22)">
              <path id="패스_886" data-name="패스 886" d="M17.307,37.63l.018-.037-.018.037" transform="translate(-17.307 -37.593)" fill="#c989b2"/>
            </g>
          </g>
        </g>
        <g id="그룹_917" data-name="그룹 917" transform="translate(7.725 19.82)" style="mix-blend-mode: multiply;isolation: isolate">
          <g id="그룹_916" data-name="그룹 916">
            <g id="그룹_915" data-name="그룹 915" clip-path="url(#clip-path-23)">
              <path id="패스_887" data-name="패스 887" d="M15.944,40.931l.009-.027-.009.027" transform="translate(-15.944 -40.904)" fill="#c989b2"/>
            </g>
          </g>
        </g>
        <g id="그룹_920" data-name="그룹 920" transform="translate(10.702 14.974)" style="mix-blend-mode: multiply;isolation: isolate">
          <g id="그룹_919" data-name="그룹 919">
            <g id="그룹_918" data-name="그룹 918" clip-path="url(#clip-path-24)">
              <path id="패스_888" data-name="패스 888" d="M22.087,30.948l.044-.044-.044.044" transform="translate(-22.087 -30.904)" fill="#c989b2"/>
            </g>
          </g>
        </g>
        <path id="패스_889" data-name="패스 889" d="M7.126,38.171a12.861,12.861,0,0,1-2.488-7.622c0-.191.005-.381.014-.57A8.583,8.583,0,0,0,8.583,46.19c.185,0,.369-.008.551-.02a12.475,12.475,0,0,1-2.058-6.883q0-.565.049-1.116" transform="translate(0 -15.452)" fill="#bd6ba8"/>
        <g id="그룹_923" data-name="그룹 923" transform="translate(7.286 21.525)" style="mix-blend-mode: multiply;isolation: isolate">
          <g id="그룹_922" data-name="그룹 922">
            <g id="그룹_921" data-name="그룹 921" clip-path="url(#clip-path-25)">
              <path id="패스_890" data-name="패스 890" d="M15.037,44.443l0-.021,0,.021" transform="translate(-15.037 -44.422)" fill="#c989b2"/>
            </g>
          </g>
        </g>
        <g id="그룹_926" data-name="그룹 926" transform="translate(11.111 14.603)" style="mix-blend-mode: multiply;isolation: isolate">
          <g id="그룹_925" data-name="그룹 925">
            <g id="그룹_924" data-name="그룹 924" clip-path="url(#clip-path-26)">
              <path id="패스_891" data-name="패스 891" d="M22.931,30.157l.021-.019-.021.019" transform="translate(-22.931 -30.138)" fill="#c989b2"/>
            </g>
          </g>
        </g>
        <g id="그룹_929" data-name="그룹 929" transform="translate(11.515 14.206)" style="mix-blend-mode: multiply;isolation: isolate">
          <g id="그룹_928" data-name="그룹 928">
            <g id="그룹_927" data-name="그룹 927" clip-path="url(#clip-path-27)">
              <path id="패스_892" data-name="패스 892" d="M23.765,29.378l.071-.06-.071.06" transform="translate(-23.765 -29.318)" fill="#c989b2"/>
            </g>
          </g>
        </g>
        <path id="패스_893" data-name="패스 893" d="M13.517,28.009a8.543,8.543,0,0,0-3.932.955c-.008.189-.013.379-.013.57a12.862,12.862,0,0,0,2.488,7.622c.035-.4.09-.787.16-1.173,0-.007,0-.014,0-.021a12.487,12.487,0,0,1,.436-1.678l.009-.027a12.437,12.437,0,0,1,.652-1.567l.018-.037q.124-.247.258-.488l0,0q.139-.248.288-.488l0,0c.095-.153.193-.3.295-.452l.033-.049c.1-.145.2-.289.31-.43l.021-.028q.161-.213.331-.419l.011-.013c.111-.135.226-.266.343-.4l.052-.057q.172-.189.352-.371l.044-.044q.179-.18.365-.352l.021-.019c.125-.115.253-.227.383-.337l.071-.06.075-.064a8.563,8.563,0,0,0-3.078-.571" transform="translate(-4.934 -14.437)" fill="#9f5099"/>
        <path id="패스_894" data-name="패스 894" d="M22.506,4.488A12.921,12.921,0,0,0,9.6,16.839a8.578,8.578,0,0,1,7.013-.382,12.479,12.479,0,0,1,7.949-2.846q.639,0,1.262.063A10.387,10.387,0,0,1,31.028,7.7a12.871,12.871,0,0,0-8.522-3.21" transform="translate(-4.947 -2.313)" fill="#f2b3d1"/>
        <path id="패스_895" data-name="패스 895" d="M50.373,20.4a11.587,11.587,0,0,1,2.311.543c0-.039,0-.078,0-.118a12.889,12.889,0,0,0-4.4-9.711,10.389,10.389,0,0,0-5.208,5.977A12.491,12.491,0,0,1,50.373,20.4" transform="translate(-22.205 -5.728)" fill="#db9bc4"/>
        <path id="패스_896" data-name="패스 896" d="M36.559,33.757a11.728,11.728,0,0,0-3.607,3.566A8.577,8.577,0,0,1,31.2,45.118c0,.023,0,.046.008.069a13.009,13.009,0,0,0,2.435.23,12.878,12.878,0,0,0,9.151-3.8,10.367,10.367,0,0,1-6.232-7.859" transform="translate(-16.081 -17.4)" fill="#5c4494"/>
        <path id="패스_897" data-name="패스 897" d="M31.092,48.912a8.58,8.58,0,0,0,1.755-7.795,11.59,11.59,0,0,0-1.755,7.795" transform="translate(-15.976 -21.194)" fill="#5c3c8f"/>
        <path id="패스_898" data-name="패스 898" d="M49.949,30.169a11.72,11.72,0,0,0-1.49-.1,11.6,11.6,0,0,0-6.2,1.785,10.368,10.368,0,0,0,6.232,7.86,12.889,12.889,0,0,0,3.586-6.946,12.6,12.6,0,0,0-2.131-2.6" transform="translate(-21.785 -15.502)" fill="#5f378c"/>
        <path id="패스_899" data-name="패스 899" d="M42.113,28.442A11.649,11.649,0,0,1,49.8,26.753a12.491,12.491,0,0,0-7.287-3.307,10.339,10.339,0,0,0-.277,5.6q-.068-.3-.12-.606" transform="translate(-21.635 -12.085)" fill="#7259a2"/>
        <path id="패스_900" data-name="패스 900" d="M58.71,35.646a12.89,12.89,0,0,1-3.585,6.944,10.32,10.32,0,0,0,3.981.795,10.437,10.437,0,0,0,1.412-.1c.03-.355.047-.715.047-1.078a12.474,12.474,0,0,0-1.855-6.563" transform="translate(-28.415 -18.374)" fill="#5c4494"/>
        <path id="패스_901" data-name="패스 901" d="M60.257,32.874a12.94,12.94,0,0,0,.183-2.06,11.647,11.647,0,0,0-2.314-.542,12.586,12.586,0,0,1,2.131,2.6" transform="translate(-29.962 -15.604)" fill="#9c60a3"/>
        <path id="패스_902" data-name="패스 902" d="M35.392,22.968a6.492,6.492,0,0,0-3.6,1.082V18.413a1.464,1.464,0,1,0-2.927,0V29.138c-.007.12-.011.241-.011.362a6.533,6.533,0,1,0,6.533-6.533m0,9.961A3.428,3.428,0,1,1,38.821,29.5a3.433,3.433,0,0,1-3.429,3.429" transform="translate(-14.876 -8.736)" fill="#fff"/>
      </g>
    </g>
  </g>
</svg>
