<?xml version="1.0" encoding="utf-8"?>
<!-- Generator: Adobe Illustrator 26.2.1, SVG Export Plug-In . SVG Version: 6.00 Build 0)  -->
<svg version="1.1" id="Layer_1" xmlns="http://www.w3.org/2000/svg" xmlns:xlink="http://www.w3.org/1999/xlink" x="0px" y="0px"
	 width="313px" height="85.3px" viewBox="0 0 313 85.3" style="enable-background:new 0 0 313 85.3;" xml:space="preserve">
<style type="text/css">
	.st0{opacity:0.47;}
	.st1{clip-path:url(#SVGID_00000069358821012182070020000001986904485570608261_);}
	.st2{fill:#333333;}
	.st3{fill:#FFFFFF;}
</style>
<g>
	<g id="그룹_802_00000040548340079206231560000010933351735543313847_" class="st0">
		<g>
			<defs>
				<rect id="SVGID_1_" x="1.3" y="1" width="311" height="83.3"/>
			</defs>
			<clipPath id="SVGID_00000103987308928872143090000006440125968606683552_">
				<use xlink:href="#SVGID_1_"  style="overflow:visible;"/>
			</clipPath>
			
				<g id="그룹_801_00000134949325436114991500000015314085867386852543_" style="clip-path:url(#SVGID_00000103987308928872143090000006440125968606683552_);">
				<path id="패스_836_00000166662812739955690900000008265762068046640051_" class="st2" d="M280.9,1H32.7
					C15.4,1,1.3,15.1,1.3,32.4l0,0c0,17.3,14.1,31.4,31.4,31.4h114.9l9.2,20.5l9.2-20.5h114.9c17.3,0,31.4-14.1,31.4-31.4
					c0,0,0,0,0,0l0,0C312.3,15.1,298.3,1,280.9,1"/>
			</g>
		</g>
	</g>
	<g>
		<g>
			<path class="st3" d="M87.3,40.4h-7.8V23.7h2.2v14.8h6c1.7,0,3.1-0.4,3.8-1.1V23.5h2.2v7.4h2.8v1.9h-2.8v8.8h-2.2v-2.4
				C90.8,40,89.2,40.4,87.3,40.4z"/>
			<path class="st3" d="M98.2,34.2v-1.9h16.3v1.9H98.2z M101.5,23.6V28h11.9v1.9H99.4v-6.3H101.5z M101.5,35.9v3.9h12.1v1.9H99.4
				v-5.8H101.5z"/>
			<path class="st3" d="M127.4,25.6V23h2.2v2.6h4.2v1.9h-10.7v-1.9H127.4z M123.9,34.8c0-2.4,0.7-4.2,2-5.2c0.7-0.5,1.6-0.8,2.6-0.8
				c1,0,1.9,0.3,2.5,0.8c1.3,0.9,2,2.7,2,5.2c0,2.5-0.7,4.2-2,5.2c-0.7,0.5-1.6,0.8-2.6,0.8c-1,0-1.9-0.3-2.6-0.8
				C124.6,39,123.9,37.3,123.9,34.8z M126.1,34.8c0,1.8,0.4,3,1.1,3.6c0.4,0.3,0.8,0.4,1.3,0.4c0.6,0,1-0.2,1.4-0.6
				c0.6-0.6,1-1.8,1-3.5c0-1.7-0.4-2.9-1-3.5c-0.4-0.3-0.8-0.5-1.4-0.5c-0.6,0-1.1,0.2-1.4,0.5C126.4,31.9,126.1,33.1,126.1,34.8z
				 M138.4,23.5v18.1h-2.2V23.5H138.4z"/>
			<path class="st3" d="M142.4,34.7v-1.9h16.3v1.9H142.4z M157.5,25.6h-11.8v3.2h11.9v1.9h-14.1v-6.9h14V25.6z M145.7,36.4v3.4h12.1
				v1.9h-14.3v-5.3H145.7z"/>
			<path class="st3" d="M167.8,32.1c0-3.3,0.3-5.7,1.5-7.2c0.8-0.9,1.9-1.4,3.2-1.4c1.3,0,2.5,0.5,3.2,1.4c1.2,1.4,1.5,3.9,1.5,7.2
				s-0.3,5.7-1.5,7.2c-0.7,0.9-1.9,1.4-3.2,1.4c-1.4,0-2.5-0.5-3.2-1.4C168.1,37.8,167.8,35.3,167.8,32.1z M175,32.1
				c0-2.9-0.2-5-0.9-5.9c-0.4-0.5-0.9-0.8-1.6-0.8c-0.7,0-1.2,0.3-1.6,0.8c-0.8,1-0.9,3.1-0.9,5.9c0,2.9,0.2,5,0.9,6
				c0.4,0.5,0.9,0.7,1.6,0.7c0.6,0,1.2-0.3,1.6-0.7C174.8,37,175,34.9,175,32.1z M182.2,23.5v7.4h2.8v1.9h-2.8v8.8H180V23.5H182.2z"
				/>
			<path class="st3" d="M189.4,30.2h4.5v-6.4h2.2v16.6h-8.8V23.8h2.2V30.2z M193.8,38.5v-6.4h-4.5v6.4H193.8z M201.4,23.5v7.4h2.8
				v1.9h-2.8v8.8h-2.2V23.5H201.4z"/>
			<path class="st3" d="M214.3,40.4h-7.9V23.8h8.8v1.9h-6.6v5.3h6.4V33h-6.4v5.6h5.6c1.9,0,3.4-0.3,4.2-1v-14h2.2v7.4h2.8v1.9h-2.8
				v8.8h-2.2v-2.3C217.7,40,216.1,40.4,214.3,40.4z"/>
			<path class="st3" d="M227.8,40.4h-2.3v-2.3h2.3V40.4z M227.8,27.5l-0.2,8.6h-1.8l-0.2-8.6v-2.7h2.2V27.5z"/>
			<path class="st3" d="M234.1,40.4h-2.3v-2.3h2.3V40.4z M234.1,27.5l-0.2,8.6H232l-0.2-8.6v-2.7h2.2V27.5z"/>
		</g>
	</g>
</g>
</svg>
