<?xml version="1.0" encoding="utf-8"?>
<!-- Generator: Adobe Illustrator 26.2.1, SVG Export Plug-In . SVG Version: 6.00 Build 0)  -->
<svg version="1.1" id="Layer_1" xmlns="http://www.w3.org/2000/svg" xmlns:xlink="http://www.w3.org/1999/xlink" x="0px" y="0px"
	 width="313px" height="85.3px" viewBox="0 0 313 85.3" style="enable-background:new 0 0 313 85.3;" xml:space="preserve">
<style type="text/css">
	.st0{opacity:0.47;}
	.st1{clip-path:url(#SVGID_00000041975117817217686140000000455915730675482300_);}
	.st2{fill:#333333;}
	.st3{fill:#FFFFFF;}
</style>
<g>
	<g id="그룹_802" class="st0">
		<g>
			<defs>
				<rect id="SVGID_1_" x="0.7" y="1" width="311" height="83.3"/>
			</defs>
			<clipPath id="SVGID_00000075863161875693768810000007672706197018043522_">
				<use xlink:href="#SVGID_1_"  style="overflow:visible;"/>
			</clipPath>
			<g id="그룹_801" style="clip-path:url(#SVGID_00000075863161875693768810000007672706197018043522_);">
				<path id="패스_836" class="st2" d="M280.4,1H32.1C14.8,1,0.7,15.1,0.7,32.4l0,0c0,17.3,14.1,31.4,31.4,31.4h114.9l9.2,20.5
					l9.2-20.5h114.9c17.3,0,31.4-14.1,31.4-31.4c0,0,0,0,0,0l0,0C311.7,15.1,297.7,1,280.4,1"/>
			</g>
		</g>
	</g>
	<g>
		<g>
			<path class="st3" d="M34.4,37.8v-1.9h16.1v1.9h-7v4.2h-2.2v-4.2H34.4z M49.6,25.6h-12v2.1h11.8v1.9H37.5v2.2h12.3v1.9H35.4V23.7
				h14.2V25.6z"/>
			<path class="st3" d="M53.5,25.7v-1.9h9.8v1.9h-3.9v4.9c0,4.8,1.9,6.8,4,7.8v2c-2.3-0.8-4.2-2.5-5.1-4.5c-0.9,1.9-2.9,3.7-5.1,4.5
				v-2c2.1-1,4-3,4-7.8v-4.9H53.5z M67.9,23.5v7.4h2.8v1.9h-2.8v8.8h-2.2V23.5H67.9z"/>
			<path class="st3" d="M82.1,26.5H71.9v-1.8H76V23h2.2v1.7h3.9V26.5z M72.4,30.8c0-1.1,0.5-1.9,1.3-2.5c0.8-0.6,2-0.9,3.3-0.9
				c1.3,0,2.5,0.3,3.3,0.9c0.8,0.6,1.3,1.4,1.3,2.5c0,1.1-0.5,1.9-1.3,2.5c-0.8,0.6-2,0.9-3.3,0.9c-1.4,0-2.6-0.3-3.4-0.9
				C72.9,32.6,72.4,31.8,72.4,30.8z M73.4,38.6c0-1.1,0.5-1.8,1.4-2.4c1.3-0.8,3.3-1,5.7-1c2.4,0,4.5,0.3,5.7,1
				c0.9,0.5,1.4,1.3,1.4,2.4c0,1.1-0.5,1.8-1.4,2.4c-1.3,0.8-3.3,1-5.7,1c-2.4,0-4.4-0.3-5.7-1C73.9,40.5,73.4,39.7,73.4,38.6z
				 M74.5,30.8c0,0.5,0.2,0.9,0.6,1.1c0.5,0.3,1.1,0.5,1.9,0.5c0.8,0,1.5-0.2,2-0.6c0.3-0.3,0.5-0.6,0.5-1.1s-0.2-0.9-0.6-1.1
				c-0.5-0.4-1.2-0.5-1.9-0.5c-0.8,0-1.5,0.2-1.9,0.5C74.7,29.9,74.5,30.3,74.5,30.8z M75.5,38.6c0,0.4,0.2,0.7,0.6,0.9
				c0.8,0.5,2.4,0.7,4.3,0.7c2,0,3.5-0.2,4.3-0.7c0.4-0.2,0.6-0.5,0.6-0.9c0-0.4-0.2-0.7-0.6-0.9c-0.8-0.5-2.3-0.7-4.3-0.7
				c-2,0-3.5,0.2-4.3,0.7C75.7,38,75.5,38.3,75.5,38.6z M82.2,29.2v-1.8H85v-3.9h2.2v11.2H85v-2h-2.8v-1.8H85v-1.7H82.2z"/>
			<path class="st3" d="M98.6,26.9h3v-3.2h2v10h-7.1v-10h2V26.9z M104.4,38.7c-1.4,1.6-4.1,2.8-7.5,3.1V40c3.7-0.4,6.4-2.2,6.4-4.6
				v-0.5h2.2v0.5c0,2.4,2.6,4.1,6.4,4.6v1.9C108.4,41.5,105.8,40.3,104.4,38.7z M101.6,31.9v-3.2h-3v3.2H101.6z M111.6,34.7h-2.1
				v-5.1h-2V34h-2.1V23.6h2.1v4.1h2v-4.2h2.1V34.7z"/>
			<path class="st3" d="M115.4,25.7v-1.9h9.8v1.9h-3.8v4.9c0,4.8,1.9,6.8,4,7.8v2c-2.3-0.8-4.2-2.5-5.1-4.5
				c-0.9,1.9-2.9,3.7-5.1,4.5v-2c2.1-1,4-3,4-7.8v-4.9H115.4z M130.1,23.5v18.1H128V23.5H130.1z"/>
			<path class="st3" d="M140,29.7c0-0.8,0.4-1.5,1.1-1.9c0.9-0.5,2.2-0.8,3.7-0.8c1.5,0,2.7,0.3,3.6,0.8c0.7,0.5,1.2,1.1,1.2,1.9
				c0,0.8-0.4,1.4-1.1,1.9c-0.7,0.4-1.6,0.7-2.7,0.8v1.3h2.9c1.6,0,2.8-0.3,3.5-0.8v-9.4h2.2V36h-2.2v-1.5c-0.7,0.6-2,0.9-4,0.9
				h-9.1v-1.8h4.6v-1.3c-0.9-0.1-1.8-0.3-2.4-0.7C140.5,31.2,140,30.6,140,29.7z M143.7,23h2.2v1.6h4.2v1.6h-10.6v-1.6h4.2V23z
				 M152.2,41.9v-3.1h-11.6v-1.8h13.8v4.8H152.2z M142,29.7c0,0.3,0.2,0.5,0.4,0.7c0.5,0.3,1.3,0.4,2.4,0.4c1,0,1.9-0.1,2.4-0.4
				c0.3-0.2,0.4-0.4,0.4-0.7c0-0.3-0.2-0.5-0.4-0.7c-0.5-0.3-1.3-0.4-2.4-0.4c-1,0-1.8,0.1-2.3,0.4C142.2,29.2,142,29.4,142,29.7z"
				/>
			<path class="st3" d="M157.9,34.1v-1.9h16.3v1.9H157.9z M170.9,41.9V38H159v-1.9h14.1v5.7H170.9z M173.1,25.5h-11.8v2.9h11.9v1.8
				h-14.1v-6.6h14V25.5z"/>
			<path class="st3" d="M180.6,33.9v-1.6h-3.9v-1.8h16.3v1.8h-3.9v1.6h2.7v4.8h-11.8V40h12.2v1.8h-14.4V37h11.8v-1.3h-11.8v-1.8
				H180.6z M177.6,26.4c0-0.8,0.3-1.3,0.9-1.8c1.1-0.8,3.3-1.1,6.5-1.1c3.2,0,5.3,0.3,6.4,1.1c0.6,0.4,0.9,1,0.9,1.8
				c0,0.7-0.3,1.3-0.9,1.8c-1.1,0.8-3.2,1.1-6.4,1.1c-3.2,0-5.3-0.3-6.5-1.1C177.9,27.7,177.6,27.1,177.6,26.4z M179.8,26.4
				c0,0.2,0.1,0.4,0.4,0.6c0.6,0.4,2.2,0.5,4.8,0.5s4.2-0.1,4.8-0.5c0.2-0.2,0.4-0.4,0.4-0.6c0-0.2-0.1-0.4-0.4-0.6
				c-0.6-0.4-2.2-0.5-4.8-0.5s-4.2,0.1-4.8,0.5C179.9,25.9,179.8,26.1,179.8,26.4z M187.1,33.9v-1.6h-4.3v1.6H187.1z"/>
			<path class="st3" d="M209.3,39.3c-0.9,0.9-2.1,1.4-3.6,1.4c-1.5,0-2.8-0.5-3.6-1.4c-1.1-1.2-1.6-3.1-1.6-6.7
				c0-3.6,0.5-5.5,1.6-6.7c0.8-0.9,2.1-1.4,3.6-1.4c1.5,0,2.7,0.5,3.6,1.4c1.1,1.2,1.6,3.1,1.6,6.7C210.9,36.2,210.4,38,209.3,39.3z
				 M207.7,27.3c-0.5-0.6-1.1-0.9-2-0.9c-0.9,0-1.5,0.3-2,0.9c-0.7,0.8-0.9,2.3-0.9,5.2c0,3,0.3,4.4,0.9,5.2c0.5,0.6,1.2,0.9,2,0.9
				c0.9,0,1.5-0.3,2-0.9c0.7-0.8,0.9-2.3,0.9-5.2C208.6,29.6,208.4,28.2,207.7,27.3z"/>
			<path class="st3" d="M215.8,40.4h-2.5v-2.7h2.5V40.4z"/>
			<path class="st3" d="M221.3,33.5h-2.2l0.4-8.7h8v2h-5.9l-0.2,4.8c0.4-0.7,1.4-1.2,2.6-1.2c2.5,0,4.4,1.8,4.4,5.2
				c0,3.3-1.9,5.2-4.9,5.2c-2.8,0-4.7-1.7-4.9-4.5h2.2c0.2,1.7,1.2,2.5,2.7,2.5c1.7,0,2.7-1.2,2.7-3.3c0-2.1-1-3.3-2.7-3.3
				C222.5,32.2,221.7,32.7,221.3,33.5z"/>
			<path class="st3" d="M233.5,32.9c-2.2,0-3.3-1.5-3.3-4.2c0-2.7,1.1-4.2,3.3-4.2c2.1,0,3.3,1.4,3.3,4.2
				C236.8,31.5,235.6,32.9,233.5,32.9z M233.5,26.1c-1,0-1.4,0.7-1.4,2.6c0,2,0.4,2.6,1.4,2.6c0.9,0,1.4-0.7,1.4-2.6
				C234.9,26.8,234.4,26.1,233.5,26.1z M233.8,40.4l6.4-15.7h1.9l-6.4,15.7H233.8z M242.5,32.2c2.1,0,3.2,1.5,3.2,4.2
				c0,2.8-1.2,4.2-3.2,4.2c-2.1,0-3.2-1.4-3.2-4.2C239.3,33.7,240.5,32.2,242.5,32.2z M242.5,39.1c0.9,0,1.4-0.6,1.4-2.6
				c0-1.9-0.4-2.6-1.4-2.6s-1.4,0.7-1.4,2.6C241.1,38.5,241.6,39.1,242.5,39.1z"/>
			<path class="st3" d="M262.4,34.3v-9.6h2.3v9.9c0,3.7-1.9,6.1-5.8,6.1c-3.9,0-5.8-2.4-5.8-6.1v-9.9h2.3v9.6c0,2.8,1,4.4,3.5,4.4
				C261.4,38.7,262.4,37.1,262.4,34.3z"/>
			<path class="st3" d="M269.4,34.5v5.9H267V24.7h6.1c3.1,0,4.9,1.8,4.9,4.9c0,3.1-1.8,4.9-4.9,4.9H269.4z M272.8,32.5
				c1.9,0,2.9-1.1,2.9-2.9s-1-2.9-2.9-2.9h-3.5v5.8H272.8z"/>
		</g>
	</g>
</g>
</svg>
