<?xml version="1.0" encoding="utf-8"?>
<!-- Generator: Adobe Illustrator 26.2.1, SVG Export Plug-In . SVG Version: 6.00 Build 0)  -->
<svg version="1.1" id="Layer_1" xmlns="http://www.w3.org/2000/svg" xmlns:xlink="http://www.w3.org/1999/xlink" x="0px" y="0px"
	 width="313px" height="85.3px" viewBox="0 0 313 85.3" style="enable-background:new 0 0 313 85.3;" xml:space="preserve">
<style type="text/css">
	.st0{opacity:0.47;}
	.st1{clip-path:url(#SVGID_00000170252753530136128670000002730206530766985917_);}
	.st2{fill:#333333;}
	.st3{fill:#FFFFFF;}
</style>
<g>
	<g id="그룹_802_00000045592358206313617530000017270703907096580027_" class="st0">
		<g>
			<defs>
				<rect id="SVGID_1_" x="1" y="1" width="311" height="83.3"/>
			</defs>
			<clipPath id="SVGID_00000023255060166252437810000018284793865622738094_">
				<use xlink:href="#SVGID_1_"  style="overflow:visible;"/>
			</clipPath>
			
				<g id="그룹_801_00000035494339682587347350000003917859783641610940_" style="clip-path:url(#SVGID_00000023255060166252437810000018284793865622738094_);">
				<path id="패스_836_00000176020731108482312190000017743674398042828428_" class="st2" d="M280.6,1H32.4C15.1,1,1,15.1,1,32.4
					l0,0c0,17.3,14.1,31.4,31.4,31.4h114.9l9.2,20.5l9.2-20.5h114.9c17.3,0,31.4-14.1,31.4-31.4c0,0,0,0,0,0l0,0
					C312,15.1,297.9,1,280.6,1"/>
			</g>
		</g>
	</g>
	<g>
		<g>
			<path class="st3" d="M40.5,37.8v-1.9h16.1v1.9h-7v4.2h-2.2v-4.2H40.5z M55.7,25.6h-12v2.1h11.8v1.9H43.6v2.2h12.3v1.9H41.5V23.7
				h14.2V25.6z"/>
			<path class="st3" d="M60,25.7v-1.9h9.8v1.9H66v4.9c0,4.8,1.9,6.8,4,7.8v2c-2.3-0.8-4.2-2.5-5.1-4.5c-0.9,1.9-2.9,3.7-5.1,4.5v-2
				c2.1-1,4-3,4-7.8v-4.9H60z M74.4,23.5v7.4h2.8v1.9h-2.8v8.8h-2.2V23.5H74.4z"/>
			<path class="st3" d="M89,26.5H78.8v-1.8h4.1V23h2.2v1.7H89V26.5z M79.3,30.8c0-1.1,0.5-1.9,1.3-2.5c0.8-0.6,2-0.9,3.3-0.9
				c1.3,0,2.5,0.3,3.3,0.9c0.8,0.6,1.3,1.4,1.3,2.5c0,1.1-0.5,1.9-1.3,2.5c-0.8,0.6-2,0.9-3.3,0.9c-1.4,0-2.6-0.3-3.4-0.9
				C79.8,32.6,79.3,31.8,79.3,30.8z M80.3,38.6c0-1.1,0.5-1.8,1.4-2.4c1.3-0.8,3.3-1,5.7-1s4.5,0.3,5.7,1c0.9,0.5,1.4,1.3,1.4,2.4
				c0,1.1-0.5,1.8-1.4,2.4c-1.3,0.8-3.3,1-5.7,1s-4.4-0.3-5.7-1C80.8,40.5,80.3,39.7,80.3,38.6z M81.4,30.8c0,0.5,0.2,0.9,0.6,1.1
				c0.5,0.3,1.1,0.5,1.9,0.5c0.8,0,1.5-0.2,2-0.6c0.3-0.3,0.5-0.6,0.5-1.1s-0.2-0.9-0.6-1.1c-0.5-0.4-1.2-0.5-1.9-0.5
				c-0.8,0-1.5,0.2-1.9,0.5C81.6,29.9,81.4,30.3,81.4,30.8z M82.4,38.6c0,0.4,0.2,0.7,0.6,0.9c0.8,0.5,2.4,0.7,4.3,0.7
				c2,0,3.5-0.2,4.3-0.7c0.4-0.2,0.6-0.5,0.6-0.9c0-0.4-0.2-0.7-0.6-0.9c-0.8-0.5-2.3-0.7-4.3-0.7c-2,0-3.5,0.2-4.3,0.7
				C82.6,38,82.4,38.3,82.4,38.6z M89.1,29.2v-1.8h2.8v-3.9h2.2v11.2h-2.2v-2h-2.8v-1.8h2.8v-1.7H89.1z"/>
			<path class="st3" d="M106.3,26.9h3v-3.2h2v10h-7.1v-10h2V26.9z M112.1,38.7c-1.4,1.6-4.1,2.8-7.5,3.1V40c3.7-0.4,6.4-2.2,6.4-4.6
				v-0.5h2.2v0.5c0,2.4,2.6,4.1,6.4,4.6v1.9C116.1,41.5,113.5,40.3,112.1,38.7z M109.3,31.9v-3.2h-3v3.2H109.3z M119.3,34.7h-2.1
				v-5.1h-2V34h-2.1V23.6h2.1v4.1h2v-4.2h2.1V34.7z"/>
			<path class="st3" d="M123.5,25.7v-1.9h9.8v1.9h-3.8v4.9c0,4.8,1.9,6.8,4,7.8v2c-2.3-0.8-4.2-2.5-5.1-4.5
				c-0.9,1.9-2.9,3.7-5.1,4.5v-2c2.1-1,4-3,4-7.8v-4.9H123.5z M138.2,23.5v18.1h-2.2V23.5H138.2z"/>
			<path class="st3" d="M148.8,29.7c0-0.8,0.4-1.5,1.1-1.9c0.9-0.5,2.2-0.8,3.7-0.8c1.5,0,2.7,0.3,3.6,0.8c0.7,0.5,1.2,1.1,1.2,1.9
				c0,0.8-0.4,1.4-1.1,1.9c-0.7,0.4-1.6,0.7-2.7,0.8v1.3h2.9c1.6,0,2.8-0.3,3.5-0.8v-9.4h2.2V36h-2.2v-1.5c-0.7,0.6-2,0.9-4,0.9H148
				v-1.8h4.6v-1.3c-0.9-0.1-1.8-0.3-2.4-0.7C149.3,31.2,148.8,30.6,148.8,29.7z M152.6,23h2.2v1.6h4.2v1.6h-10.6v-1.6h4.2V23z
				 M161.1,41.9v-3.1h-11.6v-1.8h13.8v4.8H161.1z M150.9,29.7c0,0.3,0.2,0.5,0.4,0.7c0.5,0.3,1.3,0.4,2.4,0.4c1,0,1.9-0.1,2.4-0.4
				c0.3-0.2,0.4-0.4,0.4-0.7c0-0.3-0.2-0.5-0.4-0.7c-0.5-0.3-1.3-0.4-2.4-0.4c-1,0-1.8,0.1-2.3,0.4
				C151.1,29.2,150.9,29.4,150.9,29.7z"/>
			<path class="st3" d="M167.2,34.1v-1.9h16.3v1.9H167.2z M180.2,41.9V38h-11.9v-1.9h14.1v5.7H180.2z M182.4,25.5h-11.8v2.9h11.9
				v1.8h-14.1v-6.6h14V25.5z"/>
			<path class="st3" d="M190.3,33.9v-1.6h-3.9v-1.8h16.3v1.8h-3.9v1.6h2.7v4.8h-11.8V40H202v1.8h-14.4V37h11.8v-1.3h-11.8v-1.8
				H190.3z M187.3,26.4c0-0.8,0.3-1.3,0.9-1.8c1.1-0.8,3.3-1.1,6.5-1.1c3.2,0,5.3,0.3,6.4,1.1c0.6,0.4,0.9,1,0.9,1.8
				c0,0.7-0.3,1.3-0.9,1.8c-1.1,0.8-3.2,1.1-6.4,1.1c-3.2,0-5.3-0.3-6.5-1.1C187.6,27.7,187.3,27.1,187.3,26.4z M189.5,26.4
				c0,0.2,0.1,0.4,0.4,0.6c0.6,0.4,2.2,0.5,4.8,0.5s4.2-0.1,4.8-0.5c0.2-0.2,0.4-0.4,0.4-0.6c0-0.2-0.1-0.4-0.4-0.6
				c-0.6-0.4-2.2-0.5-4.8-0.5s-4.2,0.1-4.8,0.5C189.6,25.9,189.5,26.1,189.5,26.4z M196.8,33.9v-1.6h-4.3v1.6H196.8z"/>
			<path class="st3" d="M216.3,40.4V27.1l-3.7,1.6v-2.2l4-1.8h1.9v15.7H216.3z"/>
			<path class="st3" d="M226.7,32.9c-2.2,0-3.3-1.5-3.3-4.2c0-2.7,1.1-4.2,3.3-4.2c2.1,0,3.3,1.4,3.3,4.2
				C230,31.5,228.8,32.9,226.7,32.9z M226.7,26.1c-1,0-1.4,0.7-1.4,2.6c0,2,0.4,2.6,1.4,2.6c0.9,0,1.4-0.7,1.4-2.6
				C228.1,26.8,227.6,26.1,226.7,26.1z M227,40.4l6.4-15.7h1.9l-6.4,15.7H227z M235.7,32.2c2.1,0,3.2,1.5,3.2,4.2
				c0,2.8-1.2,4.2-3.2,4.2c-2.1,0-3.2-1.4-3.2-4.2C232.5,33.7,233.7,32.2,235.7,32.2z M235.7,39.1c0.9,0,1.4-0.6,1.4-2.6
				c0-1.9-0.4-2.6-1.4-2.6s-1.4,0.7-1.4,2.6C234.4,38.5,234.8,39.1,235.7,39.1z"/>
			<path class="st3" d="M256.4,34.3v-9.6h2.3v9.9c0,3.7-1.9,6.1-5.8,6.1c-3.9,0-5.8-2.4-5.8-6.1v-9.9h2.3v9.6c0,2.8,1,4.4,3.5,4.4
				C255.4,38.7,256.4,37.1,256.4,34.3z"/>
			<path class="st3" d="M263.8,34.5v5.9h-2.3V24.7h6.1c3.1,0,4.9,1.8,4.9,4.9c0,3.1-1.8,4.9-4.9,4.9H263.8z M267.2,32.5
				c1.9,0,2.9-1.1,2.9-2.9s-1-2.9-2.9-2.9h-3.5v5.8H267.2z"/>
		</g>
	</g>
</g>
</svg>
