<svg xmlns="http://www.w3.org/2000/svg" xmlns:xlink="http://www.w3.org/1999/xlink" width="247" height="81" viewBox="0 0 247 81">
  <defs>
    <filter id="사각형_12" x="0" y="0" width="247" height="81" filterUnits="userSpaceOnUse">
      <feOffset dx="3" dy="3" input="SourceAlpha"/>
      <feGaussianBlur stdDeviation="3" result="blur"/>
      <feFlood flood-opacity="0.161"/>
      <feComposite operator="in" in2="blur"/>
      <feComposite in="SourceGraphic"/>
    </filter>
    <clipPath id="clip-path">
      <path id="패스_715" data-name="패스 715" d="M0,1.936V29.582a.609.609,0,0,0,.375.633L15.094,15.62.5,1.147a.734.734,0,0,0-.5.789" transform="translate(0 -1.147)" fill="none"/>
    </clipPath>
    <linearGradient id="linear-gradient" y1="1.017" x2="0.035" y2="1.017" gradientUnits="objectBoundingBox">
      <stop offset="0" stop-color="#207cb0"/>
      <stop offset="0.373" stop-color="#3bb1be"/>
      <stop offset="0.795" stop-color="#57e9ce"/>
      <stop offset="1" stop-color="#63ffd4"/>
    </linearGradient>
    <clipPath id="clip-path-2">
      <path id="패스_716" data-name="패스 716" d="M.948,1.122,15.544,15.6l4.054-4.02L13.506,8.058l-.123-.071,0,0L13.235,7.9,13.226,7.9l-.04-.023h0l-.042-.024-.015-.008-.016-.009L4.166,2.666l-.012-.007L4.045,2.6,1.753,1.272a1.207,1.207,0,0,0-.6-.177.775.775,0,0,0-.209.027" transform="translate(-0.948 -1.095)" fill="none"/>
    </clipPath>
    <linearGradient id="linear-gradient-2" x1="-0.027" y1="2.039" x2="0.001" y2="2.039" gradientUnits="objectBoundingBox">
      <stop offset="0" stop-color="#4bc3ae"/>
      <stop offset="1" stop-color="#dee999"/>
    </linearGradient>
    <clipPath id="clip-path-3">
      <path id="패스_717" data-name="패스 717" d="M.714,43.324a.813.813,0,0,0,.657-.115l11.215-6.475h0l.031-.018.006,0,.163-.094.017-.009.01-.006.02-.012.052-.03.028-.016.027-.016.02-.012.047-.027.061-.035.037-.022.029-.017.029-.017.015-.009.011-.006.018-.01.01-.006.014-.008.031-.018,0,0,.012-.006,0,0,.11-.063h0l6.092-3.517-4.054-4.02Z" transform="translate(-0.714 -28.729)" fill="none"/>
    </clipPath>
    <linearGradient id="linear-gradient-3" x1="-0.02" y1="1.029" x2="0.008" y2="1.029" gradientUnits="objectBoundingBox">
      <stop offset="0" stop-color="#ec403d"/>
      <stop offset="0.369" stop-color="#ca3b73"/>
      <stop offset="0.795" stop-color="#a636ab"/>
      <stop offset="1" stop-color="#9934c2"/>
    </linearGradient>
    <clipPath id="clip-path-4">
      <path id="패스_718" data-name="패스 718" d="M28.765,25.088l4.054,4.02h0l.01-.006h0l0,0h0l.007,0,.012-.007,0,0,5.819-3.36c.66-.381.625-.9.108-1.215l-.06-.035-.006,0c-.58-.313-5.9-3.4-5.9-3.4Z" transform="translate(-28.765 -21.068)" fill="none"/>
    </clipPath>
    <linearGradient id="linear-gradient-4" x1="-1.428" y1="2.373" x2="-1.378" y2="2.373" gradientUnits="objectBoundingBox">
      <stop offset="0" stop-color="#f87"/>
      <stop offset="0.614" stop-color="#ffb175"/>
      <stop offset="1" stop-color="#ffc774"/>
    </linearGradient>
  </defs>
  <g id="그룹_811" data-name="그룹 811" transform="translate(-718 -577)">
    <g transform="matrix(1, 0, 0, 1, 718, 577)" filter="url(#사각형_12)">
      <rect id="사각형_12-2" data-name="사각형 12" width="229" height="63" rx="31.5" transform="translate(6 6)" fill="#fff"/>
    </g>
    <text id="Google_Play" data-name="Google Play" transform="translate(805 622)" fill="#999" font-size="18" font-family="S-CoreDream-5Medium, 'S-Core Dream \35 '" font-weight="500" letter-spacing="0.02em"><tspan x="0" y="0">Google Play</tspan></text>
    <g id="그룹_658" data-name="그룹 658" transform="translate(769 598.904)">
      <g id="그룹_651" data-name="그룹 651" transform="translate(0 1.122)">
        <g id="그룹_650" data-name="그룹 650" transform="translate(0 0)" clip-path="url(#clip-path)">
          <rect id="사각형_2759" data-name="사각형 2759" width="15.094" height="29.068" transform="translate(0 0)" fill="url(#linear-gradient)"/>
        </g>
      </g>
      <g id="그룹_653" data-name="그룹 653" transform="translate(0.497 1.095)">
        <g id="그룹_652" data-name="그룹 652" clip-path="url(#clip-path-2)">
          <rect id="사각형_2760" data-name="사각형 2760" width="18.65" height="14.5" transform="translate(0 0)" fill="url(#linear-gradient-2)"/>
        </g>
      </g>
      <g id="그룹_655" data-name="그룹 655" transform="translate(0.375 15.595)">
        <g id="그룹_654" data-name="그룹 654" clip-path="url(#clip-path-3)">
          <rect id="사각형_2761" data-name="사각형 2761" width="18.773" height="14.655" transform="translate(0 0)" fill="url(#linear-gradient-3)"/>
        </g>
      </g>
      <g id="그룹_657" data-name="그룹 657" transform="translate(15.094 11.575)">
        <g id="그룹_656" data-name="그룹 656" clip-path="url(#clip-path-4)">
          <rect id="사각형_2762" data-name="사각형 2762" width="10.57" height="8.04" transform="translate(0 0)" fill="url(#linear-gradient-4)"/>
        </g>
      </g>
    </g>
  </g>
</svg>
