<svg xmlns="http://www.w3.org/2000/svg" xmlns:xlink="http://www.w3.org/1999/xlink" width="131" height="132" viewBox="0 0 131 132">
  <defs>
    <clipPath id="clip-path">
      <rect id="사각형_2780" data-name="사각형 2780" width="99" height="26" transform="translate(0.108 0.46)" fill="none"/>
    </clipPath>
  </defs>
  <g id="그룹_839" data-name="그룹 839" transform="translate(-1040 -110)">
    <ellipse id="타원_17" data-name="타원 17" cx="65.5" cy="66" rx="65.5" ry="66" transform="translate(1040 110)" fill="#fff" opacity="0.06"/>
    <g id="그룹_782" data-name="그룹 782" transform="translate(1055.892 162.541)">
      <g id="그룹_781" data-name="그룹 781" transform="translate(0 0)" clip-path="url(#clip-path)">
        <path id="패스_788" data-name="패스 788" d="M13.242,26.541A13.27,13.27,0,1,0,0,13.273,13.258,13.258,0,0,0,13.242,26.541" transform="translate(0.115 0.211)" fill="#b30041"/>
        <path id="패스_789" data-name="패스 789" d="M24.9,14.553V26.187h3.7V25.152H25.957v-10.6Z" transform="translate(-12.068 -6.895)" fill="#fff"/>
        <path id="패스_790" data-name="패스 790" d="M16.136,17.725a1.59,1.59,0,1,0-1.591-1.59,1.589,1.589,0,0,0,1.591,1.59" transform="translate(-7.002 -6.891)" fill="#fff"/>
        <path id="패스_791" data-name="패스 791" d="M15.84,4.225c-.137,0-.4-.008-.532-.008A11.111,11.111,0,0,0,7.476,23.185a11.084,11.084,0,0,0,18.919-7.861v-.5H18.477v1.027H25.34c0,.024,0,.134,0,.154A10.051,10.051,0,1,1,8.2,8.206a9.969,9.969,0,0,1,7.1-2.951c.122,0,.4,0,.532.006Z" transform="translate(-1.951 -1.848)" fill="#fff"/>
        <path id="패스_792" data-name="패스 792" d="M64.83,26.291H76.317V22.819H69.045V10.372H64.83Z" transform="translate(-31.608 -4.853)" fill="#636568"/>
        <path id="패스_793" data-name="패스 793" d="M101.966,11.091a8.979,8.979,0,0,0-10.84.6A8.586,8.586,0,0,0,88.9,17.909a9.26,9.26,0,0,0,2.295,6.624,6.186,6.186,0,0,0,4.483,1.781c3.89,0,4.789-2.337,4.789-2.337v1.914h3.509V16.9h-6.99v2.816H100.2s.033,3.541-3.291,3.541a2.991,2.991,0,0,1-2.17-.888,6.13,6.13,0,0,1-1.376-4.393c0-3.262,1.294-5.214,3.465-5.214a2.578,2.578,0,0,1,2.63,2.1h4.473a4.909,4.909,0,0,0-1.963-3.766" transform="translate(-43.385 -4.453)" fill="#636568"/>
        <path id="패스_794" data-name="패스 794" d="M170.035,20.333a7.052,7.052,0,0,1-3.641-5.866V12.552h3.283V10.289h-9.764v2.263H163.2v1.914a7.051,7.051,0,0,1-3.634,5.866l-.057.025-.138.069v2.341l.32-.089.124-.033a10.131,10.131,0,0,0,4.991-3.622,10.071,10.071,0,0,0,4.981,3.622l.126.033.322.089V20.426l-.14-.069Z" transform="translate(-77.868 -4.813)" fill="#636568"/>
        <path id="패스_795" data-name="패스 795" d="M188.459,13.779h-2.453V9.587h-2.947V26.269h2.947V16.046h2.708V13.779Z" transform="translate(-89.461 -4.47)" fill="#636568"/>
        <path id="패스_796" data-name="패스 796" d="M133.9,10.289v2.263h-3.283v.03a4.588,4.588,0,0,0,3.552,4.5l.079.016.2.037v2.215l-.273-.02-.1-.008a7.619,7.619,0,0,1-5.056-2.605,7.628,7.628,0,0,1-5.06,2.605l-.1.008-.271.02V17.14l.2-.037.079-.016a4.568,4.568,0,0,0,3.552-4.5v-.03h-3.281V10.289Z" transform="translate(-60.36 -4.813)" fill="#636568"/>
        <path id="패스_797" data-name="패스 797" d="M143.93,13.1h-.352v2.268h2.714v5.173h2.94V9.587h-2.94V13.1Z" transform="translate(-70.142 -4.47)" fill="#636568"/>
        <path id="패스_798" data-name="패스 798" d="M141.95,33.788h-9.8V29.631h-2.938V34.17a1.862,1.862,0,0,0,.518,1.383,1.991,1.991,0,0,0,1.423.5h11.06V33.788Z" transform="translate(-63.11 -14.257)" fill="#636568"/>
      </g>
    </g>
  </g>
</svg>
