<svg xmlns="http://www.w3.org/2000/svg" xmlns:xlink="http://www.w3.org/1999/xlink" width="240" height="120" viewBox="0 0 240 120">
  <defs>
    <clipPath id="clip-path">
      <rect width="240" height="120" fill="none"/>
    </clipPath>
  </defs>
  <g id="반복_그리드_2" data-name="반복 그리드 2" clip-path="url(#clip-path)">
    <g id="그룹_320" data-name="그룹 320" transform="translate(-848 -1374)">
      <g id="타원_23" data-name="타원 23" transform="translate(968 1374)" fill="none" stroke="#f1f1f1" stroke-linecap="round" stroke-linejoin="round" stroke-width="3" stroke-dasharray="10">
        <circle cx="60" cy="60" r="60" stroke="none"/>
        <circle cx="60" cy="60" r="58.5" fill="none"/>
      </g>
      <rect id="사각형_132" data-name="사각형 132" width="120" height="3" transform="translate(848 1433)" fill="#f1f1f1"/>
      <g id="search-heart" transform="translate(1004 1410)">
        <path id="패스_211" data-name="패스 211" d="M12.5,5.446C17.492.427,29.976,9.208,12.5,20.5-4.976,9.208,7.508.43,12.5,5.446Z" transform="translate(7.002 7.999)" fill="#5dc457"/>
        <path id="패스_212" data-name="패스 212" d="M39,19.5a19.414,19.414,0,0,1-3.774,11.533,3.51,3.51,0,0,1,.345.294L47.124,42.877a3,3,0,0,1-4.242,4.245L31.331,35.572a3.021,3.021,0,0,1-.3-.345h.006A19.5,19.5,0,1,1,39,19.5ZM19.5,36A16.5,16.5,0,1,0,3,19.5,16.5,16.5,0,0,0,19.5,36Z" transform="translate(0 -0.001)" fill="#b7e5b4"/>
      </g>
    </g>
  </g>
</svg>
