<svg xmlns="http://www.w3.org/2000/svg" width="308" height="120" viewBox="0 0 308 120">
  <g id="그룹_321" data-name="그룹 321" transform="translate(-848 -1534)">
    <g id="타원_24" data-name="타원 24" transform="translate(1036 1534)" fill="none" stroke="#f1f1f1" stroke-linecap="round" stroke-linejoin="round" stroke-width="3" stroke-dasharray="10">
      <circle cx="60" cy="60" r="60" stroke="none"/>
      <circle cx="60" cy="60" r="58.5" fill="none"/>
    </g>
    <rect id="사각형_133" data-name="사각형 133" width="188" height="3" transform="translate(848 1593)" fill="#f1f1f1"/>
    <g id="calendar-check" transform="translate(1072 1570)">
      <path id="패스_209" data-name="패스 209" d="M21.563,7.44a1.5,1.5,0,0,1,0,2.124l-9,9a1.5,1.5,0,0,1-2.124,0l-4.5-4.5A1.5,1.5,0,0,1,8.063,11.94L11.5,15.381,19.439,7.44a1.5,1.5,0,0,1,2.124,0Z" transform="translate(10.999 13.998)" fill="#f60"/>
      <path id="패스_210" data-name="패스 210" d="M10.5,0A1.5,1.5,0,0,1,12,1.5V3H36V1.5a1.5,1.5,0,1,1,3,0V3h3a6,6,0,0,1,6,6V42a6,6,0,0,1-6,6H6a6,6,0,0,1-6-6V9A6,6,0,0,1,6,3H9V1.5A1.5,1.5,0,0,1,10.5,0ZM3,12V42a3,3,0,0,0,3,3H42a3,3,0,0,0,3-3V12Z" transform="translate(0 0)" fill="#ffbc8f"/>
    </g>
  </g>
</svg>
