<svg xmlns="http://www.w3.org/2000/svg" width="240" height="120" viewBox="0 0 240 120">
  <g id="그룹_322" data-name="그룹 322" transform="translate(-848 -1694)">
    <g id="타원_25" data-name="타원 25" transform="translate(968 1694)" fill="none" stroke="#f1f1f1" stroke-linecap="round" stroke-linejoin="round" stroke-width="3" stroke-dasharray="10">
      <circle cx="60" cy="60" r="60" stroke="none"/>
      <circle cx="60" cy="60" r="58.5" fill="none"/>
    </g>
    <rect id="사각형_135" data-name="사각형 135" width="120" height="3" transform="translate(848 1753)" fill="#f1f1f1"/>
    <g id="cash-coin" transform="translate(1004 1730)">
      <path id="패스_213" data-name="패스 213" d="M21,33A12,12,0,1,0,9,21,12,12,0,0,0,21,33ZM36,21A15,15,0,1,1,21,6,15,15,0,0,1,36,21Z" transform="translate(12 12)" fill="#bedcff" fill-rule="evenodd"/>
      <path id="패스_215" data-name="패스 215" d="M3,0A3,3,0,0,0,0,3V27a3,3,0,0,0,3,3H15.249a18.186,18.186,0,0,1,.774-3H9a6,6,0,0,0-6-6V9A6,6,0,0,0,9,3H39a6,6,0,0,0,6,6V19.584a18.061,18.061,0,0,1,3,3.462V3a3,3,0,0,0-3-3Z" fill="#bedcff"/>
      <path id="패스_216" data-name="패스 216" d="M17.994,9.247,18,9a6,6,0,1,0-9.4,4.95,17.946,17.946,0,0,1,9.39-4.7Z" transform="translate(12 6.002)" fill="#bedcff"/>
      <path id="arrow-down" d="M8,4a.5.5,0,0,1,.5.5v8.793l3.146-3.147a.5.5,0,0,1,.708.708l-4,4a.5.5,0,0,1-.708,0l-4-4a.5.5,0,0,1,.708-.708L7.5,13.293V4.5A.5.5,0,0,1,8,4Z" transform="translate(25 23.5)" fill="#458cde" stroke="#458cde" stroke-width="1" fill-rule="evenodd"/>
    </g>
  </g>
</svg>
