<svg xmlns="http://www.w3.org/2000/svg" xmlns:xlink="http://www.w3.org/1999/xlink" width="308" height="120" viewBox="0 0 308 120">
  <defs>
    <clipPath id="clip-path">
      <rect width="308" height="120" fill="none"/>
    </clipPath>
  </defs>
  <g id="그룹_323" data-name="그룹 323" transform="translate(-848 -1854)">
    <g id="반복_그리드_3" data-name="반복 그리드 3" transform="translate(848 1854)" clip-path="url(#clip-path)">
      <g transform="translate(-848 -1854)">
        <g id="타원_26" data-name="타원 26" transform="translate(1036 1854)" fill="none" stroke="#f1f1f1" stroke-linecap="round" stroke-linejoin="round" stroke-width="3" stroke-dasharray="10">
          <circle cx="60" cy="60" r="60" stroke="none"/>
          <circle cx="60" cy="60" r="58.5" fill="none"/>
        </g>
        <rect id="사각형_134" data-name="사각형 134" width="188" height="3" transform="translate(848 1915)" fill="#f1f1f1"/>
        <path id="gift" d="M9,7.5a7.5,7.5,0,0,1,15,0,7.5,7.5,0,0,1,15,0v.018A8.9,8.9,0,0,1,38.886,9H45a3,3,0,0,1,3,3v6a3,3,0,0,1-3,3V43.5A4.5,4.5,0,0,1,40.5,48H7.5A4.5,4.5,0,0,1,3,43.5V21a3,3,0,0,1-3-3V12A3,3,0,0,1,3,9H9.114A8.9,8.9,0,0,1,9,7.518ZM12.2,9H21V7.5a4.5,4.5,0,1,0-9,0,5.215,5.215,0,0,0,.135,1.29A1.566,1.566,0,0,0,12.2,9ZM27,9h8.8a1.68,1.68,0,0,0,.069-.21A5.215,5.215,0,0,0,36,7.5a4.5,4.5,0,0,0-9,0ZM3,12v6H21V12Zm24,0v6H45V12Zm15,9H27V45H40.5A1.5,1.5,0,0,0,42,43.5ZM21,45V21H6V43.5A1.5,1.5,0,0,0,7.5,45Z" transform="translate(1072 1890)" fill="#b36fee"/>
      </g>
    </g>
  </g>
</svg>
