<svg id="b" xmlns="http://www.w3.org/2000/svg" width="70.079" height="32" viewBox="0 0 70.079 32">
  <g id="c">
    <g id="그룹_70" data-name="그룹 70">
      <path id="패스_98" data-name="패스 98" d="M189.506,23.833V9.487c0-3.311-2.616-3.746-2.616-3.746V0s7.6.463,8.038,9.668V23.833Z" transform="translate(-167.434)" fill="#2847ae"/>
      <path id="패스_99" data-name="패스 99" d="M298.49,81.168a7.909,7.909,0,0,1,.691-3.271,8.827,8.827,0,0,1,2.035-2.813,9.348,9.348,0,0,1,2.969-1.852,9.56,9.56,0,0,1,3.489-.642,9.922,9.922,0,0,1,3.545.642,9.12,9.12,0,0,1,2.968,1.852,8.418,8.418,0,0,1,1.992,2.782,8.337,8.337,0,0,1,0,6.6,8.41,8.41,0,0,1-1.992,2.78,9.057,9.057,0,0,1-2.968,1.852,9.825,9.825,0,0,1-3.545.644,9.469,9.469,0,0,1-3.489-.644,9.282,9.282,0,0,1-2.969-1.852,8.793,8.793,0,0,1-2.035-2.813A7.886,7.886,0,0,1,298.49,81.168ZM304,81.135a3.647,3.647,0,0,0,1.079,2.656,3.5,3.5,0,0,0,2.59,1.1,3.753,3.753,0,0,0,0-7.506,3.473,3.473,0,0,0-2.59,1.1A3.647,3.647,0,0,0,304,81.135Z" transform="translate(-267.415 -65.033)" fill="#2847ae"/>
      <path id="패스_100" data-name="패스 100" d="M16.113,14.289a7.035,7.035,0,0,0-5.13-2.529,8.756,8.756,0,0,0-5.6,1.719H5.315V4.62H0V27.8H5.315V26.675h.068a7.684,7.684,0,0,0,4.811,1.506,7.473,7.473,0,0,0,7.991-7.934,9.285,9.285,0,0,0-2.072-5.959Zm-4.554,8.642a3.588,3.588,0,0,1-2.634,1.1,3.469,3.469,0,0,1-2.59-1.1,3.809,3.809,0,0,1,0-5.312,3.5,3.5,0,0,1,2.59-1.1,3.756,3.756,0,0,1,2.634,6.409Z" transform="translate(0 -4.139)" fill="#2847ae"/>
      <path id="패스_101" data-name="패스 101" d="M513.291,70.648v1.267h-.069a6.257,6.257,0,0,0-4.682-1.675,7.333,7.333,0,0,0-5.789,2.439,9.984,9.984,0,0,0-2.141,6.735,8.962,8.962,0,0,0,1.924,6.033,6.851,6.851,0,0,0,5.355,2.307c2.351,0,4.123-.608,5.332-2.282h.069v1.08c0,2.8-2.969,4.226-5.131,4.008v4.207c2.59.373,5.667.226,7.825-1.824,1.818-1.724,2.589-4.207,2.589-8.278V70.648ZM512.274,81.72a3.59,3.59,0,0,1-2.634,1.1,3.469,3.469,0,0,1-2.59-1.1,3.809,3.809,0,0,1,0-5.312,3.5,3.5,0,0,1,2.59-1.1,3.757,3.757,0,0,1,2.634,6.409Z" transform="translate(-448.493 -62.928)" fill="#2847ae"/>
    </g>
  </g>
</svg>
