<svg xmlns="http://www.w3.org/2000/svg" width="70" height="31.964" viewBox="0 0 70 31.964">
  <g id="그룹_187" data-name="그룹 187" transform="translate(-1459 -80)">
    <g id="c" transform="translate(1459 80)">
      <g id="그룹_70" data-name="그룹 70">
        <path id="패스_98" data-name="패스 98" d="M189.5,23.806V9.476c0-3.307-2.613-3.742-2.613-3.742V0s7.588.463,8.029,9.657V23.806Z" transform="translate(-167.456)" fill="#9145be"/>
        <path id="패스_99" data-name="패스 99" d="M298.49,81.159a7.9,7.9,0,0,1,.691-3.267,8.817,8.817,0,0,1,2.033-2.81,9.338,9.338,0,0,1,2.966-1.85,9.549,9.549,0,0,1,3.485-.642,9.91,9.91,0,0,1,3.541.642,9.11,9.11,0,0,1,2.965,1.85,8.409,8.409,0,0,1,1.989,2.779,8.328,8.328,0,0,1,0,6.6,8.4,8.4,0,0,1-1.989,2.776,9.047,9.047,0,0,1-2.965,1.85,9.813,9.813,0,0,1-3.541.644,9.459,9.459,0,0,1-3.485-.644,9.272,9.272,0,0,1-2.966-1.85,8.783,8.783,0,0,1-2.033-2.81A7.877,7.877,0,0,1,298.49,81.159ZM304,81.125a3.643,3.643,0,0,0,1.077,2.653,3.493,3.493,0,0,0,2.587,1.1,3.749,3.749,0,0,0,0-7.5,3.469,3.469,0,0,0-2.587,1.1A3.643,3.643,0,0,0,304,81.125Z" transform="translate(-267.45 -65.041)" fill="#9145be"/>
        <path id="패스_100" data-name="패스 100" d="M16.094,14.278a7.027,7.027,0,0,0-5.125-2.526,8.746,8.746,0,0,0-5.594,1.717H5.309V4.62H0V27.774H5.309V26.65h.068a7.676,7.676,0,0,0,4.805,1.5,7.465,7.465,0,0,0,7.982-7.925,9.275,9.275,0,0,0-2.069-5.952Zm-4.548,8.632a3.584,3.584,0,0,1-2.631,1.1,3.465,3.465,0,0,1-2.587-1.1,3.8,3.8,0,0,1,0-5.306,3.493,3.493,0,0,1,2.587-1.1,3.752,3.752,0,0,1,2.631,6.4Z" transform="translate(0 -4.14)" fill="#9145be"/>
        <path id="패스_101" data-name="패스 101" d="M513.277,70.648v1.266h-.069a6.25,6.25,0,0,0-4.676-1.673,7.324,7.324,0,0,0-5.783,2.436A9.973,9.973,0,0,0,500.61,79.4a8.952,8.952,0,0,0,1.922,6.026,6.843,6.843,0,0,0,5.349,2.3c2.348,0,4.118-.607,5.326-2.279h.069v1.078c0,2.8-2.966,4.221-5.126,4v4.2c2.587.372,5.66.226,7.816-1.822,1.816-1.722,2.586-4.2,2.586-8.268v-14Zm-1.016,11.059a3.586,3.586,0,0,1-2.631,1.1,3.465,3.465,0,0,1-2.587-1.1,3.8,3.8,0,0,1,0-5.306,3.493,3.493,0,0,1,2.587-1.1,3.752,3.752,0,0,1,2.631,6.4Z" transform="translate(-448.552 -62.936)" fill="#9145be"/>
      </g>
    </g>
  </g>
</svg>
