<svg xmlns="http://www.w3.org/2000/svg" xmlns:xlink="http://www.w3.org/1999/xlink" width="285" height="99" viewBox="0 0 285 99">
  <defs>
    <filter id="패스_323" x="0" y="0" width="285" height="99" filterUnits="userSpaceOnUse">
      <feOffset dy="3" input="SourceAlpha"/>
      <feGaussianBlur stdDeviation="7.5" result="blur"/>
      <feFlood flood-color="#535353" flood-opacity="0.161"/>
      <feComposite operator="in" in2="blur"/>
      <feComposite in="SourceGraphic"/>
    </filter>
    <filter id="패스_323-2" x="0" y="0" width="285" height="99" filterUnits="userSpaceOnUse">
      <feOffset dx="4" dy="4" input="SourceAlpha"/>
      <feGaussianBlur stdDeviation="6" result="blur-2"/>
      <feFlood flood-color="#fff" flood-opacity="0.161" result="color"/>
      <feComposite operator="out" in="SourceGraphic" in2="blur-2"/>
      <feComposite operator="in" in="color"/>
      <feComposite operator="in" in2="SourceGraphic"/>
    </filter>
  </defs>
  <g id="그룹_296" data-name="그룹 296" transform="translate(-2117.5 -931.5)">
    <g data-type="innerShadowGroup">
      <g transform="matrix(1, 0, 0, 1, 2117.5, 931.5)" filter="url(#패스_323)">
        <path id="패스_323-3" data-name="패스 323" d="M13.043,0H226.957C234.16,0,240,4.477,240,10V44c0,5.523-5.84,10-13.043,10H13.043C5.84,54,0,49.523,0,44V10C0,4.477,5.84,0,13.043,0Z" transform="translate(22.5 19.5)" fill="#ff983e"/>
      </g>
      <g transform="matrix(1, 0, 0, 1, 2117.5, 931.5)" filter="url(#패스_323-2)">
        <path id="패스_323-4" data-name="패스 323" d="M13.043,0H226.957C234.16,0,240,4.477,240,10V44c0,5.523-5.84,10-13.043,10H13.043C5.84,54,0,49.523,0,44V10C0,4.477,5.84,0,13.043,0Z" transform="translate(22.5 19.5)" fill="#fff"/>
      </g>
    </g>
    <text id="검색" transform="translate(2237 983)" fill="#fff" font-size="24" font-family="Cafe24Ssurround, Cafe24 Ssurround"><tspan x="0" y="0">검색</tspan></text>
  </g>
</svg>
