<svg id="c" xmlns="http://www.w3.org/2000/svg" xmlns:xlink="http://www.w3.org/1999/xlink" width="88" height="32" viewBox="0 0 88 32">
  <defs>
    <clipPath id="clip-path">
      <rect id="사각형_39" data-name="사각형 39" width="88" height="32" fill="#555"/>
    </clipPath>
  </defs>
  <g id="그룹_56" data-name="그룹 56">
    <g id="그룹_56-2" data-name="그룹 56" clip-path="url(#clip-path)">
      <path id="패스_84" data-name="패스 84" d="M8.516,20.005a8.466,8.466,0,0,0-4.687,1.411V14.067a1.908,1.908,0,0,0-3.816,0V28.048c-.008.157-.014.314-.014.473a8.516,8.516,0,1,0,8.516-8.516m0,12.985a4.469,4.469,0,1,1,4.469-4.469A4.474,4.474,0,0,1,8.516,32.99" transform="translate(0 -8.727)" fill="#555"/>
      <path id="패스_85" data-name="패스 85" d="M91.165,61.117a8.594,8.594,0,1,1,8.569,8.6,8.567,8.567,0,0,1-8.569-8.6m12.841.016a4.18,4.18,0,0,0-5.064-4.288,4.364,4.364,0,1,0,1.849,8.53,4.158,4.158,0,0,0,3.215-4.242" transform="translate(-65.436 -37.715)" fill="#555"/>
      <path id="패스_86" data-name="패스 86" d="M153.512,30.041a8.594,8.594,0,1,1,8.553,8.613,8.569,8.569,0,0,1-8.553-8.613m12.841.032a4.179,4.179,0,0,0-5.064-4.288,4.364,4.364,0,1,0,1.849,8.53,4.157,4.157,0,0,0,3.215-4.242" transform="translate(-110.188 -15.42)" fill="#555"/>
      <path id="패스_87" data-name="패스 87" d="M71.892,23.91h0A1.908,1.908,0,0,1,69.984,22V1.908a1.908,1.908,0,1,1,3.816,0V22a1.908,1.908,0,0,1-1.908,1.908" transform="translate(-50.233)" fill="#555"/>
      <path id="패스_88" data-name="패스 88" d="M246.95,43.947A7.222,7.222,0,0,0,234.2,39.295a7.222,7.222,0,0,0-12.751,4.626h0v7.641a1.908,1.908,0,1,0,3.816,0V43.947a3.409,3.409,0,0,1,6.809-.248v7.67a2.139,2.139,0,0,0,4.279,0V43.463a3.408,3.408,0,0,1,6.781.448h0v7.68a1.908,1.908,0,0,0,3.816,0V43.947Z" transform="translate(-158.951 -26.357)" fill="#555"/>
    </g>
  </g>
</svg>
