<svg xmlns="http://www.w3.org/2000/svg" width="120" height="120" viewBox="0 0 120 120">
  <g id="그룹_146" data-name="그룹 146" transform="translate(-2175 566)">
    <g id="그룹_298" data-name="그룹 298">
      <circle id="타원_11" data-name="타원 11" cx="60" cy="60" r="60" transform="translate(2175 -566)" fill="#fff"/>
      <g id="c" transform="translate(2211.224 -530)">
        <g id="그룹_136" data-name="그룹 136">
          <path id="패스_178" data-name="패스 178" d="M20.142,26.334a1.5,1.5,0,0,1-1.492-1.492V22.9a1.492,1.492,0,0,1,2.984,0v1.94A1.5,1.5,0,0,1,20.142,26.334Z" transform="translate(9.177 10.535)" fill="#ff7878"/>
          <path id="패스_179" data-name="패스 179" d="M12.7,26.334a1.5,1.5,0,0,1-1.492-1.492V22.9a1.492,1.492,0,0,1,2.984,0v1.94A1.5,1.5,0,0,1,12.7,26.334Z" transform="translate(5.516 10.535)" fill="#ff7878"/>
          <path id="패스_180" data-name="패스 180" d="M46.06,16.29H1.492A1.5,1.5,0,0,0,0,17.782v20.71a1.492,1.492,0,0,0,2.984,0V36.463H44.568v2.029a1.492,1.492,0,1,0,2.984,0V17.782A1.5,1.5,0,0,0,46.06,16.29ZM2.984,19.274H22.277v14.2H2.984Zm22.277,14.2v-14.2H44.553v14.2Z" transform="translate(0 8.016)" fill="#ff7878"/>
          <path id="패스_181" data-name="패스 181" d="M36.774,22.008H6.172A1.5,1.5,0,0,1,4.68,20.516V1.492A1.5,1.5,0,0,1,6.172,0h30.6a1.5,1.5,0,0,1,1.492,1.492V20.516A1.5,1.5,0,0,1,36.774,22.008ZM7.664,19.024H35.282V2.984H7.664Z" transform="translate(2.303)" fill="#ff7878"/>
          <path id="패스_182" data-name="패스 182" d="M30.822,16.056H9.172A1.5,1.5,0,0,1,7.68,14.564V4.492A1.5,1.5,0,0,1,9.172,3h21.65a1.5,1.5,0,0,1,1.492,1.492V14.564A1.5,1.5,0,0,1,30.822,16.056ZM10.664,13.071H29.33V5.984H10.664Z" transform="translate(3.779 1.476)" fill="#ff7878"/>
          <rect id="사각형_105" data-name="사각형 105" width="2.984" height="2.298" transform="translate(24.962 22.008)" fill="#ff7878"/>
          <rect id="사각형_106" data-name="사각형 106" width="2.984" height="2.298" transform="translate(19.606 22.008)" fill="#ff7878"/>
        </g>
      </g>
    </g>
  </g>
</svg>
