<svg xmlns="http://www.w3.org/2000/svg" width="120" height="120" viewBox="0 0 120 120">
  <g id="그룹_304" data-name="그룹 304" transform="translate(-2005 566)">
    <circle id="타원_10" data-name="타원 10" cx="60" cy="60" r="60" transform="translate(2005 -566)" fill="#fff"/>
    <g id="b" transform="translate(2041.743 -530)">
      <g id="c" transform="translate(0 0)">
        <g id="그룹_135" data-name="그룹 135">
          <path id="패스_170" data-name="패스 170" d="M38.605,41.153a1.58,1.58,0,0,1-.712-.162L11.052,27.7a1.6,1.6,0,0,1-.874-1.182,1.622,1.622,0,0,1,.453-1.408L24.2,11.543a1.615,1.615,0,0,1,2.59.421L40.062,38.805a1.614,1.614,0,0,1-1.457,2.331ZM14.5,25.806l20.527,10.15L24.877,15.429,14.5,25.806Z" transform="translate(6.286 6.847)" fill="#2277f2"/>
          <path id="패스_171" data-name="패스 171" d="M14.019,10.839A1.624,1.624,0,0,1,12.4,9.22V4.639a1.619,1.619,0,1,1,3.238,0V9.22A1.624,1.624,0,0,1,14.019,10.839Z" transform="translate(7.674 1.869)" fill="#2277f2"/>
          <path id="패스_172" data-name="패스 172" d="M17.19,7.678H12.609a1.619,1.619,0,1,1,0-3.238H17.19a1.619,1.619,0,1,1,0,3.238Z" transform="translate(6.802 2.748)" fill="#2277f2"/>
          <path id="패스_173" data-name="패스 173" d="M6.269,23.372A1.624,1.624,0,0,1,4.65,21.753V15.359a1.619,1.619,0,0,1,3.238,0v6.395A1.624,1.624,0,0,1,6.269,23.372Z" transform="translate(2.878 8.504)" fill="#2277f2"/>
          <path id="패스_174" data-name="패스 174" d="M10.693,18.948H4.3a1.619,1.619,0,1,1,0-3.238h6.395a1.619,1.619,0,1,1,0,3.238Z" transform="translate(1.659 9.723)" fill="#2277f2"/>
          <path id="패스_175" data-name="패스 175" d="M13.89,16.889a3.74,3.74,0,1,1,3.74-3.74,3.752,3.752,0,0,1-3.74,3.74Zm0-4.225a.5.5,0,1,0,.5.5A.5.5,0,0,0,13.89,12.664Z" transform="translate(6.282 5.824)" fill="#2277f2"/>
          <path id="패스_176" data-name="패스 176" d="M7.449,7.576A1.624,1.624,0,0,1,5.83,5.958,5.963,5.963,0,0,1,11.788,0a1.619,1.619,0,0,1,0,3.238,2.726,2.726,0,0,0-2.72,2.72A1.624,1.624,0,0,1,7.449,7.576Z" transform="translate(3.608 0)" fill="#2277f2"/>
          <path id="패스_177" data-name="패스 177" d="M5.958,14.716A1.624,1.624,0,0,1,4.339,13.1a2.726,2.726,0,0,0-2.72-2.72,1.619,1.619,0,0,1,0-3.238A5.963,5.963,0,0,1,7.576,13.1,1.624,1.624,0,0,1,5.958,14.716Z" transform="translate(0 4.419)" fill="#2277f2"/>
        </g>
      </g>
    </g>
  </g>
</svg>
