<svg xmlns="http://www.w3.org/2000/svg" width="120" height="120" viewBox="0 0 120 120">
  <g id="그룹_306" data-name="그룹 306" transform="translate(-1666 566)">
    <circle id="타원_8" data-name="타원 8" cx="60" cy="60" r="60" transform="translate(1666 -566)" fill="#fff"/>
    <g id="b" transform="translate(1705 -530.01)">
      <g id="c" transform="translate(0 0.01)">
        <path id="패스_164" data-name="패스 164" d="M28.917,22.426H7.118A1.583,1.583,0,0,1,5.54,20.848V12.766A3.648,3.648,0,0,1,9.186,9.12H26.833a3.648,3.648,0,0,1,3.646,3.646v8.082A1.583,1.583,0,0,1,28.9,22.426ZM8.7,19.269H27.338v-6.5a.492.492,0,0,0-.489-.489H9.186a.492.492,0,0,0-.489.489Z" transform="translate(3.204 5.259)" fill="#9145be"/>
        <path id="패스_165" data-name="패스 165" d="M34.632,28.856H4.468A1.583,1.583,0,0,1,2.89,27.278V19.2A3.648,3.648,0,0,1,6.536,15.55H32.564A3.648,3.648,0,0,1,36.211,19.2v8.082A1.583,1.583,0,0,1,34.632,28.856ZM6.031,25.7H33.054V19.2a.492.492,0,0,0-.489-.489H6.536a.492.492,0,0,0-.489.489v6.5Z" transform="translate(1.672 8.979)" fill="#9145be"/>
        <path id="패스_166" data-name="패스 166" d="M40.866,35.3H1.578A1.583,1.583,0,0,1,0,33.718V25.636A3.648,3.648,0,0,1,3.646,21.99H38.8a3.648,3.648,0,0,1,3.646,3.646v8.082A1.583,1.583,0,0,1,40.866,35.3ZM3.157,32.139h36.13v-6.5a.492.492,0,0,0-.489-.489H3.646a.492.492,0,0,0-.489.489v6.5Z" transform="translate(0 12.704)" fill="#9145be"/>
        <path id="패스_167" data-name="패스 167" d="M14.018,14.787a1.583,1.583,0,0,1-1.578-1.578V6.358a1.578,1.578,0,0,1,3.157,0v6.85a1.583,1.583,0,0,1-1.578,1.578Z" transform="translate(7.196 2.749)" fill="#9145be"/>
        <path id="패스_168" data-name="패스 168" d="M15,10.7A4.247,4.247,0,0,1,10.75,6.45C10.75,4.524,12.2.01,15,.01s4.246,4.514,4.246,6.44A4.247,4.247,0,0,1,15,10.7Zm0-7.371A6.723,6.723,0,0,0,13.907,6.45a1.089,1.089,0,1,0,2.178,0A6.786,6.786,0,0,0,15,3.325Z" transform="translate(6.218 -0.01)" fill="#9145be"/>
      </g>
    </g>
  </g>
</svg>
