<svg xmlns="http://www.w3.org/2000/svg" width="120" height="120" viewBox="0 0 120 120">
  <g id="그룹_142" data-name="그룹 142" transform="translate(-1496 566)">
    <g id="그룹_303" data-name="그룹 303">
      <circle id="타원_7" data-name="타원 7" cx="60" cy="60" r="60" transform="translate(1496 -566)" fill="#fff"/>
      <g id="c" transform="translate(1525 -530)">
        <path id="패스_158" data-name="패스 158" d="M11.709,14.007H1.818A1.824,1.824,0,0,1,0,12.189V2.3a1.818,1.818,0,0,1,3.636,0v8.073H9.891V2.3a1.818,1.818,0,1,1,3.636,0v9.891A1.824,1.824,0,0,1,11.709,14.007Z" transform="translate(0 0.393)" fill="#ffba00"/>
        <path id="패스_159" data-name="패스 159" d="M4.538,46.535A1.824,1.824,0,0,1,2.72,44.716V2.3a1.818,1.818,0,0,1,3.636,0V44.716a1.824,1.824,0,0,1-1.818,1.818Z" transform="translate(2.225 0.393)" fill="#ffba00"/>
        <path id="패스_160" data-name="패스 160" d="M33.112,15.745c-3.636,0-6.582-3.527-6.582-7.873S29.475,0,33.112,0s6.582,3.527,6.582,7.873S36.748,15.745,33.112,15.745Zm0-12.109c-1.6,0-2.945,1.945-2.945,4.236s1.345,4.236,2.945,4.236,2.945-1.945,2.945-4.236S34.712,3.636,33.112,3.636Z" transform="translate(21.706)" fill="#ffba00"/>
        <path id="패스_161" data-name="패스 161" d="M30.968,8.815A5.563,5.563,0,0,1,29.15,8.47V38.179a1.818,1.818,0,1,0,3.636,0V8.47A5.563,5.563,0,0,1,30.968,8.815Z" transform="translate(23.85 6.93)" fill="#ffba00"/>
        <path id="패스_162" data-name="패스 162" d="M25.825,44.269A19.855,19.855,0,1,1,45.679,24.415,19.88,19.88,0,0,1,25.825,44.269Zm0-36.073A16.218,16.218,0,1,0,42.043,24.415,16.233,16.233,0,0,0,25.825,8.2Z" transform="translate(4.885 3.731)" fill="#ffba00"/>
        <path id="패스_163" data-name="패스 163" d="M22.666,34.093A12.836,12.836,0,1,1,35.5,21.256,12.858,12.858,0,0,1,22.666,34.093Zm0-22.018a9.2,9.2,0,1,0,9.2,9.2,9.211,9.211,0,0,0-9.2-9.2Z" transform="translate(8.043 6.889)" fill="#ffba00"/>
      </g>
    </g>
  </g>
</svg>
