<svg xmlns="http://www.w3.org/2000/svg" width="120" height="120" viewBox="0 0 120 120">
  <g id="그룹_141" data-name="그룹 141" transform="translate(-1326 566)">
    <g id="그룹_302" data-name="그룹 302">
      <circle id="타원_6" data-name="타원 6" cx="60" cy="60" r="60" transform="translate(1326 -566)" fill="#fff"/>
      <g id="c" transform="translate(1352.521 -526)">
        <path id="패스_157" data-name="패스 157" d="M63.25,28.907V10.06a2.124,2.124,0,0,0-.142-.73.674.674,0,0,0-.122-.2,2.784,2.784,0,0,0-.263-.405l-.182-.182a2.581,2.581,0,0,0-.385-.263l-.243-.122c-.041,0-.1-.061-.142-.061L32.142.068a1.865,1.865,0,0,0-1.054,0L1.5,8.094a2.038,2.038,0,0,0,0,3.932l14.693,3.992-1.763-.486L12.828,25a2.006,2.006,0,0,0,1.986,2.351H21.32a9.044,9.044,0,0,1,8.431,5.695,2.029,2.029,0,0,0,3.769,0,9.044,9.044,0,0,1,8.431-5.695h6.505A2.049,2.049,0,0,0,50,26.637,2,2,0,0,0,50.442,25l-1.6-9.464-1.236.345,11.612-3.141V28.948a5.715,5.715,0,1,0,4.053,0ZM46.024,23.293H41.93a12.976,12.976,0,0,0-10.3,4.985,13.1,13.1,0,0,0-10.3-4.985H17.246l1.135-6.708,12.727,3.445a2.336,2.336,0,0,0,.527.061,2.209,2.209,0,0,0,.527-.061l12.727-3.445ZM31.615,15.977,9.768,10.06,31.615,4.142,53.462,10.06,31.615,15.977ZM61.2,35.9a1.662,1.662,0,1,1,1.662-1.662A1.669,1.669,0,0,1,61.2,35.9Z" transform="translate(0 0.008)" fill="#ff7878"/>
      </g>
    </g>
  </g>
</svg>
