<svg xmlns="http://www.w3.org/2000/svg" width="120" height="120" viewBox="0 0 120 120">
  <g id="그룹_319" data-name="그룹 319" transform="translate(-646 566)">
    <circle id="타원_2" data-name="타원 2" cx="60" cy="60" r="60" transform="translate(646 -566)" fill="#fff"/>
    <g id="b" transform="translate(687.01 -530)">
      <g id="c" transform="translate(-0.01)">
        <path id="패스_138" data-name="패스 138" d="M14.376,29.789H1.84a1.69,1.69,0,1,1,0-3.379H14.376a1.69,1.69,0,1,1,0,3.379Z" transform="translate(0.12 18.211)" fill="#ffba00"/>
        <path id="패스_139" data-name="패스 139" d="M8.218,35.464h0A1.727,1.727,0,0,1,6.9,34.838L1.984,28.756A8.971,8.971,0,0,1-.01,23.13V1.69A1.72,1.72,0,0,1,1.7,0h13.06a1.7,1.7,0,0,1,1.69,1.69V23.113a8.971,8.971,0,0,1-1.994,5.626L9.536,34.822a1.674,1.674,0,0,1-1.318.625ZM3.386,3.379V23.113a5.67,5.67,0,0,0,1.233,3.514l3.6,4.46,3.6-4.46h0a5.634,5.634,0,0,0,1.233-3.514V3.379Z" transform="translate(0.01 0)" fill="#ffba00"/>
        <path id="패스_140" data-name="패스 140" d="M5.55,34.906a1.7,1.7,0,0,1-1.69-1.69V20.68a1.69,1.69,0,1,1,3.379,0V33.216A1.7,1.7,0,0,1,5.55,34.906Z" transform="translate(2.679 13.094)" fill="#ffba00"/>
        <path id="패스_141" data-name="패스 141" d="M27.1,29.789H14.56a1.69,1.69,0,0,1,0-3.379H27.1a1.69,1.69,0,0,1,0,3.379Z" transform="translate(8.891 18.211)" fill="#ffba00"/>
        <path id="패스_142" data-name="패스 142" d="M20.938,35.464a1.727,1.727,0,0,1-1.318-.625L14.7,28.756A8.971,8.971,0,0,1,12.71,23.13V1.69A1.7,1.7,0,0,1,14.4,0H27.46a1.7,1.7,0,0,1,1.69,1.69V23.113a8.971,8.971,0,0,1-1.994,5.626l-4.917,6.082a1.674,1.674,0,0,1-1.318.625ZM16.106,3.379V23.113a5.67,5.67,0,0,0,1.233,3.514l3.6,4.46,3.6-4.46h0a5.634,5.634,0,0,0,1.233-3.514V3.379H16.089Z" transform="translate(8.781 0)" fill="#ffba00"/>
        <path id="패스_143" data-name="패스 143" d="M18.27,34.906a1.7,1.7,0,0,1-1.69-1.69V20.68a1.69,1.69,0,1,1,3.379,0V33.216A1.7,1.7,0,0,1,18.27,34.906Z" transform="translate(11.45 13.094)" fill="#ffba00"/>
      </g>
    </g>
  </g>
</svg>
