<svg xmlns="http://www.w3.org/2000/svg" width="120" height="120" viewBox="0 0 120 120">
  <g id="그룹_140" data-name="그룹 140" transform="translate(-1156 566)">
    <g id="그룹_301" data-name="그룹 301">
      <circle id="타원_5" data-name="타원 5" cx="60" cy="60" r="60" transform="translate(1156 -566)" fill="#fff"/>
      <g id="c" transform="translate(1192 -534.052)">
        <path id="패스_156" data-name="패스 156" d="M47.42,5.05a2.044,2.044,0,0,0-2.894,0l-6.733,6.733a11.634,11.634,0,0,0-4.824-1.95h0a11.721,11.721,0,0,0-23.135,0h0A11.739,11.739,0,0,0,0,21.39a11.236,11.236,0,0,0,.246,2.361,1.983,1.983,0,0,0-.246.9v3.49A14.18,14.18,0,0,0,14.164,42.309h5.194V52H13.4a2.053,2.053,0,1,0,0,4.106H29.4A2.053,2.053,0,1,0,29.4,52H23.443V42.309h5.173A14.18,14.18,0,0,0,42.781,28.144v-3.49a1.915,1.915,0,0,0-.246-.9,11.094,11.094,0,0,0,.246-2.361,11.691,11.691,0,0,0-2.114-6.713L47.4,7.944a2.044,2.044,0,0,0,0-2.894ZM38.7,21.39a7.811,7.811,0,0,1-.123,1.211H23.587a7.81,7.81,0,0,1-.123-1.211,7.616,7.616,0,1,1,15.232,0ZM29.868,9.751a11.606,11.606,0,0,1,1.211-.082A11.606,11.606,0,0,0,29.868,9.751ZM21.411,4.106a7.594,7.594,0,0,1,7.37,5.809,11.706,11.706,0,0,0-7.37,4.865,11.76,11.76,0,0,0-7.37-4.865h0A7.612,7.612,0,0,1,21.411,4.106ZM12.953,9.751a12,12,0,0,0-1.211-.082A7.829,7.829,0,0,1,12.953,9.751Zm-1.211,4.024a7.626,7.626,0,0,1,7.616,7.616,7.81,7.81,0,0,1-.123,1.211H4.229a7.81,7.81,0,0,1-.123-1.211,7.626,7.626,0,0,1,7.616-7.616ZM1.355,22.745a2.017,2.017,0,0,1,.7-.144,2.017,2.017,0,0,0-.7.144ZM.8,23.074a1.86,1.86,0,0,1,.328-.226A1.86,1.86,0,0,0,.8,23.074Zm37.9,5.07A10.075,10.075,0,0,1,28.637,38.2H14.164A10.075,10.075,0,0,1,4.106,28.144V26.707H38.675v1.437Zm2.751-5.4a2.017,2.017,0,0,0-.7-.144A2.017,2.017,0,0,1,41.446,22.745Zm.554.328a1.86,1.86,0,0,0-.328-.226A1.86,1.86,0,0,1,42,23.074Z" fill="#2277f2"/>
      </g>
    </g>
  </g>
</svg>
