<svg xmlns="http://www.w3.org/2000/svg" width="120" height="120" viewBox="0 0 120 120">
  <g id="그룹_138" data-name="그룹 138" transform="translate(-816 566)">
    <g id="그룹_299" data-name="그룹 299">
      <circle id="타원_3" data-name="타원 3" cx="60" cy="60" r="60" transform="translate(816 -566)" fill="#fff"/>
      <g id="c" transform="translate(843 -526)">
        <path id="패스_144" data-name="패스 144" d="M12.865,33.04A12.865,12.865,0,1,1,25.73,20.175,12.876,12.876,0,0,1,12.865,33.04Zm0-21.845a8.96,8.96,0,1,0,8.96,8.96,8.973,8.973,0,0,0-8.96-8.96Z" transform="translate(0 6.96)" fill="#9145be"/>
        <path id="패스_145" data-name="패스 145" d="M33.455,33.04A12.865,12.865,0,1,1,46.32,20.175,12.876,12.876,0,0,1,33.455,33.04Zm0-21.845a8.96,8.96,0,1,0,8.96,8.96,8.973,8.973,0,0,0-8.96-8.96Z" transform="translate(19.605 6.96)" fill="#9145be"/>
        <path id="패스_146" data-name="패스 146" d="M22.768,24.593a2.007,2.007,0,0,1-1.6-.82L9.961,7.8a2,2,0,0,1-.137-2.03A1.946,1.946,0,0,1,11.562,4.72H30.986a1.924,1.924,0,0,1,1.659.937,2.017,2.017,0,0,1,.078,1.913L24.505,23.519a1.936,1.936,0,0,1-1.6,1.054h-.137ZM15.31,8.644l7.184,10.249L27.765,8.644H15.291Z" transform="translate(9.15 4.494)" fill="#9145be"/>
        <path id="패스_147" data-name="패스 147" d="M38.443,24.588H17.3a1.924,1.924,0,0,1-1.659-.937,1.965,1.965,0,0,1-.078-1.913L23.782,5.788a1.969,1.969,0,0,1,1.542-1.054,1.933,1.933,0,0,1,1.718.722L39.965,21.406a1.989,1.989,0,0,1,.254,2.069,1.959,1.959,0,0,1-1.757,1.113Zm-17.94-3.9H34.343L25.871,10.239,20.483,20.683Z" transform="translate(14.617 4.5)" fill="#9145be"/>
        <path id="패스_148" data-name="패스 148" d="M9.4,29.087a1.906,1.906,0,0,1-.859-.2,1.952,1.952,0,0,1-.9-2.616L18.633,3.9H9.282a1.737,1.737,0,1,0,0,3.475H12.64a1.952,1.952,0,0,1,0,3.9H9.282A5.642,5.642,0,1,1,9.282,0H21.756a1.95,1.95,0,0,1,1.659.918,1.978,1.978,0,0,1,.1,1.894L11.156,27.994A1.962,1.962,0,0,1,9.4,29.087Z" transform="translate(3.466)" fill="#9145be"/>
        <path id="패스_149" data-name="패스 149" d="M17.3,27.587a2.162,2.162,0,0,1-.9-.215,1.964,1.964,0,0,1-.839-2.635l11.381-22.1a1.956,1.956,0,1,1,3.475,1.8L19.04,26.533A1.976,1.976,0,0,1,17.3,27.587Z" transform="translate(14.616 1.5)" fill="#9145be"/>
        <path id="패스_150" data-name="패스 150" d="M29.107,5.484H20.732a1.952,1.952,0,0,1,0-3.9h8.375a1.952,1.952,0,0,1,0,3.9Z" transform="translate(17.882 1.504)" fill="#9145be"/>
      </g>
    </g>
  </g>
</svg>
