<svg xmlns="http://www.w3.org/2000/svg" width="120" height="120" viewBox="0 0 120 120">
  <g id="그룹_139" data-name="그룹 139" transform="translate(-986 566)">
    <g id="그룹_297" data-name="그룹 297">
      <g id="그룹_300" data-name="그룹 300">
        <circle id="타원_4" data-name="타원 4" cx="60" cy="60" r="60" transform="translate(986 -566)" fill="#fff"/>
        <g id="b" transform="translate(1029.99 -530.005)">
          <g id="c" transform="translate(0.01 0.005)">
            <path id="패스_151" data-name="패스 151" d="M25.648,24.246H3.707a1.558,1.558,0,0,1-1.344-.759,1.59,1.59,0,0,1-.047-1.549L13.27.787a1.656,1.656,0,0,1,2.814,0L27.055,21.938a1.59,1.59,0,0,1-.047,1.549,1.558,1.558,0,0,1-1.344.759ZM6.315,21.085h16.74L14.677,4.945,6.315,21.085Z" transform="translate(1.225 -0.005)" fill="#8fe28c"/>
            <path id="패스_152" data-name="패스 152" d="M13.321,22.623a1.585,1.585,0,0,1-1.581-1.581v-1.5a1.581,1.581,0,1,1,3.162,0v1.5A1.585,1.585,0,0,1,13.321,22.623Z" transform="translate(6.802 10.423)" fill="#8fe28c"/>
            <path id="패스_153" data-name="패스 153" d="M7.991,22.623A1.585,1.585,0,0,1,6.41,21.042v-1.5a1.581,1.581,0,1,1,3.162,0v1.5A1.585,1.585,0,0,1,7.991,22.623Z" transform="translate(3.707 10.423)" fill="#8fe28c"/>
            <path id="패스_154" data-name="패스 154" d="M11.824,28.8A4.77,4.77,0,0,1,7.05,24.031a1.581,1.581,0,0,1,3.162,0,1.612,1.612,0,1,0,3.225,0,1.581,1.581,0,0,1,3.162,0A4.78,4.78,0,0,1,11.824,28.8Z" transform="translate(4.079 13.03)" fill="#8fe28c"/>
            <path id="패스_155" data-name="패스 155" d="M28.4,14.06a1.569,1.569,0,0,1-1.5,2.023h-.917a12.773,12.773,0,1,1-20.107,0H4.958a1.569,1.569,0,0,1-1.5-2.023,15.911,15.911,0,1,0,28.391,9.864A15.838,15.838,0,0,0,28.4,14.06Z" transform="translate(-0.01 8.158)" fill="#8fe28c"/>
          </g>
        </g>
      </g>
    </g>
  </g>
</svg>
