<svg xmlns="http://www.w3.org/2000/svg" width="120" height="120" viewBox="0 0 120 120">
  <g id="그룹_305" data-name="그룹 305" transform="translate(-1836 566)">
    <circle id="타원_9" data-name="타원 9" cx="60" cy="60" r="60" transform="translate(1836 -566)" fill="#fff"/>
    <g id="b" transform="translate(1872.001 -536.413)">
      <g id="c" transform="translate(-0.001 0)">
        <path id="패스_169" data-name="패스 169" d="M47.764,17.205a1.3,1.3,0,0,0-.366-.424,2.81,2.81,0,0,0,.135-.578,5.231,5.231,0,0,0-3.275-5.356c.4-2.447-.5-4.778-2.485-5.761a5.215,5.215,0,0,0-6.108,1.464,6.38,6.38,0,0,0-2.408-.713,5.923,5.923,0,0,0-4.431-1.792A5.234,5.234,0,0,0,24.008,0a5.234,5.234,0,0,0-4.817,4.046h-.116a5.725,5.725,0,0,0-4.3,1.773h0a6.6,6.6,0,0,0-2.543.732A5.244,5.244,0,0,0,6.128,5.087a5.228,5.228,0,0,0-2.485,5.761A5.231,5.231,0,0,0,.367,16.2a3.844,3.844,0,0,0,.173.674h0a2.218,2.218,0,0,0-.27.328,1.925,1.925,0,0,0-.039,1.907L16.9,49.632l-3.545,8.535a1.951,1.951,0,0,0,.173,1.811,1.924,1.924,0,0,0,1.6.848H32.871a1.947,1.947,0,0,0,1.6-.848,1.9,1.9,0,0,0,.173-1.811L31.1,49.632,47.764,19.113a1.925,1.925,0,0,0-.039-1.907ZM32.2,5.838Zm-.925.193s-.154.058-.231.077C31.118,6.088,31.195,6.05,31.272,6.031Zm-.886.385a2,2,0,0,0-.231.135A1.437,1.437,0,0,0,30.386,6.416ZM20.213,8.073a1.952,1.952,0,0,0,1.715-.289,1.89,1.89,0,0,0,.79-1.541c0-1.445.79-2.408,1.291-2.408S25.28,4.8,25.3,6.243a1.935,1.935,0,0,0,2.5,1.83A4.2,4.2,0,0,1,28.825,7.9h0a5.488,5.488,0,0,0,.1,5.491,6.326,6.326,0,0,0-1.676,2.794h0a3.2,3.2,0,0,1-1.7-1.214,1.913,1.913,0,0,0-3.083-.019,3.032,3.032,0,0,1-1.811,1.233h0a6.385,6.385,0,0,0-1.676-2.813,5.453,5.453,0,0,0,.1-5.472,4.119,4.119,0,0,1,1.137.154Zm-4.219-2.2a1.694,1.694,0,0,0-.27-.039C15.82,5.838,15.9,5.876,15.993,5.876Zm1.753.674s-.173-.1-.25-.135C17.573,6.454,17.669,6.512,17.746,6.551Zm-.828-.424a1.7,1.7,0,0,0-.289-.1C16.725,6.069,16.822,6.088,16.918,6.127ZM1.119,16.454a.326.326,0,0,0,.1-.039A.147.147,0,0,0,1.119,16.454Zm3.044-.828c-.077-.5.751-1.406,2.177-1.618a1.967,1.967,0,0,0,1.406-1.021,1.9,1.9,0,0,0,.019-1.734C7.13,9.961,7.4,8.767,7.843,8.535c.443-.212,1.561.289,2.216,1.58a1.9,1.9,0,0,0,1.406,1.021,1.955,1.955,0,0,0,1.657-.52c1.04-1,2.254-1.117,2.6-.771h0c.347.366.212,1.58-.809,2.6a1.91,1.91,0,0,0-.539,1.638,1.943,1.943,0,0,0,1,1.406,3.266,3.266,0,0,1,.963.771H4.818c-.366-.193-.617-.424-.636-.636ZM18.016,56.992l2.293-5.549h7.379l2.293,5.549H18Zm9.826-9.4H20.174L5.184,20.115H42.851L27.842,47.59Zm3.7-31.328a4.024,4.024,0,0,1,.963-.771,1.943,1.943,0,0,0,1-1.406,1.91,1.91,0,0,0-.539-1.638c-1.021-1.021-1.156-2.235-.809-2.6h0c.347-.366,1.58-.231,2.6.771a1.933,1.933,0,0,0,3.063-.5c.655-1.291,1.792-1.792,2.216-1.58.443.231.713,1.426.077,2.717a1.933,1.933,0,0,0,1.426,2.755c1.426.231,2.254,1.137,2.177,1.618-.039.212-.289.443-.636.636Zm15.317.173-.116-.058C46.782,16.377,46.82,16.416,46.859,16.435Z" transform="translate(0.001 0)" fill="#8fe28c"/>
      </g>
    </g>
  </g>
</svg>
