<svg xmlns="http://www.w3.org/2000/svg" xmlns:xlink="http://www.w3.org/1999/xlink" width="108" height="108" viewBox="0 0 108 108">
  <defs>
    <clipPath id="clip-path">
      <rect id="사각형_202" data-name="사각형 202" width="75.139" height="16" fill="none"/>
    </clipPath>
  </defs>
  <g id="그룹_267" data-name="그룹 267" transform="translate(-760 -6213)">
    <circle id="타원_13" data-name="타원 13" cx="54" cy="54" r="54" transform="translate(760 6213)" fill="#f5f5f5"/>
    <g id="그룹_251" data-name="그룹 251" transform="translate(776.43 6259)">
      <g id="그룹_250" data-name="그룹 250" transform="translate(0 0)" clip-path="url(#clip-path)">
        <path id="패스_296" data-name="패스 296" d="M2.768,11.806V9.035a1.332,1.332,0,0,0-1.393-1.4,1.328,1.328,0,0,0-1,.391A1.377,1.377,0,0,0,0,9.035V19.659a1.376,1.376,0,0,0,.38,1.005,1.329,1.329,0,0,0,1,.391,1.333,1.333,0,0,0,1.393-1.4V17.088c0-1.31,1-1.308,1-1.308a1.936,1.936,0,0,1,1.6.856l3.56,4.077a1.36,1.36,0,0,0,1.981-.151,1.482,1.482,0,0,0-.222-1.974L7.152,14.444l3.531-3.231A1.38,1.38,0,1,0,8.924,9.088l-3.9,3.56a1.993,1.993,0,0,1-1.254.46s-1,.1-1-1.3" transform="translate(0 -5.075)" fill="#0060b3"/>
        <path id="패스_297" data-name="패스 297" d="M56.842,19.214a1.645,1.645,0,0,1,.985-.406,1.391,1.391,0,0,1,.94,2.422,4.252,4.252,0,0,1-3.115,1.251,4.823,4.823,0,0,1-3.575-1.33A4.279,4.279,0,0,1,50.81,18v-3.28h-.853a1.551,1.551,0,0,1-1.084-.378,1.289,1.289,0,0,1-.412-.992q0-1.392,1.5-1.39h.853V11.17a1.381,1.381,0,0,1,.378-1,1.329,1.329,0,0,1,1-.389,1.33,1.33,0,0,1,1.388,1.39v.791h3.585a1.3,1.3,0,0,1,1.372,1.369,1.221,1.221,0,0,1-1.372,1.392H53.571V18a1.64,1.64,0,0,0,.49,1.212,2.053,2.053,0,0,0,2.782,0" transform="translate(-32.195 -6.497)" fill="#0060b3"/>
        <path id="패스_298" data-name="패스 298" d="M37.912.715a2.325,2.325,0,0,1,.713,1.7,2.334,2.334,0,0,1-.713,1.705,2.4,2.4,0,0,1-3.409,0,2.331,2.331,0,0,1-.712-1.705A2.322,2.322,0,0,1,34.5.715a2.39,2.39,0,0,1,3.409,0" transform="translate(-22.449 0)" fill="#ed6900"/>
        <path id="패스_299" data-name="패스 299" d="M39.64,17.466A1.227,1.227,0,0,0,38.25,16.08a1.332,1.332,0,0,0-.99.384,1.362,1.362,0,0,0-.379,1v7.813a1.367,1.367,0,0,0,.379,1,1.334,1.334,0,0,0,.99.383,1.372,1.372,0,0,0,1-.383,1.345,1.345,0,0,0,.387-1Z" transform="translate(-24.502 -10.683)" fill="#0060b3"/>
        <path id="패스_300" data-name="패스 300" d="M213.578.715a2.324,2.324,0,0,1,.713,1.7,2.333,2.333,0,0,1-.713,1.705,2.4,2.4,0,0,1-3.409,0,2.332,2.332,0,0,1-.713-1.705,2.322,2.322,0,0,1,.713-1.7,2.39,2.39,0,0,1,3.409,0" transform="translate(-139.152 0)" fill="#ed6900"/>
        <path id="패스_301" data-name="패스 301" d="M215.307,17.466a1.228,1.228,0,0,0-1.391-1.386,1.335,1.335,0,0,0-.991.384,1.364,1.364,0,0,0-.379,1v7.813a1.37,1.37,0,0,0,.379,1,1.337,1.337,0,0,0,.991.383,1.371,1.371,0,0,0,1-.383,1.343,1.343,0,0,0,.389-1Z" transform="translate(-141.204 -10.683)" fill="#0060b3"/>
        <path id="패스_302" data-name="패스 302" d="M142.056,22.982a2.614,2.614,0,0,1-.766-1.8,2.716,2.716,0,0,1,.105-.752,2.531,2.531,0,0,1,2.288-1.787c.044,0,.214,0,.26,0s.1,0,.145.006a2.517,2.517,0,0,1,2.4,2.522c0,.067.011.166.005.233v2.48a1.094,1.094,0,0,0-.78-.726,1.418,1.418,0,0,0-.687.02,4.763,4.763,0,0,0-.622.268,2.19,2.19,0,0,1-2.348-.47m-3.337-.292a4.741,4.741,0,0,0,.907,1.772,4.938,4.938,0,0,0,3.057,1.746,5.443,5.443,0,0,0,2.581-.251c.93-.394,1.168-.838,1.23-1.132l.01.342,0-.008a1.474,1.474,0,0,0,.177.608h0a1.271,1.271,0,0,0,.223.311,1.39,1.39,0,0,0,1.03.393,1.434,1.434,0,0,0,1.041-.393,1.376,1.376,0,0,0,.4-1.03V21.2a5.215,5.215,0,0,0-1.572-3.854,5.268,5.268,0,0,0-3.861-1.561h0a5.239,5.239,0,0,0-3.857,1.561,5.152,5.152,0,0,0-1.5,3.056,6.782,6.782,0,0,0,.134,2.29" transform="translate(-92.04 -10.485)" fill="#0060b3"/>
        <path id="패스_303" data-name="패스 303" d="M118.907,16.283a4.247,4.247,0,0,0-3.141,1.261,4.315,4.315,0,0,0-1.275,3.168v4.7a1.365,1.365,0,0,0,.378,1.005,1.335,1.335,0,0,0,.991.383,1.362,1.362,0,0,0,1-.383,1.348,1.348,0,0,0,.391-1.005v-4.7a1.663,1.663,0,0,1,1.827-1.694h2.557a1.369,1.369,0,1,0,0-2.736Z" transform="translate(-76.061 -10.817)" fill="#0060b3"/>
        <path id="패스_304" data-name="패스 304" d="M91.726,22.818V17.477a1.266,1.266,0,0,0-.382-.944,1.351,1.351,0,0,0-.984-.374,1.379,1.379,0,0,0-.989.371,1.254,1.254,0,0,0-.393.947v4.7c0,1.406-1.162,1.811-2.223,1.811-.946,0-2.224-.3-2.224-1.811v-4.7a1.259,1.259,0,0,0-.393-.947,1.387,1.387,0,0,0-.99-.371,1.359,1.359,0,0,0-.983.372,1.268,1.268,0,0,0-.382.945v5.341c0,2.017,1.875,3.9,4.957,3.9,2.917,0,4.983-1.879,4.983-3.9" transform="translate(-54.333 -10.736)" fill="#0060b3"/>
        <path id="패스_305" data-name="패스 305" d="M182.221,16a2.715,2.715,0,0,0-2.29,1.052A2.716,2.716,0,0,0,177.641,16a3.547,3.547,0,0,0-3.561,3.755v5.468a1.365,1.365,0,0,0,.378,1.005,1.335,1.335,0,0,0,.992.383,1.362,1.362,0,0,0,1-.383,1.345,1.345,0,0,0,.385-1.005V19.613a.916.916,0,0,1,1.827,0v5.644a1.369,1.369,0,0,0,.343.98,1.2,1.2,0,0,0,.915.375,1.219,1.219,0,0,0,.923-.375,1.355,1.355,0,0,0,.361-.98V19.586a.916.916,0,0,1,1.826.027v5.615a1.344,1.344,0,0,0,.385,1.005,1.361,1.361,0,0,0,1,.383,1.334,1.334,0,0,0,.991-.383,1.365,1.365,0,0,0,.378-1.005V19.759A3.547,3.547,0,0,0,182.221,16" transform="translate(-115.649 -10.632)" fill="#0060b3"/>
      </g>
    </g>
  </g>
</svg>
