<svg xmlns="http://www.w3.org/2000/svg" xmlns:xlink="http://www.w3.org/1999/xlink" width="160" height="160" viewBox="0 0 160 160">
  <defs>
    <clipPath id="clip-path">
      <rect id="사각형_198" data-name="사각형 198" width="93.729" height="30" fill="none"/>
    </clipPath>
  </defs>
  <g id="그룹_261" data-name="그룹 261" transform="translate(-688 -5933)">
    <circle id="타원_14" data-name="타원 14" cx="80" cy="80" r="80" transform="translate(688 5933)" fill="#f5f5f5"/>
    <g id="그룹_247" data-name="그룹 247" transform="translate(721.136 5998)">
      <path id="패스_255" data-name="패스 255" d="M21.55,53.308V56.2l-1.765-2.894h-.858v4.336h.809V54.817l1.754,2.827h.877V53.308Z" transform="translate(-9.84 -27.716)" fill="#1a1818"/>
      <g id="그룹_246" data-name="그룹 246" transform="translate(0 0)">
        <g id="그룹_245" data-name="그룹 245" clip-path="url(#clip-path)">
          <path id="패스_256" data-name="패스 256" d="M27.23,57.242a1.681,1.681,0,0,1,.205-.8,1.419,1.419,0,0,1,.573-.6,1.759,1.759,0,0,1,.841-.2,1.557,1.557,0,0,1,1.162.463,1.734,1.734,0,0,1,0,2.355,1.542,1.542,0,0,1-1.157.466,1.808,1.808,0,0,1-.822-.2,1.342,1.342,0,0,1-.593-.572,1.9,1.9,0,0,1-.205-.918m.847.047A1.041,1.041,0,0,0,28.3,58,.73.73,0,0,0,29.4,58a1.076,1.076,0,0,0,.219-.721,1.039,1.039,0,0,0-.219-.708.726.726,0,0,0-1.093,0,1.03,1.03,0,0,0-.226.713" transform="translate(-14.157 -28.93)" fill="#1a1818"/>
          <rect id="사각형_197" data-name="사각형 197" width="0.834" height="0.832" transform="translate(16.782 29.097)" fill="#1a1818"/>
          <path id="패스_257" data-name="패스 257" d="M40.073,57.626h-.827V54.494a2.865,2.865,0,0,1-1.074.628V54.37a2.437,2.437,0,0,0,.71-.406,1.534,1.534,0,0,0,.521-.691h.67Z" transform="translate(-19.846 -27.697)" fill="#1a1818"/>
          <path id="패스_258" data-name="패스 258" d="M47.485,55.424a2.771,2.771,0,0,1,.2-1.112,1.924,1.924,0,0,1,.406-.594,1.675,1.675,0,0,1,.561-.395,2.391,2.391,0,0,1,.934-.168,2.048,2.048,0,0,1,1.533.6,2.655,2.655,0,0,1,0,3.294,2.026,2.026,0,0,1-1.525.591,2.049,2.049,0,0,1-1.54-.587,2.235,2.235,0,0,1-.573-1.626m.9-.032a1.639,1.639,0,0,0,.339,1.118,1.171,1.171,0,0,0,1.727,0,1.673,1.673,0,0,0,.33-1.133,1.621,1.621,0,0,0-.324-1.11,1.207,1.207,0,0,0-1.737,0,1.633,1.633,0,0,0-.335,1.119" transform="translate(-24.688 -27.636)" fill="#1a1818"/>
          <path id="패스_259" data-name="패스 259" d="M57.7,58.936l-1.263-3.143h.874l.588,1.6.175.539c.046-.14.076-.228.084-.276.026-.085.06-.173.088-.263l.6-1.6H59.7l-1.244,3.143Z" transform="translate(-29.345 -29.007)" fill="#1a1818"/>
          <path id="패스_260" data-name="패스 260" d="M65.471,57.861,66.3,58a1.375,1.375,0,0,1-.5.691,1.483,1.483,0,0,1-.864.238,1.4,1.4,0,0,1-1.209-.535,1.8,1.8,0,0,1-.314-1.081,1.72,1.72,0,0,1,.413-1.224,1.326,1.326,0,0,1,1.029-.444,1.4,1.4,0,0,1,1.1.463,2,2,0,0,1,.387,1.419H64.259a.867.867,0,0,0,.205.575.622.622,0,0,0,.477.207.53.53,0,0,0,.328-.1.741.741,0,0,0,.2-.344m.05-.844a.808.808,0,0,0-.192-.549.575.575,0,0,0-.429-.19.587.587,0,0,0-.45.2.785.785,0,0,0-.173.537Z" transform="translate(-32.967 -28.93)" fill="#1a1818"/>
          <path id="패스_261" data-name="패스 261" d="M73.407,58.859h-.831V57.253a2.131,2.131,0,0,0-.058-.655.431.431,0,0,0-.174-.234.461.461,0,0,0-.285-.085.647.647,0,0,0-.384.123.6.6,0,0,0-.239.314,2.937,2.937,0,0,0-.063.717v1.425h-.83V55.716h.774v.463a1.237,1.237,0,0,1,1.026-.535,1.3,1.3,0,0,1,.51.1A.82.82,0,0,1,73.2,56a.868.868,0,0,1,.162.347,2.233,2.233,0,0,1,.048.559Z" transform="translate(-36.677 -28.93)" fill="#1a1818"/>
          <path id="패스_262" data-name="패스 262" d="M81.035,57.644V53.307h1.839a3.058,3.058,0,0,1,1.009.119.978.978,0,0,1,.506.413,1.253,1.253,0,0,1,.187.686,1.161,1.161,0,0,1-.286.805,1.412,1.412,0,0,1-.856.4,1.967,1.967,0,0,1,.467.363,4.854,4.854,0,0,1,.5.7l.534.846H83.882l-.633-.947a5.251,5.251,0,0,0-.459-.632.64.64,0,0,0-.265-.182,1.3,1.3,0,0,0-.441-.049h-.177v1.811Zm.872-2.5h.648a3.35,3.35,0,0,0,.786-.053.418.418,0,0,0,.242-.178.573.573,0,0,0,.1-.33.528.528,0,0,0-.118-.351.576.576,0,0,0-.33-.174c-.072-.009-.284-.012-.64-.012h-.683Z" transform="translate(-42.131 -27.715)" fill="#1a1818"/>
          <path id="패스_263" data-name="패스 263" d="M89.338,57.242a1.764,1.764,0,0,1,.2-.8,1.426,1.426,0,0,1,.579-.6,1.779,1.779,0,0,1,.835-.2,1.568,1.568,0,0,1,1.625,1.636,1.6,1.6,0,0,1-.459,1.182,1.544,1.544,0,0,1-1.157.466,1.79,1.79,0,0,1-.823-.2,1.356,1.356,0,0,1-.6-.572,1.987,1.987,0,0,1-.2-.918m.853.047A1.047,1.047,0,0,0,90.41,58a.721.721,0,0,0,.553.246A.693.693,0,0,0,91.5,58a1.042,1.042,0,0,0,.221-.721,1.006,1.006,0,0,0-.221-.708.68.68,0,0,0-.542-.248.707.707,0,0,0-.553.248,1.036,1.036,0,0,0-.218.713" transform="translate(-46.448 -28.93)" fill="#1a1818"/>
          <path id="패스_264" data-name="패스 264" d="M97.459,56.674l-.751-.132a1.144,1.144,0,0,1,.437-.675,1.569,1.569,0,0,1,.917-.223,1.982,1.982,0,0,1,.83.135.845.845,0,0,1,.384.33,1.817,1.817,0,0,1,.111.746l-.012.973a3.851,3.851,0,0,0,.038.608,1.927,1.927,0,0,0,.155.422h-.821c-.021-.056-.048-.137-.084-.247a.7.7,0,0,0-.028-.1,1.47,1.47,0,0,1-.458.312,1.359,1.359,0,0,1-.52.1,1.052,1.052,0,0,1-.757-.263A.875.875,0,0,1,96.624,58a.893.893,0,0,1,.126-.473.791.791,0,0,1,.357-.319,2.636,2.636,0,0,1,.662-.194,4.641,4.641,0,0,0,.8-.2v-.081a.435.435,0,0,0-.114-.345.728.728,0,0,0-.451-.1.5.5,0,0,0-.544.4m1.109.678a4.763,4.763,0,0,1-.505.125,1.511,1.511,0,0,0-.453.145.352.352,0,0,0-.16.29.4.4,0,0,0,.13.3.457.457,0,0,0,.331.129.731.731,0,0,0,.43-.148.529.529,0,0,0,.2-.276,1.7,1.7,0,0,0,.027-.4Z" transform="translate(-50.236 -28.93)" fill="#1a1818"/>
          <path id="패스_265" data-name="패스 265" d="M103.106,57.961l.831-.129a.618.618,0,0,0,.213.374.765.765,0,0,0,.456.123.848.848,0,0,0,.488-.119.271.271,0,0,0,.112-.221.239.239,0,0,0-.066-.159.673.673,0,0,0-.272-.109,4.567,4.567,0,0,1-1.278-.4.8.8,0,0,1-.371-.706.848.848,0,0,1,.322-.683,1.5,1.5,0,0,1,1-.284,1.75,1.75,0,0,1,.955.209,1.086,1.086,0,0,1,.433.625l-.781.143a.5.5,0,0,0-.19-.279.7.7,0,0,0-.4-.1.85.85,0,0,0-.462.093.192.192,0,0,0-.1.171.2.2,0,0,0,.08.148,3.373,3.373,0,0,0,.775.235,2.4,2.4,0,0,1,.934.368.78.78,0,0,1,.256.618.937.937,0,0,1-.358.74,1.573,1.573,0,0,1-1.069.313,1.747,1.747,0,0,1-1.014-.259,1.161,1.161,0,0,1-.486-.708" transform="translate(-53.606 -28.93)" fill="#1a1818"/>
          <path id="패스_266" data-name="패스 266" d="M111.416,54.594v.663h-.574v1.267a2.534,2.534,0,0,0,.022.446.211.211,0,0,0,.07.108.28.28,0,0,0,.143.04,1.038,1.038,0,0,0,.336-.078l.072.644a1.707,1.707,0,0,1-.658.123,1.015,1.015,0,0,1-.4-.073.6.6,0,0,1-.27-.195.89.89,0,0,1-.117-.323,4.175,4.175,0,0,1-.025-.59V55.256h-.38v-.663h.38v-.62l.83-.487v1.108Z" transform="translate(-56.999 -27.808)" fill="#1a1818"/>
          <path id="패스_267" data-name="패스 267" d="M115.725,57.861l.826.138a1.364,1.364,0,0,1-.5.691,1.469,1.469,0,0,1-.861.238,1.405,1.405,0,0,1-1.211-.535,1.808,1.808,0,0,1-.315-1.081,1.717,1.717,0,0,1,.411-1.224,1.33,1.33,0,0,1,1.027-.444,1.4,1.4,0,0,1,1.109.463,2.042,2.042,0,0,1,.392,1.419h-2.089a.834.834,0,0,0,.2.575.645.645,0,0,0,.484.207.518.518,0,0,0,.326-.1.724.724,0,0,0,.2-.344m.045-.844a.8.8,0,0,0-.185-.549.6.6,0,0,0-.884.012.731.731,0,0,0-.17.537Z" transform="translate(-59.094 -28.93)" fill="#1a1818"/>
          <path id="패스_268" data-name="패스 268" d="M123.484,57.644h-.774v-.46a1.271,1.271,0,0,1-.45.4,1.16,1.16,0,0,1-.529.133,1.187,1.187,0,0,1-.929-.437,2.122,2.122,0,0,1-.011-2.428,1.235,1.235,0,0,1,.955-.419,1.18,1.18,0,0,1,.906.441V53.308h.832Zm-2.216-1.639a1.441,1.441,0,0,0,.135.727.638.638,0,0,0,.565.325.623.623,0,0,0,.487-.242,1.146,1.146,0,0,0,.2-.73,1.253,1.253,0,0,0-.191-.779.623.623,0,0,0-.5-.242.63.63,0,0,0-.5.242,1.057,1.057,0,0,0-.193.7" transform="translate(-62.605 -27.715)" fill="#1a1818"/>
          <path id="패스_269" data-name="패스 269" d="M133.882,55.969l.847.266a1.951,1.951,0,0,1-.655,1.058,2.049,2.049,0,0,1-2.568-.244,2.258,2.258,0,0,1-.559-1.616,2.355,2.355,0,0,1,.562-1.679,1.923,1.923,0,0,1,1.47-.6,1.642,1.642,0,0,1,1.737,1.266l-.87.212a.885.885,0,0,0-.319-.532.9.9,0,0,0-.589-.2.993.993,0,0,0-.784.347,1.66,1.66,0,0,0-.3,1.117,1.833,1.833,0,0,0,.293,1.171.974.974,0,0,0,.776.353.878.878,0,0,0,.6-.224,1.328,1.328,0,0,0,.363-.7" transform="translate(-68.081 -27.635)" fill="#1a1818"/>
          <path id="패스_270" data-name="패스 270" d="M140.815,53.308V54.9a1.234,1.234,0,0,1,.961-.471,1.217,1.217,0,0,1,.517.107.807.807,0,0,1,.346.275.989.989,0,0,1,.161.367,2.816,2.816,0,0,1,.047.622v1.844h-.837V55.985a2.463,2.463,0,0,0-.045-.624.408.408,0,0,0-.169-.216.535.535,0,0,0-.3-.081.711.711,0,0,0-.371.1.584.584,0,0,0-.233.3,1.679,1.679,0,0,0-.078.6v1.574h-.834V53.308Z" transform="translate(-72.778 -27.715)" fill="#1a1818"/>
          <path id="패스_271" data-name="패스 271" d="M147.319,53.308h.83v.77h-.83Zm0,1.193h.83v3.143h-.83Z" transform="translate(-76.593 -27.715)" fill="#1a1818"/>
          <path id="패스_272" data-name="패스 272" d="M152.988,56.649l-.82.143a.6.6,0,0,0-.193-.368.555.555,0,0,0-.381-.126.615.615,0,0,0-.49.217,1.1,1.1,0,0,0-.188.718,1.276,1.276,0,0,0,.188.791.63.63,0,0,0,.508.228.576.576,0,0,0,.385-.131.847.847,0,0,0,.216-.468l.815.143a1.472,1.472,0,0,1-.488.85,1.532,1.532,0,0,1-.968.283,1.434,1.434,0,0,1-1.1-.435,1.983,1.983,0,0,1,.009-2.413,1.447,1.447,0,0,1,1.106-.435,1.5,1.5,0,0,1,.913.249,1.349,1.349,0,0,1,.491.756" transform="translate(-78.021 -28.93)" fill="#1a1818"/>
          <path id="패스_273" data-name="패스 273" d="M157.022,57.644V53.308h.828v2.3l.974-1.107h1.022l-1.069,1.147,1.148,2h-.9l-.783-1.412-.393.4v1.01Z" transform="translate(-81.638 -27.715)" fill="#1a1818"/>
          <path id="패스_274" data-name="패스 274" d="M165.28,57.861l.828.138a1.373,1.373,0,0,1-.505.691,1.48,1.48,0,0,1-.865.238,1.407,1.407,0,0,1-1.211-.535,1.773,1.773,0,0,1-.307-1.081,1.745,1.745,0,0,1,.405-1.224,1.341,1.341,0,0,1,1.031-.444,1.4,1.4,0,0,1,1.107.463,2.016,2.016,0,0,1,.389,1.419h-2.086a.876.876,0,0,0,.2.575.631.631,0,0,0,.481.207.531.531,0,0,0,.328-.1.741.741,0,0,0,.2-.344m.05-.844a.829.829,0,0,0-.19-.549.578.578,0,0,0-.43-.19.6.6,0,0,0-.457.2.775.775,0,0,0-.165.537Z" transform="translate(-84.86 -28.93)" fill="#1a1818"/>
          <path id="패스_275" data-name="패스 275" d="M173.209,58.859h-.828V57.253a2.26,2.26,0,0,0-.058-.655.45.45,0,0,0-.17-.234.475.475,0,0,0-.285-.085.642.642,0,0,0-.386.123.542.542,0,0,0-.238.314,2.456,2.456,0,0,0-.063.717v1.425h-.832V55.716h.773v.463a1.278,1.278,0,0,1,1.537-.434A.843.843,0,0,1,173,56a1.016,1.016,0,0,1,.164.347,2.681,2.681,0,0,1,.043.559Z" transform="translate(-88.567 -28.93)" fill="#1a1818"/>
          <path id="패스_276" data-name="패스 276" d="M38.007,23.152a10.764,10.764,0,0,1,.3-2.692,7.688,7.688,0,0,1,.781-2,5.575,5.575,0,0,1,1.125-1.4,7.187,7.187,0,0,1,1.287-.918,7.376,7.376,0,0,1,7.015,0,7.306,7.306,0,0,1,1.286.918,5.57,5.57,0,0,1,1.123,1.4,8.314,8.314,0,0,1,.8,2,10.432,10.432,0,0,1,.308,2.692,10.4,10.4,0,0,1-.308,2.695,8.039,8.039,0,0,1-.8,1.984A5.472,5.472,0,0,1,49.8,29.206a7.626,7.626,0,0,1-1.286.9,7.82,7.82,0,0,1-7.015,0,7.5,7.5,0,0,1-1.287-.9,5.476,5.476,0,0,1-1.125-1.375,7.449,7.449,0,0,1-.781-1.984,10.735,10.735,0,0,1-.3-2.695m7.012-4.406a3.135,3.135,0,0,0-1.76.443,3.038,3.038,0,0,0-1.02,1.108,4.535,4.535,0,0,0-.474,1.437,8.568,8.568,0,0,0,0,2.841,4.491,4.491,0,0,0,.474,1.434,3.041,3.041,0,0,0,1.02,1.112,3.717,3.717,0,0,0,3.52,0A3.043,3.043,0,0,0,47.8,26.01a4.455,4.455,0,0,0,.473-1.434,8.568,8.568,0,0,0,0-2.841A4.5,4.5,0,0,0,47.8,20.3a3.04,3.04,0,0,0-1.022-1.108,3.124,3.124,0,0,0-1.76-.443" transform="translate(-19.76 -7.931)" fill="#d60018"/>
          <path id="패스_277" data-name="패스 277" d="M68.91,23.152a10.881,10.881,0,0,1,.3-2.692,7.723,7.723,0,0,1,.783-2,5.517,5.517,0,0,1,1.123-1.4,7.216,7.216,0,0,1,1.289-.918,7.368,7.368,0,0,1,7.011,0,7.241,7.241,0,0,1,1.29.918,5.547,5.547,0,0,1,1.122,1.4,8.275,8.275,0,0,1,.8,2,10.442,10.442,0,0,1,.312,2.692,10.414,10.414,0,0,1-.312,2.695,8,8,0,0,1-.8,1.984A5.448,5.448,0,0,1,80.7,29.206a7.555,7.555,0,0,1-1.29.9,7.812,7.812,0,0,1-7.011,0,7.527,7.527,0,0,1-1.289-.9,5.419,5.419,0,0,1-1.123-1.375,7.481,7.481,0,0,1-.783-1.984,10.851,10.851,0,0,1-.3-2.695m7.012-4.406a3.136,3.136,0,0,0-1.76.443A3.033,3.033,0,0,0,73.141,20.3a4.477,4.477,0,0,0-.474,1.437,8.672,8.672,0,0,0,0,2.841,4.434,4.434,0,0,0,.474,1.434,3.036,3.036,0,0,0,1.021,1.112,3.718,3.718,0,0,0,3.52,0A3.034,3.034,0,0,0,78.7,26.01a4.467,4.467,0,0,0,.473-1.434,8.672,8.672,0,0,0,0-2.841A4.511,4.511,0,0,0,78.7,20.3a3.031,3.031,0,0,0-1.021-1.108,3.14,3.14,0,0,0-1.76-.443" transform="translate(-35.827 -7.931)" fill="#d60018"/>
          <path id="패스_278" data-name="패스 278" d="M103.438,12.471c.013-.02.027-.039.041-.057a3.949,3.949,0,0,1,.62-.693,5.423,5.423,0,0,1,3.284-1.434,6.785,6.785,0,0,1,3.254.887,6.012,6.012,0,0,1,1.2.918,5.79,5.79,0,0,1,1.036,1.4,8.342,8.342,0,0,1,.741,2,11.565,11.565,0,0,1,.282,2.692,10.392,10.392,0,0,1-.312,2.695,7.91,7.91,0,0,1-.8,1.984,5.421,5.421,0,0,1-1.123,1.375,7.345,7.345,0,0,1-1.289.9,7.734,7.734,0,0,1-3.491.831,7.552,7.552,0,0,1-3.462-.831,6.939,6.939,0,0,1-1.272-.9,5.524,5.524,0,0,1-1.108-1.389,7.969,7.969,0,0,1-.788-2,11.028,11.028,0,0,1-.292-2.691V5.7h3.52v6.758s-.27.343-.041.013M106.881,22.6a3.157,3.157,0,0,0,1.762-.443,3.082,3.082,0,0,0,1.023-1.112,4.547,4.547,0,0,0,.471-1.434,8.638,8.638,0,0,0,0-2.841,4.592,4.592,0,0,0-.471-1.437,3.079,3.079,0,0,0-1.023-1.108,3.727,3.727,0,0,0-3.525,0,3.184,3.184,0,0,0-1.032,1.108,4.27,4.27,0,0,0-.49,1.437,8.707,8.707,0,0,0,0,2.841,4.23,4.23,0,0,0,.49,1.434,2.933,2.933,0,0,0,2.795,1.555" transform="translate(-51.97 -2.963)" fill="#d60018"/>
          <path id="패스_279" data-name="패스 279" d="M142.208,15.254c.057,0,.268.011.635.03a5.559,5.559,0,0,1,1.288.252,7.668,7.668,0,0,1,1.566.7,5.431,5.431,0,0,1,1.539,1.36,7.271,7.271,0,0,1,1.168,2.234,10.372,10.372,0,0,1,.459,3.327V30.64h-3.608V23.152a7.627,7.627,0,0,0-.12-1.33,3.7,3.7,0,0,0-.446-1.243,2.694,2.694,0,0,0-.914-.931,3.5,3.5,0,0,0-3.139,0,2.705,2.705,0,0,0-.916.931,3.7,3.7,0,0,0-.442,1.243,7.58,7.58,0,0,0-.12,1.33V30.64h-3.611V23.152a10.3,10.3,0,0,1,.462-3.327,7.237,7.237,0,0,1,1.166-2.234,5.476,5.476,0,0,1,1.537-1.36,7.58,7.58,0,0,1,1.572-.7,5.473,5.473,0,0,1,1.271-.252c.353-.02.57-.03.653-.03" transform="translate(-70.473 -7.931)" fill="#d60018"/>
          <path id="패스_280" data-name="패스 280" d="M179.893,21.23c.04.3.073.6.1.916s.048.653.048,1.006v.536h-10.36c.041.334.092.675.15,1.02a4.7,4.7,0,0,0,.3,1.022,3.68,3.68,0,0,0,1.006,1.358,3.311,3.311,0,0,0,3.785,0,3.7,3.7,0,0,0,1.009-1.358h3.847a6.861,6.861,0,0,1-1.613,3.135,5.353,5.353,0,0,1-1.113.933,8.168,8.168,0,0,1-1.152.605,7.912,7.912,0,0,1-6.391-.295,7.315,7.315,0,0,1-1.288-.9A5.383,5.383,0,0,1,167.1,27.83a7.59,7.59,0,0,1-.785-1.984,10.9,10.9,0,0,1-.3-2.695,10.925,10.925,0,0,1,.3-2.692,7.853,7.853,0,0,1,.785-2,5.475,5.475,0,0,1,1.123-1.4,6.974,6.974,0,0,1,1.288-.918,7.8,7.8,0,0,1,3.52-.888,8.278,8.278,0,0,1,3.05.68,7.212,7.212,0,0,1,1.2.7,5.729,5.729,0,0,1,1.125,1.064,7.186,7.186,0,0,1,.915,1.508,7.661,7.661,0,0,1,.579,2.028m-3.731,0a7.12,7.12,0,0,0-.371-.945,2.91,2.91,0,0,0-.606-.859,2.764,2.764,0,0,0-.916-.6,3.578,3.578,0,0,0-2.485,0,2.73,2.73,0,0,0-.916.6,3.165,3.165,0,0,0-.622.859,4.538,4.538,0,0,0-.355.945Z" transform="translate(-86.313 -7.93)" fill="#d60018"/>
          <path id="패스_281" data-name="패스 281" d="M17.126,15.106H9.133v3.316h4.55c0,1.547-.824,3.724-4.272,3.724S3.554,21.1,3.554,15.357c0-5.807,2.457-6.825,6-6.825a3.706,3.706,0,0,1,3.908,3.134h3.579c-.3-2.6-1.795-6.6-7.9-6.6C1.44,5.068,0,9.822,0,15.326,0,19,.695,25.643,9.133,25.643s7.993-7.34,7.993-7.34Z" transform="translate(0 -2.635)" fill="#d60018"/>
          <path id="패스_282" data-name="패스 282" d="M137.459,0c-3.439.259-8.619,2.577-6.87,6.918a9.333,9.333,0,0,0,3.386-2.211l.727-.8a25.2,25.2,0,0,0,1.6-2.26c.294-.358-1.888,5.135-5.254,6.176.109.695,3.753,1.095,5.188-1.894A13.122,13.122,0,0,0,137.459,0" transform="translate(-67.713 0)" fill="#a4c422" fill-rule="evenodd"/>
          <path id="패스_283" data-name="패스 283" d="M124.887,8.726a6.552,6.552,0,0,0-2.7-1.369c-.32,1.7.135,4.529,2.459,4.241A4.617,4.617,0,0,0,124,9.664l-.287-.472a13,13,0,0,0-.9-1.055c-.124-.2,2.263,1.586,2.322,3.352.359.042,1.027-1.681-.25-2.764" transform="translate(-63.477 -3.825)" fill="#a4c422" fill-rule="evenodd"/>
        </g>
      </g>
    </g>
  </g>
</svg>
