<svg xmlns="http://www.w3.org/2000/svg" xmlns:xlink="http://www.w3.org/1999/xlink" width="160" height="160" viewBox="0 0 160 160">
  <defs>
    <clipPath id="clip-path">
      <rect id="사각형_201" data-name="사각형 201" width="117.619" height="40" fill="none"/>
    </clipPath>
  </defs>
  <g id="그룹_265" data-name="그룹 265" transform="translate(-1200 -6126)">
    <circle id="타원_16" data-name="타원 16" cx="80" cy="80" r="80" transform="translate(1200 6126)" fill="#f5f5f5"/>
    <g id="그룹_249" data-name="그룹 249" transform="translate(1221.191 6186)">
      <g id="그룹_248" data-name="그룹 248" transform="translate(0 0)" clip-path="url(#clip-path)">
        <path id="패스_284" data-name="패스 284" d="M48.978,0C40.731,0,35.79,5.1,35.79,11.393s4.941,11.386,13.188,11.386,13.206-5.093,13.206-11.386S57.237,0,48.978,0m0,20.334c-3.946,0-6.956-4.007-6.956-8.941s3.01-8.945,6.956-8.945c3.964,0,6.971,4,6.971,8.945s-3.007,8.941-6.971,8.941" transform="translate(-16.388 0)" fill="#dc000c"/>
        <path id="패스_285" data-name="패스 285" d="M86.55,4.073h8.687V22.545h6.549V4.073h7.329V1.551H86.55Z" transform="translate(-39.631 -0.71)" fill="#dc000c"/>
        <path id="패스_286" data-name="패스 286" d="M132.587,4.073h7.323V22.545h6.542V4.073h8.7V1.551H132.587Z" transform="translate(-60.711 -0.71)" fill="#dc000c"/>
        <path id="패스_287" data-name="패스 287" d="M6.447,18.78V1.551H.163v18.5a2.5,2.5,0,0,0,2.5,2.5h16.06V20.032H7.7A1.252,1.252,0,0,1,6.447,18.78" transform="translate(-0.075 -0.71)" fill="#dc000c"/>
        <path id="패스_288" data-name="패스 288" d="M180.769,4.046v16a2.5,2.5,0,0,0,2.5,2.5h17.121V20.063H188.31a1.249,1.249,0,0,1-1.25-1.25V12.625H200.2V10.168H187.06V5.275a1.251,1.251,0,0,1,1.25-1.249h12.083V1.55H183.271a2.5,2.5,0,0,0-2.5,2.5" transform="translate(-82.774 -0.71)" fill="#dc000c"/>
        <path id="패스_289" data-name="패스 289" d="M10.489,63.882,9.4,61.723H3.223L2.115,63.882H0L5.424,53.809a1.286,1.286,0,0,1,1.15-.7H7.74a1.3,1.3,0,0,1,.691.2,1.236,1.236,0,0,1,.474.51l5.066,10.073Zm-6.62-3.425H8.748L6.891,56.8a1.76,1.76,0,0,0-.208-.3.972.972,0,0,0-.18-.157.574.574,0,0,0-.187-.073.576.576,0,0,0-.188.073,1.7,1.7,0,0,0-.195.157,1.086,1.086,0,0,0-.208.3Z" transform="translate(0 -24.316)" fill="#dc000c"/>
        <path id="패스_290" data-name="패스 290" d="M33.254,62.325a1.02,1.02,0,0,0,.791.272h4.993v1.282H31.167a2.5,2.5,0,0,1-.583-.071,1.266,1.266,0,0,1-.9-.786,2.19,2.19,0,0,1-.145-.855V53.132h3.468V61.4a1.377,1.377,0,0,0,.246.921" transform="translate(-13.526 -24.329)" fill="#dc000c"/>
        <path id="패스_291" data-name="패스 291" d="M54.164,53.076v7.57a2.05,2.05,0,0,0,.216.923,2.519,2.519,0,0,0,.583.756,2.767,2.767,0,0,0,.856.51,2.869,2.869,0,0,0,1.036.188,2.915,2.915,0,0,0,1.051-.188,2.77,2.77,0,0,0,.857-.51,2.419,2.419,0,0,0,.575-.756,2.1,2.1,0,0,0,.21-.923v-7.57h3.466v6.852a3.744,3.744,0,0,1-.446,1.834,3.986,3.986,0,0,1-1.259,1.376,6.2,6.2,0,0,1-1.95.864,10.529,10.529,0,0,1-5.007,0,6.221,6.221,0,0,1-1.95-.864,4,4,0,0,1-1.259-1.376,3.744,3.744,0,0,1-.446-1.834V53.076Z" transform="translate(-23.214 -24.304)" fill="#dc000c"/>
        <path id="패스_292" data-name="패스 292" d="M84.73,63.887a.594.594,0,0,1-.3-.071.924.924,0,0,1-.294-.268,2.32,2.32,0,0,1-.288-.575l-2.777-7.021v7.943H79.156V54.024a.89.89,0,0,1,.245-.633.976.976,0,0,1,.746-.259h2.072a1.34,1.34,0,0,1,.841.259,1.446,1.446,0,0,1,.482.633l2.259,6.13,2.417-6.13a1.46,1.46,0,0,1,.475-.633,1.306,1.306,0,0,1,.834-.259h2.229a.981.981,0,0,1,.75.259.887.887,0,0,1,.243.633v9.871H89.356V55.924l-2.792,7.165a1.632,1.632,0,0,1-.246.475.871.871,0,0,1-.266.229.691.691,0,0,1-.288.08c-.1,0-.2.006-.294.006h-.416c-.116,0-.224,0-.324.008" transform="translate(-36.245 -24.329)" fill="#dc000c"/>
        <rect id="사각형_199" data-name="사각형 199" width="3.483" height="10.763" transform="translate(59.743 28.803)" fill="#dc000c"/>
        <path id="패스_293" data-name="패스 293" d="M134.6,63.657a.974.974,0,0,1-.742.266H132.1a1.422,1.422,0,0,1-.87-.273,2.4,2.4,0,0,1-.6-.634l-4.606-7.553v8.459h-3.395V54.067a.917.917,0,0,1,.243-.641.949.949,0,0,1,.735-.266h1.885a1.431,1.431,0,0,1,.864.273,2.355,2.355,0,0,1,.6.633l4.49,7.266V53.161h3.4v9.855a.906.906,0,0,1-.251.64" transform="translate(-56.153 -24.342)" fill="#dc000c"/>
        <rect id="사각형_200" data-name="사각형 200" width="3.483" height="10.763" transform="translate(81.933 28.803)" fill="#dc000c"/>
        <path id="패스_294" data-name="패스 294" d="M166.9,53.076v7.57a2.022,2.022,0,0,0,.216.923,2.52,2.52,0,0,0,.583.756,2.767,2.767,0,0,0,.856.51,2.862,2.862,0,0,0,1.036.188,2.9,2.9,0,0,0,1.05-.188,2.732,2.732,0,0,0,.857-.51,2.433,2.433,0,0,0,.577-.756,2.1,2.1,0,0,0,.208-.923v-7.57h3.468v6.852a3.738,3.738,0,0,1-.446,1.834,4,4,0,0,1-1.259,1.376,6.2,6.2,0,0,1-1.95.864,10.527,10.527,0,0,1-5.006,0,6.2,6.2,0,0,1-1.95-.864,4,4,0,0,1-1.259-1.376,3.744,3.744,0,0,1-.446-1.834V53.076Z" transform="translate(-74.835 -24.304)" fill="#dc000c"/>
        <path id="패스_295" data-name="패스 295" d="M197.461,63.887a.59.59,0,0,1-.3-.071.924.924,0,0,1-.294-.268,2.3,2.3,0,0,1-.288-.575L193.8,55.952v7.943h-1.911V54.024a.889.889,0,0,1,.243-.633.981.981,0,0,1,.748-.259h2.072a1.345,1.345,0,0,1,.841.259,1.457,1.457,0,0,1,.481.633l2.258,6.13,2.419-6.13a1.477,1.477,0,0,1,.474-.633,1.314,1.314,0,0,1,.836-.259h2.23a.985.985,0,0,1,.75.259.889.889,0,0,1,.243.633v9.871H202.09V55.924L199.3,63.089a1.675,1.675,0,0,1-.244.475.863.863,0,0,1-.266.229.693.693,0,0,1-.288.08c-.1,0-.2.006-.294.006h-.418c-.114,0-.223,0-.324.008" transform="translate(-87.866 -24.329)" fill="#dc000c"/>
      </g>
    </g>
  </g>
</svg>
