<svg xmlns="http://www.w3.org/2000/svg" xmlns:xlink="http://www.w3.org/1999/xlink" width="240" height="240" viewBox="0 0 240 240">
  <defs>
    <clipPath id="clip-path">
      <rect id="사각형_196" data-name="사각형 196" width="142.982" height="54" fill="none"/>
    </clipPath>
  </defs>
  <g id="그룹_262" data-name="그룹 262" transform="translate(-960 -5843)">
    <circle id="타원_15" data-name="타원 15" cx="120" cy="120" r="120" transform="translate(960 5843)" fill="#f5f5f5"/>
    <g id="그룹_244" data-name="그룹 244" transform="translate(1008.509 5936)">
      <g id="그룹_243" data-name="그룹 243" transform="translate(0 0)" clip-path="url(#clip-path)">
        <path id="패스_250" data-name="패스 250" d="M27.209,0H20.055V13.218H13.593A13.577,13.577,0,1,0,27.209,26.8c0-3.751.005-13.593.005-13.593ZM20.05,26.8a6.467,6.467,0,1,1-6.464-6.466h6.457Z" transform="translate(0 0)" fill="#1a1311" fill-rule="evenodd"/>
        <path id="패스_251" data-name="패스 251" d="M66.338,23.794A13.581,13.581,0,1,1,79.906,37.371,13.577,13.577,0,0,1,66.338,23.794M79.881,30.27A6.48,6.48,0,1,0,73.4,23.794a6.481,6.481,0,0,0,6.477,6.477" transform="translate(19.487 3)" fill="#1a1311" fill-rule="evenodd"/>
        <path id="패스_252" data-name="패스 252" d="M109.519,23.806a6.421,6.421,0,0,0-12.842,0v13c-3.634,0-7.153.023-7.153.023V23.806a13.579,13.579,0,1,1,27.158,0v13h-7.164Z" transform="translate(26.298 3.004)" fill="#1a1311" fill-rule="evenodd"/>
        <path id="패스_253" data-name="패스 253" d="M55.248,19.071c-1.038-.677-.7-1.933.975-2.391,2.215-.612,5.867-.12,9.153,1.324l3.388-4.611c-1.477-1.229-4.632-2.784-9.314-3.092,0,0-7.805-.979-10.959,4.95,0,0-2.8,5.557,2.718,9,3.36,2.089,9.19,2.828,10.972,3.83,1.49.849.994,2.452-1.236,2.948-3.7.844-8.686-1.273-10.345-2.52l-3.414,4.717a20.865,20.865,0,0,0,9.9,4.049S64.43,38.543,68.466,33.5c.752-.925,4.087-7.165-2.6-10.717C62.549,21.009,57,20.208,55.248,19.071" transform="translate(13.862 3.009)" fill="#1a1311" fill-rule="evenodd"/>
        <path id="패스_254" data-name="패스 254" d="M28.718,42c.291.186,3.626,2.471,6.861,2.54,7.781.167,8.271-7.924,8.271-9.843a10.185,10.185,0,0,1-6.421,2.546,13.329,13.329,0,0,1-13.5-13.375V10.616l7.148.013s.012,11.631.012,13.238a6.408,6.408,0,1,0,12.816,0V10.629l7.16-.013V23.867c0,11.75.578,23.824-10.866,26.547A17.44,17.44,0,0,1,25.19,46.829Z" transform="translate(7.03 3.119)" fill="#1a1311" fill-rule="evenodd"/>
      </g>
    </g>
  </g>
</svg>
