<svg id="b" xmlns="http://www.w3.org/2000/svg" width="32" height="32" viewBox="0 0 32 32">
  <g id="c">
    <g id="그룹_69" data-name="그룹 69">
      <path id="패스_95" data-name="패스 95" d="M22,0H10A10,10,0,0,0,0,10V22A10,10,0,0,0,10,32H22A10,10,0,0,0,32,22V10A10,10,0,0,0,22,0Zm7,22a7.007,7.007,0,0,1-7,7H10a7.007,7.007,0,0,1-7-7V10a7.008,7.008,0,0,1,7-7H22a7.008,7.008,0,0,1,7,7V22Z" fill="#9145be"/>
      <path id="패스_96" data-name="패스 96" d="M84.84,76.85a8,8,0,1,0,8,8,8,8,0,0,0-8-8Zm0,13a5,5,0,1,1,5-5,5.008,5.008,0,0,1-5,5Z" transform="translate(-68.841 -68.85)" fill="#9145be"/>
      <path id="패스_97" data-name="패스 97" d="M228.192,61.906a1.066,1.066,0,1,1-1.066-1.066,1.066,1.066,0,0,1,1.066,1.066Z" transform="translate(-202.527 -54.506)" fill="#9145be"/>
    </g>
  </g>
</svg>
