<svg xmlns="http://www.w3.org/2000/svg" xmlns:xlink="http://www.w3.org/1999/xlink" width="296" height="140" viewBox="0 0 296 140">
  <defs>
    <clipPath id="clip-path">
      <rect id="사각형_202" data-name="사각형 202" width="169.064" height="36" fill="none"/>
    </clipPath>
  </defs>
  <g id="그룹_535" data-name="그룹 535" transform="translate(-1280 -2987)">
    <rect id="사각형_290" data-name="사각형 290" width="296" height="140" transform="translate(1280 2987)" fill="#fff"/>
    <g id="그룹_251" data-name="그룹 251" transform="translate(1343.468 3039)">
      <g id="그룹_250" data-name="그룹 250" transform="translate(0 0)" clip-path="url(#clip-path)">
        <path id="패스_296" data-name="패스 296" d="M6.228,17.016V10.781A3,3,0,0,0,3.093,7.639a2.989,2.989,0,0,0-2.239.879A3.1,3.1,0,0,0,0,10.781v23.9a3.1,3.1,0,0,0,.854,2.262,2.99,2.99,0,0,0,2.239.881,3,3,0,0,0,3.134-3.142V28.9c0-2.947,2.26-2.942,2.26-2.942,1.3,0,2.18.364,3.6,1.925l8.011,9.173c1.094,1.267,3.365.984,4.458-.341a3.335,3.335,0,0,0-.5-4.441l-7.962-9.321,7.944-7.269A3.106,3.106,0,1,0,20.078,10.9l-8.769,8.01a4.483,4.483,0,0,1-2.822,1.034s-2.26.224-2.26-2.928" transform="translate(0 -1.87)" fill="#0060b3"/>
        <path id="패스_297" data-name="패스 297" d="M67.318,31.006a3.7,3.7,0,0,1,2.216-.915,3.131,3.131,0,0,1,2.115,5.45,9.568,9.568,0,0,1-7.008,2.815A10.853,10.853,0,0,1,56.6,35.364a9.628,9.628,0,0,1-2.852-7.086V20.9H51.827a3.489,3.489,0,0,1-2.439-.851,2.9,2.9,0,0,1-.927-2.232q0-3.131,3.366-3.128h1.919V12.908a3.108,3.108,0,0,1,.85-2.254,2.991,2.991,0,0,1,2.239-.875,2.991,2.991,0,0,1,3.123,3.128v1.779h8.066a2.921,2.921,0,0,1,3.087,3.08q0,3.135-3.087,3.131H59.958v7.38a3.69,3.69,0,0,0,1.1,2.727s2.476,2.662,6.259,0" transform="translate(-11.862 -2.394)" fill="#0060b3"/>
        <path id="패스_298" data-name="패스 298" d="M43.063,1.608a5.231,5.231,0,0,1,1.6,3.83,5.252,5.252,0,0,1-1.6,3.837,5.4,5.4,0,0,1-7.67,0,5.245,5.245,0,0,1-1.6-3.837,5.224,5.224,0,0,1,1.6-3.83,5.378,5.378,0,0,1,7.67,0" transform="translate(-8.271 0)" fill="#ed6900"/>
        <path id="패스_299" data-name="패스 299" d="M43.09,19.2q0-3.115-3.129-3.118a3,3,0,0,0-2.227.863,3.064,3.064,0,0,0-.853,2.255V36.778a3.076,3.076,0,0,0,.853,2.261,3,3,0,0,0,2.227.862,3.087,3.087,0,0,0,2.257-.862,3.027,3.027,0,0,0,.872-2.261Z" transform="translate(-9.028 -3.936)" fill="#0060b3"/>
        <path id="패스_300" data-name="패스 300" d="M218.73,1.608a5.229,5.229,0,0,1,1.6,3.83,5.25,5.25,0,0,1-1.6,3.837,5.394,5.394,0,0,1-7.669,0,5.246,5.246,0,0,1-1.6-3.837,5.226,5.226,0,0,1,1.6-3.83,5.377,5.377,0,0,1,7.669,0" transform="translate(-51.27 0)" fill="#ed6900"/>
        <path id="패스_301" data-name="패스 301" d="M218.758,19.2q0-3.115-3.13-3.118a3,3,0,0,0-2.229.863,3.07,3.07,0,0,0-.853,2.255V36.778a3.082,3.082,0,0,0,.853,2.261,3.007,3.007,0,0,0,2.229.862,3.086,3.086,0,0,0,2.255-.862,3.023,3.023,0,0,0,.875-2.261Z" transform="translate(-52.026 -3.936)" fill="#0060b3"/>
        <path id="패스_302" data-name="패스 302" d="M146.449,31.982a5.881,5.881,0,0,1-1.724-4.044,6.111,6.111,0,0,1,.236-1.691,5.694,5.694,0,0,1,5.149-4.021c.1,0,.483.009.585.009s.218.011.326.013a5.663,5.663,0,0,1,5.4,5.675c0,.152.024.373.012.523v5.58a2.462,2.462,0,0,0-1.755-1.634,3.191,3.191,0,0,0-1.546.045,10.717,10.717,0,0,0-1.4.6,4.928,4.928,0,0,1-5.284-1.057m-7.509-.656a10.667,10.667,0,0,0,2.041,3.987,11.111,11.111,0,0,0,6.879,3.928,12.247,12.247,0,0,0,5.807-.565c2.092-.887,2.628-1.887,2.767-2.547l.022.769.006-.019a3.317,3.317,0,0,0,.4,1.367l0,0a2.861,2.861,0,0,0,.5.7,3.127,3.127,0,0,0,2.317.884,3.226,3.226,0,0,0,2.342-.884,3.1,3.1,0,0,0,.906-2.317V27.969a11.734,11.734,0,0,0-3.536-8.672,11.854,11.854,0,0,0-8.687-3.512l-.006,0h0a11.787,11.787,0,0,0-8.678,3.513,11.593,11.593,0,0,0-3.38,6.877,15.259,15.259,0,0,0,.3,5.152" transform="translate(-33.912 -3.863)" fill="#0060b3"/>
        <path id="패스_303" data-name="패스 303" d="M124.427,16.283a9.556,9.556,0,0,0-7.067,2.838,9.709,9.709,0,0,0-2.87,7.129V36.815a3.072,3.072,0,0,0,.85,2.262,3,3,0,0,0,2.23.862,3.065,3.065,0,0,0,2.251-.862,3.033,3.033,0,0,0,.879-2.262V26.25a4.142,4.142,0,0,1,1.035-2.673,4.177,4.177,0,0,1,3.075-1.139h5.754a3.08,3.08,0,1,0,0-6.155Z" transform="translate(-28.024 -3.985)" fill="#0060b3"/>
        <path id="패스_304" data-name="패스 304" d="M104.152,31.141l0-12.017a2.849,2.849,0,0,0-.86-2.123,3.04,3.04,0,0,0-2.214-.841,3.1,3.1,0,0,0-2.225.834,2.821,2.821,0,0,0-.884,2.13V29.692c0,3.163-2.615,4.074-5,4.074-2.128,0-5-.685-5-4.074l0-10.569a2.832,2.832,0,0,0-.884-2.13,3.122,3.122,0,0,0-2.227-.834A3.057,3.057,0,0,0,82.644,17a2.854,2.854,0,0,0-.859,2.126V31.141c0,4.537,4.219,8.766,11.154,8.766,6.563,0,11.213-4.228,11.213-8.766" transform="translate(-20.019 -3.955)" fill="#0060b3"/>
        <path id="패스_305" data-name="패스 305" d="M192.4,16a6.109,6.109,0,0,0-5.152,2.366A6.11,6.11,0,0,0,182.093,16c-5.045,0-8.013,4-8.013,8.449v12.3a3.072,3.072,0,0,0,.85,2.262,3,3,0,0,0,2.232.862,3.065,3.065,0,0,0,2.25-.862,3.027,3.027,0,0,0,.865-2.262V24.124a2.06,2.06,0,0,1,4.111,0v12.7a3.081,3.081,0,0,0,.771,2.205,2.694,2.694,0,0,0,2.058.843,2.743,2.743,0,0,0,2.077-.843,3.048,3.048,0,0,0,.813-2.205V24.064a2.061,2.061,0,0,1,4.108.06V36.758a3.025,3.025,0,0,0,.867,2.262,3.062,3.062,0,0,0,2.249.862,3,3,0,0,0,2.23-.862,3.072,3.072,0,0,0,.85-2.262v-12.3C200.409,20,197.444,16,192.4,16" transform="translate(-42.611 -3.917)" fill="#0060b3"/>
      </g>
    </g>
  </g>
</svg>
