<svg xmlns="http://www.w3.org/2000/svg" xmlns:xlink="http://www.w3.org/1999/xlink" width="296" height="140" viewBox="0 0 296 140">
  <defs>
    <clipPath id="clip-path">
      <rect id="사각형_196" data-name="사각형 196" width="121.799" height="46" fill="none"/>
    </clipPath>
  </defs>
  <g id="그룹_534" data-name="그룹 534" transform="translate(-968 -2987)">
    <rect id="사각형_289" data-name="사각형 289" width="296" height="140" transform="translate(968 2987)" fill="#fff"/>
    <g id="그룹_244" data-name="그룹 244" transform="translate(1055 3034)">
      <g id="그룹_243" data-name="그룹 243" transform="translate(0 0)" clip-path="url(#clip-path)">
        <path id="패스_250" data-name="패스 250" d="M23.178,0H17.084V11.26h-5.5a11.565,11.565,0,1,0,11.6,11.57c0-3.195,0-11.58,0-11.58Zm-6.1,22.83a5.509,5.509,0,1,1-5.506-5.508h5.5Z" transform="translate(0 0)" fill="#1a1311" fill-rule="evenodd"/>
        <path id="패스_251" data-name="패스 251" d="M66.338,21.782A11.569,11.569,0,1,1,77.9,33.348,11.565,11.565,0,0,1,66.338,21.782M77.875,27.3a5.52,5.52,0,1,0-5.517-5.517A5.521,5.521,0,0,0,77.875,27.3" transform="translate(6.772 1.043)" fill="#1a1311" fill-rule="evenodd"/>
        <path id="패스_252" data-name="패스 252" d="M106.557,21.794a5.47,5.47,0,0,0-10.939,0V32.872c-3.1,0-6.093.02-6.093.02v-11.1a11.568,11.568,0,1,1,23.135,0V32.872h-6.1Z" transform="translate(9.139 1.044)" fill="#1a1311" fill-rule="evenodd"/>
        <path id="패스_253" data-name="패스 253" d="M54.054,17.763c-.884-.576-.593-1.647.831-2.037,1.887-.521,5-.1,7.8,1.127l2.886-3.928a14.2,14.2,0,0,0-7.934-2.634s-6.649-.834-9.336,4.217a5.86,5.86,0,0,0,2.315,7.668c2.862,1.78,7.828,2.409,9.347,3.262,1.27.723.846,2.088-1.052,2.512-3.152.719-7.4-1.084-8.812-2.147l-2.908,4.018a17.774,17.774,0,0,0,8.436,3.45s6.251,1.079,9.69-3.221c.64-.788,3.481-6.1-2.215-9.13-2.826-1.507-7.549-2.189-9.045-3.157" transform="translate(4.817 1.046)" fill="#1a1311" fill-rule="evenodd"/>
        <path id="패스_254" data-name="패스 254" d="M28.009,37.349a12.591,12.591,0,0,0,5.844,2.163c6.628.142,7.046-6.75,7.046-8.385a8.676,8.676,0,0,1-5.47,2.169A11.354,11.354,0,0,1,23.93,21.9V10.616l6.089.011s.01,9.908.01,11.277a5.459,5.459,0,1,0,10.917,0V10.627l6.1-.011V21.9c0,10.009.493,20.295-9.256,22.614A14.856,14.856,0,0,1,25,41.465Z" transform="translate(2.443 1.084)" fill="#1a1311" fill-rule="evenodd"/>
      </g>
    </g>
  </g>
</svg>
