<svg xmlns="http://www.w3.org/2000/svg" xmlns:xlink="http://www.w3.org/1999/xlink" width="296" height="140" viewBox="0 0 296 140">
  <defs>
    <clipPath id="clip-path">
      <rect id="사각형_198" data-name="사각형 198" width="143.718" height="46" fill="none"/>
    </clipPath>
  </defs>
  <g id="그룹_536" data-name="그룹 536" transform="translate(-1280 -3143)">
    <rect id="사각형_294" data-name="사각형 294" width="296" height="140" transform="translate(1280 3143)" fill="#fff"/>
    <g id="그룹_246" data-name="그룹 246" transform="translate(1356.141 3190)">
      <g id="그룹_245" data-name="그룹 245" clip-path="url(#clip-path)">
        <path id="패스_256" data-name="패스 256" d="M27.23,58.095a2.577,2.577,0,0,1,.315-1.221,2.175,2.175,0,0,1,.879-.916,2.7,2.7,0,0,1,1.289-.313,2.387,2.387,0,0,1,1.782.71,2.659,2.659,0,0,1-.007,3.611,2.364,2.364,0,0,1-1.773.715,2.773,2.773,0,0,1-1.26-.3,2.058,2.058,0,0,1-.909-.877,2.915,2.915,0,0,1-.315-1.408m1.3.071a1.6,1.6,0,0,0,.346,1.1,1.119,1.119,0,0,0,1.676,0,1.65,1.65,0,0,0,.336-1.1,1.593,1.593,0,0,0-.336-1.086,1.113,1.113,0,0,0-1.676,0,1.58,1.58,0,0,0-.346,1.094" transform="translate(-7.185 -14.683)" fill="#1a1818"/>
        <rect id="사각형_197" data-name="사각형 197" width="1.279" height="1.275" transform="translate(25.732 44.615)" fill="#1a1818"/>
        <path id="패스_257" data-name="패스 257" d="M41.087,59.947H39.819v-4.8a4.392,4.392,0,0,1-1.647.963V54.956a3.737,3.737,0,0,0,1.089-.623,2.352,2.352,0,0,0,.8-1.06h1.028Z" transform="translate(-10.072 -14.057)" fill="#1a1818"/>
        <path id="패스_258" data-name="패스 258" d="M47.485,56.634a4.249,4.249,0,0,1,.306-1.7,2.95,2.95,0,0,1,.623-.911,2.569,2.569,0,0,1,.86-.605,3.666,3.666,0,0,1,1.433-.258,3.14,3.14,0,0,1,2.35.914,4.071,4.071,0,0,1,.007,5.051,3.107,3.107,0,0,1-2.339.907,3.142,3.142,0,0,1-2.362-.9,3.428,3.428,0,0,1-.878-2.493m1.383-.049a2.513,2.513,0,0,0,.52,1.714,1.8,1.8,0,0,0,2.648,0,2.565,2.565,0,0,0,.506-1.737,2.486,2.486,0,0,0-.5-1.7,1.851,1.851,0,0,0-2.663.006,2.5,2.5,0,0,0-.514,1.715" transform="translate(-12.53 -14.026)" fill="#1a1818"/>
        <path id="패스_259" data-name="패스 259" d="M58.378,60.612l-1.937-4.819h1.34l.9,2.459.268.827c.07-.215.116-.349.13-.423.04-.131.091-.266.135-.4l.92-2.459h1.3l-1.907,4.819Z" transform="translate(-14.893 -14.722)" fill="#1a1818"/>
        <path id="패스_260" data-name="패스 260" d="M66.571,59.043l1.267.211a2.108,2.108,0,0,1-.768,1.06,2.273,2.273,0,0,1-1.324.364,2.139,2.139,0,0,1-1.854-.82,2.763,2.763,0,0,1-.482-1.658,2.637,2.637,0,0,1,.634-1.876,2.032,2.032,0,0,1,1.578-.681,2.147,2.147,0,0,1,1.693.71,3.066,3.066,0,0,1,.594,2.175H64.713a1.329,1.329,0,0,0,.315.882.954.954,0,0,0,.732.317.812.812,0,0,0,.5-.157,1.136,1.136,0,0,0,.308-.528m.077-1.294a1.238,1.238,0,0,0-.294-.841.882.882,0,0,0-.657-.292.9.9,0,0,0-.69.309,1.2,1.2,0,0,0-.266.824Z" transform="translate(-16.732 -14.683)" fill="#1a1818"/>
        <path id="패스_261" data-name="패스 261" d="M74.934,60.573H73.66V58.111a3.268,3.268,0,0,0-.088-1,.661.661,0,0,0-.266-.359.707.707,0,0,0-.437-.13.992.992,0,0,0-.589.189.921.921,0,0,0-.367.482,4.5,4.5,0,0,0-.1,1.1v2.185H70.544V55.754h1.187v.71a1.9,1.9,0,0,1,1.574-.82,2,2,0,0,1,.782.155,1.258,1.258,0,0,1,.525.392,1.331,1.331,0,0,1,.248.531,3.424,3.424,0,0,1,.074.857Z" transform="translate(-18.614 -14.683)" fill="#1a1818"/>
        <path id="패스_262" data-name="패스 262" d="M81.035,59.956V53.307h2.82a4.69,4.69,0,0,1,1.547.182,1.5,1.5,0,0,1,.776.633,1.921,1.921,0,0,1,.287,1.051,1.781,1.781,0,0,1-.439,1.234,2.166,2.166,0,0,1-1.313.615,3.016,3.016,0,0,1,.716.557,7.443,7.443,0,0,1,.766,1.079l.819,1.3H85.4L84.429,58.5a8.051,8.051,0,0,0-.7-.969.981.981,0,0,0-.406-.28,1.991,1.991,0,0,0-.677-.076h-.271v2.777Zm1.338-3.839h.993a5.136,5.136,0,0,0,1.206-.082.64.64,0,0,0,.371-.273.879.879,0,0,0,.146-.506.809.809,0,0,0-.18-.539.884.884,0,0,0-.506-.267c-.11-.013-.436-.018-.982-.018H82.373Z" transform="translate(-21.383 -14.066)" fill="#1a1818"/>
        <path id="패스_263" data-name="패스 263" d="M89.338,58.095a2.7,2.7,0,0,1,.309-1.221,2.186,2.186,0,0,1,.888-.916,2.728,2.728,0,0,1,1.28-.313,2.4,2.4,0,0,1,2.491,2.508,2.461,2.461,0,0,1-.7,1.813,2.367,2.367,0,0,1-1.774.715,2.744,2.744,0,0,1-1.262-.3,2.08,2.08,0,0,1-.919-.877,3.047,3.047,0,0,1-.309-1.408m1.308.071a1.6,1.6,0,0,0,.335,1.1,1.105,1.105,0,0,0,.847.378,1.063,1.063,0,0,0,.831-.378,1.6,1.6,0,0,0,.339-1.1,1.543,1.543,0,0,0-.339-1.086,1.043,1.043,0,0,0-.831-.381,1.084,1.084,0,0,0-.847.381,1.589,1.589,0,0,0-.335,1.094" transform="translate(-23.574 -14.683)" fill="#1a1818"/>
        <path id="패스_264" data-name="패스 264" d="M97.9,57.223l-1.151-.2a1.754,1.754,0,0,1,.671-1.034,2.406,2.406,0,0,1,1.406-.342,3.038,3.038,0,0,1,1.273.208,1.3,1.3,0,0,1,.589.506,2.786,2.786,0,0,1,.17,1.144l-.018,1.491a5.905,5.905,0,0,0,.058.932,2.955,2.955,0,0,0,.237.648H99.88c-.032-.086-.073-.211-.128-.378a1.073,1.073,0,0,0-.043-.146,2.254,2.254,0,0,1-.7.478,2.083,2.083,0,0,1-.8.153,1.613,1.613,0,0,1-1.16-.4,1.341,1.341,0,0,1-.423-1.022,1.37,1.37,0,0,1,.193-.726,1.214,1.214,0,0,1,.547-.49,4.042,4.042,0,0,1,1.015-.3,7.116,7.116,0,0,0,1.226-.311v-.124a.668.668,0,0,0-.174-.529,1.116,1.116,0,0,0-.691-.16.763.763,0,0,0-.834.606m1.7,1.039a7.3,7.3,0,0,1-.774.192,2.317,2.317,0,0,0-.694.222.539.539,0,0,0-.245.445.607.607,0,0,0,.2.464.7.7,0,0,0,.507.2,1.12,1.12,0,0,0,.66-.227.811.811,0,0,0,.305-.423,2.61,2.61,0,0,0,.042-.619Z" transform="translate(-25.496 -14.683)" fill="#1a1818"/>
        <path id="패스_265" data-name="패스 265" d="M103.106,59.2l1.275-.2a.948.948,0,0,0,.326.573,1.173,1.173,0,0,0,.7.189,1.3,1.3,0,0,0,.749-.183.416.416,0,0,0,.172-.339.367.367,0,0,0-.1-.244,1.032,1.032,0,0,0-.417-.168,7,7,0,0,1-1.96-.619,1.234,1.234,0,0,1-.569-1.083,1.3,1.3,0,0,1,.494-1.048,2.3,2.3,0,0,1,1.53-.435,2.683,2.683,0,0,1,1.465.321,1.665,1.665,0,0,1,.663.958l-1.2.219a.766.766,0,0,0-.292-.428,1.074,1.074,0,0,0-.62-.152,1.3,1.3,0,0,0-.708.142.3.3,0,0,0-.155.263.3.3,0,0,0,.122.227,5.172,5.172,0,0,0,1.188.36,3.674,3.674,0,0,1,1.432.565,1.2,1.2,0,0,1,.392.947,1.437,1.437,0,0,1-.549,1.134,2.412,2.412,0,0,1-1.639.479,2.679,2.679,0,0,1-1.555-.4,1.781,1.781,0,0,1-.745-1.085" transform="translate(-27.207 -14.683)" fill="#1a1818"/>
        <path id="패스_266" data-name="패스 266" d="M112.367,55.184V56.2h-.88v1.943a3.885,3.885,0,0,0,.033.685.323.323,0,0,0,.107.165.429.429,0,0,0,.219.061,1.591,1.591,0,0,0,.515-.12l.11.988a2.618,2.618,0,0,1-1.009.189,1.556,1.556,0,0,1-.615-.113.92.92,0,0,1-.414-.3,1.365,1.365,0,0,1-.179-.5,6.4,6.4,0,0,1-.039-.9V56.2h-.582V55.184h.582v-.951l1.273-.747v1.7Z" transform="translate(-28.929 -14.113)" fill="#1a1818"/>
        <path id="패스_267" data-name="패스 267" d="M116.826,59.043l1.266.211a2.091,2.091,0,0,1-.773,1.06,2.253,2.253,0,0,1-1.32.364,2.155,2.155,0,0,1-1.857-.82,2.773,2.773,0,0,1-.483-1.658,2.632,2.632,0,0,1,.63-1.876,2.039,2.039,0,0,1,1.575-.681,2.148,2.148,0,0,1,1.7.71,3.131,3.131,0,0,1,.6,2.175h-3.2a1.279,1.279,0,0,0,.308.882.989.989,0,0,0,.742.317.794.794,0,0,0,.5-.157,1.11,1.11,0,0,0,.313-.528m.069-1.294a1.228,1.228,0,0,0-.284-.841.915.915,0,0,0-1.355.018,1.12,1.12,0,0,0-.261.824Z" transform="translate(-29.992 -14.683)" fill="#1a1818"/>
        <path id="패스_268" data-name="패스 268" d="M125.121,59.957h-1.187v-.706a1.949,1.949,0,0,1-.69.608,1.778,1.778,0,0,1-.811.2,1.82,1.82,0,0,1-1.424-.671,3.254,3.254,0,0,1-.016-3.723,1.893,1.893,0,0,1,1.465-.642,1.809,1.809,0,0,1,1.389.676v-2.4h1.276Zm-3.4-2.513a2.21,2.21,0,0,0,.208,1.115.978.978,0,0,0,.866.5.956.956,0,0,0,.746-.372,1.757,1.757,0,0,0,.3-1.12,1.921,1.921,0,0,0-.293-1.194.955.955,0,0,0-.769-.371.966.966,0,0,0-.764.371,1.62,1.62,0,0,0-.3,1.072" transform="translate(-31.774 -14.066)" fill="#1a1818"/>
        <path id="패스_269" data-name="패스 269" d="M135.447,57.471l1.3.409a2.991,2.991,0,0,1-1,1.622,3.142,3.142,0,0,1-3.938-.375,3.462,3.462,0,0,1-.858-2.478,3.611,3.611,0,0,1,.861-2.574,2.949,2.949,0,0,1,2.253-.92,2.518,2.518,0,0,1,2.664,1.942l-1.334.325a1.358,1.358,0,0,0-.49-.816,1.377,1.377,0,0,0-.9-.3,1.523,1.523,0,0,0-1.2.532,2.546,2.546,0,0,0-.465,1.712,2.811,2.811,0,0,0,.45,1.8,1.494,1.494,0,0,0,1.19.541,1.347,1.347,0,0,0,.919-.344,2.036,2.036,0,0,0,.557-1.069" transform="translate(-34.553 -14.025)" fill="#1a1818"/>
        <path id="패스_270" data-name="패스 270" d="M141.26,53.308V55.75a1.892,1.892,0,0,1,1.474-.722,1.867,1.867,0,0,1,.792.164,1.237,1.237,0,0,1,.531.421,1.517,1.517,0,0,1,.247.563,4.318,4.318,0,0,1,.071.953v2.827h-1.283V57.413a3.777,3.777,0,0,0-.069-.957.625.625,0,0,0-.258-.331A.821.821,0,0,0,142.3,56a1.09,1.09,0,0,0-.568.16.9.9,0,0,0-.357.465,2.575,2.575,0,0,0-.12.918v2.413h-1.279V53.308Z" transform="translate(-36.937 -14.066)" fill="#1a1818"/>
        <path id="패스_271" data-name="패스 271" d="M147.319,53.308h1.273v1.18h-1.273Zm0,1.829h1.273v4.819h-1.273Z" transform="translate(-38.873 -14.066)" fill="#1a1818"/>
        <path id="패스_272" data-name="패스 272" d="M154.547,57.185l-1.257.219a.914.914,0,0,0-.3-.565.851.851,0,0,0-.585-.194.942.942,0,0,0-.751.332,1.684,1.684,0,0,0-.288,1.1,1.956,1.956,0,0,0,.288,1.213.966.966,0,0,0,.78.35.884.884,0,0,0,.59-.2,1.3,1.3,0,0,0,.331-.717l1.249.219a2.257,2.257,0,0,1-.749,1.3,2.35,2.35,0,0,1-1.485.434,2.2,2.2,0,0,1-1.689-.668,3.04,3.04,0,0,1,.013-3.7,2.219,2.219,0,0,1,1.7-.667,2.3,2.3,0,0,1,1.4.382,2.068,2.068,0,0,1,.752,1.159" transform="translate(-39.598 -14.683)" fill="#1a1818"/>
        <path id="패스_273" data-name="패스 273" d="M157.022,59.957V53.308h1.27v3.527l1.494-1.7h1.566L159.714,56.9l1.76,3.06H160.1l-1.2-2.166-.6.618v1.548Z" transform="translate(-41.434 -14.066)" fill="#1a1818"/>
        <path id="패스_274" data-name="패스 274" d="M166.378,59.043l1.27.211a2.106,2.106,0,0,1-.774,1.06,2.27,2.27,0,0,1-1.327.364,2.158,2.158,0,0,1-1.857-.82,2.719,2.719,0,0,1-.471-1.658,2.676,2.676,0,0,1,.621-1.876,2.056,2.056,0,0,1,1.581-.681,2.143,2.143,0,0,1,1.7.71,3.091,3.091,0,0,1,.6,2.175h-3.2a1.343,1.343,0,0,0,.312.882.968.968,0,0,0,.738.317.814.814,0,0,0,.5-.157,1.137,1.137,0,0,0,.31-.528m.077-1.294a1.271,1.271,0,0,0-.292-.841.886.886,0,0,0-.66-.292.916.916,0,0,0-.7.309,1.188,1.188,0,0,0-.253.824Z" transform="translate(-43.069 -14.683)" fill="#1a1818"/>
        <path id="패스_275" data-name="패스 275" d="M174.735,60.573h-1.27V58.111a3.465,3.465,0,0,0-.089-1,.69.69,0,0,0-.261-.359.728.728,0,0,0-.437-.13.984.984,0,0,0-.592.189.831.831,0,0,0-.364.482,3.766,3.766,0,0,0-.1,1.1v2.185h-1.276V55.754h1.186v.71a1.959,1.959,0,0,1,2.357-.665,1.292,1.292,0,0,1,.526.392,1.558,1.558,0,0,1,.252.531,4.111,4.111,0,0,1,.066.857Z" transform="translate(-44.95 -14.683)" fill="#1a1818"/>
        <path id="패스_276" data-name="패스 276" d="M38.007,27.365a16.5,16.5,0,0,1,.457-4.127,11.789,11.789,0,0,1,1.2-3.061,8.547,8.547,0,0,1,1.725-2.154,11.02,11.02,0,0,1,1.973-1.408,11.31,11.31,0,0,1,10.756,0,11.2,11.2,0,0,1,1.972,1.408,8.541,8.541,0,0,1,1.723,2.154,12.748,12.748,0,0,1,1.228,3.061,16,16,0,0,1,.472,4.127,15.953,15.953,0,0,1-.472,4.132,12.326,12.326,0,0,1-1.228,3.042,8.39,8.39,0,0,1-1.723,2.108,11.694,11.694,0,0,1-1.972,1.384,11.991,11.991,0,0,1-10.756,0,11.494,11.494,0,0,1-1.973-1.384,8.4,8.4,0,0,1-1.725-2.108,11.421,11.421,0,0,1-1.2-3.042,16.46,16.46,0,0,1-.457-4.132m10.751-6.756a4.807,4.807,0,0,0-2.7.679,4.659,4.659,0,0,0-1.564,1.7,6.954,6.954,0,0,0-.727,2.2,14.748,14.748,0,0,0-.182,2.174,14.853,14.853,0,0,0,.182,2.183,6.886,6.886,0,0,0,.727,2.2,4.663,4.663,0,0,0,1.564,1.7,5.7,5.7,0,0,0,5.4,0,4.666,4.666,0,0,0,1.567-1.7,6.831,6.831,0,0,0,.726-2.2,13.138,13.138,0,0,0,0-4.356,6.9,6.9,0,0,0-.726-2.2,4.661,4.661,0,0,0-1.567-1.7,4.79,4.79,0,0,0-2.7-.679" transform="translate(-10.029 -4.025)" fill="#d60018"/>
        <path id="패스_277" data-name="패스 277" d="M68.91,27.365a16.684,16.684,0,0,1,.455-4.127,11.842,11.842,0,0,1,1.2-3.061,8.459,8.459,0,0,1,1.722-2.154,11.065,11.065,0,0,1,1.976-1.408,11.3,11.3,0,0,1,10.75,0,11.1,11.1,0,0,1,1.978,1.408,8.5,8.5,0,0,1,1.721,2.154,12.687,12.687,0,0,1,1.226,3.061,16.012,16.012,0,0,1,.478,4.127,15.967,15.967,0,0,1-.478,4.132,12.269,12.269,0,0,1-1.226,3.042,8.354,8.354,0,0,1-1.721,2.108,11.583,11.583,0,0,1-1.978,1.384,11.979,11.979,0,0,1-10.75,0,11.542,11.542,0,0,1-1.976-1.384,8.31,8.31,0,0,1-1.722-2.108,11.471,11.471,0,0,1-1.2-3.042,16.639,16.639,0,0,1-.455-4.132m10.752-6.756a4.808,4.808,0,0,0-2.7.679,4.65,4.65,0,0,0-1.566,1.7,6.864,6.864,0,0,0-.727,2.2,13.3,13.3,0,0,0,0,4.356,6.8,6.8,0,0,0,.727,2.2,4.655,4.655,0,0,0,1.566,1.7,5.7,5.7,0,0,0,5.4,0,4.653,4.653,0,0,0,1.565-1.7,6.849,6.849,0,0,0,.726-2.2,13.3,13.3,0,0,0,0-4.356,6.916,6.916,0,0,0-.726-2.2,4.648,4.648,0,0,0-1.565-1.7,4.814,4.814,0,0,0-2.7-.679" transform="translate(-18.183 -4.025)" fill="#d60018"/>
        <path id="패스_278" data-name="패스 278" d="M105.294,16.082c.02-.031.042-.06.063-.088a6.056,6.056,0,0,1,.951-1.063,8.315,8.315,0,0,1,5.036-2.2,10.4,10.4,0,0,1,4.989,1.36,9.218,9.218,0,0,1,1.84,1.408,8.877,8.877,0,0,1,1.588,2.154,12.791,12.791,0,0,1,1.137,3.061,17.732,17.732,0,0,1,.433,4.127,15.935,15.935,0,0,1-.478,4.132,12.129,12.129,0,0,1-1.229,3.042,8.312,8.312,0,0,1-1.723,2.108,11.262,11.262,0,0,1-1.976,1.384,11.859,11.859,0,0,1-5.352,1.274,11.579,11.579,0,0,1-5.308-1.274,10.641,10.641,0,0,1-1.951-1.384,8.471,8.471,0,0,1-1.7-2.13,12.219,12.219,0,0,1-1.208-3.069,16.91,16.91,0,0,1-.448-4.127V5.7h5.4V16.062s-.414.526-.063.02m5.279,15.528a4.84,4.84,0,0,0,2.7-.679,4.725,4.725,0,0,0,1.568-1.7,6.972,6.972,0,0,0,.722-2.2,13.245,13.245,0,0,0,0-4.356,7.041,7.041,0,0,0-.722-2.2,4.721,4.721,0,0,0-1.568-1.7,5.715,5.715,0,0,0-5.405,0,4.882,4.882,0,0,0-1.582,1.7,6.548,6.548,0,0,0-.752,2.2,13.351,13.351,0,0,0,0,4.356,6.486,6.486,0,0,0,.752,2.2,4.5,4.5,0,0,0,4.285,2.384" transform="translate(-26.376 -1.504)" fill="#d60018"/>
        <path id="패스_279" data-name="패스 279" d="M145.76,15.254c.087,0,.411.016.974.046a8.524,8.524,0,0,1,1.974.386,11.757,11.757,0,0,1,2.4,1.067,8.327,8.327,0,0,1,2.36,2.085,11.148,11.148,0,0,1,1.79,3.426,15.9,15.9,0,0,1,.7,5.1V38.845h-5.533V27.365a11.7,11.7,0,0,0-.183-2.039,5.676,5.676,0,0,0-.684-1.907,4.13,4.13,0,0,0-1.4-1.428,5.373,5.373,0,0,0-4.813,0,4.148,4.148,0,0,0-1.405,1.428,5.667,5.667,0,0,0-.678,1.907,11.623,11.623,0,0,0-.183,2.039V38.845h-5.536V27.365a15.794,15.794,0,0,1,.708-5.1,11.1,11.1,0,0,1,1.787-3.426,8.4,8.4,0,0,1,2.357-2.085,11.622,11.622,0,0,1,2.41-1.067,8.391,8.391,0,0,1,1.949-.386c.541-.03.875-.046,1-.046" transform="translate(-35.767 -4.025)" fill="#d60018"/>
        <path id="패스_280" data-name="패스 280" d="M187.3,24.417c.061.453.112.923.154,1.4s.074,1,.074,1.542v.822H171.638c.063.512.141,1.036.23,1.564a7.2,7.2,0,0,0,.454,1.567,5.642,5.642,0,0,0,1.543,2.083,5.077,5.077,0,0,0,5.8,0,5.671,5.671,0,0,0,1.547-2.083h5.9a10.52,10.52,0,0,1-2.473,4.807,8.208,8.208,0,0,1-1.707,1.431,12.525,12.525,0,0,1-1.767.928,12.132,12.132,0,0,1-9.8-.452,11.216,11.216,0,0,1-1.975-1.384,8.254,8.254,0,0,1-1.723-2.109,11.638,11.638,0,0,1-1.2-3.042,16.707,16.707,0,0,1-.456-4.132,16.753,16.753,0,0,1,.456-4.127,12.04,12.04,0,0,1,1.2-3.061,8.394,8.394,0,0,1,1.723-2.153,10.694,10.694,0,0,1,1.975-1.408,11.965,11.965,0,0,1,5.4-1.361,12.692,12.692,0,0,1,4.677,1.042,11.059,11.059,0,0,1,1.837,1.068,8.784,8.784,0,0,1,1.725,1.631,11.019,11.019,0,0,1,1.4,2.313,11.747,11.747,0,0,1,.888,3.109m-5.72,0a10.916,10.916,0,0,0-.569-1.449,4.462,4.462,0,0,0-.929-1.318,4.239,4.239,0,0,0-1.405-.927,5.486,5.486,0,0,0-3.811,0,4.187,4.187,0,0,0-1.405.927,4.853,4.853,0,0,0-.953,1.318,6.959,6.959,0,0,0-.545,1.449Z" transform="translate(-43.806 -4.025)" fill="#d60018"/>
        <path id="패스_281" data-name="패스 281" d="M26.26,20.46H14v5.085h6.977c0,2.372-1.263,5.711-6.55,5.711s-8.982-1.6-8.982-10.412c0-8.9,3.767-10.466,9.195-10.466a5.682,5.682,0,0,1,5.992,4.805h5.488C25.67,11.2,23.372,5.068,14,5.068c-11.8,0-14,7.289-14,15.729,0,5.635,1.065,15.819,14,15.819S26.26,25.361,26.26,25.361Z" transform="translate(0 -1.337)" fill="#d60018"/>
        <path id="패스_282" data-name="패스 282" d="M141.31,0c-5.273.4-13.216,3.952-10.534,10.608a14.31,14.31,0,0,0,5.191-3.391l1.115-1.229a38.65,38.65,0,0,0,2.456-3.465c.45-.549-2.9,7.874-8.056,9.47.167,1.065,5.754,1.678,7.955-2.9A20.12,20.12,0,0,0,141.31,0" transform="translate(-34.366 0)" fill="#a4c422" fill-rule="evenodd"/>
        <path id="패스_283" data-name="패스 283" d="M126.378,9.456a10.046,10.046,0,0,0-4.147-2.1c-.491,2.6.207,6.945,3.77,6.5a7.079,7.079,0,0,0-.981-2.965l-.44-.724A19.924,19.924,0,0,0,123.2,8.553c-.19-.311,3.47,2.432,3.56,5.14.55.064,1.575-2.578-.384-4.238" transform="translate(-32.216 -1.941)" fill="#a4c422" fill-rule="evenodd"/>
      </g>
    </g>
  </g>
</svg>
