<svg xmlns="http://www.w3.org/2000/svg" xmlns:xlink="http://www.w3.org/1999/xlink" width="296" height="140" viewBox="0 0 296 140">
  <defs>
    <clipPath id="clip-path">
      <rect id="사각형_201" data-name="사각형 201" width="123.499" height="42" fill="none"/>
    </clipPath>
  </defs>
  <g id="그룹_533" data-name="그룹 533" transform="translate(-656 -2987)">
    <rect id="사각형_288" data-name="사각형 288" width="296" height="140" transform="translate(656 2987)" fill="#fff"/>
    <g id="그룹_249" data-name="그룹 249" transform="translate(742 3036)">
      <g id="그룹_248" data-name="그룹 248" transform="translate(0 0)" clip-path="url(#clip-path)">
        <path id="패스_284" data-name="패스 284" d="M49.638,0C40.978,0,35.79,5.354,35.79,11.962s5.188,11.956,13.848,11.956S63.5,18.57,63.5,11.962,58.309,0,49.638,0m0,21.351c-4.143,0-7.3-4.208-7.3-9.388s3.161-9.392,7.3-9.392c4.162,0,7.319,4.2,7.319,9.392s-3.157,9.388-7.319,9.388" transform="translate(-15.418 0)" fill="#dc000c"/>
        <path id="패스_285" data-name="패스 285" d="M86.55,4.2h9.122v19.4h6.876V4.2h7.7V1.551H86.55Z" transform="translate(-37.285 -0.668)" fill="#dc000c"/>
        <path id="패스_286" data-name="패스 286" d="M132.587,4.2h7.689v19.4h6.869V4.2h9.131V1.551H132.587Z" transform="translate(-57.118 -0.668)" fill="#dc000c"/>
        <path id="패스_287" data-name="패스 287" d="M6.761,19.641V1.551H.163V20.972a2.625,2.625,0,0,0,2.626,2.622H19.651V20.956H8.076a1.315,1.315,0,0,1-1.314-1.315" transform="translate(-0.07 -0.668)" fill="#dc000c"/>
        <path id="패스_288" data-name="패스 288" d="M180.769,4.171v16.8A2.628,2.628,0,0,0,183.4,23.6h17.977V20.989H188.687a1.311,1.311,0,0,1-1.312-1.312v-6.5h13.8V10.6h-13.8V5.462a1.313,1.313,0,0,1,1.312-1.311h12.687V1.55H183.4a2.624,2.624,0,0,0-2.627,2.621" transform="translate(-77.874 -0.668)" fill="#dc000c"/>
        <path id="패스_289" data-name="패스 289" d="M11.013,64.42,9.866,62.154H3.384L2.221,64.42H0L5.7,53.844A1.351,1.351,0,0,1,6.9,53.1H8.127a1.366,1.366,0,0,1,.726.2,1.3,1.3,0,0,1,.5.535L14.67,64.42Zm-6.951-3.6H9.185l-1.95-3.837a1.848,1.848,0,0,0-.219-.318,1.021,1.021,0,0,0-.189-.165.6.6,0,0,0-.2-.076.6.6,0,0,0-.2.076,1.78,1.78,0,0,0-.2.165,1.14,1.14,0,0,0-.219.318Z" transform="translate(0 -22.877)" fill="#dc000c"/>
        <path id="패스_290" data-name="패스 290" d="M33.44,62.785a1.071,1.071,0,0,0,.83.286h5.242v1.346H31.248a2.621,2.621,0,0,1-.612-.075,1.33,1.33,0,0,1-.944-.825,2.3,2.3,0,0,1-.152-.9V53.132h3.642v8.686a1.446,1.446,0,0,0,.258.967" transform="translate(-12.726 -22.889)" fill="#dc000c"/>
        <path id="패스_291" data-name="패스 291" d="M54.338,53.076v7.948a2.153,2.153,0,0,0,.227.969,2.645,2.645,0,0,0,.612.794,2.905,2.905,0,0,0,.9.535,3.012,3.012,0,0,0,1.088.2,3.06,3.06,0,0,0,1.1-.2,2.908,2.908,0,0,0,.9-.535,2.54,2.54,0,0,0,.6-.794,2.209,2.209,0,0,0,.22-.969V53.076h3.64v7.195a3.931,3.931,0,0,1-.468,1.926,4.185,4.185,0,0,1-1.322,1.445,6.506,6.506,0,0,1-2.048.907,11.055,11.055,0,0,1-5.257,0,6.532,6.532,0,0,1-2.047-.907A4.2,4.2,0,0,1,51.164,62.2a3.932,3.932,0,0,1-.468-1.926V53.076Z" transform="translate(-21.84 -22.865)" fill="#dc000c"/>
        <path id="패스_292" data-name="패스 292" d="M85.009,64.424a.624.624,0,0,1-.319-.075.97.97,0,0,1-.309-.281,2.436,2.436,0,0,1-.3-.6l-2.915-7.372v8.34H79.156V54.068a.935.935,0,0,1,.257-.664,1.025,1.025,0,0,1,.783-.272h2.176a1.407,1.407,0,0,1,.883.272,1.518,1.518,0,0,1,.506.664L86.134,60.5l2.538-6.436a1.533,1.533,0,0,1,.5-.664,1.371,1.371,0,0,1,.876-.272h2.341a1.031,1.031,0,0,1,.787.272.931.931,0,0,1,.256.664V64.433H89.866v-8.37l-2.931,7.523a1.713,1.713,0,0,1-.258.5.915.915,0,0,1-.279.241.726.726,0,0,1-.3.084c-.1,0-.207.006-.309.006h-.437c-.122,0-.236,0-.34.008" transform="translate(-34.1 -22.889)" fill="#dc000c"/>
        <rect id="사각형_199" data-name="사각형 199" width="3.657" height="11.301" transform="translate(62.73 30.243)" fill="#dc000c"/>
        <path id="패스_293" data-name="패스 293" d="M135.2,64.181a1.023,1.023,0,0,1-.779.279h-1.843a1.493,1.493,0,0,1-.913-.286,2.525,2.525,0,0,1-.628-.665L126.2,55.578v8.882h-3.564V54.113a.963.963,0,0,1,.256-.673,1,1,0,0,1,.771-.279h1.979a1.5,1.5,0,0,1,.907.287,2.473,2.473,0,0,1,.633.665l4.714,7.629V53.161h3.567V63.509a.952.952,0,0,1-.264.672" transform="translate(-52.829 -22.902)" fill="#dc000c"/>
        <rect id="사각형_200" data-name="사각형 200" width="3.657" height="11.301" transform="translate(86.03 30.243)" fill="#dc000c"/>
        <path id="패스_294" data-name="패스 294" d="M167.072,53.076v7.948a2.124,2.124,0,0,0,.227.969,2.646,2.646,0,0,0,.612.794,2.905,2.905,0,0,0,.9.535,3.005,3.005,0,0,0,1.088.2,3.044,3.044,0,0,0,1.1-.2,2.869,2.869,0,0,0,.9-.535,2.555,2.555,0,0,0,.606-.794,2.207,2.207,0,0,0,.218-.969V53.076h3.642v7.195A3.925,3.925,0,0,1,175.9,62.2a4.2,4.2,0,0,1-1.322,1.445,6.512,6.512,0,0,1-2.048.907,11.053,11.053,0,0,1-5.257,0,6.506,6.506,0,0,1-2.048-.907A4.2,4.2,0,0,1,163.9,62.2a3.931,3.931,0,0,1-.468-1.926V53.076Z" transform="translate(-70.405 -22.865)" fill="#dc000c"/>
        <path id="패스_295" data-name="패스 295" d="M197.74,64.424a.62.62,0,0,1-.316-.075.971.971,0,0,1-.309-.281,2.418,2.418,0,0,1-.3-.6L193.9,56.093v8.34h-2.007V54.068a.933.933,0,0,1,.256-.664,1.03,1.03,0,0,1,.785-.272h2.175a1.412,1.412,0,0,1,.883.272,1.53,1.53,0,0,1,.505.664l2.371,6.436,2.54-6.436a1.551,1.551,0,0,1,.5-.664,1.38,1.38,0,0,1,.878-.272h2.341a1.035,1.035,0,0,1,.787.272.933.933,0,0,1,.256.664V64.433H202.6v-8.37l-2.934,7.523a1.759,1.759,0,0,1-.256.5.906.906,0,0,1-.279.241.728.728,0,0,1-.3.084c-.1,0-.209.006-.309.006h-.439c-.12,0-.234,0-.34.008" transform="translate(-82.665 -22.889)" fill="#dc000c"/>
      </g>
    </g>
  </g>
</svg>
