<svg xmlns="http://www.w3.org/2000/svg" width="170" height="202" viewBox="0 0 170 202">
  <g id="그룹_495" data-name="그룹 495" transform="translate(-327 -5831)">
    <rect id="사각형_404" data-name="사각형 404" width="8" height="8" transform="translate(408 5832)" fill="#fbffd8"/>
    <rect id="사각형_408" data-name="사각형 408" width="8" height="8" transform="translate(408 5840)" fill="#fbffd8"/>
    <rect id="사각형_411" data-name="사각형 411" width="8" height="8" transform="translate(408 5848)" fill="#fbffd8"/>
    <rect id="사각형_414" data-name="사각형 414" width="8" height="8" transform="translate(408 5856)" fill="#fbffd8"/>
    <rect id="사각형_417" data-name="사각형 417" width="8" height="8" transform="translate(408 5864)" fill="#fbffd8"/>
    <rect id="사각형_420" data-name="사각형 420" width="8" height="8" transform="translate(408 5872)" fill="#fbffd8"/>
    <rect id="사각형_423" data-name="사각형 423" width="8" height="8" transform="translate(408 5880)" fill="#fbffd8"/>
    <rect id="사각형_426" data-name="사각형 426" width="8" height="8" transform="translate(408 5888)" fill="#fbffd8"/>
    <rect id="사각형_429" data-name="사각형 429" width="8" height="8" transform="translate(408 5896)" fill="#fbffd8"/>
    <rect id="사각형_432" data-name="사각형 432" width="8" height="8" transform="translate(408 5904)" fill="#fbffd8"/>
    <rect id="사각형_435" data-name="사각형 435" width="8" height="8" transform="translate(408 5912)" fill="#fbffd8"/>
    <rect id="사각형_438" data-name="사각형 438" width="8" height="8" transform="translate(408 5920)" fill="#fbffd8"/>
    <rect id="사각형_441" data-name="사각형 441" width="8" height="8" transform="translate(408 5928)" fill="#fbffd8"/>
    <rect id="사각형_444" data-name="사각형 444" width="8" height="8" transform="translate(408 5936)" fill="#fbffd8"/>
    <rect id="사각형_447" data-name="사각형 447" width="8" height="8" transform="translate(408 5944)" fill="#fbffd8"/>
    <rect id="사각형_450" data-name="사각형 450" width="8" height="8" transform="translate(408 5952)" fill="#fbffd8"/>
    <rect id="사각형_453" data-name="사각형 453" width="8" height="8" transform="translate(408 5960)" fill="#fbffd8"/>
    <rect id="사각형_456" data-name="사각형 456" width="8" height="8" transform="translate(408 5968)" fill="#fbffd8"/>
    <rect id="사각형_459" data-name="사각형 459" width="8" height="8" transform="translate(408 5976)" fill="#fbffd8"/>
    <rect id="사각형_462" data-name="사각형 462" width="8" height="8" transform="translate(408 5984)" fill="#fbffd8"/>
    <rect id="사각형_465" data-name="사각형 465" width="8" height="8" transform="translate(408 5992)" fill="#fbffd8"/>
    <rect id="사각형_468" data-name="사각형 468" width="8" height="8" transform="translate(408 6000)" fill="#fbffd8"/>
    <rect id="사각형_471" data-name="사각형 471" width="8" height="8" transform="translate(408 6008)" fill="#fbffd8"/>
    <rect id="사각형_474" data-name="사각형 474" width="8" height="8" transform="translate(408 6016)" fill="#fbffd8"/>
    <rect id="사각형_477" data-name="사각형 477" width="8" height="8" transform="translate(408 6024)" fill="#fbffd8"/>
    <rect id="사각형_405" data-name="사각형 405" width="8" height="8" transform="translate(400 5832)" fill="#fbffd8"/>
    <rect id="사각형_479" data-name="사각형 479" width="8" height="8" transform="translate(392 5832)" fill="#fbffd8"/>
    <rect id="사각형_407" data-name="사각형 407" width="8" height="8" transform="translate(400 5840)" fill="#fbffd8"/>
    <rect id="사각형_480" data-name="사각형 480" width="8" height="8" transform="translate(392 5840)" fill="#fbffd8"/>
    <rect id="사각형_530" data-name="사각형 530" width="8" height="8" transform="translate(384 5840)" fill="#fbffd8"/>
    <rect id="사각형_577" data-name="사각형 577" width="8" height="8" transform="translate(376 5840)" fill="#fbffd8"/>
    <rect id="사각형_410" data-name="사각형 410" width="8" height="8" transform="translate(400 5848)" fill="#fbffd8"/>
    <rect id="사각형_481" data-name="사각형 481" width="8" height="8" transform="translate(392 5848)" fill="#fbffd8"/>
    <rect id="사각형_531" data-name="사각형 531" width="8" height="8" transform="translate(384 5848)" fill="#fbffd8"/>
    <rect id="사각형_578" data-name="사각형 578" width="8" height="8" transform="translate(376 5848)" fill="#fbffd8"/>
    <rect id="사각형_601" data-name="사각형 601" width="8" height="8" transform="translate(368 5848)" fill="#fbffd8"/>
    <rect id="사각형_668" data-name="사각형 668" width="8" height="8" transform="translate(360 5848)" fill="#fbffd8"/>
    <rect id="사각형_413" data-name="사각형 413" width="8" height="8" transform="translate(400 5856)" fill="#fbffd8"/>
    <rect id="사각형_482" data-name="사각형 482" width="8" height="8" transform="translate(392 5856)" fill="#fbffd8"/>
    <rect id="사각형_532" data-name="사각형 532" width="8" height="8" transform="translate(384 5856)" fill="#fbffd8"/>
    <rect id="사각형_579" data-name="사각형 579" width="8" height="8" transform="translate(376 5856)" fill="#fbffd8"/>
    <rect id="사각형_602" data-name="사각형 602" width="8" height="8" transform="translate(368 5856)" fill="#fbffd8"/>
    <rect id="사각형_669" data-name="사각형 669" width="8" height="8" transform="translate(360 5856)" fill="#fbffd8"/>
    <rect id="사각형_691" data-name="사각형 691" width="8" height="8" transform="translate(352 5856)" fill="#fbffd8"/>
    <rect id="사각형_416" data-name="사각형 416" width="8" height="8" transform="translate(400 5864)" fill="#fbffd8"/>
    <rect id="사각형_483" data-name="사각형 483" width="8" height="8" transform="translate(392 5864)" fill="#fbffd8"/>
    <rect id="사각형_533" data-name="사각형 533" width="8" height="8" transform="translate(384 5864)" fill="#fbffd8"/>
    <rect id="사각형_580" data-name="사각형 580" width="8" height="8" transform="translate(376 5864)" fill="#fbffd8"/>
    <rect id="사각형_603" data-name="사각형 603" width="8" height="8" transform="translate(368 5864)" fill="#fbffd8"/>
    <rect id="사각형_670" data-name="사각형 670" width="8" height="8" transform="translate(360 5864)" fill="#fbffd8"/>
    <rect id="사각형_692" data-name="사각형 692" width="8" height="8" transform="translate(352 5864)" fill="#fbffd8"/>
    <rect id="사각형_419" data-name="사각형 419" width="8" height="8" transform="translate(400 5872)" fill="#fbffd8"/>
    <rect id="사각형_484" data-name="사각형 484" width="8" height="8" transform="translate(392 5872)" fill="#fbffd8"/>
    <rect id="사각형_534" data-name="사각형 534" width="8" height="8" transform="translate(384 5872)" fill="#fbffd8"/>
    <rect id="사각형_581" data-name="사각형 581" width="8" height="8" transform="translate(376 5872)" fill="#fbffd8"/>
    <rect id="사각형_604" data-name="사각형 604" width="8" height="8" transform="translate(368 5872)" fill="#fbffd8"/>
    <rect id="사각형_671" data-name="사각형 671" width="8" height="8" transform="translate(360 5872)" fill="#fbffd8"/>
    <rect id="사각형_693" data-name="사각형 693" width="8" height="8" transform="translate(352 5872)" fill="#fbffd8"/>
    <rect id="사각형_754" data-name="사각형 754" width="8" height="8" transform="translate(344 5872)" fill="#fbffd8"/>
    <rect id="사각형_770" data-name="사각형 770" width="8" height="8" transform="translate(344 5864)" fill="#fbffd8"/>
    <rect id="사각형_422" data-name="사각형 422" width="8" height="8" transform="translate(400 5880)" fill="#fbffd8"/>
    <rect id="사각형_485" data-name="사각형 485" width="8" height="8" transform="translate(392 5880)" fill="#fbffd8"/>
    <rect id="사각형_535" data-name="사각형 535" width="8" height="8" transform="translate(384 5880)" fill="#fbffd8"/>
    <rect id="사각형_582" data-name="사각형 582" width="8" height="8" transform="translate(376 5880)" fill="#fbffd8"/>
    <rect id="사각형_605" data-name="사각형 605" width="8" height="8" transform="translate(368 5880)" fill="#fbffd8"/>
    <rect id="사각형_672" data-name="사각형 672" width="8" height="8" transform="translate(360 5880)" fill="#fbffd8"/>
    <rect id="사각형_694" data-name="사각형 694" width="8" height="8" transform="translate(352 5880)" fill="#fbffd8"/>
    <rect id="사각형_425" data-name="사각형 425" width="8" height="8" transform="translate(400 5888)" fill="#fbffd8"/>
    <rect id="사각형_486" data-name="사각형 486" width="8" height="8" transform="translate(392 5888)" fill="#fbffd8"/>
    <rect id="사각형_536" data-name="사각형 536" width="8" height="8" transform="translate(384 5888)" fill="#fbffd8"/>
    <rect id="사각형_583" data-name="사각형 583" width="8" height="8" transform="translate(376 5888)" fill="#fbffd8"/>
    <rect id="사각형_606" data-name="사각형 606" width="8" height="8" transform="translate(368 5888)" fill="#fbffd8"/>
    <rect id="사각형_673" data-name="사각형 673" width="8" height="8" transform="translate(360 5888)" fill="#fbffd8"/>
    <rect id="사각형_428" data-name="사각형 428" width="8" height="8" transform="translate(400 5896)" fill="#fbffd8"/>
    <rect id="사각형_487" data-name="사각형 487" width="8" height="8" transform="translate(392 5896)" fill="#fbffd8"/>
    <rect id="사각형_537" data-name="사각형 537" width="8" height="8" transform="translate(384 5896)" fill="#fbffd8"/>
    <rect id="사각형_584" data-name="사각형 584" width="8" height="8" transform="translate(376 5896)" fill="#fbffd8"/>
    <rect id="사각형_607" data-name="사각형 607" width="8" height="8" transform="translate(368 5896)" fill="#fbffd8"/>
    <rect id="사각형_674" data-name="사각형 674" width="8" height="8" transform="translate(360 5896)" fill="#fbffd8"/>
    <rect id="사각형_832" data-name="사각형 832" width="8" height="8" transform="translate(488 5896)" fill="#fbffd8"/>
    <rect id="사각형_431" data-name="사각형 431" width="8" height="8" transform="translate(400 5904)" fill="#fbffd8"/>
    <rect id="사각형_488" data-name="사각형 488" width="8" height="8" transform="translate(392 5904)" fill="#fbffd8"/>
    <rect id="사각형_538" data-name="사각형 538" width="8" height="8" transform="translate(384 5904)" fill="#fbffd8"/>
    <rect id="사각형_585" data-name="사각형 585" width="8" height="8" transform="translate(376 5904)" fill="#fbffd8"/>
    <rect id="사각형_608" data-name="사각형 608" width="8" height="8" transform="translate(368 5904)" fill="#fbffd8"/>
    <rect id="사각형_675" data-name="사각형 675" width="8" height="8" transform="translate(360 5904)" fill="#fbffd8"/>
    <rect id="사각형_697" data-name="사각형 697" width="8" height="8" transform="translate(352 5904)" fill="#fbffd8"/>
    <g id="그룹_456" data-name="그룹 456">
      <rect id="사각형_755" data-name="사각형 755" width="8" height="8" transform="translate(344 5880)" fill="#fa0"/>
      <rect id="사각형_773" data-name="사각형 773" width="8" height="8" transform="translate(336 5880)" fill="#fa0"/>
      <rect id="사각형_695" data-name="사각형 695" width="8" height="8" transform="translate(352 5888)" fill="#fa0"/>
      <rect id="사각형_756" data-name="사각형 756" width="8" height="8" transform="translate(344 5888)" fill="#fa0"/>
      <rect id="사각형_774" data-name="사각형 774" width="8" height="8" transform="translate(336 5888)" fill="#fa0"/>
      <rect id="사각형_696" data-name="사각형 696" width="8" height="8" transform="translate(352 5896)" fill="#fa0"/>
      <rect id="사각형_757" data-name="사각형 757" width="8" height="8" transform="translate(344 5896)" fill="#fa0"/>
      <rect id="사각형_775" data-name="사각형 775" width="8" height="8" transform="translate(336 5896)" fill="#fa0"/>
      <rect id="사각형_788" data-name="사각형 788" width="8" height="8" transform="translate(328 5896)" fill="#fa0"/>
      <rect id="사각형_758" data-name="사각형 758" width="8" height="8" transform="translate(344 5904)" fill="#fa0"/>
      <rect id="사각형_776" data-name="사각형 776" width="8" height="8" transform="translate(336 5904)" fill="#fa0"/>
      <rect id="사각형_789" data-name="사각형 789" width="8" height="8" transform="translate(328 5904)" fill="#fa0"/>
    </g>
    <rect id="사각형_833" data-name="사각형 833" width="8" height="8" transform="translate(488 5904)" fill="#fbffd8"/>
    <rect id="사각형_434" data-name="사각형 434" width="8" height="8" transform="translate(400 5912)" fill="#fbffd8"/>
    <rect id="사각형_489" data-name="사각형 489" width="8" height="8" transform="translate(392 5912)" fill="#fbffd8"/>
    <rect id="사각형_539" data-name="사각형 539" width="8" height="8" transform="translate(384 5912)" fill="#fbffd8"/>
    <rect id="사각형_586" data-name="사각형 586" width="8" height="8" transform="translate(376 5912)" fill="#fbffd8"/>
    <rect id="사각형_609" data-name="사각형 609" width="8" height="8" transform="translate(368 5912)" fill="#fbffd8"/>
    <rect id="사각형_676" data-name="사각형 676" width="8" height="8" transform="translate(360 5912)" fill="#fbffd8"/>
    <rect id="사각형_698" data-name="사각형 698" width="8" height="8" transform="translate(352 5912)" fill="#fbffd8"/>
    <rect id="사각형_759" data-name="사각형 759" width="8" height="8" transform="translate(344 5912)" fill="#fbffd8"/>
    <rect id="사각형_777" data-name="사각형 777" width="8" height="8" transform="translate(336 5912)" fill="#fbffd8"/>
    <rect id="사각형_790" data-name="사각형 790" width="8" height="8" transform="translate(328 5912)" fill="#fbffd8"/>
    <rect id="사각형_834" data-name="사각형 834" width="8" height="8" transform="translate(488 5912)" fill="#fbffd8"/>
    <rect id="사각형_437" data-name="사각형 437" width="8" height="8" transform="translate(400 5920)" fill="#fbffd8"/>
    <rect id="사각형_490" data-name="사각형 490" width="8" height="8" transform="translate(392 5920)" fill="#fbffd8"/>
    <rect id="사각형_540" data-name="사각형 540" width="8" height="8" transform="translate(384 5920)" fill="#fbffd8"/>
    <rect id="사각형_587" data-name="사각형 587" width="8" height="8" transform="translate(376 5920)" fill="#fbffd8"/>
    <rect id="사각형_610" data-name="사각형 610" width="8" height="8" transform="translate(368 5920)" fill="#efd897"/>
    <rect id="사각형_677" data-name="사각형 677" width="8" height="8" transform="translate(360 5920)" fill="#efd897"/>
    <rect id="사각형_699" data-name="사각형 699" width="8" height="8" transform="translate(352 5920)" fill="#fbffd8"/>
    <rect id="사각형_760" data-name="사각형 760" width="8" height="8" transform="translate(344 5920)" fill="#fbffd8"/>
    <rect id="사각형_778" data-name="사각형 778" width="8" height="8" transform="translate(336 5920)" fill="#fbffd8"/>
    <rect id="사각형_791" data-name="사각형 791" width="8" height="8" transform="translate(328 5920)" fill="#efd897"/>
    <rect id="사각형_841" data-name="사각형 841" width="8" height="8" transform="translate(336 5928)" fill="#fbffd8"/>
    <rect id="사각형_835" data-name="사각형 835" width="8" height="8" transform="translate(488 5920)" fill="#fbffd8"/>
    <rect id="사각형_440" data-name="사각형 440" width="8" height="8" transform="translate(400 5928)" fill="#fbffd8"/>
    <rect id="사각형_491" data-name="사각형 491" width="8" height="8" transform="translate(392 5928)" fill="#efd897"/>
    <rect id="사각형_541" data-name="사각형 541" width="8" height="8" transform="translate(384 5928)" fill="#fbffd8"/>
    <rect id="사각형_588" data-name="사각형 588" width="8" height="8" transform="translate(376 5928)" fill="#efd897"/>
    <rect id="사각형_611" data-name="사각형 611" width="8" height="8" transform="translate(368 5928)" fill="#fbffd8"/>
    <rect id="사각형_678" data-name="사각형 678" width="8" height="8" transform="translate(360 5928)" fill="#fbffd8"/>
    <rect id="사각형_700" data-name="사각형 700" width="8" height="8" transform="translate(352 5928)" fill="#efd897"/>
    <rect id="사각형_761" data-name="사각형 761" width="8" height="8" transform="translate(344 5928)" fill="#fbffd8"/>
    <rect id="사각형_779" data-name="사각형 779" width="8" height="8" transform="translate(336 5928)" fill="#efd897"/>
    <rect id="사각형_792" data-name="사각형 792" width="8" height="8" transform="translate(328 5928)" fill="#fbffd8"/>
    <rect id="사각형_836" data-name="사각형 836" width="8" height="8" transform="translate(488 5928)" fill="#efd897"/>
    <rect id="사각형_443" data-name="사각형 443" width="8" height="8" transform="translate(400 5936)" fill="#fbffd8"/>
    <rect id="사각형_492" data-name="사각형 492" width="8" height="8" transform="translate(392 5936)" fill="#fbffd8"/>
    <rect id="사각형_542" data-name="사각형 542" width="8" height="8" transform="translate(384 5936)" fill="#efd897"/>
    <rect id="사각형_589" data-name="사각형 589" width="8" height="8" transform="translate(376 5936)" fill="#fbffd8"/>
    <rect id="사각형_612" data-name="사각형 612" width="8" height="8" transform="translate(368 5936)" fill="#fbffd8"/>
    <rect id="사각형_679" data-name="사각형 679" width="8" height="8" transform="translate(360 5936)" fill="#fbffd8"/>
    <rect id="사각형_701" data-name="사각형 701" width="8" height="8" transform="translate(352 5936)" fill="#fbffd8"/>
    <rect id="사각형_762" data-name="사각형 762" width="8" height="8" transform="translate(344 5936)" fill="#efd897"/>
    <rect id="사각형_780" data-name="사각형 780" width="8" height="8" transform="translate(336 5936)" fill="#fbffd8"/>
    <rect id="사각형_793" data-name="사각형 793" width="8" height="8" transform="translate(328 5936)" fill="#fbffd8"/>
    <rect id="사각형_837" data-name="사각형 837" width="8" height="8" transform="translate(488 5936)" fill="#fbffd8"/>
    <rect id="사각형_446" data-name="사각형 446" width="8" height="8" transform="translate(400 5944)" fill="#fbffd8"/>
    <rect id="사각형_493" data-name="사각형 493" width="8" height="8" transform="translate(392 5944)" fill="#fbffd8"/>
    <rect id="사각형_543" data-name="사각형 543" width="8" height="8" transform="translate(384 5944)" fill="#fbffd8"/>
    <rect id="사각형_590" data-name="사각형 590" width="8" height="8" transform="translate(376 5944)" fill="#fbffd8"/>
    <rect id="사각형_613" data-name="사각형 613" width="8" height="8" transform="translate(368 5944)" fill="#fbffd8"/>
    <rect id="사각형_680" data-name="사각형 680" width="8" height="8" transform="translate(360 5944)" fill="#fbffd8"/>
    <rect id="사각형_702" data-name="사각형 702" width="8" height="8" transform="translate(352 5944)" fill="#fbffd8"/>
    <rect id="사각형_763" data-name="사각형 763" width="8" height="8" transform="translate(344 5944)" fill="#fbffd8"/>
    <rect id="사각형_781" data-name="사각형 781" width="8" height="8" transform="translate(336 5944)" fill="#fbffd8"/>
    <rect id="사각형_794" data-name="사각형 794" width="8" height="8" transform="translate(328 5944)" fill="#fbffd8"/>
    <rect id="사각형_838" data-name="사각형 838" width="8" height="8" transform="translate(488 5944)" fill="#fbffd8"/>
    <rect id="사각형_449" data-name="사각형 449" width="8" height="8" transform="translate(400 5952)" fill="#fbffd8"/>
    <rect id="사각형_494" data-name="사각형 494" width="8" height="8" transform="translate(392 5952)" fill="#fbffd8"/>
    <rect id="사각형_544" data-name="사각형 544" width="8" height="8" transform="translate(384 5952)" fill="#fbffd8"/>
    <rect id="사각형_681" data-name="사각형 681" width="8" height="8" transform="translate(360 5952)" fill="#fbffd8"/>
    <rect id="사각형_703" data-name="사각형 703" width="8" height="8" transform="translate(352 5952)" fill="#fbffd8"/>
    <rect id="사각형_764" data-name="사각형 764" width="8" height="8" transform="translate(344 5952)" fill="#fbffd8"/>
    <rect id="사각형_782" data-name="사각형 782" width="8" height="8" transform="translate(336 5952)" fill="#fbffd8"/>
    <rect id="사각형_795" data-name="사각형 795" width="8" height="8" transform="translate(328 5952)" fill="#fbffd8"/>
    <rect id="사각형_839" data-name="사각형 839" width="8" height="8" transform="translate(488 5952)" fill="#fbffd8"/>
    <rect id="사각형_452" data-name="사각형 452" width="8" height="8" transform="translate(400 5960)" fill="#fbffd8"/>
    <rect id="사각형_495" data-name="사각형 495" width="8" height="8" transform="translate(392 5960)" fill="#fbffd8"/>
    <rect id="사각형_682" data-name="사각형 682" width="8" height="8" transform="translate(360 5960)" fill="#fbffd8"/>
    <rect id="사각형_704" data-name="사각형 704" width="8" height="8" transform="translate(352 5960)" fill="#fbffd8"/>
    <rect id="사각형_765" data-name="사각형 765" width="8" height="8" transform="translate(344 5960)" fill="#fbffd8"/>
    <rect id="사각형_783" data-name="사각형 783" width="8" height="8" transform="translate(336 5960)" fill="#fbffd8"/>
    <rect id="사각형_796" data-name="사각형 796" width="8" height="8" transform="translate(328 5960)" fill="#fbffd8"/>
    <rect id="사각형_840" data-name="사각형 840" width="8" height="8" transform="translate(488 5960)" fill="#fbffd8"/>
    <rect id="사각형_455" data-name="사각형 455" width="8" height="8" transform="translate(400 5968)" fill="#fbffd8"/>
    <rect id="사각형_683" data-name="사각형 683" width="8" height="8" transform="translate(360 5968)" fill="#fbffd8"/>
    <rect id="사각형_705" data-name="사각형 705" width="8" height="8" transform="translate(352 5968)" fill="#fbffd8"/>
    <rect id="사각형_766" data-name="사각형 766" width="8" height="8" transform="translate(344 5968)" fill="#fbffd8"/>
    <rect id="사각형_784" data-name="사각형 784" width="8" height="8" transform="translate(336 5968)" fill="#fbffd8"/>
    <rect id="사각형_458" data-name="사각형 458" width="8" height="8" transform="translate(400 5976)" fill="#fbffd8"/>
    <g id="그룹_457" data-name="그룹 457">
      <rect id="사각형_591" data-name="사각형 591" width="8" height="8" transform="translate(376 5952)" fill="#fa0"/>
      <rect id="사각형_614" data-name="사각형 614" width="8" height="8" transform="translate(368 5952)" fill="#fa0"/>
      <rect id="사각형_592" data-name="사각형 592" width="8" height="8" transform="translate(376 5960)" fill="#fa0"/>
      <rect id="사각형_615" data-name="사각형 615" width="8" height="8" transform="translate(368 5960)" fill="#fa0"/>
      <rect id="사각형_496" data-name="사각형 496" width="8" height="8" transform="translate(392 5968)" fill="#fa0"/>
      <rect id="사각형_616" data-name="사각형 616" width="8" height="8" transform="translate(368 5968)" fill="#fa0"/>
      <rect id="사각형_497" data-name="사각형 497" width="8" height="8" transform="translate(392 5976)" fill="#fa0"/>
      <rect id="사각형_545" data-name="사각형 545" width="8" height="8" transform="translate(384 5960)" fill="#fa0"/>
      <rect id="사각형_546" data-name="사각형 546" width="8" height="8" transform="translate(384 5968)" fill="#fa0"/>
      <rect id="사각형_593" data-name="사각형 593" width="8" height="8" transform="translate(376 5968)" fill="#fa0"/>
      <rect id="사각형_547" data-name="사각형 547" width="8" height="8" transform="translate(384 5976)" fill="#fa0"/>
      <rect id="사각형_594" data-name="사각형 594" width="8" height="8" transform="translate(376 5976)" fill="#fa0"/>
    </g>
    <rect id="사각형_617" data-name="사각형 617" width="8" height="8" transform="translate(368 5976)" fill="#fbffd8"/>
    <rect id="사각형_684" data-name="사각형 684" width="8" height="8" transform="translate(360 5976)" fill="#fbffd8"/>
    <rect id="사각형_706" data-name="사각형 706" width="8" height="8" transform="translate(352 5976)" fill="#fbffd8"/>
    <rect id="사각형_767" data-name="사각형 767" width="8" height="8" transform="translate(344 5976)" fill="#fbffd8"/>
    <rect id="사각형_785" data-name="사각형 785" width="8" height="8" transform="translate(336 5976)" fill="#fbffd8"/>
    <rect id="사각형_461" data-name="사각형 461" width="8" height="8" transform="translate(400 5984)" fill="#fbffd8"/>
    <rect id="사각형_498" data-name="사각형 498" width="8" height="8" transform="translate(392 5984)" fill="#fbffd8"/>
    <rect id="사각형_548" data-name="사각형 548" width="8" height="8" transform="translate(384 5984)" fill="#fbffd8"/>
    <rect id="사각형_595" data-name="사각형 595" width="8" height="8" transform="translate(376 5984)" fill="#fbffd8"/>
    <rect id="사각형_618" data-name="사각형 618" width="8" height="8" transform="translate(368 5984)" fill="#fbffd8"/>
    <rect id="사각형_685" data-name="사각형 685" width="8" height="8" transform="translate(360 5984)" fill="#fbffd8"/>
    <rect id="사각형_707" data-name="사각형 707" width="8" height="8" transform="translate(352 5984)" fill="#fbffd8"/>
    <rect id="사각형_768" data-name="사각형 768" width="8" height="8" transform="translate(344 5984)" fill="#fbffd8"/>
    <rect id="사각형_464" data-name="사각형 464" width="8" height="8" transform="translate(400 5992)" fill="#fbffd8"/>
    <rect id="사각형_499" data-name="사각형 499" width="8" height="8" transform="translate(392 5992)" fill="#fbffd8"/>
    <rect id="사각형_549" data-name="사각형 549" width="8" height="8" transform="translate(384 5992)" fill="#fbffd8"/>
    <rect id="사각형_596" data-name="사각형 596" width="8" height="8" transform="translate(376 5992)" fill="#fbffd8"/>
    <rect id="사각형_619" data-name="사각형 619" width="8" height="8" transform="translate(368 5992)" fill="#fbffd8"/>
    <rect id="사각형_686" data-name="사각형 686" width="8" height="8" transform="translate(360 5992)" fill="#fbffd8"/>
    <rect id="사각형_708" data-name="사각형 708" width="8" height="8" transform="translate(352 5992)" fill="#fbffd8"/>
    <rect id="사각형_769" data-name="사각형 769" width="8" height="8" transform="translate(344 5992)" fill="#fbffd8"/>
    <rect id="사각형_467" data-name="사각형 467" width="8" height="8" transform="translate(400 6000)" fill="#fbffd8"/>
    <rect id="사각형_500" data-name="사각형 500" width="8" height="8" transform="translate(392 6000)" fill="#fbffd8"/>
    <rect id="사각형_550" data-name="사각형 550" width="8" height="8" transform="translate(384 6000)" fill="#fbffd8"/>
    <rect id="사각형_597" data-name="사각형 597" width="8" height="8" transform="translate(376 6000)" fill="#fbffd8"/>
    <rect id="사각형_620" data-name="사각형 620" width="8" height="8" transform="translate(368 6000)" fill="#fbffd8"/>
    <rect id="사각형_687" data-name="사각형 687" width="8" height="8" transform="translate(360 6000)" fill="#fbffd8"/>
    <rect id="사각형_709" data-name="사각형 709" width="8" height="8" transform="translate(352 6000)" fill="#fbffd8"/>
    <rect id="사각형_470" data-name="사각형 470" width="8" height="8" transform="translate(400 6008)" fill="#fbffd8"/>
    <rect id="사각형_501" data-name="사각형 501" width="8" height="8" transform="translate(392 6008)" fill="#fbffd8"/>
    <rect id="사각형_551" data-name="사각형 551" width="8" height="8" transform="translate(384 6008)" fill="#fbffd8"/>
    <rect id="사각형_598" data-name="사각형 598" width="8" height="8" transform="translate(376 6008)" fill="#fbffd8"/>
    <rect id="사각형_621" data-name="사각형 621" width="8" height="8" transform="translate(368 6008)" fill="#fbffd8"/>
    <rect id="사각형_688" data-name="사각형 688" width="8" height="8" transform="translate(360 6008)" fill="#fbffd8"/>
    <rect id="사각형_473" data-name="사각형 473" width="8" height="8" transform="translate(400 6016)" fill="#fbffd8"/>
    <rect id="사각형_502" data-name="사각형 502" width="8" height="8" transform="translate(392 6016)" fill="#fbffd8"/>
    <rect id="사각형_552" data-name="사각형 552" width="8" height="8" transform="translate(384 6016)" fill="#fbffd8"/>
    <rect id="사각형_599" data-name="사각형 599" width="8" height="8" transform="translate(376 6016)" fill="#fbffd8"/>
    <rect id="사각형_622" data-name="사각형 622" width="8" height="8" transform="translate(368 6016)" fill="#fbffd8"/>
    <rect id="사각형_476" data-name="사각형 476" width="8" height="8" transform="translate(400 6024)" fill="#fbffd8"/>
    <rect id="사각형_503" data-name="사각형 503" width="8" height="8" transform="translate(392 6024)" fill="#fbffd8"/>
    <rect id="사각형_406" data-name="사각형 406" width="8" height="8" transform="translate(416 5832)" fill="#fbffd8"/>
    <rect id="사각형_504" data-name="사각형 504" width="8" height="8" transform="translate(424 5832)" fill="#fbffd8"/>
    <rect id="사각형_409" data-name="사각형 409" width="8" height="8" transform="translate(416 5840)" fill="#fbffd8"/>
    <rect id="사각형_505" data-name="사각형 505" width="8" height="8" transform="translate(424 5840)" fill="#fbffd8"/>
    <rect id="사각형_554" data-name="사각형 554" width="8" height="8" transform="translate(432 5840)" fill="#fbffd8"/>
    <rect id="사각형_412" data-name="사각형 412" width="8" height="8" transform="translate(416 5848)" fill="#fbffd8"/>
    <rect id="사각형_506" data-name="사각형 506" width="8" height="8" transform="translate(424 5848)" fill="#fbffd8"/>
    <rect id="사각형_555" data-name="사각형 555" width="8" height="8" transform="translate(432 5848)" fill="#fbffd8"/>
    <rect id="사각형_415" data-name="사각형 415" width="8" height="8" transform="translate(416 5856)" fill="#fbffd8"/>
    <rect id="사각형_507" data-name="사각형 507" width="8" height="8" transform="translate(424 5856)" fill="#fbffd8"/>
    <rect id="사각형_418" data-name="사각형 418" width="8" height="8" transform="translate(416 5864)" fill="#fbffd8"/>
    <rect id="사각형_508" data-name="사각형 508" width="8" height="8" transform="translate(424 5864)" fill="#fbffd8"/>
    <rect id="사각형_421" data-name="사각형 421" width="8" height="8" transform="translate(416 5872)" fill="#fbffd8"/>
    <rect id="사각형_509" data-name="사각형 509" width="8" height="8" transform="translate(424 5872)" fill="#fbffd8"/>
    <rect id="사각형_558" data-name="사각형 558" width="8" height="8" transform="translate(432 5872)" fill="#fbffd8"/>
    <g id="그룹_455" data-name="그룹 455">
      <rect id="사각형_645" data-name="사각형 645" width="8" height="8" transform="translate(440 5840)" fill="#fa0"/>
      <rect id="사각형_644" data-name="사각형 644" width="8" height="8" transform="translate(440 5848)" fill="#fa0"/>
      <rect id="사각형_667" data-name="사각형 667" width="8" height="8" transform="translate(448 5848)" fill="#fa0"/>
      <rect id="사각형_556" data-name="사각형 556" width="8" height="8" transform="translate(432 5856)" fill="#fa0"/>
      <rect id="사각형_643" data-name="사각형 643" width="8" height="8" transform="translate(440 5856)" fill="#fa0"/>
      <rect id="사각형_666" data-name="사각형 666" width="8" height="8" transform="translate(448 5856)" fill="#fa0"/>
      <rect id="사각형_711" data-name="사각형 711" width="8" height="8" transform="translate(456 5856)" fill="#fa0"/>
      <rect id="사각형_751" data-name="사각형 751" width="8" height="8" transform="translate(456 5848)" fill="#fa0"/>
      <rect id="사각형_731" data-name="사각형 731" width="8" height="8" transform="translate(464 5856)" fill="#fa0"/>
      <rect id="사각형_557" data-name="사각형 557" width="8" height="8" transform="translate(432 5864)" fill="#fa0"/>
      <rect id="사각형_642" data-name="사각형 642" width="8" height="8" transform="translate(440 5864)" fill="#fa0"/>
      <rect id="사각형_665" data-name="사각형 665" width="8" height="8" transform="translate(448 5864)" fill="#fa0"/>
      <rect id="사각형_712" data-name="사각형 712" width="8" height="8" transform="translate(456 5864)" fill="#fa0"/>
      <rect id="사각형_732" data-name="사각형 732" width="8" height="8" transform="translate(464 5864)" fill="#fa0"/>
      <rect id="사각형_800" data-name="사각형 800" width="8" height="8" transform="translate(472 5864)" fill="#fa0"/>
      <rect id="사각형_641" data-name="사각형 641" width="8" height="8" transform="translate(440 5872)" fill="#fa0"/>
      <rect id="사각형_664" data-name="사각형 664" width="8" height="8" transform="translate(448 5872)" fill="#fa0"/>
      <rect id="사각형_713" data-name="사각형 713" width="8" height="8" transform="translate(456 5872)" fill="#fa0"/>
    </g>
    <rect id="사각형_733" data-name="사각형 733" width="8" height="8" transform="translate(464 5872)" fill="#fbffd8"/>
    <rect id="사각형_801" data-name="사각형 801" width="8" height="8" transform="translate(472 5872)" fill="#fbffd8"/>
    <rect id="사각형_424" data-name="사각형 424" width="8" height="8" transform="translate(416 5880)" fill="#fbffd8"/>
    <rect id="사각형_510" data-name="사각형 510" width="8" height="8" transform="translate(424 5880)" fill="#fbffd8"/>
    <rect id="사각형_559" data-name="사각형 559" width="8" height="8" transform="translate(432 5880)" fill="#fbffd8"/>
    <rect id="사각형_640" data-name="사각형 640" width="8" height="8" transform="translate(440 5880)" fill="#fbffd8"/>
    <rect id="사각형_663" data-name="사각형 663" width="8" height="8" transform="translate(448 5880)" fill="#fbffd8"/>
    <rect id="사각형_714" data-name="사각형 714" width="8" height="8" transform="translate(456 5880)" fill="#fbffd8"/>
    <rect id="사각형_734" data-name="사각형 734" width="8" height="8" transform="translate(464 5880)" fill="#fbffd8"/>
    <rect id="사각형_802" data-name="사각형 802" width="8" height="8" transform="translate(472 5880)" fill="#fbffd8"/>
    <rect id="사각형_819" data-name="사각형 819" width="8" height="8" transform="translate(480 5880)" fill="#fbffd8"/>
    <rect id="사각형_427" data-name="사각형 427" width="8" height="8" transform="translate(416 5888)" fill="#fbffd8"/>
    <rect id="사각형_511" data-name="사각형 511" width="8" height="8" transform="translate(424 5888)" fill="#fbffd8"/>
    <rect id="사각형_560" data-name="사각형 560" width="8" height="8" transform="translate(432 5888)" fill="#fbffd8"/>
    <rect id="사각형_639" data-name="사각형 639" width="8" height="8" transform="translate(440 5888)" fill="#fbffd8"/>
    <rect id="사각형_662" data-name="사각형 662" width="8" height="8" transform="translate(448 5888)" fill="#fbffd8"/>
    <rect id="사각형_715" data-name="사각형 715" width="8" height="8" transform="translate(456 5888)" fill="#fbffd8"/>
    <rect id="사각형_735" data-name="사각형 735" width="8" height="8" transform="translate(464 5888)" fill="#fbffd8"/>
    <rect id="사각형_803" data-name="사각형 803" width="8" height="8" transform="translate(472 5888)" fill="#fbffd8"/>
    <rect id="사각형_820" data-name="사각형 820" width="8" height="8" transform="translate(480 5888)" fill="#fbffd8"/>
    <rect id="사각형_430" data-name="사각형 430" width="8" height="8" transform="translate(416 5896)" fill="#fbffd8"/>
    <rect id="사각형_512" data-name="사각형 512" width="8" height="8" transform="translate(424 5896)" fill="#fbffd8"/>
    <rect id="사각형_561" data-name="사각형 561" width="8" height="8" transform="translate(432 5896)" fill="#fbffd8"/>
    <rect id="사각형_638" data-name="사각형 638" width="8" height="8" transform="translate(440 5896)" fill="#fbffd8"/>
    <rect id="사각형_661" data-name="사각형 661" width="8" height="8" transform="translate(448 5896)" fill="#fbffd8"/>
    <rect id="사각형_716" data-name="사각형 716" width="8" height="8" transform="translate(456 5896)" fill="#fbffd8"/>
    <rect id="사각형_736" data-name="사각형 736" width="8" height="8" transform="translate(464 5896)" fill="#fbffd8"/>
    <rect id="사각형_804" data-name="사각형 804" width="8" height="8" transform="translate(472 5896)" fill="#fbffd8"/>
    <rect id="사각형_821" data-name="사각형 821" width="8" height="8" transform="translate(480 5896)" fill="#fbffd8"/>
    <rect id="사각형_433" data-name="사각형 433" width="8" height="8" transform="translate(416 5904)" fill="#fbffd8"/>
    <rect id="사각형_513" data-name="사각형 513" width="8" height="8" transform="translate(424 5904)" fill="#fbffd8"/>
    <rect id="사각형_562" data-name="사각형 562" width="8" height="8" transform="translate(432 5904)" fill="#fbffd8"/>
    <rect id="사각형_637" data-name="사각형 637" width="8" height="8" transform="translate(440 5904)" fill="#fbffd8"/>
    <rect id="사각형_660" data-name="사각형 660" width="8" height="8" transform="translate(448 5904)" fill="#fbffd8"/>
    <rect id="사각형_717" data-name="사각형 717" width="8" height="8" transform="translate(456 5904)" fill="#fbffd8"/>
    <rect id="사각형_737" data-name="사각형 737" width="8" height="8" transform="translate(464 5904)" fill="#fbffd8"/>
    <rect id="사각형_805" data-name="사각형 805" width="8" height="8" transform="translate(472 5904)" fill="#fbffd8"/>
    <rect id="사각형_822" data-name="사각형 822" width="8" height="8" transform="translate(480 5904)" fill="#fbffd8"/>
    <rect id="사각형_436" data-name="사각형 436" width="8" height="8" transform="translate(416 5912)" fill="#fbffd8"/>
    <rect id="사각형_514" data-name="사각형 514" width="8" height="8" transform="translate(424 5912)" fill="#fbffd8"/>
    <rect id="사각형_563" data-name="사각형 563" width="8" height="8" transform="translate(432 5912)" fill="#fbffd8"/>
    <rect id="사각형_636" data-name="사각형 636" width="8" height="8" transform="translate(440 5912)" fill="#fbffd8"/>
    <rect id="사각형_659" data-name="사각형 659" width="8" height="8" transform="translate(448 5912)" fill="#fbffd8"/>
    <rect id="사각형_718" data-name="사각형 718" width="8" height="8" transform="translate(456 5912)" fill="#fbffd8"/>
    <rect id="사각형_738" data-name="사각형 738" width="8" height="8" transform="translate(464 5912)" fill="#fbffd8"/>
    <rect id="사각형_806" data-name="사각형 806" width="8" height="8" transform="translate(472 5912)" fill="#fbffd8"/>
    <rect id="사각형_823" data-name="사각형 823" width="8" height="8" transform="translate(480 5912)" fill="#fbffd8"/>
    <rect id="사각형_439" data-name="사각형 439" width="8" height="8" transform="translate(416 5920)" fill="#fbffd8"/>
    <rect id="사각형_515" data-name="사각형 515" width="8" height="8" transform="translate(424 5920)" fill="#efd897"/>
    <rect id="사각형_564" data-name="사각형 564" width="8" height="8" transform="translate(432 5920)" fill="#fbffd8"/>
    <rect id="사각형_635" data-name="사각형 635" width="8" height="8" transform="translate(440 5920)" fill="#fbffd8"/>
    <rect id="사각형_658" data-name="사각형 658" width="8" height="8" transform="translate(448 5920)" fill="#fbffd8"/>
    <rect id="사각형_719" data-name="사각형 719" width="8" height="8" transform="translate(456 5920)" fill="#fbffd8"/>
    <rect id="사각형_739" data-name="사각형 739" width="8" height="8" transform="translate(464 5920)" fill="#fbffd8"/>
    <rect id="사각형_807" data-name="사각형 807" width="8" height="8" transform="translate(472 5920)" fill="#fbffd8"/>
    <rect id="사각형_824" data-name="사각형 824" width="8" height="8" transform="translate(480 5920)" fill="#fbffd8"/>
    <rect id="사각형_442" data-name="사각형 442" width="8" height="8" transform="translate(416 5928)" fill="#fbffd8"/>
    <rect id="사각형_516" data-name="사각형 516" width="8" height="8" transform="translate(424 5928)" fill="#fbffd8"/>
    <rect id="사각형_565" data-name="사각형 565" width="8" height="8" transform="translate(432 5928)" fill="#efd897"/>
    <rect id="사각형_634" data-name="사각형 634" width="8" height="8" transform="translate(440 5928)" fill="#fbffd8"/>
    <rect id="사각형_657" data-name="사각형 657" width="8" height="8" transform="translate(448 5928)" fill="#fbffd8"/>
    <rect id="사각형_720" data-name="사각형 720" width="8" height="8" transform="translate(456 5928)" fill="#efd897"/>
    <rect id="사각형_740" data-name="사각형 740" width="8" height="8" transform="translate(464 5928)" fill="#efd897"/>
    <rect id="사각형_808" data-name="사각형 808" width="8" height="8" transform="translate(472 5928)" fill="#fbffd8"/>
    <rect id="사각형_825" data-name="사각형 825" width="8" height="8" transform="translate(480 5928)" fill="#fbffd8"/>
    <rect id="사각형_445" data-name="사각형 445" width="8" height="8" transform="translate(416 5936)" fill="#fbffd8"/>
    <rect id="사각형_517" data-name="사각형 517" width="8" height="8" transform="translate(424 5936)" fill="#fbffd8"/>
    <rect id="사각형_566" data-name="사각형 566" width="8" height="8" transform="translate(432 5936)" fill="#fbffd8"/>
    <rect id="사각형_633" data-name="사각형 633" width="8" height="8" transform="translate(440 5936)" fill="#efd897"/>
    <rect id="사각형_656" data-name="사각형 656" width="8" height="8" transform="translate(448 5936)" fill="#efd897"/>
    <rect id="사각형_721" data-name="사각형 721" width="8" height="8" transform="translate(456 5936)" fill="#fbffd8"/>
    <rect id="사각형_741" data-name="사각형 741" width="8" height="8" transform="translate(464 5936)" fill="#fbffd8"/>
    <rect id="사각형_809" data-name="사각형 809" width="8" height="8" transform="translate(472 5936)" fill="#efd897"/>
    <rect id="사각형_826" data-name="사각형 826" width="8" height="8" transform="translate(480 5936)" fill="#efd897"/>
    <rect id="사각형_448" data-name="사각형 448" width="8" height="8" transform="translate(416 5944)" fill="#fbffd8"/>
    <rect id="사각형_518" data-name="사각형 518" width="8" height="8" transform="translate(424 5944)" fill="#fbffd8"/>
    <rect id="사각형_567" data-name="사각형 567" width="8" height="8" transform="translate(432 5944)" fill="#fbffd8"/>
    <rect id="사각형_632" data-name="사각형 632" width="8" height="8" transform="translate(440 5944)" fill="#fbffd8"/>
    <rect id="사각형_655" data-name="사각형 655" width="8" height="8" transform="translate(448 5944)" fill="#fbffd8"/>
    <rect id="사각형_722" data-name="사각형 722" width="8" height="8" transform="translate(456 5944)" fill="#fbffd8"/>
    <rect id="사각형_742" data-name="사각형 742" width="8" height="8" transform="translate(464 5944)" fill="#fbffd8"/>
    <rect id="사각형_810" data-name="사각형 810" width="8" height="8" transform="translate(472 5944)" fill="#fbffd8"/>
    <rect id="사각형_827" data-name="사각형 827" width="8" height="8" transform="translate(480 5944)" fill="#fbffd8"/>
    <rect id="사각형_451" data-name="사각형 451" width="8" height="8" transform="translate(416 5952)" fill="#fbffd8"/>
    <rect id="사각형_519" data-name="사각형 519" width="8" height="8" transform="translate(424 5952)" fill="#fbffd8"/>
    <rect id="사각형_568" data-name="사각형 568" width="8" height="8" transform="translate(432 5952)" fill="#fbffd8"/>
    <rect id="사각형_631" data-name="사각형 631" width="8" height="8" transform="translate(440 5952)" fill="#fbffd8"/>
    <rect id="사각형_654" data-name="사각형 654" width="8" height="8" transform="translate(448 5952)" fill="#fbffd8"/>
    <rect id="사각형_723" data-name="사각형 723" width="8" height="8" transform="translate(456 5952)" fill="#fbffd8"/>
    <rect id="사각형_743" data-name="사각형 743" width="8" height="8" transform="translate(464 5952)" fill="#fbffd8"/>
    <rect id="사각형_811" data-name="사각형 811" width="8" height="8" transform="translate(472 5952)" fill="#fbffd8"/>
    <rect id="사각형_828" data-name="사각형 828" width="8" height="8" transform="translate(480 5952)" fill="#fbffd8"/>
    <rect id="사각형_454" data-name="사각형 454" width="8" height="8" transform="translate(416 5960)" fill="#fbffd8"/>
    <rect id="사각형_520" data-name="사각형 520" width="8" height="8" transform="translate(424 5960)" fill="#fbffd8"/>
    <rect id="사각형_569" data-name="사각형 569" width="8" height="8" transform="translate(432 5960)" fill="#fbffd8"/>
    <rect id="사각형_630" data-name="사각형 630" width="8" height="8" transform="translate(440 5960)" fill="#fbffd8"/>
    <rect id="사각형_653" data-name="사각형 653" width="8" height="8" transform="translate(448 5960)" fill="#fbffd8"/>
    <rect id="사각형_724" data-name="사각형 724" width="8" height="8" transform="translate(456 5960)" fill="#fbffd8"/>
    <rect id="사각형_744" data-name="사각형 744" width="8" height="8" transform="translate(464 5960)" fill="#fbffd8"/>
    <rect id="사각형_812" data-name="사각형 812" width="8" height="8" transform="translate(472 5960)" fill="#fbffd8"/>
    <rect id="사각형_829" data-name="사각형 829" width="8" height="8" transform="translate(480 5960)" fill="#fbffd8"/>
    <rect id="사각형_457" data-name="사각형 457" width="8" height="8" transform="translate(416 5968)" fill="#fbffd8"/>
    <rect id="사각형_521" data-name="사각형 521" width="8" height="8" transform="translate(424 5968)" fill="#fbffd8"/>
    <rect id="사각형_570" data-name="사각형 570" width="8" height="8" transform="translate(432 5968)" fill="#fbffd8"/>
    <rect id="사각형_629" data-name="사각형 629" width="8" height="8" transform="translate(440 5968)" fill="#fbffd8"/>
    <rect id="사각형_652" data-name="사각형 652" width="8" height="8" transform="translate(448 5968)" fill="#fbffd8"/>
    <rect id="사각형_725" data-name="사각형 725" width="8" height="8" transform="translate(456 5968)" fill="#fbffd8"/>
    <rect id="사각형_745" data-name="사각형 745" width="8" height="8" transform="translate(464 5968)" fill="#fbffd8"/>
    <rect id="사각형_813" data-name="사각형 813" width="8" height="8" transform="translate(472 5968)" fill="#fbffd8"/>
    <rect id="사각형_830" data-name="사각형 830" width="8" height="8" transform="translate(480 5968)" fill="#fbffd8"/>
    <rect id="사각형_460" data-name="사각형 460" width="8" height="8" transform="translate(416 5976)" fill="#fbffd8"/>
    <rect id="사각형_522" data-name="사각형 522" width="8" height="8" transform="translate(424 5976)" fill="#fbffd8"/>
    <rect id="사각형_571" data-name="사각형 571" width="8" height="8" transform="translate(432 5976)" fill="#fbffd8"/>
    <rect id="사각형_628" data-name="사각형 628" width="8" height="8" transform="translate(440 5976)" fill="#fbffd8"/>
    <rect id="사각형_651" data-name="사각형 651" width="8" height="8" transform="translate(448 5976)" fill="#fbffd8"/>
    <rect id="사각형_726" data-name="사각형 726" width="8" height="8" transform="translate(456 5976)" fill="#fbffd8"/>
    <rect id="사각형_746" data-name="사각형 746" width="8" height="8" transform="translate(464 5976)" fill="#fbffd8"/>
    <rect id="사각형_814" data-name="사각형 814" width="8" height="8" transform="translate(472 5976)" fill="#fbffd8"/>
    <rect id="사각형_831" data-name="사각형 831" width="8" height="8" transform="translate(480 5976)" fill="#fbffd8"/>
    <rect id="사각형_463" data-name="사각형 463" width="8" height="8" transform="translate(416 5984)" fill="#fbffd8"/>
    <rect id="사각형_523" data-name="사각형 523" width="8" height="8" transform="translate(424 5984)" fill="#fbffd8"/>
    <rect id="사각형_572" data-name="사각형 572" width="8" height="8" transform="translate(432 5984)" fill="#fbffd8"/>
    <rect id="사각형_626" data-name="사각형 626" width="8" height="8" transform="translate(440 5984)" fill="#fbffd8"/>
    <rect id="사각형_649" data-name="사각형 649" width="8" height="8" transform="translate(448 5984)" fill="#fbffd8"/>
    <rect id="사각형_727" data-name="사각형 727" width="8" height="8" transform="translate(456 5984)" fill="#fbffd8"/>
    <rect id="사각형_747" data-name="사각형 747" width="8" height="8" transform="translate(464 5984)" fill="#fbffd8"/>
    <rect id="사각형_815" data-name="사각형 815" width="8" height="8" transform="translate(472 5984)" fill="#fbffd8"/>
    <rect id="사각형_466" data-name="사각형 466" width="8" height="8" transform="translate(416 5992)" fill="#fbffd8"/>
    <rect id="사각형_524" data-name="사각형 524" width="8" height="8" transform="translate(424 5992)" fill="#fbffd8"/>
    <rect id="사각형_573" data-name="사각형 573" width="8" height="8" transform="translate(432 5992)" fill="#fbffd8"/>
    <rect id="사각형_627" data-name="사각형 627" width="8" height="8" transform="translate(440 5992)" fill="#fbffd8"/>
    <rect id="사각형_650" data-name="사각형 650" width="8" height="8" transform="translate(448 5992)" fill="#fa0"/>
    <rect id="사각형_728" data-name="사각형 728" width="8" height="8" transform="translate(456 5992)" fill="#fa0"/>
    <rect id="사각형_748" data-name="사각형 748" width="8" height="8" transform="translate(464 5992)" fill="#fa0"/>
    <rect id="사각형_816" data-name="사각형 816" width="8" height="8" transform="translate(472 5992)" fill="#fbffd8"/>
    <rect id="사각형_469" data-name="사각형 469" width="8" height="8" transform="translate(416 6000)" fill="#fbffd8"/>
    <rect id="사각형_525" data-name="사각형 525" width="8" height="8" transform="translate(424 6000)" fill="#fbffd8"/>
    <rect id="사각형_574" data-name="사각형 574" width="8" height="8" transform="translate(432 6000)" fill="#fbffd8"/>
    <rect id="사각형_625" data-name="사각형 625" width="8" height="8" transform="translate(440 6000)" fill="#fa0"/>
    <rect id="사각형_648" data-name="사각형 648" width="8" height="8" transform="translate(448 6000)" fill="#fa0"/>
    <rect id="사각형_729" data-name="사각형 729" width="8" height="8" transform="translate(456 6000)" fill="#fa0"/>
    <rect id="사각형_749" data-name="사각형 749" width="8" height="8" transform="translate(464 6000)" fill="#fa0"/>
    <rect id="사각형_472" data-name="사각형 472" width="8" height="8" transform="translate(416 6008)" fill="#fbffd8"/>
    <rect id="사각형_526" data-name="사각형 526" width="8" height="8" transform="translate(424 6008)" fill="#fbffd8"/>
    <rect id="사각형_575" data-name="사각형 575" width="8" height="8" transform="translate(432 6008)" fill="#fbffd8"/>
    <rect id="사각형_624" data-name="사각형 624" width="8" height="8" transform="translate(440 6008)" fill="#fa0"/>
    <rect id="사각형_647" data-name="사각형 647" width="8" height="8" transform="translate(448 6008)" fill="#fa0"/>
    <rect id="사각형_730" data-name="사각형 730" width="8" height="8" transform="translate(456 6008)" fill="#fa0"/>
    <rect id="사각형_475" data-name="사각형 475" width="8" height="8" transform="translate(416 6016)" fill="#fbffd8"/>
    <rect id="사각형_527" data-name="사각형 527" width="8" height="8" transform="translate(424 6016)" fill="#fbffd8"/>
    <rect id="사각형_576" data-name="사각형 576" width="8" height="8" transform="translate(432 6016)" fill="#fbffd8"/>
    <rect id="사각형_623" data-name="사각형 623" width="8" height="8" transform="translate(440 6016)" fill="#fa0"/>
    <rect id="사각형_646" data-name="사각형 646" width="8" height="8" transform="translate(448 6016)" fill="#fa0"/>
    <rect id="사각형_478" data-name="사각형 478" width="8" height="8" transform="translate(416 6024)" fill="#fbffd8"/>
    <rect id="사각형_528" data-name="사각형 528" width="8" height="8" transform="translate(424 6024)" fill="#fbffd8"/>
    <path id="패스_422" data-name="패스 422" d="M392,5840v-8h40v8h16v8h16v8h8v8h8v16h8v16h8v72h-8v16h-8v16.107h-7.384V6008H464v8h-8v8H432v8H392v-8H368v-8h-8v-8h-8v-7.893h-8V5984h-8v-16h-8v-72h8v-16h8v-16h8v-8h8v-8h16v-8Z" fill="none" stroke="#333" stroke-width="2"/>
  </g>
</svg>
