<svg xmlns="http://www.w3.org/2000/svg" width="146" height="178" viewBox="0 0 146 178">
  <g id="그룹_514" data-name="그룹 514" transform="translate(-2623 -5873)">
    <rect id="사각형_2528" data-name="사각형 2528" width="8" height="8" transform="translate(2672 5890)" fill="#aceb9d"/>
    <rect id="사각형_2529" data-name="사각형 2529" width="8" height="8" transform="translate(2664 5890)" fill="#aceb9d"/>
    <rect id="사각형_2580" data-name="사각형 2580" width="8" height="8" transform="translate(2656 5890)" fill="#aceb9d"/>
    <rect id="사각형_2581" data-name="사각형 2581" width="8" height="8" transform="translate(2656 5898)" fill="#aceb9d"/>
    <rect id="사각형_2608" data-name="사각형 2608" width="8" height="8" transform="translate(2648 5898)" fill="#aceb9d"/>
    <rect id="사각형_2609" data-name="사각형 2609" width="8" height="8" transform="translate(2648 5906)" fill="#aceb9d"/>
    <rect id="사각형_2610" data-name="사각형 2610" width="8" height="8" transform="translate(2640 5906)" fill="#aceb9d"/>
    <rect id="사각형_2611" data-name="사각형 2611" width="8" height="8" transform="translate(2640 5914)" fill="#aceb9d"/>
    <rect id="사각형_2612" data-name="사각형 2612" width="8" height="8" transform="translate(2632 5914)" fill="#aceb9d"/>
    <rect id="사각형_2613" data-name="사각형 2613" width="8" height="8" transform="translate(2632 5922)" fill="#aceb9d"/>
    <rect id="사각형_2614" data-name="사각형 2614" width="8" height="8" transform="translate(2632 5930)" fill="#aceb9d"/>
    <rect id="사각형_2615" data-name="사각형 2615" width="8" height="8" transform="translate(2632 5938)" fill="#aceb9d"/>
    <rect id="사각형_2616" data-name="사각형 2616" width="8" height="8" transform="translate(2632 5946)" fill="#aceb9d"/>
    <rect id="사각형_2617" data-name="사각형 2617" width="8" height="8" transform="translate(2624 5946)" fill="#aceb9d"/>
    <rect id="사각형_2618" data-name="사각형 2618" width="8" height="8" transform="translate(2624 5954)" fill="#aceb9d"/>
    <rect id="사각형_2619" data-name="사각형 2619" width="8" height="8" transform="translate(2624 5962)" fill="#aceb9d"/>
    <rect id="사각형_2620" data-name="사각형 2620" width="8" height="8" transform="translate(2632 5954)" fill="#ffede9"/>
    <rect id="사각형_2621" data-name="사각형 2621" width="8" height="8" transform="translate(2632 5962)" fill="#aceb9d"/>
    <rect id="사각형_2622" data-name="사각형 2622" width="8" height="8" transform="translate(2632 5970)" fill="#aceb9d"/>
    <rect id="사각형_2623" data-name="사각형 2623" width="8" height="8" transform="translate(2640 5970)" fill="#aceb9d"/>
    <rect id="사각형_2624" data-name="사각형 2624" width="8" height="8" transform="translate(2648 5970)" fill="#aceb9d"/>
    <rect id="사각형_2625" data-name="사각형 2625" width="8" height="8" transform="translate(2640 5962)" fill="#aceb9d"/>
    <rect id="사각형_2626" data-name="사각형 2626" width="8" height="8" transform="translate(2648 5962)" fill="#aceb9d"/>
    <rect id="사각형_2582" data-name="사각형 2582" width="8" height="8" transform="translate(2656 5962)" fill="#aceb9d"/>
    <rect id="사각형_2583" data-name="사각형 2583" width="8" height="8" transform="translate(2656 5970)" fill="#aceb9d"/>
    <rect id="사각형_2627" data-name="사각형 2627" width="8" height="8" transform="translate(2640 5978)" fill="#aceb9d"/>
    <rect id="사각형_2628" data-name="사각형 2628" width="8" height="8" transform="translate(2648 5978)" fill="#aceb9d"/>
    <rect id="사각형_2629" data-name="사각형 2629" width="8" height="8" transform="translate(2648 5986)" fill="#aceb9d"/>
    <rect id="사각형_2630" data-name="사각형 2630" width="8" height="8" transform="translate(2648 5994)" fill="#aceb9d"/>
    <rect id="사각형_2631" data-name="사각형 2631" width="8" height="8" transform="translate(2648 6002)" fill="#aceb9d"/>
    <rect id="사각형_2632" data-name="사각형 2632" width="8" height="8" transform="translate(2648 6010)" fill="#aceb9d"/>
    <rect id="사각형_2633" data-name="사각형 2633" width="8" height="8" transform="translate(2648 6018)" fill="#aceb9d"/>
    <rect id="사각형_2634" data-name="사각형 2634" width="8" height="8" transform="translate(2640 6018)" fill="#aceb9d"/>
    <rect id="사각형_2635" data-name="사각형 2635" width="8" height="8" transform="translate(2648 6026)" fill="#aceb9d"/>
    <rect id="사각형_2636" data-name="사각형 2636" width="8" height="8" transform="translate(2648 6034)" fill="#aceb9d"/>
    <rect id="사각형_2637" data-name="사각형 2637" width="8" height="8" transform="translate(2648 6042)" fill="#aceb9d"/>
    <rect id="사각형_2638" data-name="사각형 2638" width="8" height="8" transform="translate(2728 6042)" fill="#aceb9d"/>
    <rect id="사각형_2639" data-name="사각형 2639" width="8" height="8" transform="translate(2736 6042)" fill="#aceb9d"/>
    <rect id="사각형_2640" data-name="사각형 2640" width="8" height="8" transform="translate(2656 6034)" fill="#aceb9d"/>
    <rect id="사각형_2641" data-name="사각형 2641" width="8" height="8" transform="translate(2712 6034)" fill="#aceb9d"/>
    <rect id="사각형_2642" data-name="사각형 2642" width="8" height="8" transform="translate(2720 6042)" fill="#aceb9d"/>
    <rect id="사각형_2643" data-name="사각형 2643" width="8" height="8" transform="translate(2720 6034)" fill="#aceb9d"/>
    <rect id="사각형_2644" data-name="사각형 2644" width="8" height="8" transform="translate(2728 6034)" fill="#aceb9d"/>
    <rect id="사각형_2645" data-name="사각형 2645" width="8" height="8" transform="translate(2640 6026)" fill="#aceb9d"/>
    <rect id="사각형_2646" data-name="사각형 2646" width="8" height="8" transform="translate(2640 6034)" fill="#aceb9d"/>
    <rect id="사각형_2647" data-name="사각형 2647" width="8" height="8" transform="translate(2640 6042)" fill="#aceb9d"/>
    <rect id="사각형_2648" data-name="사각형 2648" width="8" height="8" transform="translate(2632 6042)" fill="#aceb9d"/>
    <rect id="사각형_2584" data-name="사각형 2584" width="8" height="8" transform="translate(2656 5986)" fill="#aceb9d"/>
    <rect id="사각형_2585" data-name="사각형 2585" width="8" height="8" transform="translate(2656 5994)" fill="#aceb9d"/>
    <rect id="사각형_2586" data-name="사각형 2586" width="8" height="8" transform="translate(2656 6002)" fill="#aceb9d"/>
    <rect id="사각형_2587" data-name="사각형 2587" width="8" height="8" transform="translate(2656 6010)" fill="#aceb9d"/>
    <rect id="사각형_2649" data-name="사각형 2649" width="8" height="8" transform="translate(2656 6018)" fill="#aceb9d"/>
    <rect id="사각형_2650" data-name="사각형 2650" width="8" height="8" transform="translate(2656 6026)" fill="#aceb9d"/>
    <rect id="사각형_2588" data-name="사각형 2588" width="8" height="8" transform="translate(2656 5978)" fill="#aceb9d"/>
    <rect id="사각형_2530" data-name="사각형 2530" width="8" height="8" transform="translate(2664 5978)" fill="#aceb9d"/>
    <rect id="사각형_2531" data-name="사각형 2531" width="8" height="8" transform="translate(2664 5986)" fill="#aceb9d"/>
    <rect id="사각형_2532" data-name="사각형 2532" width="8" height="8" transform="translate(2664 5994)" fill="#d3f9ca"/>
    <rect id="사각형_2533" data-name="사각형 2533" width="8" height="8" transform="translate(2664 6002)" fill="#d3f9ca"/>
    <rect id="사각형_2589" data-name="사각형 2589" width="8" height="8" transform="translate(2664 6010)" fill="#d3f9ca"/>
    <rect id="사각형_2651" data-name="사각형 2651" width="8" height="8" transform="translate(2664 6018)" fill="#aceb9d"/>
    <rect id="사각형_2652" data-name="사각형 2652" width="8" height="8" transform="translate(2664 6026)" fill="#aceb9d"/>
    <rect id="사각형_2534" data-name="사각형 2534" width="8" height="8" transform="translate(2672 5986)" fill="#d3f9ca"/>
    <rect id="사각형_2535" data-name="사각형 2535" width="8" height="8" transform="translate(2672 5994)" fill="#d3f9ca"/>
    <rect id="사각형_2536" data-name="사각형 2536" width="8" height="8" transform="translate(2672 6002)" fill="#d3f9ca"/>
    <rect id="사각형_2590" data-name="사각형 2590" width="8" height="8" transform="translate(2672 6010)" fill="#d3f9ca"/>
    <rect id="사각형_2653" data-name="사각형 2653" width="8" height="8" transform="translate(2672 6018)" fill="#d3f9ca"/>
    <rect id="사각형_2654" data-name="사각형 2654" width="8" height="8" transform="translate(2672 6026)" fill="#aceb9d"/>
    <rect id="사각형_2491" data-name="사각형 2491" width="8" height="8" transform="translate(2688 5986)" fill="#d3f9ca"/>
    <rect id="사각형_2537" data-name="사각형 2537" width="8" height="8" transform="translate(2688 5994)" fill="#d3f9ca"/>
    <rect id="사각형_2538" data-name="사각형 2538" width="8" height="8" transform="translate(2688 6002)" fill="#d3f9ca"/>
    <rect id="사각형_2591" data-name="사각형 2591" width="8" height="8" transform="translate(2688 6010)" fill="#d3f9ca"/>
    <rect id="사각형_2655" data-name="사각형 2655" width="8" height="8" transform="translate(2688 6018)" fill="#d3f9ca"/>
    <rect id="사각형_2656" data-name="사각형 2656" width="8" height="8" transform="translate(2688 6026)" fill="#aceb9d"/>
    <rect id="사각형_2492" data-name="사각형 2492" width="8" height="8" transform="translate(2696 5986)" fill="#d3f9ca"/>
    <rect id="사각형_2539" data-name="사각형 2539" width="8" height="8" transform="translate(2696 5994)" fill="#d3f9ca"/>
    <rect id="사각형_2540" data-name="사각형 2540" width="8" height="8" transform="translate(2696 6002)" fill="#d3f9ca"/>
    <rect id="사각형_2592" data-name="사각형 2592" width="8" height="8" transform="translate(2696 6010)" fill="#d3f9ca"/>
    <rect id="사각형_2657" data-name="사각형 2657" width="8" height="8" transform="translate(2696 6018)" fill="#d3f9ca"/>
    <rect id="사각형_2658" data-name="사각형 2658" width="8" height="8" transform="translate(2696 6026)" fill="#aceb9d"/>
    <rect id="사각형_2493" data-name="사각형 2493" width="8" height="8" transform="translate(2712 5986)" fill="#aceb9d"/>
    <rect id="사각형_2541" data-name="사각형 2541" width="8" height="8" transform="translate(2712 5994)" fill="#aceb9d"/>
    <rect id="사각형_2542" data-name="사각형 2542" width="8" height="8" transform="translate(2712 6002)" fill="#aceb9d"/>
    <rect id="사각형_2593" data-name="사각형 2593" width="8" height="8" transform="translate(2712 6010)" fill="#aceb9d"/>
    <rect id="사각형_2659" data-name="사각형 2659" width="8" height="8" transform="translate(2712 6018)" fill="#aceb9d"/>
    <rect id="사각형_2660" data-name="사각형 2660" width="8" height="8" transform="translate(2712 6026)" fill="#aceb9d"/>
    <rect id="사각형_2494" data-name="사각형 2494" width="8" height="8" transform="translate(2720 5986)" fill="#aceb9d"/>
    <rect id="사각형_2543" data-name="사각형 2543" width="8" height="8" transform="translate(2720 5994)" fill="#aceb9d"/>
    <rect id="사각형_2544" data-name="사각형 2544" width="8" height="8" transform="translate(2720 6002)" fill="#aceb9d"/>
    <rect id="사각형_2594" data-name="사각형 2594" width="8" height="8" transform="translate(2720 6010)" fill="#aceb9d"/>
    <rect id="사각형_2661" data-name="사각형 2661" width="8" height="8" transform="translate(2720 6018)" fill="#aceb9d"/>
    <rect id="사각형_2662" data-name="사각형 2662" width="8" height="8" transform="translate(2720 6026)" fill="#aceb9d"/>
    <rect id="사각형_2419" data-name="사각형 2419" width="8" height="8" transform="translate(2720 5978)" fill="#aceb9d"/>
    <rect id="사각형_2495" data-name="사각형 2495" width="8" height="8" transform="translate(2728 5986)" fill="#aceb9d"/>
    <rect id="사각형_2545" data-name="사각형 2545" width="8" height="8" transform="translate(2728 5994)" fill="#aceb9d"/>
    <rect id="사각형_2546" data-name="사각형 2546" width="8" height="8" transform="translate(2728 6002)" fill="#aceb9d"/>
    <rect id="사각형_2595" data-name="사각형 2595" width="8" height="8" transform="translate(2728 6010)" fill="#aceb9d"/>
    <rect id="사각형_2663" data-name="사각형 2663" width="8" height="8" transform="translate(2728 6018)" fill="#aceb9d"/>
    <rect id="사각형_2664" data-name="사각형 2664" width="8" height="8" transform="translate(2728 6026)" fill="#aceb9d"/>
    <rect id="사각형_2665" data-name="사각형 2665" width="8" height="8" transform="translate(2736 6018)" fill="#aceb9d"/>
    <rect id="사각형_2666" data-name="사각형 2666" width="8" height="8" transform="translate(2736 6026)" fill="#aceb9d"/>
    <rect id="사각형_2596" data-name="사각형 2596" width="8" height="8" transform="translate(2736 6010)" fill="#aceb9d"/>
    <rect id="사각형_2667" data-name="사각형 2667" width="8" height="8" transform="translate(2744 6018)" fill="#aceb9d"/>
    <rect id="사각형_2597" data-name="사각형 2597" width="8" height="8" transform="translate(2744 6010)" fill="#aceb9d"/>
    <rect id="사각형_2547" data-name="사각형 2547" width="8" height="8" transform="translate(2744 6002)" fill="#aceb9d"/>
    <rect id="사각형_2598" data-name="사각형 2598" width="8" height="8" transform="translate(2752 6010)" fill="#aceb9d"/>
    <rect id="사각형_2548" data-name="사각형 2548" width="8" height="8" transform="translate(2752 6002)" fill="#aceb9d"/>
    <rect id="사각형_2549" data-name="사각형 2549" width="8" height="8" transform="translate(2752 5994)" fill="#aceb9d"/>
    <rect id="사각형_2496" data-name="사각형 2496" width="8" height="8" transform="translate(2760 5986)" fill="#aceb9d"/>
    <rect id="사각형_2550" data-name="사각형 2550" width="8" height="8" transform="translate(2760 6002)" fill="#aceb9d"/>
    <rect id="사각형_2551" data-name="사각형 2551" width="8" height="8" transform="translate(2760 5994)" fill="#aceb9d"/>
    <rect id="사각형_2552" data-name="사각형 2552" width="8" height="8" transform="translate(2664 5962)" fill="#aceb9d"/>
    <rect id="사각형_2553" data-name="사각형 2553" width="8" height="8" transform="translate(2664 5970)" fill="#aceb9d"/>
    <rect id="사각형_2668" data-name="사각형 2668" width="8" height="8" transform="translate(2640 5986)" fill="#aceb9d"/>
    <rect id="사각형_2669" data-name="사각형 2669" width="8" height="8" transform="translate(2632 5986)" fill="#aceb9d"/>
    <rect id="사각형_2670" data-name="사각형 2670" width="8" height="8" transform="translate(2624 5994)" fill="#aceb9d"/>
    <rect id="사각형_2671" data-name="사각형 2671" width="8" height="8" transform="translate(2632 5994)" fill="#aceb9d"/>
    <rect id="사각형_2672" data-name="사각형 2672" width="8" height="8" transform="translate(2640 5994)" fill="#aceb9d"/>
    <rect id="사각형_2673" data-name="사각형 2673" width="8" height="8" transform="translate(2640 6002)" fill="#aceb9d"/>
    <rect id="사각형_2674" data-name="사각형 2674" width="8" height="8" transform="translate(2640 6010)" fill="#aceb9d"/>
    <rect id="사각형_2497" data-name="사각형 2497" width="8" height="8" transform="translate(2680 5986)" fill="#d3f9ca"/>
    <rect id="사각형_2554" data-name="사각형 2554" width="8" height="8" transform="translate(2680 5994)" fill="#d3f9ca"/>
    <rect id="사각형_2555" data-name="사각형 2555" width="8" height="8" transform="translate(2680 6002)" fill="#d3f9ca"/>
    <rect id="사각형_2599" data-name="사각형 2599" width="8" height="8" transform="translate(2680 6010)" fill="#d3f9ca"/>
    <rect id="사각형_2675" data-name="사각형 2675" width="8" height="8" transform="translate(2680 6018)" fill="#d3f9ca"/>
    <rect id="사각형_2676" data-name="사각형 2676" width="8" height="8" transform="translate(2680 6026)" fill="#aceb9d"/>
    <rect id="사각형_2556" data-name="사각형 2556" width="8" height="8" transform="translate(2672 5962)" fill="#aceb9d"/>
    <rect id="사각형_2557" data-name="사각형 2557" width="8" height="8" transform="translate(2672 5970)" fill="#aceb9d"/>
    <rect id="사각형_2558" data-name="사각형 2558" width="8" height="8" transform="translate(2672 5978)" fill="#aceb9d"/>
    <rect id="사각형_2498" data-name="사각형 2498" width="8" height="8" transform="translate(2680 5962)" fill="#333"/>
    <rect id="사각형_2499" data-name="사각형 2499" width="8" height="8" transform="translate(2680 5970)" fill="#aceb9d"/>
    <rect id="사각형_2500" data-name="사각형 2500" width="8" height="8" transform="translate(2680 5978)" fill="#aceb9d"/>
    <rect id="사각형_2501" data-name="사각형 2501" width="8" height="8" transform="translate(2688 5962)" fill="#333"/>
    <rect id="사각형_2502" data-name="사각형 2502" width="8" height="8" transform="translate(2688 5970)" fill="#aceb9d"/>
    <rect id="사각형_2503" data-name="사각형 2503" width="8" height="8" transform="translate(2688 5978)" fill="#aceb9d"/>
    <rect id="사각형_2504" data-name="사각형 2504" width="8" height="8" transform="translate(2704 5986)" fill="#aceb9d"/>
    <rect id="사각형_2559" data-name="사각형 2559" width="8" height="8" transform="translate(2704 5994)" fill="#d3f9ca"/>
    <rect id="사각형_2560" data-name="사각형 2560" width="8" height="8" transform="translate(2704 6002)" fill="#d3f9ca"/>
    <rect id="사각형_2600" data-name="사각형 2600" width="8" height="8" transform="translate(2704 6010)" fill="#d3f9ca"/>
    <rect id="사각형_2677" data-name="사각형 2677" width="8" height="8" transform="translate(2704 6018)" fill="#aceb9d"/>
    <rect id="사각형_2678" data-name="사각형 2678" width="8" height="8" transform="translate(2704 6026)" fill="#aceb9d"/>
    <rect id="사각형_2420" data-name="사각형 2420" width="8" height="8" transform="translate(2704 5978)" fill="#aceb9d"/>
    <rect id="사각형_2421" data-name="사각형 2421" width="8" height="8" transform="translate(2696 5962)" fill="#aceb9d"/>
    <rect id="사각형_2422" data-name="사각형 2422" width="8" height="8" transform="translate(2696 5970)" fill="#aceb9d"/>
    <rect id="사각형_2423" data-name="사각형 2423" width="8" height="8" transform="translate(2696 5978)" fill="#aceb9d"/>
    <rect id="사각형_2424" data-name="사각형 2424" width="8" height="8" transform="translate(2704 5962)" fill="#aceb9d"/>
    <rect id="사각형_2425" data-name="사각형 2425" width="8" height="8" transform="translate(2704 5970)" fill="#aceb9d"/>
    <rect id="사각형_2426" data-name="사각형 2426" width="8" height="8" transform="translate(2712 5962)" fill="#aceb9d"/>
    <rect id="사각형_2427" data-name="사각형 2427" width="8" height="8" transform="translate(2712 5970)" fill="#aceb9d"/>
    <rect id="사각형_2428" data-name="사각형 2428" width="8" height="8" transform="translate(2712 5978)" fill="#aceb9d"/>
    <rect id="사각형_2429" data-name="사각형 2429" width="8" height="8" transform="translate(2720 5962)" fill="#aceb9d"/>
    <rect id="사각형_2430" data-name="사각형 2430" width="8" height="8" transform="translate(2720 5970)" fill="#aceb9d"/>
    <rect id="사각형_2505" data-name="사각형 2505" width="8" height="8" transform="translate(2736 5986)" fill="#aceb9d"/>
    <rect id="사각형_2561" data-name="사각형 2561" width="8" height="8" transform="translate(2736 5994)" fill="#aceb9d"/>
    <rect id="사각형_2562" data-name="사각형 2562" width="8" height="8" transform="translate(2744 5994)" fill="#aceb9d"/>
    <rect id="사각형_2431" data-name="사각형 2431" width="8" height="8" transform="translate(2728 5962)" fill="#aceb9d"/>
    <rect id="사각형_2432" data-name="사각형 2432" width="8" height="8" transform="translate(2728 5970)" fill="#aceb9d"/>
    <rect id="사각형_2433" data-name="사각형 2433" width="8" height="8" transform="translate(2728 5978)" fill="#aceb9d"/>
    <rect id="사각형_2434" data-name="사각형 2434" width="8" height="8" transform="translate(2736 5962)" fill="#aceb9d"/>
    <rect id="사각형_2435" data-name="사각형 2435" width="8" height="8" transform="translate(2736 5970)" fill="#aceb9d"/>
    <rect id="사각형_2436" data-name="사각형 2436" width="8" height="8" transform="translate(2744 5962)" fill="#aceb9d"/>
    <rect id="사각형_2679" data-name="사각형 2679" width="8" height="8" transform="translate(2640 5954)" fill="#ffede9"/>
    <rect id="사각형_2680" data-name="사각형 2680" width="8" height="8" transform="translate(2648 5954)" fill="#aceb9d"/>
    <rect id="사각형_2601" data-name="사각형 2601" width="8" height="8" transform="translate(2656 5954)" fill="#333"/>
    <rect id="사각형_2563" data-name="사각형 2563" width="8" height="8" transform="translate(2664 5954)" fill="#aceb9d"/>
    <rect id="사각형_2564" data-name="사각형 2564" width="8" height="8" transform="translate(2672 5954)" fill="#aceb9d"/>
    <rect id="사각형_2506" data-name="사각형 2506" width="8" height="8" transform="translate(2680 5954)" fill="#aceb9d"/>
    <rect id="사각형_2507" data-name="사각형 2507" width="8" height="8" transform="translate(2688 5954)" fill="#aceb9d"/>
    <rect id="사각형_2437" data-name="사각형 2437" width="8" height="8" transform="translate(2696 5954)" fill="#aceb9d"/>
    <rect id="사각형_2438" data-name="사각형 2438" width="8" height="8" transform="translate(2704 5954)" fill="#aceb9d"/>
    <rect id="사각형_2439" data-name="사각형 2439" width="8" height="8" transform="translate(2712 5954)" fill="#333"/>
    <rect id="사각형_2440" data-name="사각형 2440" width="8" height="8" transform="translate(2720 5954)" fill="#aceb9d"/>
    <rect id="사각형_2441" data-name="사각형 2441" width="8" height="8" transform="translate(2728 5954)" fill="#ffede9"/>
    <rect id="사각형_2442" data-name="사각형 2442" width="8" height="8" transform="translate(2736 5954)" fill="#ffede9"/>
    <rect id="사각형_2443" data-name="사각형 2443" width="8" height="8" transform="translate(2744 5954)" fill="#aceb9d"/>
    <rect id="사각형_2681" data-name="사각형 2681" width="8" height="8" transform="translate(2640 5946)" fill="#aceb9d"/>
    <rect id="사각형_2682" data-name="사각형 2682" width="8" height="8" transform="translate(2640 5938)" fill="#aceb9d"/>
    <rect id="사각형_2683" data-name="사각형 2683" width="8" height="8" transform="translate(2640 5930)" fill="#aceb9d"/>
    <rect id="사각형_2684" data-name="사각형 2684" width="8" height="8" transform="translate(2640 5922)" fill="#aceb9d"/>
    <rect id="사각형_2685" data-name="사각형 2685" width="8" height="8" transform="translate(2648 5922)" fill="#aceb9d"/>
    <rect id="사각형_2686" data-name="사각형 2686" width="8" height="8" transform="translate(2648 5914)" fill="#aceb9d"/>
    <rect id="사각형_2602" data-name="사각형 2602" width="8" height="8" transform="translate(2656 5922)" fill="#aceb9d"/>
    <rect id="사각형_2603" data-name="사각형 2603" width="8" height="8" transform="translate(2656 5914)" fill="#aceb9d"/>
    <rect id="사각형_2604" data-name="사각형 2604" width="8" height="8" transform="translate(2656 5906)" fill="#aceb9d"/>
    <rect id="사각형_2565" data-name="사각형 2565" width="8" height="8" transform="translate(2664 5922)" fill="#aceb9d"/>
    <rect id="사각형_2566" data-name="사각형 2566" width="8" height="8" transform="translate(2664 5914)" fill="#aceb9d"/>
    <rect id="사각형_2567" data-name="사각형 2567" width="8" height="8" transform="translate(2664 5906)" fill="#aceb9d"/>
    <rect id="사각형_2568" data-name="사각형 2568" width="8" height="8" transform="translate(2664 5898)" fill="#aceb9d"/>
    <rect id="사각형_2569" data-name="사각형 2569" width="8" height="8" transform="translate(2672 5922)" fill="#aceb9d"/>
    <rect id="사각형_2508" data-name="사각형 2508" width="8" height="8" transform="translate(2680 5922)" fill="#aceb9d"/>
    <rect id="사각형_2509" data-name="사각형 2509" width="8" height="8" transform="translate(2688 5922)" fill="#aceb9d"/>
    <rect id="사각형_2444" data-name="사각형 2444" width="8" height="8" transform="translate(2696 5922)" fill="#aceb9d"/>
    <rect id="사각형_2445" data-name="사각형 2445" width="8" height="8" transform="translate(2704 5922)" fill="#aceb9d"/>
    <rect id="사각형_2446" data-name="사각형 2446" width="8" height="8" transform="translate(2712 5922)" fill="#aceb9d"/>
    <rect id="사각형_2447" data-name="사각형 2447" width="8" height="8" transform="translate(2720 5922)" fill="#aceb9d"/>
    <rect id="사각형_2448" data-name="사각형 2448" width="8" height="8" transform="translate(2728 5922)" fill="#aceb9d"/>
    <rect id="사각형_2449" data-name="사각형 2449" width="8" height="8" transform="translate(2736 5922)" fill="#aceb9d"/>
    <rect id="사각형_2570" data-name="사각형 2570" width="8" height="8" transform="translate(2672 5914)" fill="#aceb9d"/>
    <rect id="사각형_2510" data-name="사각형 2510" width="8" height="8" transform="translate(2680 5914)" fill="#aceb9d"/>
    <rect id="사각형_2511" data-name="사각형 2511" width="8" height="8" transform="translate(2688 5914)" fill="#aceb9d"/>
    <rect id="사각형_2450" data-name="사각형 2450" width="8" height="8" transform="translate(2696 5914)" fill="#aceb9d"/>
    <rect id="사각형_2451" data-name="사각형 2451" width="8" height="8" transform="translate(2704 5914)" fill="#aceb9d"/>
    <rect id="사각형_2452" data-name="사각형 2452" width="8" height="8" transform="translate(2712 5914)" fill="#aceb9d"/>
    <rect id="사각형_2453" data-name="사각형 2453" width="8" height="8" transform="translate(2720 5914)" fill="#aceb9d"/>
    <rect id="사각형_2454" data-name="사각형 2454" width="8" height="8" transform="translate(2728 5914)" fill="#aceb9d"/>
    <rect id="사각형_2455" data-name="사각형 2455" width="8" height="8" transform="translate(2736 5914)" fill="#aceb9d"/>
    <rect id="사각형_2571" data-name="사각형 2571" width="8" height="8" transform="translate(2672 5906)" fill="#aceb9d"/>
    <rect id="사각형_2512" data-name="사각형 2512" width="8" height="8" transform="translate(2680 5906)" fill="#aceb9d"/>
    <rect id="사각형_2513" data-name="사각형 2513" width="8" height="8" transform="translate(2688 5906)" fill="#aceb9d"/>
    <rect id="사각형_2456" data-name="사각형 2456" width="8" height="8" transform="translate(2696 5906)" fill="#aceb9d"/>
    <rect id="사각형_2457" data-name="사각형 2457" width="8" height="8" transform="translate(2704 5906)" fill="#aceb9d"/>
    <rect id="사각형_2458" data-name="사각형 2458" width="8" height="8" transform="translate(2712 5906)" fill="#aceb9d"/>
    <rect id="사각형_2459" data-name="사각형 2459" width="8" height="8" transform="translate(2720 5906)" fill="#aceb9d"/>
    <rect id="사각형_2460" data-name="사각형 2460" width="8" height="8" transform="translate(2728 5906)" fill="#aceb9d"/>
    <rect id="사각형_2572" data-name="사각형 2572" width="8" height="8" transform="translate(2672 5898)" fill="#aceb9d"/>
    <rect id="사각형_2514" data-name="사각형 2514" width="8" height="8" transform="translate(2680 5898)" fill="#aceb9d"/>
    <rect id="사각형_2515" data-name="사각형 2515" width="8" height="8" transform="translate(2688 5898)" fill="#aceb9d"/>
    <rect id="사각형_2461" data-name="사각형 2461" width="8" height="8" transform="translate(2696 5898)" fill="#aceb9d"/>
    <rect id="사각형_2462" data-name="사각형 2462" width="8" height="8" transform="translate(2704 5898)" fill="#aceb9d"/>
    <rect id="사각형_2463" data-name="사각형 2463" width="8" height="8" transform="translate(2712 5898)" fill="#aceb9d"/>
    <rect id="사각형_2464" data-name="사각형 2464" width="8" height="8" transform="translate(2720 5898)" fill="#aceb9d"/>
    <rect id="사각형_2687" data-name="사각형 2687" width="8" height="8" transform="translate(2648 5930)" fill="#aceb9d"/>
    <rect id="사각형_2605" data-name="사각형 2605" width="8" height="8" transform="translate(2656 5930)" fill="#333"/>
    <rect id="사각형_2573" data-name="사각형 2573" width="8" height="8" transform="translate(2664 5930)" fill="#aceb9d"/>
    <rect id="사각형_2574" data-name="사각형 2574" width="8" height="8" transform="translate(2672 5930)" fill="#aceb9d"/>
    <rect id="사각형_2516" data-name="사각형 2516" width="8" height="8" transform="translate(2680 5930)" fill="#aceb9d"/>
    <rect id="사각형_2517" data-name="사각형 2517" width="8" height="8" transform="translate(2688 5930)" fill="#aceb9d"/>
    <rect id="사각형_2465" data-name="사각형 2465" width="8" height="8" transform="translate(2696 5930)" fill="#aceb9d"/>
    <rect id="사각형_2466" data-name="사각형 2466" width="8" height="8" transform="translate(2704 5930)" fill="#aceb9d"/>
    <rect id="사각형_2467" data-name="사각형 2467" width="8" height="8" transform="translate(2712 5930)" fill="#333"/>
    <rect id="사각형_2468" data-name="사각형 2468" width="8" height="8" transform="translate(2720 5930)" fill="#aceb9d"/>
    <rect id="사각형_2469" data-name="사각형 2469" width="8" height="8" transform="translate(2728 5930)" fill="#aceb9d"/>
    <rect id="사각형_2470" data-name="사각형 2470" width="8" height="8" transform="translate(2736 5930)" fill="#aceb9d"/>
    <rect id="사각형_2688" data-name="사각형 2688" width="8" height="8" transform="translate(2648 5938)" fill="#aceb9d"/>
    <rect id="사각형_2606" data-name="사각형 2606" width="8" height="8" transform="translate(2656 5938)" fill="#333"/>
    <rect id="사각형_2575" data-name="사각형 2575" width="8" height="8" transform="translate(2664 5938)" fill="#aceb9d"/>
    <rect id="사각형_2576" data-name="사각형 2576" width="8" height="8" transform="translate(2672 5938)" fill="#aceb9d"/>
    <rect id="사각형_2518" data-name="사각형 2518" width="8" height="8" transform="translate(2680 5938)" fill="#aceb9d"/>
    <rect id="사각형_2519" data-name="사각형 2519" width="8" height="8" transform="translate(2688 5938)" fill="#aceb9d"/>
    <rect id="사각형_2471" data-name="사각형 2471" width="8" height="8" transform="translate(2696 5938)" fill="#aceb9d"/>
    <rect id="사각형_2472" data-name="사각형 2472" width="8" height="8" transform="translate(2704 5938)" fill="#aceb9d"/>
    <rect id="사각형_2473" data-name="사각형 2473" width="8" height="8" transform="translate(2712 5938)" fill="#333"/>
    <rect id="사각형_2474" data-name="사각형 2474" width="8" height="8" transform="translate(2720 5938)" fill="#aceb9d"/>
    <rect id="사각형_2475" data-name="사각형 2475" width="8" height="8" transform="translate(2728 5938)" fill="#aceb9d"/>
    <rect id="사각형_2476" data-name="사각형 2476" width="8" height="8" transform="translate(2736 5938)" fill="#aceb9d"/>
    <rect id="사각형_2689" data-name="사각형 2689" width="8" height="8" transform="translate(2648 5946)" fill="#aceb9d"/>
    <rect id="사각형_2607" data-name="사각형 2607" width="8" height="8" transform="translate(2656 5946)" fill="#333"/>
    <rect id="사각형_2577" data-name="사각형 2577" width="8" height="8" transform="translate(2664 5946)" fill="#aceb9d"/>
    <rect id="사각형_2578" data-name="사각형 2578" width="8" height="8" transform="translate(2672 5946)" fill="#aceb9d"/>
    <rect id="사각형_2520" data-name="사각형 2520" width="8" height="8" transform="translate(2680 5946)" fill="#aceb9d"/>
    <rect id="사각형_2521" data-name="사각형 2521" width="8" height="8" transform="translate(2688 5946)" fill="#aceb9d"/>
    <rect id="사각형_2477" data-name="사각형 2477" width="8" height="8" transform="translate(2696 5946)" fill="#aceb9d"/>
    <rect id="사각형_2478" data-name="사각형 2478" width="8" height="8" transform="translate(2704 5946)" fill="#aceb9d"/>
    <rect id="사각형_2479" data-name="사각형 2479" width="8" height="8" transform="translate(2712 5946)" fill="#333"/>
    <rect id="사각형_2480" data-name="사각형 2480" width="8" height="8" transform="translate(2720 5946)" fill="#aceb9d"/>
    <rect id="사각형_2481" data-name="사각형 2481" width="8" height="8" transform="translate(2728 5946)" fill="#aceb9d"/>
    <rect id="사각형_2482" data-name="사각형 2482" width="8" height="8" transform="translate(2736 5946)" fill="#aceb9d"/>
    <rect id="사각형_2483" data-name="사각형 2483" width="8" height="8" transform="translate(2744 5946)" fill="#aceb9d"/>
    <rect id="사각형_2522" data-name="사각형 2522" width="8" height="8" transform="translate(2680 5890)" fill="#aceb9d"/>
    <rect id="사각형_2523" data-name="사각형 2523" width="8" height="8" transform="translate(2688 5890)" fill="#aceb9d"/>
    <rect id="사각형_2484" data-name="사각형 2484" width="8" height="8" transform="translate(2696 5890)" fill="#aceb9d"/>
    <rect id="사각형_2485" data-name="사각형 2485" width="8" height="8" transform="translate(2704 5890)" fill="#aceb9d"/>
    <rect id="사각형_2486" data-name="사각형 2486" width="8" height="8" transform="translate(2712 5890)" fill="#aceb9d"/>
    <rect id="사각형_2524" data-name="사각형 2524" width="8" height="8" transform="translate(2680 5882)" fill="#ffd500"/>
    <rect id="사각형_2525" data-name="사각형 2525" width="8" height="8" transform="translate(2680 5874)" fill="#ffd500"/>
    <rect id="사각형_2526" data-name="사각형 2526" width="8" height="8" transform="translate(2688 5882)" fill="#ffd500"/>
    <rect id="사각형_2527" data-name="사각형 2527" width="8" height="8" transform="translate(2688 5874)" fill="#ffd500"/>
    <rect id="사각형_2579" data-name="사각형 2579" width="8" height="8" transform="translate(2672 5882)" fill="#ffd500"/>
    <rect id="사각형_2487" data-name="사각형 2487" width="8" height="8" transform="translate(2696 5882)" fill="#ffd500"/>
    <rect id="사각형_2488" data-name="사각형 2488" width="8" height="8" transform="translate(2728 5898)" fill="#ffd500"/>
    <rect id="사각형_2489" data-name="사각형 2489" width="8" height="8" transform="translate(2736 5898)" fill="#ffd500"/>
    <rect id="사각형_2490" data-name="사각형 2490" width="8" height="8" transform="translate(2736 5906)" fill="#ffd500"/>
    <path id="패스_437" data-name="패스 437" d="M1704,6224h16v-8h8v24h-8v8h-8v8h-8v8h-8v8h8v8h-24v-8h-8v-8h-48v8h-8v8h-24v-8h8v-40h-16v-8h8v-8h8v-8h-8v-8h-8v-24h8v-32h8v-8h8v-8h8v-8h64v8h8v8h8v8h8v32h8v24h-8v8h-8v8h8Z" transform="translate(1040 -230)" fill="none" stroke="#333" stroke-width="2"/>
    <path id="패스_440" data-name="패스 440" d="M1696,6232v8h8v-8Z" transform="translate(1040 -230)" fill="none" stroke="#333" stroke-width="2"/>
    <path id="패스_441" data-name="패스 441" d="M1704,6232h8v-8" transform="translate(1040 -230)" fill="none" stroke="#333" stroke-width="2"/>
    <path id="패스_438" data-name="패스 438" d="M1632,6120v-8h8v-8h16v8h8v8Z" transform="translate(1040 -230)" fill="none" stroke="#333" stroke-width="2"/>
    <path id="패스_439" data-name="패스 439" d="M1704,6128v16h-8v-8h-8v-8Z" transform="translate(1040 -230)" fill="none" stroke="#333" stroke-width="2"/>
  </g>
</svg>
