<svg xmlns="http://www.w3.org/2000/svg" width="56" height="104" viewBox="0 0 56 104">
  <g id="그룹_503" data-name="그룹 503" transform="translate(-576 -5896)">
    <rect id="사각형_371" data-name="사각형 371" width="8" height="8" transform="translate(576 5912)" fill="#ffbfb1"/>
    <rect id="사각형_387" data-name="사각형 387" width="8" height="8" transform="translate(576 5976)" fill="#ffbfb1"/>
    <rect id="사각형_372" data-name="사각형 372" width="8" height="8" transform="translate(584 5912)" fill="#ffbfb1"/>
    <rect id="사각형_397" data-name="사각형 397" width="8" height="8" transform="translate(592 5912)" fill="#ffbfb1"/>
    <rect id="사각형_389" data-name="사각형 389" width="8" height="8" transform="translate(576 5904)" fill="#ffbfb1"/>
    <rect id="사각형_402" data-name="사각형 402" width="8" height="8" transform="translate(576 5896)" fill="#ffbfb1"/>
    <rect id="사각형_396" data-name="사각형 396" width="8" height="8" transform="translate(584 5904)" fill="#ffbfb1"/>
    <rect id="사각형_388" data-name="사각형 388" width="8" height="8" transform="translate(584 5976)" fill="#ffbfb1"/>
    <rect id="사각형_394" data-name="사각형 394" width="8" height="8" transform="translate(592 5976)" fill="#ffbfb1"/>
    <rect id="사각형_390" data-name="사각형 390" width="8" height="8" transform="translate(576 5984)" fill="#ffbfb1"/>
    <rect id="사각형_403" data-name="사각형 403" width="8" height="8" transform="translate(576 5992)" fill="#ffbfb1"/>
    <rect id="사각형_395" data-name="사각형 395" width="8" height="8" transform="translate(584 5984)" fill="#ffbfb1"/>
    <rect id="사각형_373" data-name="사각형 373" width="8" height="8" transform="translate(584 5920)" fill="#ffbfb1"/>
    <rect id="사각형_385" data-name="사각형 385" width="8" height="8" transform="translate(584 5968)" fill="#ffbfb1"/>
    <rect id="사각형_375" data-name="사각형 375" width="8" height="8" transform="translate(592 5928)" fill="#ffbfb1"/>
    <rect id="사각형_383" data-name="사각형 383" width="8" height="8" transform="translate(592 5960)" fill="#ffbfb1"/>
    <rect id="사각형_377" data-name="사각형 377" width="8" height="8" transform="translate(600 5936)" fill="#ffbfb1"/>
    <rect id="사각형_381" data-name="사각형 381" width="8" height="8" transform="translate(600 5952)" fill="#ffbfb1"/>
    <rect id="사각형_379" data-name="사각형 379" width="8" height="8" transform="translate(608 5944)" fill="#ffbfb1"/>
    <rect id="사각형_374" data-name="사각형 374" width="8" height="8" transform="translate(592 5920)" fill="#ffbfb1"/>
    <rect id="사각형_398" data-name="사각형 398" width="8" height="8" transform="translate(600 5920)" fill="#ffbfb1"/>
    <rect id="사각형_386" data-name="사각형 386" width="8" height="8" transform="translate(592 5968)" fill="#ffbfb1"/>
    <rect id="사각형_393" data-name="사각형 393" width="8" height="8" transform="translate(600 5968)" fill="#ffbfb1"/>
    <rect id="사각형_376" data-name="사각형 376" width="8" height="8" transform="translate(600 5928)" fill="#ffbfb1"/>
    <rect id="사각형_399" data-name="사각형 399" width="8" height="8" transform="translate(608 5928)" fill="#ffbfb1"/>
    <rect id="사각형_384" data-name="사각형 384" width="8" height="8" transform="translate(600 5960)" fill="#ffbfb1"/>
    <rect id="사각형_392" data-name="사각형 392" width="8" height="8" transform="translate(608 5960)" fill="#ffbfb1"/>
    <rect id="사각형_378" data-name="사각형 378" width="8" height="8" transform="translate(608 5936)" fill="#ffbfb1"/>
    <rect id="사각형_400" data-name="사각형 400" width="8" height="8" transform="translate(616 5936)" fill="#ffbfb1"/>
    <rect id="사각형_382" data-name="사각형 382" width="8" height="8" transform="translate(608 5952)" fill="#ffbfb1"/>
    <rect id="사각형_380" data-name="사각형 380" width="8" height="8" transform="translate(616 5944)" fill="#ffbfb1"/>
    <rect id="사각형_401" data-name="사각형 401" width="8" height="8" transform="translate(624 5944)" fill="#ffbfb1"/>
    <rect id="사각형_391" data-name="사각형 391" width="8" height="8" transform="translate(616 5952)" fill="#ffbfb1"/>
  </g>
</svg>
