<svg xmlns="http://www.w3.org/2000/svg" width="144" height="176" viewBox="0 0 144 176">
  <g id="그룹_523" data-name="그룹 523" transform="translate(-1280 -5816)">
    <path id="합치기_25" data-name="합치기 25" d="M112,176v0H96v-8H88v-8H80v-8h0v-8h0v-8h0v-8h0v-8h0v0H72v0h0v8h0v8h0v8h0v8h0v8H56v-8h0v-8h0v-8h0v-8h0v-8h0v0H48V104h8v0h8v0h8v0h0V96h8v0h8v8h0V96h8v0h8v24H96v0h0v8h0v8h0v8h0v8h0v0h8v0h8v16h8v8Zm-8-8v0Zm-80,8H8v-8h8v-8h0v-8H32v8h0v8h0v8Zm8-8V152h8v16Zm80-8v-8h8v8Zm-40,0v-8h8v8Zm-24,0v-8h8v8Zm-8,0v-8h8v8Zm80-8V128h-8v-8h8v0h16v24h-8v8Zm-8,0V136h8v16Zm-8,0v-8h8v8Zm-8,0v-8h8v8Zm-24,0v-8h8v8Zm-24,0v-8h8v8Zm-8,0v-8h8v8Zm-8,0v-8h8v8Zm-8,0H16V136h0v-8h0v-8H8v-8H32v8h0v8h0v8h0v8h0v8Zm80-8v-8h8v8Zm-8,0v-8h8v8Zm-24,0v-8h8v8Zm-24,0v-8h8v8Zm-8,0v-8h8v8Zm-8,0v-8h8v8Zm104-8V120h8v16Zm-32,0v-8h8v8Zm-8,0v-8h8v8Zm-24,0v-8h8v8Zm-24,0v-8h8v8Zm-8,0v-8h8v8Zm-8,0v-8h8v8Zm72-8v-8h8v8Zm-8,0v-8h8v8Zm-24,0v-8h8v8Zm-24,0v-8h8v8Zm-8,0v-8h8v8Zm-8,0v-8h8v8ZM8,128v-8h8v8Zm-8,0v-8H8v8Zm136-8v-8h8v8Zm-24,0v0h-8V104h8v8h8v8Zm-72,0v-8h8v8Zm-8,0V104h8v16Zm8-8V96h8v16Zm-16,0v-8h8v8Zm-8,0v-8h8v8Zm96-8V96h8v8Zm-8,0V96h8v8Zm-40,0V96h8v8Zm-8,0V96h8v8Zm-8,0V96h8v8Zm-16,0V96h8v8Zm-8,0v0H16V48h8V72h8v0h8v0h8v0h8v0h8v0h8v0h8v0h8v0h8v0h8v0h8v0h8v0h8V96h-8v0h-8v0h-8v0H96v0H88v0H80v0H72v0H64v0H56v0H48v0H40v0H32v8Zm0-8v0Zm96-8v0Zm-8,0v0Zm-8,0v0Zm-8,0v0Zm-8,0v0Zm-8,0v0Zm-8,0v0Zm-8,0v0Zm-8,0v0Zm-8,0v0Zm-8,0v0Zm-8,0v0Zm-8,0v0ZM8,104V96h8v8Zm0-8V88h8v8ZM0,96V88H8v8Zm8-8V80h8v8ZM0,88V80H8v8Zm8-8H0V72H16v8Zm104-8V64h8v8Zm-8,0V64h8v8Zm-8,0V64h8v8Zm-8,0V64h8v8Zm-8,0V64h8v8Zm-8,0V64h8v8Zm-8,0V64h8v8Zm-8,0V64h8v8Zm-8,0V64h8v8Zm-8,0V64h8v8Zm-8,0V64h8v8Zm-8,0V64h8v8ZM8,72V64h8v8Zm104-8V56h8v8Zm-8,0V56h8v8Zm-8,0V56h8v8Zm-8,0V56h8v8Zm-8,0V56h8v8Zm-8,0V56h8v8Zm-8,0V56h8v8Zm-8,0V56h8v8Zm-8,0V56h8v8Zm-8,0V56h8v8Zm-8,0V56h8v8Zm-8,0V56h8v8ZM8,64V56h8v8Zm104-8v0h-8v0H96v0H88v0H80v0H72v0H64v0H56v0H48V24h8v0H32V16H48V8h8V0h8V0h8V8h8v8h8v0h8v8h8v0h8v8h8V56Zm0-8v0Zm-8,0v0Zm-8,0v0Zm-8,0v0Zm-8,0v0Zm-8,0v0Zm-8,0v0Zm-8,0v0Zm48-8v0Zm-8,0v0Zm-8,0v0Zm-8,0v0Zm-8,0v0Zm-8,0v0Zm-8,0v0Zm40-8v0Zm-8,0v0Zm-8,0v0Zm-8,0v0Zm-8,0v0Zm16-8v0Zm-8,0v0Zm-8,0v0ZM40,56V24h8V56Zm-8,0V32h8V56Zm-8,0V40h8V56ZM8,56V48h8v8Zm8-8H8V40H24v8Zm8-8H16V32H32v8Zm88-8V24h8v8ZM32,32H24V24H40v8Z" transform="translate(1280 5816)" fill="#ccc"/>
    <g id="그룹_515" data-name="그룹 515" transform="translate(400 -120)">
      <rect id="사각형_2248" data-name="사각형 2248" width="8" height="8" transform="translate(920 6008)" fill="#fff"/>
      <rect id="사각형_2249" data-name="사각형 2249" width="8" height="8" transform="translate(920 6000)" fill="#fff"/>
      <rect id="사각형_2250" data-name="사각형 2250" width="8" height="8" transform="translate(928 5992)" fill="#fff"/>
      <rect id="사각형_2251" data-name="사각형 2251" width="8" height="8" transform="translate(936 5992)" fill="#fff"/>
      <rect id="사각형_2252" data-name="사각형 2252" width="8" height="8" transform="translate(944 5992)" fill="#fff"/>
      <rect id="사각형_2253" data-name="사각형 2253" width="8" height="8" transform="translate(952 6000)" fill="#fff"/>
      <rect id="사각형_2254" data-name="사각형 2254" width="8" height="8" transform="translate(952 6008)" fill="#fff"/>
      <rect id="사각형_2255" data-name="사각형 2255" width="8" height="8" transform="translate(952 6016)" fill="#fff"/>
      <rect id="사각형_2256" data-name="사각형 2256" width="8" height="8" transform="translate(944 6024)" fill="#fff"/>
      <rect id="사각형_2257" data-name="사각형 2257" width="8" height="8" transform="translate(936 6024)" fill="#fff"/>
      <rect id="사각형_2258" data-name="사각형 2258" width="8" height="8" transform="translate(936 6032)" fill="#fff"/>
      <rect id="사각형_2259" data-name="사각형 2259" width="8" height="8" transform="translate(936 6040)" fill="#fff"/>
      <rect id="사각형_2260" data-name="사각형 2260" width="8" height="8" transform="translate(936 6056)" fill="#fff"/>
    </g>
  </g>
</svg>
