<svg xmlns="http://www.w3.org/2000/svg" width="296" height="176" viewBox="0 0 296 176">
  <g id="그룹_538" data-name="그룹 538" transform="translate(-968 -781)">
    <rect id="사각형_244" data-name="사각형 244" width="296" height="176" transform="translate(968 781)" fill="#fff"/>
    <text id="티켓" transform="translate(1116 935)" fill="#333" font-size="20" font-family="MalgunGothic, Malgun Gothic"><tspan x="-20" y="0">티켓</tspan></text>
    <g id="b" transform="translate(1065 817)">
      <g id="c">
        <g id="그룹_317" data-name="그룹 317">
          <path id="패스_353" data-name="패스 353" d="M90.055,47.678H4.31V42.861H85.239V4.31h4.817Z" transform="translate(2.924 2.924)" fill="#e56353"/>
          <path id="패스_354" data-name="패스 354" d="M95.662,53.285H9.9V48.468H90.845V9.9h4.817Z" transform="translate(6.715 6.715)" fill="#e56353"/>
          <path id="패스_355" data-name="패스 355" d="M63,0a3.793,3.793,0,0,1-3.793,3.759A3.793,3.793,0,0,1,55.418,0H0V40.968H55.452a3.7,3.7,0,0,1-.067-.6,3.81,3.81,0,0,1,7.62,0,3.7,3.7,0,0,1-.067.6H83.345V0Z" fill="#e56353"/>
          <g id="그룹_316" data-name="그룹 316" transform="translate(7.871 12.839)">
            <path id="패스_356" data-name="패스 356" d="M12.7,11.267v9.1c0,1.225-.7,1.846-2.1,1.846s-2.1-.621-2.1-1.846v-9.1H6.385a1.491,1.491,0,0,1-1.7-1.678,1.491,1.491,0,0,1,1.7-1.678h8.442a1.491,1.491,0,0,1,1.7,1.678,1.491,1.491,0,0,1-1.7,1.678H12.7Z" transform="translate(-4.69 -7.474)" fill="#fff"/>
            <path id="패스_357" data-name="패스 357" d="M16.466,20.346c0,1.225-.7,1.846-2.1,1.846s-2.1-.621-2.1-1.846V9.756c0-1.225.7-1.846,2.1-1.846s2.1.621,2.1,1.846Z" transform="translate(0.452 -7.474)" fill="#fff"/>
            <path id="패스_358" data-name="패스 358" d="M28.569,19.8c0,.5-.4,1.091-1.208,1.729s-2.316.957-4.5.957a7.558,7.558,0,0,1-5.421-2.048,7.129,7.129,0,0,1-2.131-5.354,7.18,7.18,0,0,1,2.115-5.371A7.471,7.471,0,0,1,22.879,7.65c2.232,0,3.726.319,4.515.957s1.175,1.225,1.175,1.729a2.037,2.037,0,0,1-.5,1.359,1.493,1.493,0,0,1-1.108.6,6.506,6.506,0,0,1-1.93-.47,6.95,6.95,0,0,0-1.98-.47c-2.366,0-3.558,1.225-3.558,3.692s1.192,3.692,3.558,3.692a6.515,6.515,0,0,0,1.98-.47,6.394,6.394,0,0,1,1.93-.47,1.44,1.44,0,0,1,1.108.6,2.068,2.068,0,0,1,.5,1.359Z" transform="translate(2.514 -7.65)" fill="#fff"/>
            <path id="패스_359" data-name="패스 359" d="M31.9,15.016l3.441,3.81a2.43,2.43,0,0,1,.738,1.51,1.706,1.706,0,0,1-.655,1.276,2.1,2.1,0,0,1-1.393.587,2.207,2.207,0,0,1-1.544-.873l-4.464-4.85v3.877c0,1.225-.7,1.846-2.1,1.846s-2.1-.621-2.1-1.846V9.763c0-1.225.7-1.846,2.1-1.846s2.1.621,2.1,1.846V13.59L32.49,8.773A2.207,2.207,0,0,1,34.034,7.9a2.073,2.073,0,0,1,1.393.571,1.68,1.68,0,0,1,.655,1.276,2.355,2.355,0,0,1-.738,1.51L31.9,15.05Z" transform="translate(8.293 -7.48)" fill="#fff"/>
            <path id="패스_360" data-name="패스 360" d="M33.768,22.193c-1.393,0-2.1-.621-2.1-1.846V9.756c0-1.225.7-1.846,2.1-1.846h5.069c1.091,0,1.628.554,1.628,1.678s-.537,1.678-1.628,1.678H35.849v2.048H38.4c1.091,0,1.628.571,1.628,1.7s-.537,1.7-1.628,1.7H35.849v2.115h2.987c1.091,0,1.628.554,1.628,1.678s-.537,1.678-1.628,1.678H33.768Z" transform="translate(13.611 -7.474)" fill="#fff"/>
            <path id="패스_361" data-name="패스 361" d="M45.446,11.267v9.1c0,1.225-.7,1.846-2.1,1.846s-2.1-.621-2.1-1.846v-9.1H39.135a1.491,1.491,0,0,1-1.7-1.678,1.491,1.491,0,0,1,1.7-1.678h8.442a1.491,1.491,0,0,1,1.7,1.678,1.491,1.491,0,0,1-1.7,1.678Z" transform="translate(17.525 -7.474)" fill="#fff"/>
          </g>
        </g>
      </g>
    </g>
  </g>
</svg>
