<svg xmlns="http://www.w3.org/2000/svg" width="296" height="176" viewBox="0 0 296 176">
  <g id="그룹_534" data-name="그룹 534" transform="translate(-968 -589)">
    <rect id="사각형_240" data-name="사각형 240" width="296" height="176" transform="translate(968 589)" fill="#fff"/>
    <text id="기념일" transform="translate(1116 743)" fill="#333" font-size="20" font-family="MalgunGothic, Malgun Gothic"><tspan x="-30" y="0">기념일</tspan></text>
    <g id="b" transform="translate(1085.02 611)">
      <g id="c" transform="translate(-0.02)">
        <path id="패스_324" data-name="패스 324" d="M12.31,28.789a5.8,5.8,0,0,1,8.174,0,2.767,2.767,0,0,0,3.837,0,5.8,5.8,0,0,1,8.174,0,2.767,2.767,0,0,0,3.837,0,5.8,5.8,0,0,1,8.174,0,2.8,2.8,0,0,0,3.837,0,5.718,5.718,0,0,1,3.493-1.632A8.088,8.088,0,0,0,43.79,19.67H13.026A8.074,8.074,0,0,0,4.98,27.2a5.671,5.671,0,0,1,3.507,1.589,2.713,2.713,0,0,0,3.837,0Z" transform="translate(2.178 8.489)" fill="#e56353"/>
        <path id="패스_325" data-name="패스 325" d="M46.436,29.489A5.785,5.785,0,0,1,42.342,27.8a2.713,2.713,0,0,0-3.837,0,5.92,5.92,0,0,1-8.174,0,2.713,2.713,0,0,0-3.837,0,5.906,5.906,0,0,1-8.174,0,2.713,2.713,0,0,0-3.837,0,5.906,5.906,0,0,1-8.174,0,2.66,2.66,0,0,0-1.389-.687V41.371H51.9V27.112a2.66,2.66,0,0,0-1.389.687,5.752,5.752,0,0,1-4.08,1.689Z" transform="translate(2.152 11.655)" fill="#fcd462"/>
        <path id="패스_326" data-name="패스 326" d="M56.485,48.56a2.713,2.713,0,0,0-3.837,0,5.752,5.752,0,0,1-4.08,1.689,5.81,5.81,0,0,1-4.094-1.689,2.713,2.713,0,0,0-3.837,0,5.92,5.92,0,0,1-8.174,0,2.713,2.713,0,0,0-3.837,0,5.906,5.906,0,0,1-8.174,0,2.713,2.713,0,0,0-3.837,0,5.906,5.906,0,0,1-8.174,0,2.713,2.713,0,0,0-3.837,0A5.787,5.787,0,0,1-.02,50.206V67.385H61.109V50.206A5.724,5.724,0,0,1,56.485,48.56Z" transform="translate(0.02 20.615)" fill="#fcd462"/>
        <path id="패스_327" data-name="패스 327" d="M2.448,50.218a5.906,5.906,0,0,1,8.174,0,2.713,2.713,0,0,0,3.837,0,5.8,5.8,0,0,1,8.174,0,2.767,2.767,0,0,0,3.837,0,5.8,5.8,0,0,1,8.174,0,2.767,2.767,0,0,0,3.837,0,5.8,5.8,0,0,1,8.174,0,2.8,2.8,0,0,0,3.837,0,5.8,5.8,0,0,1,8.174,0,2.657,2.657,0,0,0,2.448.687V46.983a8.1,8.1,0,0,0-8.1-8.1H8.1a8.1,8.1,0,0,0-8.1,8.1v3.923A2.7,2.7,0,0,0,2.448,50.218Z" transform="translate(0.029 16.78)" fill="#e56353"/>
        <rect id="사각형_246" data-name="사각형 246" width="5.211" height="12.67" transform="translate(27.973 12.67)" fill="#00b700"/>
        <path id="패스_328" data-name="패스 328" d="M26.072,6.585a3.636,3.636,0,1,1-7.272,0c0-2,1.632-6.585,3.636-6.585s3.636,4.581,3.636,6.585Z" transform="translate(8.143)" fill="#e56353"/>
      </g>
    </g>
  </g>
</svg>
