<svg xmlns="http://www.w3.org/2000/svg" width="296" height="176" viewBox="0 0 296 176">
  <g id="그룹_532" data-name="그룹 532" transform="translate(-344 -589)">
    <rect id="사각형_238" data-name="사각형 238" width="296" height="176" transform="translate(344 589)" fill="#fff"/>
    <text id="동호회_대관" data-name="동호회 대관" transform="translate(440 743)" fill="#333" font-size="20" font-family="MalgunGothic, Malgun Gothic"><tspan x="0" y="0">동호회</tspan><tspan y="0" font-family="NotoSans, Noto Sans"> </tspan><tspan y="0">대관</tspan></text>
    <g id="b" transform="translate(446 611.596)">
      <g id="c" transform="translate(0 -0.596)">
        <g id="그룹_308" data-name="그룹 308" transform="translate(0 0)">
          <g id="그룹_307" data-name="그룹 307" transform="translate(4.224)">
            <path id="패스_329" data-name="패스 329" d="M2.726,0H6.584A2.746,2.746,0,0,1,9.328,2.743V43.682H0V2.743A2.746,2.746,0,0,1,2.743,0Z" transform="translate(81.383 0) rotate(45)" fill="#fcd462"/>
            <path id="패스_330" data-name="패스 330" d="M60.5,19.1a19.12,19.12,0,0,0-27.292-.248q-.584.584-1.115,1.221A17.313,17.313,0,0,1,22.57,26.1,25.614,25.614,0,1,0,46.11,69.238a25.239,25.239,0,0,0,6.974-13.062,15.284,15.284,0,0,1,5.646-8.9,18.249,18.249,0,0,0,2.248-2.142A19.327,19.327,0,0,0,60.5,19.078ZM41.774,49.309a8.46,8.46,0,1,1,0-11.965A8.45,8.45,0,0,1,41.774,49.309Z" transform="translate(-2.386 11.252)" fill="#dc8744"/>
            <rect id="사각형_247" data-name="사각형 247" width="16.124" height="3.097" transform="translate(75.346 1.196) rotate(45)" fill="#fcd462"/>
            <rect id="사각형_248" data-name="사각형 248" width="16.124" height="3.097" transform="translate(71.629 4.913) rotate(45)" fill="#fcd462"/>
          </g>
          <path id="패스_331" data-name="패스 331" d="M26.231,20.337h0V0L8.744,2.92V21.062a7.812,7.812,0,0,0-4.885.991C.9,23.646-.708,26.443.3,28.284c.991,1.841,4.212,2.053,7.168.442,2.584-1.4,4.124-3.681,3.823-5.469h0V9.752L23.7,7.682v10.46a7.812,7.812,0,0,0-4.885.991c-2.956,1.593-4.566,4.389-3.558,6.23.991,1.841,4.212,2.053,7.168.442,2.584-1.4,4.124-3.681,3.823-5.469Z" transform="translate(0 1.055)" fill="#ffe7b3"/>
        </g>
      </g>
    </g>
  </g>
</svg>
