<svg xmlns="http://www.w3.org/2000/svg" width="296" height="176" viewBox="0 0 296 176">
  <g id="그룹_537" data-name="그룹 537" transform="translate(-656 -781)">
    <rect id="사각형_243" data-name="사각형 243" width="296" height="176" transform="translate(656 781)" fill="#fff"/>
    <text id="행사_대관" data-name="행사 대관" transform="translate(804 935)" fill="#333" font-size="20" font-family="MalgunGothic, Malgun Gothic"><tspan x="-42.6" y="0">행사</tspan><tspan y="0" font-family="NotoSans, Noto Sans"> </tspan><tspan y="0">대관</tspan></text>
    <g id="b" transform="translate(763.35 803.001)">
      <g id="c" transform="translate(0.01 -0.001)">
        <g id="그룹_313" data-name="그룹 313">
          <path id="패스_342" data-name="패스 342" d="M23.236,48.976H13.85a7.794,7.794,0,0,1,2.728-5.931l1.957-1.675,1.957,1.675a7.793,7.793,0,0,1,2.728,5.931h0Z" transform="translate(6.671 19.971)" fill="#e56353"/>
          <rect id="사각형_255" data-name="사각형 255" width="3.692" height="17.333" transform="translate(23.368 70.667)" fill="#d5d6db"/>
          <path id="패스_343" data-name="패스 343" d="M62.73.074A15.779,15.779,0,0,0,45.4,15.776,15.774,15.774,0,0,0,28.079.074C19.88.86,13.86,8.215,13.86,16.458A29.854,29.854,0,0,0,23.1,38.106L45.412,59.5l22.315-21.4a30,30,0,0,0,9.237-21.648C76.964,8.289,70.93.86,62.73.074Z" transform="translate(6.676 0.001)" fill="#ffb7b3"/>
          <path id="패스_344" data-name="패스 344" d="M42.913,46.434H31.17A9.73,9.73,0,0,1,34.6,39.021l2.446-2.091,2.446,2.091a9.78,9.78,0,0,1,3.425,7.414h0Z" transform="translate(15.031 17.828)" fill="#ffb7b3"/>
          <rect id="사각형_256" data-name="사각형 256" width="3.692" height="21.618" transform="translate(50.234 66.382)" fill="#d5d6db"/>
          <path id="패스_345" data-name="패스 345" d="M27.559,34.708a33.358,33.358,0,0,1-10.112-21.9,12.523,12.523,0,0,0-6.064-.919C4.829,12.512.01,18.4.01,24.981A23.925,23.925,0,0,0,7.394,42.3L25.246,59.41,39.3,45.932,27.574,34.693Z" transform="translate(-0.01 5.712)" fill="#e56353"/>
        </g>
      </g>
    </g>
  </g>
</svg>
