<svg xmlns="http://www.w3.org/2000/svg" width="296" height="176" viewBox="0 0 296 176">
  <g id="그룹_536" data-name="그룹 536" transform="translate(-344 -781)">
    <rect id="사각형_242" data-name="사각형 242" width="296" height="176" transform="translate(344 781)" fill="#fff"/>
    <text id="외식" transform="translate(492 935)" fill="#333" font-size="20" font-family="MalgunGothic, Malgun Gothic"><tspan x="-20" y="0">외식</tspan></text>
    <g id="b" transform="translate(448 803)">
      <g id="c">
        <g id="그룹_312" data-name="그룹 312">
          <path id="패스_336" data-name="패스 336" d="M21.71,21.12Z" transform="translate(15.322 14.906)" fill="#fcd462"/>
          <path id="패스_337" data-name="패스 337" d="M21.71,21.12Z" transform="translate(15.322 14.906)" fill="#fcd462"/>
          <path id="패스_338" data-name="패스 338" d="M65.444,62.226A87.7,87.7,0,0,0,39.67,0L31.96,7.71A76.591,76.591,0,0,1,54.544,62.226h10.9Z" transform="translate(22.556)" fill="#dc8744"/>
          <path id="패스_339" data-name="패스 339" d="M72.1,57.582H47.9a4.564,4.564,0,0,0-4.554,4.554v4.708a4.537,4.537,0,1,1-9.075,0V62.137a4.537,4.537,0,1,0-9.075,0V78.2a4.554,4.554,0,0,1-9.109,0V62.137a4.535,4.535,0,0,0-4.52-4.554H0L33.041,24.508,50.985,6.58A71.966,71.966,0,0,1,69.851,39.552,68.5,68.5,0,0,1,71.744,50.23a69.877,69.877,0,0,1,.375,7.369Z" transform="translate(0 4.644)" fill="#fcd462"/>
          <path id="패스_340" data-name="패스 340" d="M36.581,17.471A9.3,9.3,0,0,1,19.37,22.4L32.18,9.59A9.257,9.257,0,0,1,36.581,17.471Z" transform="translate(13.671 6.768)" fill="#e56353"/>
          <path id="패스_341" data-name="패스 341" d="M44.781,37.964a6.966,6.966,0,0,1-.495,2.61H30.675a6.966,6.966,0,0,1-.495-2.61,7.3,7.3,0,0,1,14.6,0Z" transform="translate(21.3 21.653)" fill="#e56353"/>
          <circle id="타원_103" data-name="타원 103" cx="5.441" cy="5.441" r="5.441" transform="translate(27.139 42.712)" fill="#e56353"/>
        </g>
      </g>
    </g>
  </g>
</svg>
