<svg xmlns="http://www.w3.org/2000/svg" width="26" height="24.26" viewBox="0 0 26 24.26">
  <g id="그룹_938" data-name="그룹 938" transform="translate(1 1)">
    <g id="그룹_459" data-name="그룹 459" transform="translate(5.028 5.362)">
      <g id="그룹_458" data-name="그룹 458">
        <path id="패스_710" data-name="패스 710" d="M70.251,140.457a1.451,1.451,0,0,0-.928.429v-1.73H68.232V143.7h1.1v-.357a1.047,1.047,0,0,0,.917.47,1.609,1.609,0,0,0,1.538-1.7S71.732,140.457,70.251,140.457Zm-.241,2.4a.7.7,0,1,1,.7-.7A.7.7,0,0,1,70.01,142.856Z" transform="translate(-68.232 -139.054)" fill="#333"/>
        <path id="패스_711" data-name="패스 711" d="M72.139,139.054v1.052s.5-.022.5.9V143.7h1.052v-2.941S73.734,139.054,72.139,139.054Z" transform="translate(-68.232 -139.054)" fill="#333"/>
        <path id="패스_712" data-name="패스 712" d="M76.261,140.471s-1.8,0-1.8,1.684a1.629,1.629,0,0,0,1.8,1.661s1.844,0,1.844-1.661A1.657,1.657,0,0,0,76.261,140.471Zm0,2.385a.7.7,0,1,1,.7-.7A.7.7,0,0,1,76.261,142.856Z" transform="translate(-68.232 -139.054)" fill="#333"/>
        <path id="패스_713" data-name="패스 713" d="M81.116,140.581v.305a1.194,1.194,0,0,0-.916-.415,1.5,1.5,0,0,0-1.543,1.672s-.018,1.619,1.5,1.619a1.248,1.248,0,0,0,.958-.416v.255a.693.693,0,0,1-.695.8h-.263v.967h.424a1.584,1.584,0,0,0,1.594-1.705v-3.079Zm-.652,2.275a.7.7,0,1,1,.7-.7A.7.7,0,0,1,80.464,142.856Z" transform="translate(-68.232 -139.054)" fill="#333"/>
      </g>
    </g>
    <path id="패스_714" data-name="패스 714" d="M85.152,134.415H67.574a3.21,3.21,0,0,0-3.211,3.21v10.433a3.211,3.211,0,0,0,3.211,3.211h6.209l2.111,4.974s.146.432.5.432h0c.352,0,.5-.432.5-.432L79,151.269h6.151a3.211,3.211,0,0,0,3.211-3.211V137.625a3.3,3.3,0,0,0-2.533-3.138A2.528,2.528,0,0,0,85.152,134.415Z" transform="translate(-64.363 -134.415)" fill="none" stroke="#333" stroke-miterlimit="10" stroke-width="2"/>
  </g>
</svg>
